<svg width="680" height="174" viewBox="0 0 680 174" fill="none" xmlns="http://www.w3.org/2000/svg">
<path d="M66.5 48.2C64.7667 56.4667 60.9333 62.9667 55 67.7C49.1333 72.3667 41.9333 74.7 33.4 74.7C24.0667 74.7 16.7667 71.9667 11.5 66.5C6.23333 60.9667 3.6 53.3 3.6 43.5C3.6 35.7667 5.1 28.6667 8.1 22.2C11.1 15.6667 15.6 10.3667 21.6 6.29999C27.6 2.23333 34.5333 0.199996 42.4 0.199996C50.6667 0.199996 57.3 2.4 62.3 6.79999C67.3 11.2 69.8 17.0333 69.8 24.3V25.6H57.7C57.5 20.4 56.0667 16.6 53.4 14.2C50.7333 11.7333 46.7333 10.5 41.4 10.5C37.3333 10.5 33.6333 11.5333 30.3 13.6C26.9667 15.6 24.2667 18.2333 22.2 21.5C20.2 24.7 18.6667 28.2 17.6 32C16.5333 35.8 16 39.6333 16 43.5C16 50.1 17.5667 55.2667 20.7 59C23.9 62.6667 28.3333 64.5 34 64.5C39.0667 64.5 43.3 63.1 46.7 60.3C50.1667 57.4333 52.5667 53.4 53.9 48.2H66.5ZM145.068 30.9C145.068 38.9 143.535 46.2 140.468 52.8C137.468 59.4 132.935 64.7333 126.868 68.8C120.868 72.8667 113.901 74.9 105.968 74.9C96.4346 74.9 88.968 72.1 83.568 66.5C78.168 60.9 75.468 53.1667 75.468 43.3C75.468 31.1667 79.0346 21 86.168 12.8C93.368 4.53333 102.935 0.399999 114.868 0.399999C124.135 0.399999 131.468 3.16667 136.868 8.7C142.335 14.1667 145.068 21.5667 145.068 30.9ZM114.068 10.8C108.401 10.8 103.535 12.4667 99.468 15.8C95.4013 19.1333 92.4346 23.2333 90.568 28.1C88.768 32.9 87.868 38.0333 87.868 43.5C87.868 50.0333 89.5346 55.2 92.868 59C96.2013 62.7333 100.801 64.6 106.668 64.6C112.201 64.6 116.968 62.8333 120.968 59.3C125.035 55.7 127.968 51.4333 129.768 46.5C131.568 41.5 132.468 36.3333 132.468 31C132.468 24.7333 130.935 19.8 127.868 16.2C124.801 12.6 120.201 10.8 114.068 10.8ZM237.047 1.8L221.947 73H210.047L216.847 41.9C219.247 30.8333 221.747 20.8333 224.347 11.9C220.347 19.8333 216.58 26.9667 213.047 33.3L190.347 73H180.147L173.747 31.5C172.48 23.3667 171.78 16.8667 171.647 12C170.914 18.2667 169.08 28.5333 166.147 42.8L159.947 73H147.947L163.147 1.8H180.347L185.947 40.8C187.08 48.8667 187.647 55.2667 187.647 60C191.247 51.7333 194.18 45.6333 196.447 41.7L219.447 1.8H237.047ZM325.914 1.8L310.814 73H298.914L305.714 41.9C308.114 30.8333 310.614 20.8333 313.214 11.9C309.214 19.8333 305.447 26.9667 301.914 33.3L279.214 73H269.014L262.614 31.5C261.347 23.3667 260.647 16.8667 260.514 12C259.781 18.2667 257.947 28.5333 255.014 42.8L248.814 73H236.814L252.014 1.8H269.214L274.814 40.8C275.947 48.8667 276.514 55.2667 276.514 60C280.114 51.7333 283.047 45.6333 285.314 41.7L308.314 1.8H325.914ZM392.681 1.8L390.481 12.2H351.181L347.181 31.3H383.681L381.681 41.3H345.081L340.581 62.6H380.481L378.181 73H325.881L340.981 1.8H392.681ZM403.87 1.8H432.27C437.27 1.8 441.236 2.13333 444.17 2.8C448.17 3.73333 451.27 5.73333 453.47 8.8C455.736 11.8 456.87 15.5 456.87 19.9C456.87 25.0333 455.436 29.3667 452.57 32.9C449.703 36.3667 445.803 38.5333 440.87 39.4C443.536 40.5333 445.403 42.0333 446.47 43.9C447.603 45.7667 448.17 48.4 448.17 51.8C448.17 52.2667 448.036 54.4667 447.77 58.4C447.503 62.3333 447.37 65.2667 447.37 67.2C447.37 69.6 447.736 71.5333 448.47 73H435.87C435.336 71.8667 435.07 70.1333 435.07 67.8C435.07 66.7333 435.236 64.3 435.57 60.5C435.97 56.6333 436.17 54.0667 436.17 52.8C436.17 48.8667 435.236 46.3667 433.37 45.3C431.503 44.2333 428.336 43.7 423.87 43.7H407.47L401.27 73H388.87L403.87 1.8ZM414.17 12L409.47 34.3H429.17C433.57 34.3 436.936 33.5333 439.27 32C442.736 29.6 444.47 26.1 444.47 21.5C444.47 19.4333 444.07 17.7333 443.27 16.4C442.536 15.0667 441.436 14.1 439.97 13.5C438.503 12.9 437.036 12.5 435.57 12.3C434.17 12.1 432.436 12 430.37 12H414.17ZM525.68 48.2C523.946 56.4667 520.113 62.9667 514.18 67.7C508.313 72.3667 501.113 74.7 492.58 74.7C483.246 74.7 475.946 71.9667 470.68 66.5C465.413 60.9667 462.78 53.3 462.78 43.5C462.78 35.7667 464.28 28.6667 467.28 22.2C470.28 15.6667 474.78 10.3667 480.78 6.29999C486.78 2.23333 493.713 0.199996 501.58 0.199996C509.846 0.199996 516.48 2.4 521.48 6.79999C526.48 11.2 528.98 17.0333 528.98 24.3V25.6H516.88C516.68 20.4 515.246 16.6 512.58 14.2C509.913 11.7333 505.913 10.5 500.58 10.5C496.513 10.5 492.813 11.5333 489.48 13.6C486.146 15.6 483.446 18.2333 481.38 21.5C479.38 24.7 477.846 28.2 476.78 32C475.713 35.8 475.18 39.6333 475.18 43.5C475.18 50.1 476.746 55.2667 479.88 59C483.08 62.6667 487.513 64.5 493.18 64.5C498.246 64.5 502.48 63.1 505.88 60.3C509.346 57.4333 511.746 53.4 513.08 48.2H525.68ZM559.148 1.8L544.148 73H531.548L546.648 1.8H559.148ZM609.08 1.8L621.48 73H608.78L605.88 54.2H577.68L566.78 73H553.18L595.78 1.8H609.08ZM600.18 13.5C597.38 19.0333 593.88 25.4667 589.68 32.8L582.88 44.7H604.58L602.38 30.1C601.046 20.9667 600.313 15.4333 600.18 13.5ZM655.637 1.8L642.737 62.4H679.037L676.837 73H627.937L643.137 1.8H655.637ZM15.6 100.8H41.7C46.4333 100.8 50.1333 101.133 52.8 101.8C55.4667 102.4 57.8 103.533 59.8 105.2C64.1333 108.8 66.3 113.8 66.3 120.2C66.3 126 64.6 131.167 61.2 135.7C57.8 140.233 53.3333 142.9 47.8 143.7C44.4 144.233 40.2667 144.5 35.4 144.5H18.7L12.9 172H0.4L15.6 100.8ZM25.8 111.1L20.9 134.5H35.6C42.2667 134.5 46.7333 133.667 49 132C50.5333 130.867 51.7667 129.333 52.7 127.4C53.7 125.467 54.2 123.433 54.2 121.3C54.2 119.033 53.7667 117.167 52.9 115.7C52.0333 114.233 50.7333 113.2 49 112.6C47.3333 111.933 45.7333 111.533 44.2 111.4C42.6667 111.2 40.7333 111.1 38.4 111.1H25.8ZM81.7992 100.8H110.199C115.199 100.8 119.166 101.133 122.099 101.8C126.099 102.733 129.199 104.733 131.399 107.8C133.666 110.8 134.799 114.5 134.799 118.9C134.799 124.033 133.366 128.367 130.499 131.9C127.633 135.367 123.733 137.533 118.799 138.4C121.466 139.533 123.333 141.033 124.399 142.9C125.533 144.767 126.099 147.4 126.099 150.8C126.099 151.267 125.966 153.467 125.699 157.4C125.433 161.333 125.299 164.267 125.299 166.2C125.299 168.6 125.666 170.533 126.399 172H113.799C113.266 170.867 112.999 169.133 112.999 166.8C112.999 165.733 113.166 163.3 113.499 159.5C113.899 155.633 114.099 153.067 114.099 151.8C114.099 147.867 113.166 145.367 111.299 144.3C109.433 143.233 106.266 142.7 101.799 142.7H85.3992L79.1992 172H66.7992L81.7992 100.8ZM92.0992 111L87.3992 133.3H107.099C111.499 133.3 114.866 132.533 117.199 131C120.666 128.6 122.399 125.1 122.399 120.5C122.399 118.433 121.999 116.733 121.199 115.4C120.466 114.067 119.366 113.1 117.899 112.5C116.433 111.9 114.966 111.5 113.499 111.3C112.099 111.1 110.366 111 108.299 111H92.0992ZM210.009 129.9C210.009 137.9 208.476 145.2 205.409 151.8C202.409 158.4 197.876 163.733 191.809 167.8C185.809 171.867 178.843 173.9 170.909 173.9C161.376 173.9 153.909 171.1 148.509 165.5C143.109 159.9 140.409 152.167 140.409 142.3C140.409 130.167 143.976 120 151.109 111.8C158.309 103.533 167.876 99.4 179.809 99.4C189.076 99.4 196.409 102.167 201.809 107.7C207.276 113.167 210.009 120.567 210.009 129.9ZM179.009 109.8C173.343 109.8 168.476 111.467 164.409 114.8C160.343 118.133 157.376 122.233 155.509 127.1C153.709 131.9 152.809 137.033 152.809 142.5C152.809 149.033 154.476 154.2 157.809 158C161.143 161.733 165.743 163.6 171.609 163.6C177.143 163.6 181.909 161.833 185.909 158.3C189.976 154.7 192.909 150.433 194.709 145.5C196.509 140.5 197.409 135.333 197.409 130C197.409 123.733 195.876 118.8 192.809 115.2C189.743 111.6 185.143 109.8 179.009 109.8ZM268.488 100.8L258.888 146.7C258.088 150.433 257.388 153.4 256.788 155.6C256.188 157.8 255.255 160.2 253.988 162.8C252.722 165.4 251.255 167.4 249.588 168.8C247.922 170.2 245.722 171.367 242.988 172.3C240.322 173.233 237.155 173.7 233.488 173.7C227.355 173.7 222.422 172.267 218.688 169.4C215.022 166.533 213.188 162.133 213.188 156.2C213.188 153.2 213.555 150.133 214.288 147H225.988C225.188 150.467 224.788 153.2 224.788 155.2C224.788 160.8 227.788 163.6 233.788 163.6C235.922 163.6 237.688 163.3 239.088 162.7C240.555 162.033 241.722 160.833 242.588 159.1C243.522 157.3 244.122 155.967 244.388 155.1C244.722 154.167 245.155 152.367 245.688 149.7C245.755 149.433 245.788 149.233 245.788 149.1C245.855 148.9 245.922 148.7 245.988 148.5L256.088 100.8H268.488ZM333.599 100.8L331.399 111.2H292.099L288.099 130.3H324.599L322.599 140.3H285.999L281.499 161.6H321.399L319.099 172H266.799L281.899 100.8H333.599ZM396.188 147.2C394.454 155.467 390.621 161.967 384.688 166.7C378.821 171.367 371.621 173.7 363.088 173.7C353.754 173.7 346.454 170.967 341.188 165.5C335.921 159.967 333.288 152.3 333.288 142.5C333.288 134.767 334.788 127.667 337.788 121.2C340.788 114.667 345.288 109.367 351.288 105.3C357.288 101.233 364.221 99.2 372.088 99.2C380.354 99.2 386.988 101.4 391.988 105.8C396.988 110.2 399.488 116.033 399.488 123.3V124.6H387.388C387.188 119.4 385.754 115.6 383.088 113.2C380.421 110.733 376.421 109.5 371.088 109.5C367.021 109.5 363.321 110.533 359.988 112.6C356.654 114.6 353.954 117.233 351.888 120.5C349.888 123.7 348.354 127.2 347.288 131C346.221 134.8 345.688 138.633 345.688 142.5C345.688 149.1 347.254 154.267 350.388 158C353.588 161.667 358.021 163.5 363.688 163.5C368.754 163.5 372.988 162.1 376.388 159.3C379.854 156.433 382.254 152.4 383.588 147.2H396.188ZM468.355 100.8L466.155 111.1H443.355L430.555 172H418.055L430.855 111.1H407.555L409.755 100.8H468.355ZM523.033 121.8H511.033V121.1C511.033 113.1 506.333 109.1 496.933 109.1C492.399 109.1 488.766 110.067 486.033 112C483.366 113.867 482.033 116.367 482.033 119.5C482.033 121.1 482.366 122.467 483.033 123.6C483.699 124.733 484.766 125.7 486.233 126.5C487.766 127.3 489.199 127.933 490.533 128.4C491.933 128.867 493.833 129.4 496.233 130C499.099 130.733 501.366 131.367 503.033 131.9C504.766 132.433 506.799 133.267 509.133 134.4C511.466 135.467 513.233 136.667 514.433 138C515.699 139.333 516.799 141.1 517.733 143.3C518.666 145.433 519.133 147.9 519.133 150.7C519.133 158.233 516.266 163.933 510.533 167.8C504.866 171.6 498.033 173.5 490.033 173.5C480.966 173.5 474.033 171.5 469.233 167.5C464.499 163.5 462.133 157.667 462.133 150C462.133 149.467 462.166 148.967 462.233 148.5H474.433V149.7C474.433 159.033 479.866 163.7 490.733 163.7C495.666 163.7 499.599 162.633 502.533 160.5C505.533 158.3 507.033 155.4 507.033 151.8C507.033 150.067 506.699 148.6 506.033 147.4C505.366 146.133 504.266 145.1 502.733 144.3C501.199 143.5 499.933 142.933 498.933 142.6C497.999 142.267 496.466 141.8 494.333 141.2C491.133 140.333 488.666 139.633 486.933 139.1C485.199 138.567 483.066 137.733 480.533 136.6C478.066 135.4 476.166 134.167 474.833 132.9C473.566 131.633 472.433 129.933 471.433 127.8C470.499 125.667 470.033 123.267 470.033 120.6C470.033 114.2 472.466 109.1 477.333 105.3C482.266 101.433 488.799 99.5 496.933 99.5C505.333 99.5 511.766 101.333 516.233 105C520.766 108.6 523.033 113.8 523.033 120.6V121.8Z" fill="#F31C29"/>
</svg>
