<?xml version="1.0" encoding="utf-8"?>
<!-- Generator: Adobe Illustrator 25.4.1, SVG Export Plug-In . SVG Version: 6.00 Build 0)  -->
<svg version="1.1" id="Layer_1" xmlns="http://www.w3.org/2000/svg" xmlns:xlink="http://www.w3.org/1999/xlink" x="0px" y="0px"
	 viewBox="0 0 742 260.9" style="enable-background:new 0 0 742 260.9;" xml:space="preserve">
<style type="text/css">
	.st0{fill:#F31C29;}
</style>
<path class="st0" d="M19.6,7.2h-3.6v29.5l2.9,2.9l-6.5,6.5l-6.4-6.5l2.9-2.9V7.2H0l7.1-7.2h19.6L19.6,7.2z M43.5,46.1l-6.4-6.5
	l2.8-2.9V26.5h-6.4v10.2l2.8,2.9l-6.5,6.5l-6.4-6.5l2.9-2.9V7.2l7.2-7.2v19.5h6.4V7.2l7.2-7.2v36.7l2.9,2.9L43.5,46.1z M66.6,15.8
	l-7.7-7.9v11.7h10.7l-6.9,6.9h-3.8v8l1.9,1.8l5.8-5.8l5.2,5.1L61.2,46.1l-9.4-9.4V9.9L61.7,0l10.3,10.3L66.6,15.8z M99.6,46.1
	L89,35.6l5.2-5.2l5.8,5.9l3.8-3.7l-15-15.1v-7L99.1,0l10,9.9l-4.7,4.7l-9.1-9.2v9L109,28.2v8.5L99.6,46.1z M117.3,46.1l-6.4-6.5
	l2.9-2.9V7.2l7.2-7.2v36.7l2.8,2.9L117.3,46.1z M145.1,46.1l-6.4-6.5l2.9-2.9V14.2l-6.2-6.3v28.8l2.8,2.9l-6.5,6.5l-6.4-6.5l2.9-2.9
	V10.7l10.7-10.6l9.8,9.8v26.8l2.8,2.9L145.1,46.1z M159.6,46.1l-6.4-6.5l2.9-2.9V7.2l7.2-7.2v36.7l2.8,2.9L159.6,46.1z M176.8,46.1
	l-10.6-10.6l5.2-5.2l5.8,5.9l3.8-3.7l-15-15.1v-7L176.3,0l10,9.9l-4.7,4.7l-9.1-9.2v9l13.9,13.8v8.5L176.8,46.1z M205.3,7.2h-3.6
	v29.5l2.9,2.9l-6.5,6.5l-6.4-6.5l2.9-2.9V7.2h-8.9l7.1-7.2h19.6L205.3,7.2z M224.2,15.8l-7.7-7.9v11.7h10.7l-6.9,6.9h-3.9v8l1.9,1.8
	l5.8-5.8l5.2,5.1l-10.7,10.6l-9.4-9.4V9.9l9.9-9.9l10.3,10.3L224.2,15.8z M240.3,5.1v14.1l7.1-7L240.3,5.1z M250.5,46.1l-6.4-6.5
	l2.8-2.9v-7.6l-6.2-6.3v13.9l2.9,2.9l-6.5,6.5l-6.4-6.5l2.9-2.9V8.7l-3.1-3l5.7-5.7h9.6l8.1,8.1v7.2l-5,5l5.3,5.4v11.1l2.9,2.9
	L250.5,46.1z M285.2,46.1l-10.6-10.6l5.2-5.2l5.8,5.9l3.8-3.7l-15-15.1v-7L284.7,0l10,9.9l-4.7,4.7l-9.1-9.2v9l13.9,13.8v8.5
	L285.2,46.1z M316.7,46.1l-6.4-6.5l2.8-2.9V26.5h-6.4v10.2l2.8,2.9l-6.5,6.5l-6.4-6.5l2.9-2.9V7.2l7.2-7.2v19.5h6.4V7.2l7.2-7.2
	v36.7l2.9,2.9L316.7,46.1z M340.8,14.2l-6.2-6.3v15.5h6.2V14.2z M344.4,46.1l-6.4-6.5l2.9-2.9v-5.9h-6.2v5.9l2.8,2.9l-6.5,6.5
	l-6.4-6.5l2.9-2.9V10.7l10.7-10.6l9.8,9.8v26.8l2.8,2.9L344.4,46.1z M368.9,12.9l-6.2-6.3v33.3l6.2-6.3V12.9z M367.7,46.1h-9.6
	l-5.7-5.7l3.1-3V8.9l-3.1-3l5.7-5.7h9.5l8.5,8.5v29.2L367.7,46.1z M391.2,13.7l-5.8-5.8v26.6l1.9,1.8l3.9-3.9V13.7z M387.6,46.1
	l-9.4-9.4V9.9l9.9-9.9l10.1,10.1v25.5L387.6,46.1z M398.6,6.5l6.4-6.5l6.5,6.5l-2.8,2.9v22.7l6.2,6.2V9.5L412,6.5l6.4-6.5l6.4,6.5
	l-2.8,2.9v22.7l6.2,6.2V9.5l-2.9-2.9l6.5-6.5l6.4,6.5l-2.9,2.9v26.1l-10.7,10.6l-6.8-6.7l-6.6,6.7l-9.8-9.8V9.5L398.6,6.5z
	 M468.7,13.7l-5.8-5.8v26.6l1.9,1.8l3.9-3.9V13.7z M465.1,46.1l-9.4-9.4V9.9l9.9-9.9l10.1,10.1v25.5L465.1,46.1z M491.4,26.5h-3.7
	v10.2l2.8,2.9l-6.5,6.5l-6.4-6.5l2.9-2.9V9.9l10-9.9l10.3,10.5l-5.4,5.3l-7.6-7.9v11.7h10.6L491.4,26.5z M533.3,14.2l-6.2-6.3v15.5
	h6.2V14.2z M536.9,46.1l-6.4-6.5l2.9-2.9v-5.9h-6.2v5.9l2.8,2.9l-6.5,6.5l-6.4-6.5l2.9-2.9V10.7l10.7-10.6l9.8,9.8v26.8l2.8,2.9
	L536.9,46.1z M580.2,46.2l-2.3-2.3h-15.4l11.7-33.5h-4.6l-2.6,2.6l-6.4-6.5l6.4-6.5l2.4,2.4h15.3l-12.4,32.8h5.7l2.1-2.1l6.4,6.5
	L580.2,46.2z M603.5,15.8l-7.7-7.9v11.7h10.7l-6.9,6.9h-3.8v8l1.9,1.8l5.8-5.8l5.2,5.1l-10.7,10.6l-9.3-9.4V9.9l9.9-9.9L609,10.3
	L603.5,15.8z M619.6,5.3v14.1l7.2-7L619.6,5.3z M619.9,28.5v8.3l2.9,2.9l-6.5,6.5l-6.4-6.5l2.9-2.9V8.9l-3.1-3l5.7-5.7h9.6l8.1,8
	v7.3L619.9,28.5z M644.1,5.3v14.1l7.1-7L644.1,5.3z M644.5,28.5v8.3l2.9,2.9l-6.5,6.5l-6.4-6.5l2.9-2.9V8.9l-3.1-3l5.7-5.7h9.6
	l8.1,8v7.3L644.5,28.5z M674,15.8l-7.7-7.9v11.7H677l-6.9,6.9h-3.9v8l1.9,1.8l5.8-5.8l5.2,5.1l-10.7,10.6l-9.3-9.4V9.9l9.9-9.9
	l10.3,10.3L674,15.8z M689.9,46.1l-9.4-9.4V7.1l7.1-7.1v34.5l1.9,1.8l5.8-5.8l5.2,5.1L689.9,46.1z M707.7,46.1l-6.4-6.5l2.9-2.9V7.2
	l7.2-7.2v36.7l2.8,2.9L707.7,46.1z M735.5,46.1l-6.4-6.5l2.9-2.9V14.2l-6.2-6.3v28.8l2.8,2.9l-6.5,6.5l-6.4-6.5l2.9-2.9V10.7
	l10.7-10.6l9.8,9.8v26.8l2.8,2.9L735.5,46.1z M15.2,77.5l-5.8-5.8v17.8l1.8,1.8l4-4V77.5z M11.7,101.1l-9.4-9.4V62.2l7.1-7.1v11.5
	l2.8-2.8L22.4,74v16.6L11.7,101.1z M46.1,73.2V100l-9.7,9.8l-4.7-4.7l7.3-7.3v-5l-6.7,6.7l-6.7-6.7V73.2l-2.9-2.9l6.5-6.5l6.4,6.5
	l-2.8,2.9v16.9l6.2-6.2V73.2l-2.9-2.9l6.4-6.5l6.4,6.5L46.1,73.2z M91.4,47.8l1.9,1.8l-4.6,4.6l4.6,4.6l-6.5,6.5l-6.4-6.5L91.4,47.8
	z M77.1,47.8l2,1.8l-4.6,4.6l4.6,4.6l-6.6,6.5l-6.3-6.5L77.1,47.8z M95.9,62.2l7.2-7.1v13.1h8.6l-7,6.9h-1.7v16.6l2.8,2.9l-6.5,6.5
	L93,94.7l2.9-2.9V62.2z M129.1,101.1l-6.4-6.5l2.9-2.9V73.3l-6.2,6.3v12.2l2.8,2.9l-6.5,6.5l-6.4-6.5l2.9-2.9V62.2l7.2-7.1v15.5
	l6.7-6.7l6.7,6.7v21.2l2.8,2.9L129.1,101.1z M144.7,83.4l5.8-5.7l-5.8-5.9V83.4z M144.7,87.4v2.1l1.9,1.8l5.8-5.8l5.2,5.1L147,101.1
	l-9.3-9.4v-18l9.9-9.9l10.3,10.5L144.7,87.4z M188,77.5l-5.8-5.8v17.8l1.8,1.8l4-4V77.5z M184.5,101.1l-9.4-9.4v-18l9.9-10L195.2,74
	v16.6l5.6,5.5l-5.1,5l-5.5-5.4L184.5,101.1z M213,77.5l-5.8-5.8v17.8l1.8,1.8l4-4V77.5z M209.5,101.1l-9.3-9.4V62.2l7.1-7.1v11.5
	l2.8-2.8L220.1,74v16.6L209.5,101.1z M243.9,73.2V100l-9.7,9.8l-4.7-4.7l7.3-7.3v-5l-6.7,6.7l-6.7-6.7V73.2l-2.9-2.9l6.5-6.5
	l6.4,6.5l-2.8,2.9v16.9l6.2-6.2V73.2l-2.9-2.9l6.4-6.5l6.4,6.5L243.9,73.2z M257.4,101.1l-10.7-10.6l5.2-5.2l5.9,5.9l2.9-2.9v-4.8
	h-13.1v-9.5L258,63.7l9.9,9.9l-4.7,4.7l-9.1-9.2v10.2h12.8v12.4L257.4,101.1z M280.2,101.1l-10.7-10.6l5.2-5.2l5.9,5.9l2.9-2.9v-4.8
	h-13.1v-9.5l10.3-10.5l9.9,9.9l-4.7,4.7l-9.1-9.2v10.2h12.8v12.4L280.2,101.1z M321.2,77.5l-5.8-5.8v17.8l1.8,1.8l4-4V77.5z
	 M317.7,101.1l-9.4-9.4v-18l9.9-10L328.4,74v16.6L317.7,101.1z M341,75.1h-3.2v27.6l-7.1,7.2v-45l9.9-9.9l6.2,6.3l-5.3,5.3l-3.6-3.7
	v5.3h10.1L341,75.1z M377.4,77.5l-5.8-5.8v17.8l1.8,1.8l4-4V77.5z M373.9,101.1l-9.4-9.4v-18l9.9-10L384.6,74v16.6l5.6,5.5l-5.1,5
	l-5.5-5.4L373.9,101.1z M408.9,101.1l-6.4-6.5l2.9-2.9V77.9l-6.2-6.2v20.1l2.8,2.9l-6.5,6.5l-6.4-6.5l2.9-2.9V74.4l10.7-10.6
	l9.8,9.8v18.1l2.8,2.9L408.9,101.1z M430.2,77.5l-5.8-5.8v17.8l1.8,1.8l4-4V77.5z M426.7,101.1l-9.4-9.4v-18l9.9-10L437.4,74v16.6
	l5.6,5.5l-5.1,5l-5.5-5.4L426.7,101.1z M448.3,101.1l-6.4-6.5l2.9-2.9V62.2l7.2-7.1v36.7l2.8,2.9L448.3,101.1z M485.2,77.5l-5.8-5.8
	v17.8l1.8,1.8l4-4V77.5z M481.7,101.1l-9.4-9.4v-18l9.9-10L492.4,74v16.6L481.7,101.1z M507.5,77.5l-5.8-5.8v17.8l1.8,1.8l4-4V77.5z
	 M504,101.1l-2.3-2.2v10.9l-7-7.2v-29l9.9-10L514.6,74v16.6L504,101.1z M529.8,77.5l-5.8-5.8v17.8l1.8,1.8l4-4V77.5z M526.3,101.1
	l-2.3-2.2v10.9l-7-7.2v-29l9.9-10L536.9,74v16.6L526.3,101.1z M551.6,76.3l-4.6-4.7v20.1l2.8,2.9l-6.5,6.5l-6.4-6.5l2.9-2.9V74.5
	l10.7-10.7l6.8,6.8L551.6,76.3z M564.6,83.4l5.8-5.7l-5.8-5.9V83.4z M564.6,87.4v2.1l1.9,1.8l5.8-5.8l5.2,5.1l-10.7,10.6l-9.3-9.4
	v-18l9.9-9.9l10.3,10.5L564.6,87.4z M589.7,101.1L579,90.6l5.2-5.2l5.9,5.9l2.9-2.9v-4.8h-13.1v-9.5l10.3-10.5l9.9,9.9l-4.7,4.7
	l-9.1-9.2v10.2h12.8v12.4L589.7,101.1z M612.5,101.1l-10.7-10.6l5.2-5.2l5.9,5.9l2.9-2.9v-4.8h-13.1v-9.5l10.3-10.5l9.9,9.9
	l-4.7,4.7l-9.1-9.2v10.2H622v12.4L612.5,101.1z M631.9,68l-5.6-5.4l5.6-5.6l5.4,5.6L631.9,68z M631.1,101.1l-6.4-6.5l2.9-2.9V79.5
	l-2.8-2.8l7.1-7.2l2.9,2.8v19.4l2.8,2.9L631.1,101.1z M652.4,77.5l-5.8-5.8v17.8l1.8,1.8l4-4V77.5z M648.9,101.1l-9.3-9.4v-18
	l9.9-10L659.6,74v16.6L648.9,101.1z M681.2,101.1l-6.4-6.5l2.9-2.9V77.9l-6.2-6.2v20.1l2.8,2.9l-6.5,6.5l-6.4-6.5l2.9-2.9V74.4
	L675,63.8l9.8,9.8v18.1l2.8,2.9L681.2,101.1z M706.4,67.2l-2-1.8l4.6-4.6l-4.6-4.6l6.6-6.5l6.3,6.5L706.4,67.2z M691.7,67.2l-2-1.8
	l4.6-4.6l-4.6-4.6l6.6-6.5l6.3,6.5L691.7,67.2z"/>
<path class="st0" d="M9.2,240.1l-3.8,3.8v0.8l3.8,3.9V240.1z M7.7,260.9l-5.8-5.8l2.9-2.8l3.2,3.2l1.1-1v-1l-7.1-7.2v-4.9l5.6-5.7
	l5.4,5.4v14.7L7.7,260.9z M21.9,242.6l-2.5-2.6V251l1.5,1.6l-3.5,3.5l-3.5-3.5l1.6-1.6v-9.4l5.8-5.8l3.7,3.7L21.9,242.6z
	 M32.1,243.3l-3.1-3.2v9.7l1,1l2.2-2.2V243.3z M30.2,256.1l-5.1-5.1v-9.8l5.4-5.4l5.5,5.5v9.1l3,3l-2.8,2.7l-3-3L30.2,256.1z
	 M45.7,243.3l-3.2-3.2v9.7l1,1l2.2-2.2V243.3z M43.8,256.1l-1.3-1.2v6l-3.8-3.9v-15.8l5.4-5.4l5.5,5.5v9.1L43.8,256.1z M61.4,256.1
	l-3.5-3.5l1.6-1.6v-10.1l-3.4,3.5v6.6l1.5,1.6l-3.5,3.5l-3.5-3.5l1.6-1.6v-16.1l3.9-3.9v8.4l3.6-3.7l3.7,3.7V251l1.5,1.6L61.4,256.1
	z M69.7,238.1l-3-3l3-3l3,3L69.7,238.1z M69.3,256.1l-3.5-3.5l1.6-1.6v-6.7l-1.5-1.5l3.9-3.9l1.6,1.5V251l1.5,1.6L69.3,256.1z
	 M82,244.4l-4.2-4.3v9.7l1,1l3.2-3.2l2.8,2.8l-5.8,5.8l-5.1-5.1v-9.8l5.4-5.4l5.6,5.7L82,244.4z M91.3,256.1l-5.8-5.8l2.8-2.9
	l3.2,3.2l1.6-1.6v-2.6H86v-5.2l5.6-5.7l5.4,5.4l-2.5,2.6l-5-5v5.6h7v6.8L91.3,256.1z M114.7,244.4l-4.2-4.3v9.7l1,1l3.2-3.2l2.8,2.8
	l-5.8,5.8l-5.1-5.1v-9.8l5.4-5.4l5.6,5.7L114.7,244.4z M126.2,242.6l-2.5-2.6V251l1.5,1.6l-3.5,3.5l-3.5-3.5l1.6-1.6v-9.4l5.8-5.8
	l3.7,3.7L126.2,242.6z M133.2,246.5l3.1-3.1l-3.1-3.2V246.5z M133.2,248.6v1.1l1,1l3.2-3.2l2.8,2.8l-5.8,5.8l-5.1-5.1v-9.8l5.4-5.4
	l5.6,5.7L133.2,248.6z M148.4,243.3l-3.2-3.2v9.7l1,1l2.2-2.2V243.3z M146.5,256.1l-5.1-5.1v-9.8l5.4-5.4l5.5,5.5v9.1l3,3l-2.8,2.7
	l-3-3L146.5,256.1z M156.3,234.9l3.9-3.9v7.2h4.7l-3.8,3.8h-0.9v9.1l1.5,1.6l-3.5,3.5l-3.5-3.5l1.6-1.6V234.9z M167.4,246.5l3.2-3.1
	l-3.2-3.2V246.5z M167.4,248.6v1.1l1,1l3.2-3.2l2.8,2.8l-5.8,5.8l-5.1-5.1v-9.8l5.4-5.4l5.6,5.7L167.4,248.6z M183,243.3l-3.1-3.2
	v9.7l1,1l2.2-2.2V243.3z M181.1,256.1L176,251v-9.8l2.5-2.5l-4.8-4.8l2.9-2.9l10.3,10.3v9.1L181.1,256.1z M203.7,243.3l-3.1-3.2v9.7
	l1,1l2.2-2.2V243.3z M201.8,256.1l-5.1-5.1v-16.1l3.9-3.9v6.3l1.5-1.5l5.5,5.5v9.1L201.8,256.1z M220.5,240.9v14.6l-5.3,5.4
	l-2.6-2.6l4-4v-2.7l-3.6,3.6l-3.7-3.6v-10.7l-1.6-1.6l3.5-3.5l3.5,3.5l-1.5,1.6v9.2l3.4-3.4v-5.8l-1.6-1.6l3.5-3.5l3.5,3.5
	L220.5,240.9z M238.7,243.3l-3.2-3.2v9.7l1,1l2.2-2.2V243.3z M236.7,256.1l-5.1-5.1v-9.8l5.4-5.4l5.5,5.5v9.1l3,3l-2.8,2.7l-3-3
	L236.7,256.1z M255.8,256.1l-3.5-3.5l1.6-1.6v-7.6l-3.4-3.4V251l1.5,1.6l-3.5,3.5l-3.5-3.5l1.6-1.6v-9.4l5.8-5.8l5.4,5.4v9.9
	l1.5,1.6L255.8,256.1z M261.8,234.9l3.9-3.9v7.2h4.7l-3.8,3.8h-0.9v9.1l1.5,1.6l-3.5,3.5l-3.5-3.5l1.6-1.6V234.9z M272.4,238.1l-3-3
	l3-3l3,3L272.4,238.1z M271.9,256.1l-3.5-3.5l1.6-1.6v-6.7l-1.5-1.5l3.9-3.9l1.6,1.5V251l1.5,1.6L271.9,256.1z M287.7,257v-2.9
	l-11.4,2.4l8.3-8v2.4l11.8-2.4L287.7,257z M310,240.9v14.6l-5.3,5.4l-2.6-2.6l4-4v-2.7l-3.6,3.6l-3.7-3.6v-10.7l-1.6-1.6l3.5-3.5
	l3.5,3.5l-1.5,1.6v9.2l3.4-3.4v-5.8l-1.6-1.6l3.5-3.5l3.5,3.5L310,240.9z M318.8,243.3l-3.1-3.2v9.7l1,1l2.2-2.2V243.3z
	 M316.8,256.1l-5.1-5.1v-9.8l5.4-5.4l5.5,5.5v9.1l3,3l-2.8,2.7l-3-3L316.8,256.1z M333.1,242.6l-2.5-2.6V251l1.5,1.6l-3.5,3.5
	l-3.5-3.5l1.6-1.6v-9.4l5.9-5.8l3.7,3.7L333.1,242.6z M340.2,246.5l3.1-3.1l-3.1-3.2V246.5z M340.2,248.6v1.1l1,1l3.2-3.2l2.9,2.8
	l-5.8,5.8l-5.1-5.1v-9.8l5.4-5.4l5.6,5.7L340.2,248.6z M353.6,244.8l2.8-2.8l-2-2l-0.8,0.8V244.8z M358.9,256.1l-3.5-3.5l1.6-1.6
	l-3.4-3.3v3.3l1.5,1.6l-3.5,3.5l-3.5-3.5l1.6-1.6v-16.1l3.9-3.9v7.3l2.5-2.6l4.7,4.7l-5.4,5.3l6.9,7L358.9,256.1z"/>
</svg>
