<svg id="Layer_1" data-name="Layer 1" xmlns="http://www.w3.org/2000/svg" viewBox="0 0 780.05 320"><defs><style>.cls-1{fill:#1df2ca;}.cls-2{fill:#ea1df2;}</style></defs><rect class="cls-1" x="-0.96" width="781.01" height="320"/><path class="cls-2" d="M116.52,121.2q-2.59,12.4-11.5,19.5t-21.6,7q-14,0-21.9-8.2t-7.9-23a50,50,0,0,1,4.5-21.3,38.11,38.11,0,0,1,13.5-15.9,36.18,36.18,0,0,1,20.8-6.1q12.4,0,19.9,6.6t7.5,17.5v1.3h-12.1q-.3-7.8-4.3-11.4t-12-3.7a20.65,20.65,0,0,0-11.1,3.1,24.19,24.19,0,0,0-8.1,7.9,40.29,40.29,0,0,0-4.6,10.5A42.61,42.61,0,0,0,66,116.5q0,9.9,4.7,15.5T84,137.5a19.31,19.31,0,0,0,12.7-4.2,22.33,22.33,0,0,0,7.2-12.1Zm78.57-17.3a51.29,51.29,0,0,1-4.6,21.9,37.7,37.7,0,0,1-13.6,16,36.34,36.34,0,0,1-20.9,6.1q-14.3,0-22.4-8.4t-8.1-23.2q0-18.19,10.7-30.5t28.7-12.4q13.91,0,22,8.3T195.09,103.9Zm-31-20.1a22.32,22.32,0,0,0-14.6,5,29.12,29.12,0,0,0-8.9,12.3,43.49,43.49,0,0,0-2.7,15.4q0,9.8,5,15.5t13.8,5.6a20.9,20.9,0,0,0,14.3-5.3,31.14,31.14,0,0,0,8.8-12.8,45.43,45.43,0,0,0,2.7-15.5q0-9.41-4.6-14.8T164.09,83.8Zm123-9L272,146h-11.9l6.8-31.1q3.6-16.61,7.5-30-6,11.89-11.3,21.4L240.37,146h-10.2l-6.4-41.5a160.91,160.91,0,0,1-2.1-19.5q-1.09,9.41-5.5,30.8L210,146H198l15.2-71.2h17.2l5.6,39a146.54,146.54,0,0,1,1.7,19.2,196.07,196.07,0,0,1,8.8-18.3l23-39.9Zm88.87,0L360.84,146h-11.9l6.8-31.1q3.6-16.61,7.5-30-6,11.89-11.3,21.4L329.24,146H319l-6.4-41.5a160.91,160.91,0,0,1-2.1-19.5q-1.11,9.41-5.5,30.8l-6.2,30.2h-12L302,74.8h17.2l5.6,39a146.54,146.54,0,0,1,1.7,19.2,196.07,196.07,0,0,1,8.8-18.3l23-39.9Zm66.76,0-2.2,10.4H401.2l-4,19.1h36.5l-2,10H395.1l-4.5,21.3h39.9L428.2,146H375.9L391,74.8Zm11.19,0h28.4a55.79,55.79,0,0,1,11.9,1,15.23,15.23,0,0,1,9.3,6,17.86,17.86,0,0,1,3.4,11.1,20,20,0,0,1-4.3,13,18.79,18.79,0,0,1-11.7,6.5,11.08,11.08,0,0,1,5.6,4.5c1.14,1.87,1.7,4.5,1.7,7.9q0,.7-.4,6.6c-.26,3.93-.4,6.87-.4,8.8a13.09,13.09,0,0,0,1.1,5.8h-12.6a12.88,12.88,0,0,1-.8-5.2q0-1.61.5-7.3c.4-3.87.6-6.43.6-7.7q0-5.89-2.8-7.5t-9.5-1.6h-16.4l-6.2,29.3h-12.4ZM464.19,85l-4.7,22.3h19.7q6.6,0,10.1-2.3,5.2-3.6,5.2-10.5a9.77,9.77,0,0,0-1.2-5.1,6.4,6.4,0,0,0-3.3-2.9,17.91,17.91,0,0,0-4.4-1.2,37.66,37.66,0,0,0-5.2-.3ZM575.7,121.2q-2.6,12.4-11.5,19.5t-21.6,7q-14,0-21.9-8.2t-7.9-23a50,50,0,0,1,4.5-21.3,38.11,38.11,0,0,1,13.5-15.9,36.18,36.18,0,0,1,20.8-6.1q12.4,0,19.9,6.6T579,97.3v1.3H566.9q-.3-7.8-4.3-11.4t-12-3.7a20.65,20.65,0,0,0-11.1,3.1,24.19,24.19,0,0,0-8.1,7.9,40.29,40.29,0,0,0-4.6,10.5,42.61,42.61,0,0,0-1.6,11.5q0,9.9,4.7,15.5t13.3,5.5a19.31,19.31,0,0,0,12.7-4.2,22.33,22.33,0,0,0,7.2-12.1Zm33.47-46.4-15,71.2h-12.6l15.1-71.2Zm49.93,0L671.5,146H658.8l-2.9-18.8H627.7L616.8,146H603.2l42.6-71.2Zm-8.9,11.7q-4.2,8.3-10.5,19.3l-6.8,11.9h21.7l-2.2-14.6Q650.41,89.41,650.2,86.5Zm55.46-11.7-12.9,60.6h36.3l-2.2,10.6H678l15.2-71.2Zm-640,99h26.1a47.76,47.76,0,0,1,11.1,1,16.32,16.32,0,0,1,7,3.4q6.51,5.4,6.5,15a25.15,25.15,0,0,1-5.1,15.5,19.69,19.69,0,0,1-13.4,8,82,82,0,0,1-12.4.8H68.72L62.92,245H50.42Zm10.2,10.3-4.9,23.4h14.7q10,0,13.4-2.5a12.07,12.07,0,0,0,3.7-4.6,13.1,13.1,0,0,0,1.5-6.1,10.85,10.85,0,0,0-1.3-5.6,7,7,0,0,0-3.9-3.1,16.56,16.56,0,0,0-4.8-1.2,46.09,46.09,0,0,0-5.8-.3Zm56-10.3h28.4a55.79,55.79,0,0,1,11.9,1,15.23,15.23,0,0,1,9.3,6,17.86,17.86,0,0,1,3.4,11.1,20,20,0,0,1-4.3,13,18.79,18.79,0,0,1-11.7,6.5,11.08,11.08,0,0,1,5.6,4.5c1.14,1.87,1.7,4.5,1.7,7.9q0,.7-.4,6.6c-.26,3.93-.4,6.87-.4,8.8a13.09,13.09,0,0,0,1.1,5.8h-12.6a12.88,12.88,0,0,1-.8-5.2q0-1.61.5-7.3c.4-3.87.6-6.43.6-7.7q0-5.9-2.8-7.5t-9.5-1.6h-16.4l-6.2,29.3h-12.4Zm10.3,10.2-4.7,22.3h19.7q6.6,0,10.1-2.3,5.21-3.6,5.2-10.5a9.77,9.77,0,0,0-1.2-5.1,6.4,6.4,0,0,0-3.3-2.9,17.91,17.91,0,0,0-4.4-1.2,37.66,37.66,0,0,0-5.2-.3ZM260,202.9a51.29,51.29,0,0,1-4.6,21.9,37.7,37.7,0,0,1-13.6,16,36.32,36.32,0,0,1-20.9,6.1q-14.3,0-22.4-8.4t-8.1-23.2q0-18.2,10.7-30.5t28.7-12.4q13.9,0,22,8.3T260,202.9Zm-31-20.1a22.34,22.34,0,0,0-14.6,5,29.2,29.2,0,0,0-8.9,12.3,43.49,43.49,0,0,0-2.7,15.4q0,9.8,5,15.5t13.8,5.6a20.88,20.88,0,0,0,14.3-5.3,31.14,31.14,0,0,0,8.8-12.8,45.43,45.43,0,0,0,2.7-15.5q0-9.41-4.6-14.8T229,182.8Zm89.48-9-9.6,45.9q-1.2,5.6-2.1,8.9a41.43,41.43,0,0,1-2.8,7.2,18,18,0,0,1-4.4,6,20.47,20.47,0,0,1-6.6,3.5,28.91,28.91,0,0,1-9.5,1.4q-9.19,0-14.8-4.3t-5.5-13.2a40.46,40.46,0,0,1,1.1-9.2H276a38.87,38.87,0,0,0-1.2,8.2q0,8.4,9,8.4a13.53,13.53,0,0,0,5.3-.9,7.39,7.39,0,0,0,3.5-3.6,28.1,28.1,0,0,0,1.8-4,45.7,45.7,0,0,0,1.3-5.4,2.6,2.6,0,0,0,.1-.6l.2-.6,10.1-47.7Zm65.11,0-2.2,10.4h-39.3l-4,19.1h36.5l-2,10H336l-4.5,21.3h39.9l-2.3,10.4h-52.3l15.1-71.2Zm62.59,46.4q-2.59,12.41-11.5,19.5t-21.6,7q-14,0-21.9-8.2t-7.9-23a50,50,0,0,1,4.5-21.3,38.11,38.11,0,0,1,13.5-15.9,36.15,36.15,0,0,1,20.8-6.1q12.4,0,19.9,6.6t7.5,17.5v1.3h-12.1q-.3-7.8-4.3-11.4t-12-3.7a20.6,20.6,0,0,0-11.1,3.1,24.19,24.19,0,0,0-8.1,7.9,40.29,40.29,0,0,0-4.6,10.5,42.22,42.22,0,0,0-1.6,11.5q0,9.9,4.7,15.5t13.3,5.5a19.31,19.31,0,0,0,12.7-4.2,22.33,22.33,0,0,0,7.2-12.1Zm72.17-46.4-2.2,10.3h-22.8L480.58,245h-12.5l12.8-60.9h-23.3l2.2-10.3Zm54.68,21h-12v-.7q0-12-14.1-12-6.81,0-10.9,2.9a8.72,8.72,0,0,0-4,7.5,7.91,7.91,0,0,0,1,4.1,8,8,0,0,0,3.2,2.9,32.7,32.7,0,0,0,4.3,1.9q2.1.71,5.7,1.6c2.86.73,5.13,1.37,6.8,1.9a44.43,44.43,0,0,1,6.1,2.5,16.12,16.12,0,0,1,5.3,3.6,17.82,17.82,0,0,1,3.3,5.3,18.36,18.36,0,0,1,1.4,7.4q0,11.3-8.6,17.1t-20.5,5.7q-13.6,0-20.8-6t-7.1-17.5a10.21,10.21,0,0,1,.1-1.5h12.2v1.2q0,14,16.3,14,7.4,0,11.8-3.2a10.29,10.29,0,0,0,4.5-8.7,9,9,0,0,0-1-4.4,7.49,7.49,0,0,0-3.3-3.1,27.32,27.32,0,0,0-3.8-1.7c-.94-.33-2.47-.8-4.6-1.4q-4.8-1.3-7.4-2.1a57.4,57.4,0,0,1-6.4-2.5,22.55,22.55,0,0,1-5.7-3.7,17.89,17.89,0,0,1-3.4-5.1,17.65,17.65,0,0,1-1.4-7.2,18.4,18.4,0,0,1,7.3-15.3q7.39-5.81,19.6-5.8,12.6,0,19.3,5.5t6.8,15.6Z"/></svg>