<svg width="750" height="400" viewBox="0 0 750 400" fill="none" xmlns="http://www.w3.org/2000/svg">
<rect width="750" height="400" fill="white"/>
<g clip-path="url(#clip0_103_2)">
<path fill-rule="evenodd" clip-rule="evenodd" d="M652.512 169.463C657.324 169.359 662.429 169.317 667.164 168.439C678.663 166.307 688.541 158.59 691.538 146.954C692.331 143.884 693.121 140.778 692.927 137.58C692.371 128.032 687.529 118.545 677.701 115.827C673.93 114.784 669.622 114.47 665.721 114.11L553.504 114.11L539.91 132.063H564.933L558.372 188.961H575.595L582.079 132.052H663.703C666.492 132.28 669.556 132.476 671.942 134.079C678.119 138.235 675.172 147.908 668.642 150.658C664.714 152.311 656.226 151.896 651.845 151.896H612.266L607.992 188.961H624.854L627.067 169.463H652.512ZM291.133 188.961H306.525C310.436 188.668 314.368 188.372 318.186 187.459C326.195 185.549 332.224 181.647 337.33 175.205C340.052 171.771 342.404 167.886 344.061 163.826C348.137 153.847 348.927 138.224 343.22 128.673C339.311 122.12 331.515 115.716 323.826 114.417C322.031 114.114 320.242 114.101 318.433 114.11C309.245 114.147 299.693 113.996 290.531 114.547C282.588 115.025 273.595 120.143 267.98 125.637C258.761 134.657 254.421 146.851 256.11 159.655C257.999 173.979 269.053 185.553 283.34 187.861C285.935 188.277 288.544 188.569 291.14 188.972L291.133 188.961ZM320.397 133.579C326.805 136.512 330.681 143.693 329.856 150.652C328.911 158.631 324.396 166.451 316.505 169.22C313.973 170.108 311.145 170.445 308.492 170.787L287.67 170.787C286.527 170.526 285.396 170.249 284.281 169.888C274.495 166.713 271.649 156.259 274.951 147.191C277.789 139.387 284.456 133.548 292.75 132.439C300.073 131.467 307.965 132.05 315.34 132.05C316.7 132.199 319.142 132.998 320.4 133.579H320.397ZM414.344 114.11C420.667 115.613 426.212 116.946 431.104 121.556C437.416 127.504 438.822 136.184 435.166 143.979C433.672 147.159 432.027 149.2 429.605 151.524C430.11 152.489 430.653 153.405 431.192 154.351C433.028 157.583 433.878 162.177 433.457 165.821C432.394 175.043 425.422 180.827 417.609 184.762C412.01 187.581 406.52 188.25 400.395 188.943L347.073 188.961L356.096 142.116H410.076C411.265 141.961 412.463 141.803 413.573 141.329C417.774 139.542 418.039 135.243 414.013 133.008C412.922 132.402 411.763 132.232 410.543 132.068L358.612 132.062L372.218 114.11L414.344 114.11ZM364.353 160.657C364.028 164.034 363.704 167.411 363.381 170.788H407.979C415.854 170.788 418.024 162.218 409.313 160.657H364.353ZM139.527 186.834C140.174 181.485 140.822 176.138 141.47 170.793H103.036C100.356 170.793 97.6306 170.804 94.9695 170.459C88.8796 169.671 85.151 166.999 82.8273 161.223C80.1675 154.615 80.6381 147.672 84.1654 141.493C85.4655 139.201 87.1743 137.166 89.2072 135.491C93.5716 131.878 97.4599 132.06 102.788 132.06L217.78 132.06C220.716 132.06 223.488 132.434 226.267 133.395C233.652 135.949 233.425 144.865 227.271 148.76C223.129 151.382 215.57 151.549 210.718 151.899L166.604 151.899L162.71 188.943H179.561C180.222 182.45 180.882 175.956 181.541 169.463H208.929L225.634 188.961H251.603L232.307 166.438C235.458 164.305 238.35 162.322 241.014 159.562C246.997 153.359 251.029 144.96 251.029 136.241C251.029 130.086 247.9 124.051 243.242 120.094C240.756 117.984 237.448 116.266 234.309 115.342C231.82 114.609 229.173 114.449 226.588 114.34C223.256 114.201 219.893 114.182 216.553 114.161C179.993 113.935 143.394 114.09 106.833 114.11C102.919 114.11 98.8522 114.086 94.9626 114.51C91.7781 114.856 89.3488 115.544 86.5212 117.057C83.2493 118.805 80.062 121.213 77.3357 123.726C68.4973 131.856 63.7553 141.307 63.0932 153.461C62.7739 159.327 63.8789 166.081 66.4511 171.384C69.1911 177.077 73.5652 181.823 79.014 185.014C82.98 187.317 86.6711 188.272 91.2006 188.487C94.424 188.64 97.7111 188.561 100.937 188.476C113.793 188.139 126.679 187.442 139.528 186.83L139.527 186.834ZM476.558 188.961H491.951C500.182 188.343 507.178 187.551 514.348 182.995C524.898 176.292 531.653 162.734 532.582 150.501C533.448 139.099 531.245 128.964 522.412 121.196C518.978 118.178 513.816 115.188 509.251 114.417C507.461 114.114 505.668 114.101 503.858 114.11C494.639 114.147 485.14 114 475.949 114.547C468.007 115.025 459.013 120.143 453.399 125.637C447.292 131.611 443.005 139.426 441.67 147.894C440.559 154.981 441.245 163.12 444.456 169.606C449.288 179.367 457.973 186.113 468.759 187.854C471.355 188.271 473.964 188.562 476.56 188.965L476.558 188.961ZM505.823 133.579C512.266 136.529 516.112 143.633 515.281 150.652C514.61 156.313 512.446 161.419 508.225 165.322C503.73 169.478 499.74 170.038 493.917 170.787H473.095C467.41 169.488 463.494 167.614 460.74 162.196C457.078 154.994 459.699 145.699 464.725 139.826C468.285 135.657 472.746 133.168 478.177 132.441C485.526 131.46 493.34 132.052 500.765 132.052C501.671 132.063 504.91 133.162 505.823 133.579Z" fill="#0069AF" stroke="#0069AF" stroke-width="0.57" stroke-miterlimit="22.93"/>
</g>
<path d="M88.5834 256.204H84.1394C83.7287 254.737 82.9074 253.593 81.6754 252.772C80.4434 251.951 78.962 251.54 77.2314 251.54C74.5327 251.54 72.406 252.317 70.8514 253.872C69.2967 255.427 68.5194 257.553 68.5194 260.252C68.5194 262.863 69.282 264.931 70.8074 266.456C72.362 267.952 74.4007 268.7 76.9234 268.7C78.8887 268.7 80.5314 268.216 81.8514 267.248C83.1714 266.251 83.978 264.887 84.2714 263.156H88.7594C88.2607 266.148 86.9407 268.48 84.7994 270.152C82.6874 271.824 80.0034 272.66 76.7474 272.66C72.9634 272.66 69.8834 271.531 67.5074 269.272C65.1607 266.984 63.9874 263.963 63.9874 260.208C63.9874 256.453 65.1754 253.417 67.5514 251.1C69.9274 248.753 73.022 247.58 76.8354 247.58C79.9447 247.58 82.5554 248.357 84.6674 249.912C86.7794 251.467 88.0847 253.564 88.5834 256.204ZM95.567 251.056C97.9723 248.739 101.199 247.58 105.247 247.58C109.295 247.58 112.507 248.739 114.883 251.056C117.259 253.344 118.447 256.395 118.447 260.208C118.447 264.021 117.259 267.057 114.883 269.316C112.507 271.545 109.295 272.66 105.247 272.66C101.17 272.66 97.943 271.545 95.567 269.316C93.191 267.057 92.003 264.021 92.003 260.208C92.003 256.395 93.191 253.344 95.567 251.056ZM111.583 253.828C110.058 252.303 107.946 251.54 105.247 251.54C102.548 251.54 100.422 252.303 98.867 253.828C97.3123 255.353 96.535 257.451 96.535 260.12C96.535 262.789 97.3123 264.887 98.867 266.412C100.422 267.937 102.548 268.7 105.247 268.7C107.946 268.7 110.058 267.937 111.583 266.412C113.138 264.887 113.915 262.789 113.915 260.12C113.915 257.451 113.138 255.353 111.583 253.828ZM127.502 248.328V252.42C130.142 249.193 133.398 247.58 137.27 247.58C139.47 247.58 141.289 248.049 142.726 248.988C144.193 249.897 145.176 251.173 145.674 252.816C148.49 249.325 151.849 247.58 155.75 247.58C159.153 247.58 161.5 248.489 162.79 250.308C164.11 252.127 164.77 254.84 164.77 258.448V272H160.502V258.272C160.502 255.808 160.077 254.019 159.226 252.904C158.376 251.76 156.909 251.188 154.826 251.188C152.304 251.188 150.206 252.009 148.534 253.652C146.892 255.265 146.07 257.377 146.07 259.988V272H141.934V258.272C141.934 255.808 141.509 254.019 140.658 252.904C139.808 251.76 138.341 251.188 136.258 251.188C133.736 251.188 131.638 252.009 129.966 253.652C128.324 255.265 127.502 257.377 127.502 259.988V272H123.234V248.328H127.502ZM175.37 248.328V252.42C178.01 249.193 181.266 247.58 185.138 247.58C187.338 247.58 189.156 248.049 190.594 248.988C192.06 249.897 193.043 251.173 193.542 252.816C196.358 249.325 199.716 247.58 203.618 247.58C207.02 247.58 209.367 248.489 210.658 250.308C211.978 252.127 212.638 254.84 212.638 258.448V272H208.37V258.272C208.37 255.808 207.944 254.019 207.094 252.904C206.243 251.76 204.776 251.188 202.694 251.188C200.171 251.188 198.074 252.009 196.402 253.652C194.759 255.265 193.938 257.377 193.938 259.988V272H189.802V258.272C189.802 255.808 189.376 254.019 188.526 252.904C187.675 251.76 186.208 251.188 184.126 251.188C181.603 251.188 179.506 252.009 177.834 253.652C176.191 255.265 175.37 257.377 175.37 259.988V272H171.102V248.328H175.37ZM243.301 261.044H221.961C221.961 263.361 222.738 265.224 224.293 266.632C225.847 268.011 227.886 268.7 230.409 268.7C232.286 268.7 233.885 268.348 235.205 267.644C236.554 266.94 237.463 265.943 237.933 264.652H242.905C242.083 267.204 240.573 269.184 238.373 270.592C236.202 271.971 233.547 272.66 230.409 272.66C226.419 272.66 223.251 271.545 220.905 269.316C218.587 267.057 217.429 264.021 217.429 260.208C217.429 256.365 218.602 253.3 220.949 251.012C223.295 248.724 226.449 247.58 230.409 247.58C234.457 247.58 237.61 248.709 239.869 250.968C242.157 253.197 243.301 256.277 243.301 260.208V261.044ZM222.049 258.008H238.725C238.402 255.984 237.507 254.4 236.041 253.256C234.574 252.112 232.697 251.54 230.409 251.54C228.15 251.54 226.273 252.112 224.777 253.256C223.31 254.4 222.401 255.984 222.049 258.008ZM252.37 248.328V252.332C254.57 249.164 257.474 247.58 261.082 247.58C261.844 247.58 262.475 247.712 262.974 247.976V252.464C261.888 252.141 260.862 251.98 259.894 251.98C257.811 251.98 256.036 252.772 254.57 254.356C253.103 255.94 252.37 257.964 252.37 260.428V272H248.102V248.328H252.37ZM288.99 256.204H284.546C284.135 254.737 283.314 253.593 282.082 252.772C280.85 251.951 279.368 251.54 277.638 251.54C274.939 251.54 272.812 252.317 271.258 253.872C269.703 255.427 268.926 257.553 268.926 260.252C268.926 262.863 269.688 264.931 271.214 266.456C272.768 267.952 274.807 268.7 277.33 268.7C279.295 268.7 280.938 268.216 282.258 267.248C283.578 266.251 284.384 264.887 284.678 263.156H289.166C288.667 266.148 287.347 268.48 285.206 270.152C283.094 271.824 280.41 272.66 277.154 272.66C273.37 272.66 270.29 271.531 267.914 269.272C265.567 266.984 264.394 263.963 264.394 260.208C264.394 256.453 265.582 253.417 267.958 251.1C270.334 248.753 273.428 247.58 277.242 247.58C280.351 247.58 282.962 248.357 285.074 249.912C287.186 251.467 288.491 253.564 288.99 256.204ZM298.569 248.328V272H294.301V248.328H298.569ZM298.569 245.248H294.301V240.056H298.569V245.248ZM323.29 259.856C322.175 260.531 319.785 261.073 316.118 261.484C313.449 261.777 311.586 262.159 310.53 262.628C309.474 263.097 308.946 263.992 308.946 265.312C308.946 266.456 309.401 267.365 310.31 268.04C311.249 268.715 312.539 269.052 314.182 269.052C316.822 269.052 318.993 268.495 320.694 267.38C322.425 266.265 323.29 264.931 323.29 263.376V259.856ZM323.422 268.348C321.163 271.223 317.849 272.66 313.478 272.66C310.545 272.66 308.301 272.029 306.746 270.768C305.191 269.507 304.414 267.761 304.414 265.532C304.414 264.447 304.575 263.508 304.898 262.716C305.25 261.924 305.705 261.279 306.262 260.78C306.849 260.281 307.626 259.856 308.594 259.504C309.591 259.123 310.589 258.844 311.586 258.668C312.583 258.492 313.83 258.316 315.326 258.14C315.737 258.081 316.279 258.023 316.954 257.964C317.629 257.905 318.127 257.861 318.45 257.832C318.773 257.803 319.183 257.759 319.682 257.7C320.21 257.612 320.591 257.539 320.826 257.48C321.061 257.421 321.339 257.333 321.662 257.216C322.014 257.099 322.263 256.981 322.41 256.864C322.557 256.717 322.703 256.556 322.85 256.38C323.026 256.175 323.143 255.955 323.202 255.72C323.261 255.456 323.29 255.163 323.29 254.84C323.29 253.579 322.777 252.655 321.75 252.068C320.753 251.481 319.183 251.188 317.042 251.188C314.637 251.188 312.847 251.569 311.674 252.332C310.53 253.065 309.899 254.268 309.782 255.94H305.338C305.631 250.367 309.43 247.58 316.734 247.58C320.694 247.58 323.481 248.167 325.094 249.34C326.737 250.513 327.558 252.537 327.558 255.412V265.004C327.558 266.295 327.705 267.233 327.998 267.82C328.321 268.377 328.878 268.656 329.67 268.656C329.993 268.656 330.418 268.612 330.946 268.524V271.956C329.685 272.161 328.555 272.264 327.558 272.264C325.241 272.264 323.862 270.959 323.422 268.348ZM339.561 240.056V272H335.293V240.056H339.561ZM362.962 251.056C365.367 248.739 368.594 247.58 372.642 247.58C376.69 247.58 379.902 248.739 382.278 251.056C384.654 253.344 385.842 256.395 385.842 260.208C385.842 264.021 384.654 267.057 382.278 269.316C379.902 271.545 376.69 272.66 372.642 272.66C368.564 272.66 365.338 271.545 362.962 269.316C360.586 267.057 359.398 264.021 359.398 260.208C359.398 256.395 360.586 253.344 362.962 251.056ZM378.978 253.828C377.452 252.303 375.34 251.54 372.642 251.54C369.943 251.54 367.816 252.303 366.262 253.828C364.707 255.353 363.93 257.451 363.93 260.12C363.93 262.789 364.707 264.887 366.262 266.412C367.816 267.937 369.943 268.7 372.642 268.7C375.34 268.7 377.452 267.937 378.978 266.412C380.532 264.887 381.31 262.789 381.31 260.12C381.31 257.451 380.532 255.353 378.978 253.828ZM402.949 240.408V244.28C402.069 244.104 401.116 244.016 400.089 244.016C398.974 244.016 398.197 244.221 397.757 244.632C397.346 245.013 397.141 245.717 397.141 246.744V248.328H402.949V251.936H397.141V272H392.873V251.936H388.693V248.328H392.873V245.864C392.873 243.84 393.357 242.373 394.325 241.464C395.293 240.525 396.848 240.056 398.989 240.056C400.485 240.056 401.805 240.173 402.949 240.408ZM420.222 240.408V244.28C419.342 244.104 418.389 244.016 417.362 244.016C416.248 244.016 415.47 244.221 415.03 244.632C414.62 245.013 414.414 245.717 414.414 246.744V248.328H420.222V251.936H414.414V272H410.146V251.936H405.966V248.328H410.146V245.864C410.146 243.84 410.63 242.373 411.598 241.464C412.566 240.525 414.121 240.056 416.262 240.056C417.758 240.056 419.078 240.173 420.222 240.408ZM448.52 261.044H427.18C427.18 263.361 427.957 265.224 429.512 266.632C431.066 268.011 433.105 268.7 435.628 268.7C437.505 268.7 439.104 268.348 440.424 267.644C441.773 266.94 442.682 265.943 443.152 264.652H448.124C447.302 267.204 445.792 269.184 443.592 270.592C441.421 271.971 438.766 272.66 435.628 272.66C431.638 272.66 428.47 271.545 426.124 269.316C423.806 267.057 422.648 264.021 422.648 260.208C422.648 256.365 423.821 253.3 426.168 251.012C428.514 248.724 431.668 247.58 435.628 247.58C439.676 247.58 442.829 248.709 445.088 250.968C447.376 253.197 448.52 256.277 448.52 260.208V261.044ZM427.268 258.008H443.944C443.621 255.984 442.726 254.4 441.26 253.256C439.793 252.112 437.916 251.54 435.628 251.54C433.369 251.54 431.492 252.112 429.996 253.256C428.529 254.4 427.62 255.984 427.268 258.008ZM457.588 248.328V252.332C459.788 249.164 462.692 247.58 466.3 247.58C467.063 247.58 467.694 247.712 468.192 247.976V252.464C467.107 252.141 466.08 251.98 465.112 251.98C463.03 251.98 461.255 252.772 459.788 254.356C458.322 255.94 457.588 257.964 457.588 260.428V272H453.32V248.328H457.588ZM490.116 248.328V252.332C492.316 249.164 495.22 247.58 498.828 247.58C499.59 247.58 500.221 247.712 500.72 247.976V252.464C499.634 252.141 498.608 251.98 497.64 251.98C495.557 251.98 493.782 252.772 492.316 254.356C490.849 255.94 490.116 257.964 490.116 260.428V272H485.848V248.328H490.116ZM528.012 261.044H506.672C506.672 263.361 507.449 265.224 509.004 266.632C510.558 268.011 512.597 268.7 515.12 268.7C516.997 268.7 518.596 268.348 519.916 267.644C521.265 266.94 522.174 265.943 522.644 264.652H527.616C526.794 267.204 525.284 269.184 523.084 270.592C520.913 271.971 518.258 272.66 515.12 272.66C511.13 272.66 507.962 271.545 505.616 269.316C503.298 267.057 502.14 264.021 502.14 260.208C502.14 256.365 503.313 253.3 505.66 251.012C508.006 248.724 511.16 247.58 515.12 247.58C519.168 247.58 522.321 248.709 524.58 250.968C526.868 253.197 528.012 256.277 528.012 260.208V261.044ZM506.76 258.008H523.436C523.113 255.984 522.218 254.4 520.752 253.256C519.285 252.112 517.408 251.54 515.12 251.54C512.861 251.54 510.984 252.112 509.488 253.256C508.021 254.4 507.112 255.984 506.76 258.008ZM557.321 240.056V272H553.053V268.524C550.765 271.281 547.714 272.66 543.901 272.66C540.146 272.66 537.095 271.516 534.749 269.228C532.431 266.94 531.273 263.948 531.273 260.252C531.273 256.556 532.446 253.52 534.793 251.144C537.139 248.768 540.19 247.58 543.945 247.58C545.851 247.58 547.611 247.976 549.225 248.768C550.867 249.531 552.143 250.587 553.053 251.936V240.056H557.321ZM550.721 253.916C549.166 252.332 547.054 251.54 544.385 251.54C541.715 251.54 539.618 252.332 538.093 253.916C536.567 255.471 535.805 257.583 535.805 260.252C535.805 262.921 536.553 265.004 538.049 266.5C539.574 267.967 541.686 268.7 544.385 268.7C547.083 268.7 549.195 267.952 550.721 266.456C552.275 264.96 553.053 262.892 553.053 260.252C553.053 257.612 552.275 255.5 550.721 253.916ZM587.996 261.044H566.656C566.656 263.361 567.433 265.224 568.988 266.632C570.543 268.011 572.581 268.7 575.104 268.7C576.981 268.7 578.58 268.348 579.9 267.644C581.249 266.94 582.159 265.943 582.628 264.652H587.6C586.779 267.204 585.268 269.184 583.068 270.592C580.897 271.971 578.243 272.66 575.104 272.66C571.115 272.66 567.947 271.545 565.6 269.316C563.283 267.057 562.124 264.021 562.124 260.208C562.124 256.365 563.297 253.3 565.644 251.012C567.991 248.724 571.144 247.58 575.104 247.58C579.152 247.58 582.305 248.709 584.564 250.968C586.852 253.197 587.996 256.277 587.996 260.208V261.044ZM566.744 258.008H583.42C583.097 255.984 582.203 254.4 580.736 253.256C579.269 252.112 577.392 251.54 575.104 251.54C572.845 251.54 570.968 252.112 569.472 253.256C568.005 254.4 567.096 255.984 566.744 258.008ZM613.785 255.456H609.649C609.356 252.611 607.068 251.188 602.785 251.188C598.678 251.188 596.625 252.244 596.625 254.356C596.625 255.412 597.006 256.145 597.769 256.556C598.561 256.967 599.969 257.348 601.993 257.7L607.097 258.536C609.796 258.976 611.702 259.695 612.817 260.692C613.961 261.66 614.533 263.185 614.533 265.268C614.533 267.673 613.55 269.507 611.585 270.768C609.62 272.029 606.716 272.66 602.873 272.66C599.177 272.66 596.376 271.985 594.469 270.636C592.592 269.287 591.521 267.175 591.257 264.3H595.921C596.126 265.825 596.816 266.999 597.989 267.82C599.192 268.641 600.82 269.052 602.873 269.052C605.249 269.052 607.068 268.744 608.329 268.128C609.62 267.483 610.265 266.603 610.265 265.488C610.265 264.608 609.942 263.963 609.297 263.552C608.652 263.141 607.537 262.804 605.953 262.54L600.673 261.616C597.681 261.117 595.54 260.428 594.249 259.548C592.988 258.639 592.357 257.157 592.357 255.104C592.357 252.64 593.252 250.777 595.041 249.516C596.86 248.225 599.514 247.58 603.005 247.58C606.525 247.58 609.194 248.255 611.013 249.604C612.861 250.953 613.785 252.904 613.785 255.456ZM623.929 248.328V272H619.661V248.328H623.929ZM623.929 245.248H619.661V240.056H623.929V245.248ZM650.893 248.328H655.161V268.964C655.161 272.953 654.105 275.872 651.993 277.72C649.911 279.568 646.567 280.492 641.961 280.492C638.529 280.492 635.845 279.817 633.909 278.468C631.973 277.148 630.888 275.256 630.653 272.792H635.449C635.889 275.285 638.075 276.532 642.005 276.532C645.232 276.532 647.52 275.975 648.869 274.86C650.219 273.745 650.893 271.897 650.893 269.316V268.524C648.429 271.281 645.379 272.66 641.741 272.66C637.987 272.66 634.936 271.501 632.589 269.184C630.243 266.867 629.069 263.875 629.069 260.208C629.069 256.512 630.243 253.491 632.589 251.144C634.936 248.768 637.972 247.58 641.697 247.58C645.833 247.58 648.899 249.12 650.893 252.2V248.328ZM648.825 253.872C647.241 252.317 645.085 251.54 642.357 251.54C639.629 251.54 637.473 252.317 635.889 253.872C634.335 255.397 633.557 257.509 633.557 260.208C633.557 262.877 634.335 264.96 635.889 266.456C637.473 267.952 639.629 268.7 642.357 268.7C645.085 268.7 647.241 267.952 648.825 266.456C650.409 264.931 651.201 262.848 651.201 260.208C651.201 257.509 650.409 255.397 648.825 253.872ZM665.772 248.328V252.42C668.207 249.193 671.448 247.58 675.496 247.58C678.869 247.58 681.201 248.46 682.492 250.22C683.812 251.98 684.472 254.547 684.472 257.92V272H680.204V258.272C680.204 255.808 679.779 254.019 678.928 252.904C678.077 251.76 676.611 251.188 674.528 251.188C672.005 251.188 669.908 252.009 668.236 253.652C666.593 255.265 665.772 257.377 665.772 259.988V272H661.504V248.328H665.772Z" fill="#0069AF"/>
<defs>
<clipPath id="clip0_103_2">
<rect width="630" height="75" fill="white" transform="translate(63 114)"/>
</clipPath>
</defs>
</svg>
