<svg width="255" height="513" viewBox="0 0 255 513" fill="none" xmlns="http://www.w3.org/2000/svg">
<path d="M79.1138 84H45.6138V57.1H34.1138V84H0.61377V0.599997H34.1138V26.6H45.6138V0.599997H79.1138V84ZM253.995 84H219.795L217.295 72.7H201.395L198.895 84H165.395L189.295 0.599997H230.095L253.995 84ZM213.095 47.5L210.095 29.2H209.095L205.995 47.5H213.095ZM79.2892 227H41.9892L37.9892 212.2C36.5892 207 33.8892 195.1 31.3892 184.9C31.9892 193.5 32.8892 207.5 32.8892 212.5V227H1.78916V143.6H39.2892L43.1892 158.4C45.0892 165.6 47.9892 177.2 49.8892 185.7C49.4892 177.2 48.1892 162.2 48.1892 157V143.6H79.2892V227ZM168.794 227H133.694L122.594 195.3V227H90.1938V143.6H122.094V171.6L132.794 143.6H166.694L148.794 176.6L168.794 227ZM230.599 227H196.899V203.6L173.799 143.6H207.499L214.099 174.8L220.699 143.6H253.199L230.599 203.8V227ZM33.3177 370H0.217676V286.6H43.2177C63.0177 286.6 74.7177 300.4 74.7177 317.8C74.7177 338.4 61.8177 349.8 42.6177 349.8H33.3177V370ZM32.4177 324.6H36.7177C39.5177 324.6 42.4177 323.3 42.4177 318.5C42.4177 314.6 39.4177 312.8 36.7177 312.8H32.4177V324.6ZM254.491 370H220.291L217.791 358.7H201.891L199.391 370H165.891L189.791 286.6H230.591L254.491 370ZM213.591 333.5L210.591 315.2H209.591L206.491 333.5H213.591ZM79.2892 513H41.9892L37.9892 498.2C36.5892 493 33.8892 481.1 31.3892 470.9C31.9892 479.5 32.8892 493.5 32.8892 498.5V513H1.78916V429.6H39.2892L43.1892 444.4C45.0892 451.6 47.9892 463.2 49.8892 471.7C49.4892 463.2 48.1892 448.2 48.1892 443V429.6H79.2892V513ZM168.794 513H133.694L122.594 481.3V513H90.1938V429.6H122.094V457.6L132.794 429.6H166.694L148.794 462.6L168.794 513ZM230.599 513H196.899V489.6L173.799 429.6H207.499L214.099 460.8L220.699 429.6H253.199L230.599 489.8V513Z" fill="#1D37F2"/>
</svg>
