<?xml version="1.0" encoding="utf-8"?>
<!-- Generator: Adobe Illustrator 25.4.1, SVG Export Plug-In . SVG Version: 6.00 Build 0)  -->
<svg version="1.1" id="Layer_1" xmlns="http://www.w3.org/2000/svg" xmlns:xlink="http://www.w3.org/1999/xlink" x="0px" y="0px"
	 viewBox="0 0 254.3 512.4" style="enable-background:new 0 0 254.3 512.4;" xml:space="preserve">
<style type="text/css">
	.st0{fill:#F31C29;}
</style>
<path class="st0" d="M78.9,83.4V0H45.4v26H33.9V0H0.4v83.4h33.5V56.5h11.5v26.9H78.9z M253.8,83.4L229.9,0h-40.8l-23.9,83.4h33.5
	l2.5-11.3h15.9l2.5,11.3H253.8z M212.9,46.9h-7.1l3.1-18.3h1L212.9,46.9z M79.1,226.4V143H48v13.4c0,5.2,1.3,20.2,1.7,28.7
	c-1.9-8.5-4.8-20.1-6.7-27.3L39.1,143H1.6v83.4h31.1v-14.5c0-5-0.9-19-1.5-27.6c2.5,10.2,5.2,22.1,6.6,27.3l4,14.8H79.1z
	 M168.6,226.4l-20-50.4l17.9-33h-33.9l-10.7,28v-28H90v83.4h32.4v-31.7l11.1,31.7H168.6z M230.4,226.4v-23.2L253,143h-32.5
	l-6.6,31.2l-6.6-31.2h-33.7l23.1,60v23.4H230.4z M33.1,369.4v-20.2h9.3c19.2,0,32.1-11.4,32.1-32c0-17.4-11.7-31.2-31.5-31.2H0v83.4
	H33.1z M32.2,324v-11.8h4.3c2.7,0,5.7,1.8,5.7,5.7c0,4.8-2.9,6.1-5.7,6.1H32.2z M254.3,369.4L230.4,286h-40.8l-23.9,83.4h33.5
	l2.5-11.3h15.9l2.5,11.3H254.3z M213.4,332.9h-7.1l3.1-18.3h1L213.4,332.9z M79.1,512.4V429H48v13.4c0,5.2,1.3,20.2,1.7,28.7
	c-1.9-8.5-4.8-20.1-6.7-27.3L39.1,429H1.6v83.4h31.1v-14.5c0-5-0.9-19-1.5-27.6c2.5,10.2,5.2,22.1,6.6,27.3l4,14.8H79.1z
	 M168.6,512.4l-20-50.4l17.9-33h-33.9l-10.7,28v-28H90v83.4h32.4v-31.7l11.1,31.7H168.6z M230.4,512.4v-23.2L253,429h-32.5
	l-6.6,31.2l-6.6-31.2h-33.7l23.1,60v23.4H230.4z"/>
</svg>
