<svg width="700" height="700" viewBox="0 0 700 700" fill="none" xmlns="http://www.w3.org/2000/svg">
<g clip-path="url(#clip0_67_4)">
<path d="M65.415 313H5.145V210.1H24.255V285.805H65.415V313ZM136.981 289.921C136.687 292.469 136.001 294.919 134.923 297.271C133.943 299.525 132.375 301.632 130.219 303.592C128.651 305.16 127.132 306.532 125.662 307.708C124.29 308.786 122.673 309.717 120.811 310.501C118.949 311.285 116.744 311.873 114.196 312.265C111.648 312.657 108.512 312.853 104.788 312.853C103.22 312.853 101.603 312.853 99.937 312.853C98.369 312.755 96.703 312.559 94.939 312.265C93.273 311.873 91.509 311.285 89.647 310.501C87.883 309.717 86.07 308.639 84.208 307.267C78.034 303.641 74.31 297.859 73.036 289.921C72.84 288.745 72.693 286.883 72.595 284.335C72.497 281.689 72.399 278.651 72.301 275.221C72.301 271.791 72.301 268.165 72.301 264.343C72.399 260.521 72.448 256.846 72.448 253.318C72.546 249.692 72.644 246.409 72.742 243.469C72.84 240.529 72.938 238.226 73.036 236.56C73.036 234.796 73.134 233.228 73.33 231.856C73.526 230.484 73.869 229.161 74.359 227.887C74.849 226.613 75.535 225.339 76.417 224.065C77.397 222.791 78.573 221.37 79.945 219.802C82.787 216.666 86.168 214.216 90.088 212.452C94.008 210.688 98.908 209.806 104.788 209.806C109.198 209.806 113.118 210.296 116.548 211.276C120.076 212.256 122.771 213.236 124.633 214.216C126.985 215.882 128.896 217.597 130.366 219.361C131.836 221.027 133.012 222.791 133.894 224.653C134.776 226.417 135.413 228.23 135.805 230.092C136.295 231.954 136.687 233.914 136.981 235.972C137.079 236.658 137.128 238.275 137.128 240.823C137.226 243.273 137.275 246.262 137.275 249.79C137.373 253.22 137.422 256.944 137.422 260.962C137.422 264.98 137.373 268.9 137.275 272.722C137.275 276.446 137.226 279.876 137.128 283.012C137.128 286.05 137.079 288.353 136.981 289.921ZM119.047 279.337C119.537 278.063 119.831 275.858 119.929 272.722C120.125 269.488 120.223 266.107 120.223 262.579C120.223 259.051 120.125 255.719 119.929 252.583C119.831 249.349 119.733 247.095 119.635 245.821C119.047 242.097 117.528 239.549 115.078 238.177C112.628 236.707 109.198 235.972 104.788 235.972C100.378 235.972 97.095 236.707 94.939 238.177C92.881 239.647 91.411 241.803 90.529 244.645C90.235 245.233 89.99 246.409 89.794 248.173C89.696 249.937 89.598 251.995 89.5 254.347C89.5 256.601 89.5 259.051 89.5 261.697C89.598 264.343 89.696 266.842 89.794 269.194C89.892 271.546 89.99 273.653 90.088 275.515C90.284 277.377 90.431 278.651 90.529 279.337C90.823 281.885 92.146 283.992 94.498 285.658C96.948 287.226 100.378 288.01 104.788 288.01C107.238 288.01 109.247 287.814 110.815 287.422C112.481 287.03 113.804 286.491 114.784 285.805C115.862 285.021 116.695 284.09 117.283 283.012C117.969 281.934 118.557 280.709 119.047 279.337ZM164.925 265.666C160.613 264.098 157.134 262.677 154.488 261.403C151.842 260.031 149.784 258.316 148.314 256.258C146.844 254.2 145.815 251.554 145.227 248.32C144.737 244.988 144.492 240.529 144.492 234.943C144.492 231.807 145.227 228.72 146.697 225.682C148.265 222.644 150.764 219.557 154.194 216.421C157.134 213.775 160.711 212.06 164.925 211.276C169.139 210.492 174.039 210.1 179.625 210.1C180.899 210.1 182.32 210.247 183.888 210.541C185.554 210.737 187.171 211.08 188.739 211.57C190.307 211.962 191.728 212.452 193.002 213.04C194.276 213.53 195.305 214.02 196.089 214.51C197.951 215.882 199.47 217.156 200.646 218.332C201.92 219.508 202.998 220.782 203.88 222.154C204.762 223.428 205.497 224.898 206.085 226.564C206.771 228.23 207.506 230.239 208.29 232.591L190.65 244.204C189.67 241.068 187.955 238.814 185.505 237.442C183.153 236.07 180.507 235.384 177.567 235.384C172.961 235.384 169.286 235.972 166.542 237.148C163.798 238.324 162.279 240.48 161.985 243.616C161.887 245.282 162.328 246.605 163.308 247.585C164.386 248.565 165.66 249.349 167.13 249.937C168.698 250.525 170.364 251.015 172.128 251.407C173.99 251.701 175.656 252.044 177.126 252.436L187.857 254.935C196.579 257.875 202.41 262.236 205.35 268.018C208.29 273.8 209.27 281.444 208.29 290.95C207.996 293.4 207.212 295.703 205.938 297.859C204.664 300.015 203.194 301.926 201.528 303.592C200.548 304.67 199.666 305.601 198.882 306.385C198.098 307.169 197.216 307.855 196.236 308.443C195.354 309.031 194.276 309.619 193.002 310.207C191.826 310.697 190.258 311.236 188.298 311.824C186.632 312.314 184.721 312.706 182.565 313C180.409 313.196 178.106 313.294 175.656 313.294C169.482 313.294 164.239 312.216 159.927 310.06C155.615 307.806 152.087 304.964 149.343 301.534C148.167 300.162 147.187 298.692 146.403 297.124C145.619 295.458 145.129 293.302 144.933 290.656L161.544 277.72C162.524 281.836 164.239 284.58 166.689 285.952C169.139 287.324 172.422 288.01 176.538 288.01C178.302 288.01 179.772 287.961 180.948 287.863C182.222 287.765 183.692 287.324 185.358 286.54C186.632 286.05 187.808 285.119 188.886 283.747C190.062 282.277 190.65 280.905 190.65 279.631C191.238 276.985 190.405 274.878 188.151 273.31C185.897 271.644 182.418 270.321 177.714 269.341C176.244 269.047 174.627 268.704 172.863 268.312C171.197 267.92 168.551 267.038 164.925 265.666ZM285.966 210.1V246.409H309.339V210.1H328.596V313H309.339V269.194H285.966V313H266.268V210.1H285.966ZM285.966 251.407V257.581H309.339V251.407H285.966ZM359.626 210.1V279.925C359.626 283.061 360.753 285.217 363.007 286.393C365.261 287.471 368.25 288.01 371.974 288.01C375.992 288.01 379.03 287.471 381.088 286.393C383.244 285.217 384.322 283.061 384.322 279.925V210.1H404.02V284.188C404.02 288.598 403.53 292.175 402.55 294.919C401.668 297.663 400.737 299.672 399.757 300.946C396.327 305.552 392.407 308.786 387.997 310.648C383.685 312.412 378.148 313.294 371.386 313.294C367.956 313.294 364.967 313.049 362.419 312.559C359.871 312.069 357.568 311.383 355.51 310.501C353.55 309.521 351.737 308.394 350.071 307.12C348.503 305.846 346.935 304.425 345.367 302.857C342.819 300.309 341.153 297.124 340.369 293.302C339.585 289.48 339.193 285.217 339.193 280.513V210.1H359.626ZM473.237 313H413.555V209.953H473.237V235.237H433.547V245.968H463.241V251.554H433.547V257.728H463.241V270.223H433.547V285.658H473.237V313ZM481.162 209.953H500.713V285.511H519.382C522.126 282.277 524.478 278.749 526.438 274.927C528.398 271.007 530.015 266.94 531.289 262.726C532.563 258.512 533.445 254.249 533.935 249.937C534.523 245.527 534.768 241.264 534.67 237.148C534.474 233.13 533.935 229.504 533.053 226.27C532.171 222.938 531.24 220.047 530.26 217.597C529.084 214.755 527.81 212.207 526.438 209.953H542.461C544.715 213.383 546.381 217.156 547.459 221.272C548.635 225.29 549.468 229.063 549.958 232.591C550.546 236.707 550.84 240.823 550.84 244.939C550.546 253.563 549.223 261.942 546.871 270.076C544.519 278.112 541.971 285.364 539.227 291.832C535.993 299.378 532.367 306.483 528.349 313.147H481.162V209.953ZM621.765 289.921C621.471 292.469 620.785 294.919 619.707 297.271C618.727 299.525 617.159 301.632 615.003 303.592C613.435 305.16 611.916 306.532 610.446 307.708C609.074 308.786 607.457 309.717 605.595 310.501C603.733 311.285 601.528 311.873 598.98 312.265C596.432 312.657 593.296 312.853 589.572 312.853C588.004 312.853 586.387 312.853 584.721 312.853C583.153 312.755 581.487 312.559 579.723 312.265C578.057 311.873 576.293 311.285 574.431 310.501C572.667 309.717 570.854 308.639 568.992 307.267C562.818 303.641 559.094 297.859 557.82 289.921C557.624 288.745 557.477 286.883 557.379 284.335C557.281 281.689 557.183 278.651 557.085 275.221C557.085 271.791 557.085 268.165 557.085 264.343C557.183 260.521 557.232 256.846 557.232 253.318C557.33 249.692 557.428 246.409 557.526 243.469C557.624 240.529 557.722 238.226 557.82 236.56C557.82 234.796 557.918 233.228 558.114 231.856C558.31 230.484 558.653 229.161 559.143 227.887C559.633 226.613 560.319 225.339 561.201 224.065C562.181 222.791 563.357 221.37 564.729 219.802C567.571 216.666 570.952 214.216 574.872 212.452C578.792 210.688 583.692 209.806 589.572 209.806C593.982 209.806 597.902 210.296 601.332 211.276C604.86 212.256 607.555 213.236 609.417 214.216C611.769 215.882 613.68 217.597 615.15 219.361C616.62 221.027 617.796 222.791 618.678 224.653C619.56 226.417 620.197 228.23 620.589 230.092C621.079 231.954 621.471 233.914 621.765 235.972C621.863 236.658 621.912 238.275 621.912 240.823C622.01 243.273 622.059 246.262 622.059 249.79C622.157 253.22 622.206 256.944 622.206 260.962C622.206 264.98 622.157 268.9 622.059 272.722C622.059 276.446 622.01 279.876 621.912 283.012C621.912 286.05 621.863 288.353 621.765 289.921ZM603.831 279.337C604.321 278.063 604.615 275.858 604.713 272.722C604.909 269.488 605.007 266.107 605.007 262.579C605.007 259.051 604.909 255.719 604.713 252.583C604.615 249.349 604.517 247.095 604.419 245.821C603.831 242.097 602.312 239.549 599.862 238.177C597.412 236.707 593.982 235.972 589.572 235.972C585.162 235.972 581.879 236.707 579.723 238.177C577.665 239.647 576.195 241.803 575.313 244.645C575.019 245.233 574.774 246.409 574.578 248.173C574.48 249.937 574.382 251.995 574.284 254.347C574.284 256.601 574.284 259.051 574.284 261.697C574.382 264.343 574.48 266.842 574.578 269.194C574.676 271.546 574.774 273.653 574.872 275.515C575.068 277.377 575.215 278.651 575.313 279.337C575.607 281.885 576.93 283.992 579.282 285.658C581.732 287.226 585.162 288.01 589.572 288.01C592.022 288.01 594.031 287.814 595.599 287.422C597.265 287.03 598.588 286.491 599.568 285.805C600.646 285.021 601.479 284.09 602.067 283.012C602.753 281.934 603.341 280.709 603.831 279.337ZM649.709 265.666C645.397 264.098 641.918 262.677 639.272 261.403C636.626 260.031 634.568 258.316 633.098 256.258C631.628 254.2 630.599 251.554 630.011 248.32C629.521 244.988 629.276 240.529 629.276 234.943C629.276 231.807 630.011 228.72 631.481 225.682C633.049 222.644 635.548 219.557 638.978 216.421C641.918 213.775 645.495 212.06 649.709 211.276C653.923 210.492 658.823 210.1 664.409 210.1C665.683 210.1 667.104 210.247 668.672 210.541C670.338 210.737 671.955 211.08 673.523 211.57C675.091 211.962 676.512 212.452 677.786 213.04C679.06 213.53 680.089 214.02 680.873 214.51C682.735 215.882 684.254 217.156 685.43 218.332C686.704 219.508 687.782 220.782 688.664 222.154C689.546 223.428 690.281 224.898 690.869 226.564C691.555 228.23 692.29 230.239 693.074 232.591L675.434 244.204C674.454 241.068 672.739 238.814 670.289 237.442C667.937 236.07 665.291 235.384 662.351 235.384C657.745 235.384 654.07 235.972 651.326 237.148C648.582 238.324 647.063 240.48 646.769 243.616C646.671 245.282 647.112 246.605 648.092 247.585C649.17 248.565 650.444 249.349 651.914 249.937C653.482 250.525 655.148 251.015 656.912 251.407C658.774 251.701 660.44 252.044 661.91 252.436L672.641 254.935C681.363 257.875 687.194 262.236 690.134 268.018C693.074 273.8 694.054 281.444 693.074 290.95C692.78 293.4 691.996 295.703 690.722 297.859C689.448 300.015 687.978 301.926 686.312 303.592C685.332 304.67 684.45 305.601 683.666 306.385C682.882 307.169 682 307.855 681.02 308.443C680.138 309.031 679.06 309.619 677.786 310.207C676.61 310.697 675.042 311.236 673.082 311.824C671.416 312.314 669.505 312.706 667.349 313C665.193 313.196 662.89 313.294 660.44 313.294C654.266 313.294 649.023 312.216 644.711 310.06C640.399 307.806 636.871 304.964 634.127 301.534C632.951 300.162 631.971 298.692 631.187 297.124C630.403 295.458 629.913 293.302 629.717 290.656L646.328 277.72C647.308 281.836 649.023 284.58 651.473 285.952C653.923 287.324 657.206 288.01 661.322 288.01C663.086 288.01 664.556 287.961 665.732 287.863C667.006 287.765 668.476 287.324 670.142 286.54C671.416 286.05 672.592 285.119 673.67 283.747C674.846 282.277 675.434 280.905 675.434 279.631C676.022 276.985 675.189 274.878 672.935 273.31C670.681 271.644 667.202 270.321 662.498 269.341C661.028 269.047 659.411 268.704 657.647 268.312C655.981 267.92 653.335 267.038 649.709 265.666ZM37.044 405.463H68.502V429.13C68.6 432.364 68.355 435.647 67.767 438.979C67.179 442.311 66.003 445.104 64.239 447.358C62.279 449.612 60.417 451.523 58.653 453.091C56.987 454.561 55.125 455.786 53.067 456.766C51.009 457.746 48.657 458.53 46.011 459.118C43.365 459.608 40.18 459.902 36.456 460C33.418 460.196 30.184 459.951 26.754 459.265C23.422 458.481 20.286 457.207 17.346 455.443C14.406 453.679 11.809 451.327 9.555 448.387C7.399 445.447 6.027 441.87 5.439 437.656C4.949 434.324 4.606 430.257 4.41 425.455C4.312 420.555 4.263 415.508 4.263 410.314C4.263 405.12 4.312 400.073 4.41 395.173C4.508 390.175 4.655 385.912 4.851 382.384C5.145 378.954 6.125 375.622 7.791 372.388C9.457 369.056 11.711 366.165 14.553 363.715C16.317 362.441 17.836 361.412 19.11 360.628C20.482 359.844 21.903 359.207 23.373 358.717C24.941 358.227 26.705 357.884 28.665 357.688C30.625 357.394 33.026 357.198 35.868 357.1C38.318 357.002 41.258 357.198 44.688 357.688C48.118 358.178 51.254 359.158 54.096 360.628C56.154 361.804 57.869 363.029 59.241 364.303C60.613 365.479 61.789 366.802 62.769 368.272C63.749 369.742 64.582 371.408 65.268 373.27C66.052 375.132 66.885 377.386 67.767 380.032L50.274 391.645C47.922 385.569 43.512 382.482 37.044 382.384C34.496 382.384 32.34 382.678 30.576 383.266C28.812 383.854 27.342 384.638 26.166 385.618C24.99 386.598 24.108 387.627 23.52 388.705C22.932 389.783 22.54 390.763 22.344 391.645C21.756 394.291 21.315 397.28 21.021 400.612C20.825 403.944 20.727 407.227 20.727 410.461C20.727 413.695 20.825 416.782 21.021 419.722C21.315 422.564 21.609 424.867 21.903 426.631C22.001 427.415 22.295 428.346 22.785 429.424C23.275 430.404 24.059 431.384 25.137 432.364C26.313 433.246 27.783 433.981 29.547 434.569C31.409 435.157 33.712 435.353 36.456 435.157C38.514 435.157 40.523 434.961 42.483 434.569C44.443 434.079 46.109 433.197 47.481 431.923C48.853 430.649 49.882 428.836 50.568 426.484C51.254 424.034 51.352 420.849 50.862 416.929L37.044 417.076V405.463ZM98.196 460H78.498V357.1H118.335C121.863 357.198 125.097 357.835 128.037 359.011C130.585 360.089 132.986 361.853 135.24 364.303C137.592 366.655 139.062 370.134 139.65 374.74C139.846 376.896 139.552 379.101 138.768 381.355C137.984 383.511 136.857 385.716 135.387 387.97C134.015 390.126 132.3 392.331 130.242 394.585C128.282 396.839 126.126 399.044 123.774 401.2C126.322 403.454 128.723 405.855 130.977 408.403C132.937 410.657 134.799 413.303 136.563 416.341C138.425 419.379 139.797 422.76 140.679 426.484C141.071 428.444 141.463 430.502 141.855 432.658C142.345 434.814 142.737 437.264 143.031 440.008C143.423 442.654 143.717 445.643 143.913 448.975C144.109 452.209 144.207 455.884 144.207 460H124.509C124.999 453.63 125.195 448.338 125.097 444.124C124.999 439.91 124.803 436.48 124.509 433.834C124.117 430.796 123.676 428.346 123.186 426.484C122.01 423.642 120.736 421.339 119.364 419.575C117.992 417.713 116.767 416.194 115.689 415.018C114.415 413.744 113.141 412.666 111.867 411.784C111.671 412.274 110.838 412.911 109.368 413.695C107.898 414.381 106.33 415.067 104.664 415.753C102.704 416.635 100.548 417.468 98.196 418.252V460ZM98.196 403.111C99.666 402.621 101.136 402.131 102.606 401.641C103.88 401.151 105.203 400.612 106.575 400.024C107.947 399.338 109.27 398.505 110.544 397.525C113.092 395.271 114.954 393.164 116.13 391.204C117.404 389.244 118.335 387.186 118.923 385.03C119.119 384.442 118.972 384.001 118.482 383.707C117.992 383.413 117.404 383.168 116.718 382.972C115.934 382.776 115.003 382.678 113.925 382.678H98.196V403.111ZM165.816 424.279C165.522 425.847 165.326 427.268 165.228 428.542C165.228 429.816 165.228 431.041 165.228 432.217C165.424 436.431 165.963 440.253 166.845 443.683C167.727 447.015 168.707 449.906 169.785 452.356C170.961 455.198 172.333 457.746 173.901 460H157.878C155.526 456.472 153.811 452.699 152.733 448.681C151.655 444.565 150.871 440.743 150.381 437.215C149.891 433.099 149.695 428.983 149.793 424.867C149.989 416.341 151.214 408.06 153.468 400.024C155.82 391.988 158.368 384.736 161.112 378.268C164.346 370.82 167.972 363.764 171.99 357.1H218.883V460H199.773V424.279H165.816ZM199.773 382.384H180.663C178.507 384.834 176.645 387.578 175.077 390.616C173.509 393.556 172.088 396.741 170.814 400.171H199.773V382.384ZM199.773 412.519V406.345H168.315C168.119 407.227 167.972 407.913 167.874 408.403C167.874 408.795 167.825 409.138 167.727 409.432C167.629 409.726 167.531 410.118 167.433 410.608C167.335 411 167.237 411.637 167.139 412.519H199.773ZM248.641 356.953V374.74L272.161 395.173V356.953H291.859V460H272.161V418.693L248.641 398.26V460H228.943V356.953H248.641ZM353.319 432.511C353.319 428.493 353.074 424.23 352.584 419.722C352.192 415.214 351.457 410.755 350.379 406.345C349.301 401.837 347.831 397.574 345.969 393.556C344.205 389.44 341.951 385.814 339.207 382.678H320.832V432.511H353.319ZM346.557 460H301.722V356.953H348.468C352.29 363.617 355.818 370.722 359.052 378.268C360.326 381.502 361.6 384.932 362.874 388.558C364.246 392.184 365.471 396.006 366.549 400.024C367.627 403.944 368.509 408.011 369.195 412.225C369.881 416.341 370.322 420.457 370.518 424.573C370.518 428.787 370.273 432.952 369.783 437.068C369.293 440.596 368.509 444.418 367.431 448.534C366.353 452.65 364.736 456.472 362.58 460H346.557ZM439.932 460H380.25V356.953H439.932V382.237H400.242V392.968H429.936V398.554H400.242V404.728H429.936V417.223H400.242V432.658H439.932V460ZM466.82 412.666C462.508 411.098 459.029 409.677 456.383 408.403C453.737 407.031 451.679 405.316 450.209 403.258C448.739 401.2 447.71 398.554 447.122 395.32C446.632 391.988 446.387 387.529 446.387 381.943C446.387 378.807 447.122 375.72 448.592 372.682C450.16 369.644 452.659 366.557 456.089 363.421C459.029 360.775 462.606 359.06 466.82 358.276C471.034 357.492 475.934 357.1 481.52 357.1C482.794 357.1 484.215 357.247 485.783 357.541C487.449 357.737 489.066 358.08 490.634 358.57C492.202 358.962 493.623 359.452 494.897 360.04C496.171 360.53 497.2 361.02 497.984 361.51C499.846 362.882 501.365 364.156 502.541 365.332C503.815 366.508 504.893 367.782 505.775 369.154C506.657 370.428 507.392 371.898 507.98 373.564C508.666 375.23 509.401 377.239 510.185 379.591L492.545 391.204C491.565 388.068 489.85 385.814 487.4 384.442C485.048 383.07 482.402 382.384 479.462 382.384C474.856 382.384 471.181 382.972 468.437 384.148C465.693 385.324 464.174 387.48 463.88 390.616C463.782 392.282 464.223 393.605 465.203 394.585C466.281 395.565 467.555 396.349 469.025 396.937C470.593 397.525 472.259 398.015 474.023 398.407C475.885 398.701 477.551 399.044 479.021 399.436L489.752 401.935C498.474 404.875 504.305 409.236 507.245 415.018C510.185 420.8 511.165 428.444 510.185 437.95C509.891 440.4 509.107 442.703 507.833 444.859C506.559 447.015 505.089 448.926 503.423 450.592C502.443 451.67 501.561 452.601 500.777 453.385C499.993 454.169 499.111 454.855 498.131 455.443C497.249 456.031 496.171 456.619 494.897 457.207C493.721 457.697 492.153 458.236 490.193 458.824C488.527 459.314 486.616 459.706 484.46 460C482.304 460.196 480.001 460.294 477.551 460.294C471.377 460.294 466.134 459.216 461.822 457.06C457.51 454.806 453.982 451.964 451.238 448.534C450.062 447.162 449.082 445.692 448.298 444.124C447.514 442.458 447.024 440.302 446.828 437.656L463.439 424.72C464.419 428.836 466.134 431.58 468.584 432.952C471.034 434.324 474.317 435.01 478.433 435.01C480.197 435.01 481.667 434.961 482.843 434.863C484.117 434.765 485.587 434.324 487.253 433.54C488.527 433.05 489.703 432.119 490.781 430.747C491.957 429.277 492.545 427.905 492.545 426.631C493.133 423.985 492.3 421.878 490.046 420.31C487.792 418.644 484.313 417.321 479.609 416.341C478.139 416.047 476.522 415.704 474.758 415.312C473.092 414.92 470.446 414.038 466.82 412.666Z" fill="#F31C29"/>
</g>
<defs>
<clipPath id="clip0_67_4">
<rect width="700" height="700" fill="white"/>
</clipPath>
</defs>
</svg>
