<svg width="587" height="652" viewBox="0 0 587 652" fill="none" xmlns="http://www.w3.org/2000/svg">
<path d="M441.829 112H408.504V109.017H413.328C414.386 109.017 415.254 108.466 415.931 107.366C416.608 106.224 416.946 105.123 416.946 104.065V31.2578H408.885C407.488 31.2578 406.176 32.21 404.949 34.1143C403.764 36.0186 402.791 38.4518 402.029 41.4141C400.971 44.8841 400.21 47.6771 399.744 49.793C399.279 51.9089 398.877 54.7441 398.538 58.2988H395.682C394.37 52.5859 393.143 47.804 392 43.9531C390.9 40.1022 389.524 36.484 387.874 33.0986V27.5127L462.586 27.5127V33.0986C460.851 36.738 459.412 40.4196 458.269 44.1436C457.169 47.8675 456.005 52.5859 454.778 58.2988H451.922C451.583 55.252 451.181 52.5436 450.716 50.1738C450.25 47.804 449.489 44.8841 448.431 41.4141C447.584 38.4518 446.569 36.0186 445.384 34.1143C444.199 32.21 442.929 31.2578 441.575 31.2578H433.514V104.065C433.514 105.123 433.852 106.224 434.529 107.366C435.206 108.466 436.032 109.017 437.005 109.017H441.829V112ZM485.437 47L485.564 52.0781V68.4551C486.453 67.4818 487.299 66.6354 488.103 65.916C488.95 65.1543 489.712 64.5618 490.389 64.1387C492.039 63.123 494.028 62.6152 496.355 62.6152C498.006 62.6152 499.741 63.0173 501.56 63.8213C503.38 64.583 505.073 65.7256 506.639 67.249C508.204 68.7301 509.495 70.5921 510.511 72.835C511.569 75.0778 512.098 77.6803 512.098 80.6426V110.159C512.055 111.048 511.653 111.492 510.892 111.492H501.434C500.756 111.45 500.418 111.006 500.418 110.159V82.1025C500.418 77.0667 499.804 73.5544 498.577 71.5654C498.323 71.1423 497.794 70.6556 496.99 70.1055C496.186 69.513 495.446 69.2168 494.768 69.2168C492.737 69.2168 490.981 69.7881 489.5 70.9307C487.215 72.6657 486.072 74.8662 486.072 77.5322V110.159C486.115 111.048 485.607 111.492 484.549 111.492H474.9C474.223 111.492 473.885 110.963 473.885 109.905L473.758 51.9512L473.885 47L473.758 27.8936C473.758 27.3011 474.096 27.0049 474.773 27.0049L484.422 27.0049C485.099 27.0049 485.437 27.3434 485.437 28.0205V47ZM582.176 99.9395C582.176 102.013 581.012 104.129 578.685 106.287C576.399 108.445 573.564 110.223 570.179 111.619C566.836 113.016 563.641 113.714 560.594 113.714C555.219 113.714 550.057 112.55 545.105 110.223C540.154 107.853 536.134 104.489 533.045 100.13C529.998 95.7288 528.475 90.6719 528.475 84.959C528.475 79.5 529.871 74.3796 532.664 69.5977C535.499 64.7734 539.371 60.9225 544.28 58.0449C549.189 55.1673 554.585 53.7285 560.467 53.7285C562.963 53.7285 565.82 54.3844 569.036 55.6963C572.252 57.0081 574.982 58.7008 577.225 60.7744C579.467 62.848 580.589 65.0697 580.589 67.4395C580.589 70.9095 578.938 72.6234 575.638 72.5811C573.564 72.5811 571.766 72.0732 570.242 71.0576C568.761 69.9997 567.703 68.6455 567.068 66.9951C566.307 64.583 565.354 62.6999 564.212 61.3457C563.112 59.9492 561.546 59.251 559.515 59.251C557.102 59.251 554.733 59.9704 552.405 61.4092C550.078 62.8057 548.11 64.6253 546.502 66.8682C544.894 69.0687 543.963 71.2057 543.709 73.2793L543.011 79.7539C545.254 79.7539 547.179 79.6693 548.787 79.5C550.395 79.3307 552.215 79.098 554.246 78.8018C556.32 78.5055 557.653 78.3574 558.245 78.3574C560.403 78.3574 562.032 78.4844 563.133 78.7383C564.275 78.9922 565.333 79.5 566.307 80.2617C567.872 81.4889 569.205 82.3353 570.306 82.8008C571.448 83.2663 572.972 83.7318 574.876 84.1973C573.903 86.6094 572.527 88.2809 570.75 89.2119C569.015 90.1006 566.455 90.5449 563.069 90.5449C561.757 90.5449 560.446 90.3757 559.134 90.0371C557.864 89.6986 556.637 89.2331 555.452 88.6406C554.267 88.0059 552.955 87.1595 551.517 86.1016L542.63 85.9746C542.799 91.2643 543.667 95.3903 545.232 98.3525C549.126 105.377 554.034 108.89 559.959 108.89C561.948 108.89 563.894 108.191 565.799 106.795C567.703 105.398 568.951 103.875 569.544 102.225C570.602 99.7279 571.554 97.8659 572.4 96.6387C573.289 95.3691 574.368 94.7344 575.638 94.7344C578.05 94.7344 579.742 95.0941 580.716 95.8135C581.689 96.4906 582.176 97.8659 582.176 99.9395ZM189.764 201.438V236.16C189.764 236.922 190.187 237.578 191.033 238.128C191.922 238.636 192.789 238.89 193.636 238.89H196.238V242H166.468V238.89H168.816C170.297 238.89 171.419 238.466 172.181 237.62C172.985 236.731 173.387 235.504 173.387 233.938V164.939C173.387 164.093 173.006 163.183 172.244 162.21C171.525 161.237 170.763 160.75 169.959 160.75H166.468L166.341 157.513H196.238V160.75H193.636C192.578 160.75 191.668 161.152 190.906 161.956C190.144 162.718 189.764 163.564 189.764 164.495V198.074C193.572 198.074 196.894 196.614 199.729 193.694C202.607 190.732 204.871 186.437 206.521 180.809C208.172 175.138 208.997 168.452 208.997 160.75H204.808V157.513H232.229V160.75H227.723C227.723 166.717 226.876 172.324 225.184 177.571C223.491 182.819 220.804 187.368 217.122 191.219C213.44 195.07 208.658 197.82 202.776 199.471C208.743 201.46 213.588 203.829 217.312 206.58C221.036 209.288 223.893 212.293 225.882 215.594C227.871 218.895 229.225 222.407 229.944 226.131C230.706 229.855 231.087 234.108 231.087 238.89H236.419V242H207.029V238.89H211.346C211.346 230.849 210.267 223.994 208.108 218.323C205.992 212.61 203.263 208.379 199.92 205.628C196.619 202.835 193.234 201.438 189.764 201.438ZM291.961 187.664C291.961 188.426 291.178 190.415 289.612 193.631C288.554 195.958 287.835 197.799 287.454 199.153C287.073 200.507 286.798 201.967 286.629 203.533L285.931 211.341C285.931 213.414 285.127 214.451 283.518 214.451C282.545 214.451 281.762 213.097 281.17 210.389L279.202 199.852C278.525 196.382 277.446 193.589 275.965 191.473C274.484 189.357 272.749 188.299 270.76 188.299H267.776C266.126 188.299 264.581 189.082 263.143 190.647C261.704 192.213 260.984 193.694 260.984 195.091V239.271C260.984 240.328 260.9 241.048 260.73 241.429C260.561 241.81 260.223 242 259.715 242H249.305C248.162 242 247.591 241.09 247.591 239.271V187.156C247.591 185.844 248.162 185.188 249.305 185.188L290.12 185.188C291.347 185.188 291.961 186.014 291.961 187.664ZM354.422 229.939C354.422 232.013 353.258 234.129 350.931 236.287C348.645 238.445 345.81 240.223 342.425 241.619C339.082 243.016 335.887 243.714 332.84 243.714C327.465 243.714 322.303 242.55 317.352 240.223C312.4 237.853 308.38 234.489 305.291 230.13C302.244 225.729 300.721 220.672 300.721 214.959C300.721 209.5 302.117 204.38 304.91 199.598C307.745 194.773 311.617 190.923 316.526 188.045C321.435 185.167 326.831 183.729 332.713 183.729C335.21 183.729 338.066 184.384 341.282 185.696C344.498 187.008 347.228 188.701 349.471 190.774C351.713 192.848 352.835 195.07 352.835 197.439C352.835 200.91 351.185 202.623 347.884 202.581C345.81 202.581 344.012 202.073 342.488 201.058C341.007 200 339.949 198.646 339.314 196.995C338.553 194.583 337.601 192.7 336.458 191.346C335.358 189.949 333.792 189.251 331.761 189.251C329.349 189.251 326.979 189.97 324.651 191.409C322.324 192.806 320.356 194.625 318.748 196.868C317.14 199.069 316.209 201.206 315.955 203.279L315.257 209.754C317.5 209.754 319.425 209.669 321.033 209.5C322.641 209.331 324.461 209.098 326.492 208.802C328.566 208.506 329.899 208.357 330.491 208.357C332.649 208.357 334.279 208.484 335.379 208.738C336.521 208.992 337.579 209.5 338.553 210.262C340.118 211.489 341.451 212.335 342.552 212.801C343.694 213.266 345.218 213.732 347.122 214.197C346.149 216.609 344.773 218.281 342.996 219.212C341.261 220.101 338.701 220.545 335.315 220.545C334.004 220.545 332.692 220.376 331.38 220.037C330.11 219.699 328.883 219.233 327.698 218.641C326.513 218.006 325.201 217.16 323.763 216.102L314.876 215.975C315.045 221.264 315.913 225.39 317.478 228.353C321.372 235.377 326.281 238.89 332.205 238.89C334.194 238.89 336.141 238.191 338.045 236.795C339.949 235.398 341.198 233.875 341.79 232.225C342.848 229.728 343.8 227.866 344.646 226.639C345.535 225.369 346.614 224.734 347.884 224.734C350.296 224.734 351.989 225.094 352.962 225.813C353.935 226.491 354.422 227.866 354.422 229.939ZM418.279 187.156C418.195 185.929 418.66 185.315 419.676 185.315H430.213C431.355 185.315 431.969 185.802 432.054 186.775L437.005 240.286C437.174 241.429 436.687 242 435.545 242H424.754C424.331 242 424.056 241.937 423.929 241.81C423.802 241.683 423.696 241.323 423.611 240.73L421.009 213.689C420.755 212.293 420.395 211.595 419.93 211.595C419.422 211.595 418.702 211.976 417.771 212.737L406.727 222.386C405.753 223.147 405.309 224.184 405.393 225.496L406.98 240.286C407.065 241.429 406.705 242 405.901 242H395.364C394.772 242 394.391 241.344 394.222 240.032L391.111 206.771C390.773 203.47 390.074 201.819 389.017 201.819C388.424 201.819 387.282 202.983 385.589 205.311C383.896 207.596 382.394 210.114 381.082 212.864C378.67 218.323 377.464 223.782 377.464 229.241C377.464 230.807 377.718 233.41 378.226 237.049L378.606 240.54C378.776 241.513 378.395 242 377.464 242H364.324C363.478 242 363.033 240.561 362.991 237.684C362.991 232.225 365.149 226.046 369.466 219.148C373.824 212.208 378.691 206.559 384.065 202.2C385.123 201.438 386.308 200.275 387.62 198.709C388.974 197.143 389.609 196.149 389.524 195.726L388.636 186.648C388.551 185.675 388.974 185.188 389.905 185.188H400.569C401.246 185.188 401.648 185.844 401.775 187.156L404.632 216.546C404.716 217.223 405.034 217.688 405.584 217.942C406.134 218.196 406.769 218.027 407.488 217.435L419.295 207.659C420.057 207.067 420.31 205.861 420.057 204.041L418.279 187.156ZM493.943 239.524C493.943 241.175 493.33 242 492.102 242H451.287C450.144 242 449.573 241.344 449.573 240.032V187.918C449.573 186.098 450.144 185.188 451.287 185.188H461.697C462.205 185.188 462.544 185.379 462.713 185.76C462.882 186.141 462.967 186.86 462.967 187.918V232.098C462.967 233.494 463.686 234.975 465.125 236.541C466.564 238.107 468.108 238.89 469.759 238.89H472.742C474.731 238.89 476.466 237.832 477.947 235.716C479.428 233.6 480.507 230.807 481.185 227.337L483.152 216.8C483.745 214.091 484.528 212.737 485.501 212.737C487.109 212.737 487.913 213.774 487.913 215.848L488.611 223.655C488.781 225.221 489.056 226.681 489.436 228.035C489.817 229.389 490.537 231.23 491.595 233.558C493.16 236.774 493.943 238.763 493.943 239.524ZM518.318 186.775V239.905C518.318 241.302 517.832 242 516.858 242H507.654C506.512 242 505.94 241.217 505.94 239.651V186.521C505.94 186.183 506.11 185.887 506.448 185.633C506.829 185.337 507.189 185.188 507.527 185.188H516.858C517.197 185.188 517.514 185.358 517.81 185.696C518.149 185.993 518.318 186.352 518.318 186.775ZM534.886 187.791C534.886 186.056 535.669 185.188 537.234 185.188H577.669C578.981 185.188 579.637 185.887 579.637 187.283V240.413C579.637 241.471 579.15 242 578.177 242H568.02C566.963 242 566.455 241.513 566.497 240.54V190.647C566.497 189.166 565.968 188.426 564.91 188.426H549.866C548.724 188.426 548.152 189.209 548.152 190.774V240.857C548.152 241.619 547.666 242 546.692 242H536.219C535.372 242 534.928 241.471 534.886 240.413V187.791ZM107.054 287.005H137.205V290.75H131.302L147.171 357.464L157.708 302.049V290.75H152.122V287.005L181.004 287.005V290.75H176.814V296.463L191.668 365.081C192.091 367.578 194.038 369.059 197.508 369.524V372.127L167.356 372.127V369.524H168.626C169.684 369.524 170.721 369.292 171.736 368.826C172.794 368.361 173.239 367.768 173.069 367.049L161.39 310.999L150.726 365.398C150.472 366.456 150.831 367.409 151.805 368.255C152.82 369.101 153.794 369.524 154.725 369.524H156.311V372.127H123.558V369.397L127.303 369.524C128.53 369.524 129.461 369.207 130.096 368.572C130.73 367.895 130.921 367.007 130.667 365.906L116.131 304.271L109.593 315.696C108.45 317.685 107.498 319.568 106.736 321.346C105.975 323.123 105.234 325.387 104.515 328.138C103.838 330.846 103.309 333.872 102.928 337.215C102.547 340.558 102.314 344.874 102.229 350.164C102.229 356.131 102.737 362.542 103.753 369.397C103.838 369.821 103.732 370.392 103.435 371.111C103.139 371.788 102.737 372.127 102.229 372.127H83.6308C82.7844 372.127 82.3401 371.217 82.2978 369.397C82.2978 360.215 82.7421 353.803 83.6308 350.164C84.6887 345.678 86.3814 341.383 88.7089 337.278C91.0364 333.131 93.9775 328.709 97.5322 324.012C97.8707 323.504 99.1402 321.917 101.341 319.251C103.584 316.543 105.086 314.448 105.848 312.967C109.825 306.281 112.513 300.779 113.909 296.463V295.066L113.274 290.877H107.054V287.005ZM253.367 316.204V369.397C253.367 370.794 252.965 374.814 252.161 381.458C251.399 388.144 250.892 393.138 250.638 396.438C250.553 397.412 250.193 398.279 249.559 399.041C248.966 399.803 248.183 400.184 247.21 400.184C246.533 400.184 245.898 399.803 245.306 399.041C244.755 398.279 244.438 397.412 244.353 396.438C244.184 392.799 243.719 388.969 242.957 384.949C242.238 380.929 241.624 378.136 241.116 376.57C240.058 373.523 238.069 372 235.149 372H210.711C210.118 372 209.589 371.767 209.124 371.302C208.701 370.794 208.489 370.244 208.489 369.651V317.029C208.489 315.887 209.145 315.315 210.457 315.315H220.867C221.544 315.315 221.883 315.717 221.883 316.521V364.192C221.883 366.351 222.666 367.43 224.231 367.43H237.371C238.344 367.43 239.021 367.218 239.402 366.795C239.783 366.372 239.974 365.631 239.974 364.573V316.331C239.974 315.654 240.27 315.315 240.862 315.315H252.288C253.007 315.315 253.367 315.612 253.367 316.204ZM304.212 334.803C304.212 331.756 303.958 329.153 303.45 326.995C303.196 325.429 302.202 323.673 300.467 321.727C298.732 319.78 296.045 318.807 292.405 318.807C289.274 318.807 286.713 320.542 284.725 324.012C283.328 326.17 282.63 328.984 282.63 332.454C282.63 334.02 282.926 335.586 283.518 337.151C284.153 338.717 285.127 339.796 286.438 340.389C288.427 341.531 290.057 342.103 291.326 342.103C293.654 342.103 295.706 341.849 297.483 341.341C298.964 340.833 301.165 340.558 304.085 340.516C306.412 340.516 308.634 341.045 310.75 342.103C312.908 343.16 314.643 344.79 315.955 346.99C317.309 349.191 317.986 351.941 317.986 355.242C317.986 357.316 317.415 359.791 316.272 362.669C315.172 365.504 313.67 367.747 311.766 369.397C308.634 371.979 304.381 373.27 299.007 373.27C297.864 373.27 296.383 372.931 294.563 372.254C292.786 371.577 291.411 370.709 290.437 369.651C288.025 366.985 285.782 365.652 283.709 365.652C283.032 365.652 282.27 366.118 281.424 367.049C280.577 367.938 279.9 369.017 279.393 370.286C279.139 371.048 278.292 371.725 276.853 372.317C275.415 372.952 274.06 373.27 272.791 373.27C268.178 373.27 265.872 371.111 265.872 366.795C265.872 365.568 266.359 364.087 267.332 362.352C268.348 360.617 269.723 359.157 271.458 357.972C273.193 356.744 275.055 356.131 277.044 356.131C279.541 356.131 282.63 357.654 286.311 360.701C288.724 362.69 290.501 364.108 291.643 364.954C292.828 365.758 294.056 366.351 295.325 366.731C296.595 367.112 298.055 367.26 299.705 367.176C301.017 367.091 302.371 366.139 303.768 364.319C305.206 362.5 305.926 359.77 305.926 356.131C305.926 353.084 305.439 350.46 304.466 348.26C303.535 346.059 302.159 344.959 300.34 344.959C299.113 344.959 297.293 345.107 294.881 345.403C292.511 345.7 291.072 345.89 290.564 345.975C287.518 346.059 283.624 345.424 278.885 344.07C276.473 343.309 274.441 341.976 272.791 340.071C271.141 338.125 270.315 335.289 270.315 331.565C270.315 326.022 272.558 321.684 277.044 318.553C281.657 315.506 286.248 314.004 290.818 314.046C294.542 314.046 297.674 314.279 300.213 314.744C302.794 315.21 305.206 316.225 307.449 317.791C310.115 319.526 312.189 321.451 313.67 323.567C315.193 325.683 315.955 327.693 315.955 329.598C315.955 331.333 315.68 333.068 315.13 334.803H304.212ZM380.066 359.939C380.066 362.013 378.903 364.129 376.575 366.287C374.29 368.445 371.455 370.223 368.069 371.619C364.726 373.016 361.531 373.714 358.484 373.714C353.11 373.714 347.947 372.55 342.996 370.223C338.045 367.853 334.025 364.489 330.935 360.13C327.889 355.729 326.365 350.672 326.365 344.959C326.365 339.5 327.762 334.38 330.555 329.598C333.39 324.773 337.262 320.923 342.171 318.045C347.08 315.167 352.475 313.729 358.357 313.729C360.854 313.729 363.711 314.384 366.927 315.696C370.143 317.008 372.872 318.701 375.115 320.774C377.358 322.848 378.479 325.07 378.479 327.439C378.479 330.91 376.829 332.623 373.528 332.581C371.455 332.581 369.656 332.073 368.133 331.058C366.652 330 365.594 328.646 364.959 326.995C364.197 324.583 363.245 322.7 362.102 321.346C361.002 319.949 359.436 319.251 357.405 319.251C354.993 319.251 352.623 319.97 350.296 321.409C347.968 322.806 346.001 324.625 344.393 326.868C342.784 329.069 341.853 331.206 341.6 333.279L340.901 339.754C343.144 339.754 345.07 339.669 346.678 339.5C348.286 339.331 350.105 339.098 352.137 338.802C354.21 338.506 355.543 338.357 356.136 338.357C358.294 338.357 359.923 338.484 361.023 338.738C362.166 338.992 363.224 339.5 364.197 340.262C365.763 341.489 367.096 342.335 368.196 342.801C369.339 343.266 370.862 343.732 372.767 344.197C371.793 346.609 370.418 348.281 368.641 349.212C366.906 350.101 364.345 350.545 360.96 350.545C359.648 350.545 358.336 350.376 357.024 350.037C355.755 349.699 354.528 349.233 353.343 348.641C352.158 348.006 350.846 347.16 349.407 346.102L340.52 345.975C340.69 351.264 341.557 355.39 343.123 358.353C347.016 365.377 351.925 368.89 357.85 368.89C359.838 368.89 361.785 368.191 363.689 366.795C365.594 365.398 366.842 363.875 367.435 362.225C368.492 359.728 369.445 357.866 370.291 356.639C371.18 355.369 372.259 354.734 373.528 354.734C375.94 354.734 377.633 355.094 378.606 355.813C379.58 356.491 380.066 357.866 380.066 359.939ZM437.957 316.204V369.397C437.957 370.794 437.555 374.814 436.751 381.458C435.989 388.144 435.481 393.138 435.227 396.438C435.143 397.412 434.783 398.279 434.148 399.041C433.556 399.803 432.773 400.184 431.8 400.184C431.123 400.184 430.488 399.803 429.895 399.041C429.345 398.279 429.028 397.412 428.943 396.438C428.774 392.799 428.309 388.969 427.547 384.949C426.827 380.929 426.214 378.136 425.706 376.57C424.648 373.523 422.659 372 419.739 372H395.301C394.708 372 394.179 371.767 393.714 371.302C393.291 370.794 393.079 370.244 393.079 369.651V317.029C393.079 315.887 393.735 315.315 395.047 315.315H405.457C406.134 315.315 406.473 315.717 406.473 316.521V364.192C406.473 366.351 407.255 367.43 408.821 367.43H421.961C422.934 367.43 423.611 367.218 423.992 366.795C424.373 366.372 424.563 365.631 424.563 364.573V316.331C424.563 315.654 424.86 315.315 425.452 315.315H436.878C437.597 315.315 437.957 315.612 437.957 316.204ZM506.639 317.156C506.554 315.929 507.019 315.315 508.035 315.315H518.572C519.715 315.315 520.328 315.802 520.413 316.775L525.364 370.286C525.533 371.429 525.047 372 523.904 372H513.113C512.69 372 512.415 371.937 512.288 371.81C512.161 371.683 512.055 371.323 511.971 370.73L509.368 343.689C509.114 342.293 508.754 341.595 508.289 341.595C507.781 341.595 507.062 341.976 506.131 342.737L495.086 352.386C494.113 353.147 493.668 354.184 493.753 355.496L495.34 370.286C495.424 371.429 495.065 372 494.261 372H483.724C483.131 372 482.75 371.344 482.581 370.032L479.471 336.771C479.132 333.47 478.434 331.819 477.376 331.819C476.783 331.819 475.641 332.983 473.948 335.311C472.255 337.596 470.753 340.114 469.441 342.864C467.029 348.323 465.823 353.782 465.823 359.241C465.823 360.807 466.077 363.41 466.585 367.049L466.966 370.54C467.135 371.513 466.754 372 465.823 372H452.684C451.837 372 451.393 370.561 451.351 367.684C451.351 362.225 453.509 356.046 457.825 349.148C462.184 342.208 467.05 336.559 472.425 332.2C473.483 331.438 474.668 330.275 475.979 328.709C477.334 327.143 477.968 326.149 477.884 325.726L476.995 316.648C476.91 315.675 477.334 315.188 478.265 315.188H488.929C489.606 315.188 490.008 315.844 490.135 317.156L492.991 346.546C493.076 347.223 493.393 347.688 493.943 347.942C494.493 348.196 495.128 348.027 495.848 347.435L507.654 337.659C508.416 337.067 508.67 335.861 508.416 334.041L506.639 317.156ZM570.306 334.803C570.306 331.756 570.052 329.153 569.544 326.995C569.29 325.429 568.296 323.673 566.56 321.727C564.825 319.78 562.138 318.807 558.499 318.807C555.367 318.807 552.807 320.542 550.818 324.012C549.422 326.17 548.724 328.984 548.724 332.454C548.724 334.02 549.02 335.586 549.612 337.151C550.247 338.717 551.22 339.796 552.532 340.389C554.521 341.531 556.15 342.103 557.42 342.103C559.747 342.103 561.8 341.849 563.577 341.341C565.058 340.833 567.259 340.558 570.179 340.516C572.506 340.516 574.728 341.045 576.844 342.103C579.002 343.16 580.737 344.79 582.049 346.99C583.403 349.191 584.08 351.941 584.08 355.242C584.08 357.316 583.509 359.791 582.366 362.669C581.266 365.504 579.764 367.747 577.859 369.397C574.728 371.979 570.475 373.27 565.101 373.27C563.958 373.27 562.477 372.931 560.657 372.254C558.88 371.577 557.504 370.709 556.531 369.651C554.119 366.985 551.876 365.652 549.803 365.652C549.126 365.652 548.364 366.118 547.518 367.049C546.671 367.938 545.994 369.017 545.486 370.286C545.232 371.048 544.386 371.725 542.947 372.317C541.508 372.952 540.154 373.27 538.885 373.27C534.272 373.27 531.966 371.111 531.966 366.795C531.966 365.568 532.452 364.087 533.426 362.352C534.441 360.617 535.817 359.157 537.552 357.972C539.287 356.744 541.149 356.131 543.138 356.131C545.634 356.131 548.724 357.654 552.405 360.701C554.817 362.69 556.595 364.108 557.737 364.954C558.922 365.758 560.149 366.351 561.419 366.731C562.688 367.112 564.148 367.26 565.799 367.176C567.111 367.091 568.465 366.139 569.861 364.319C571.3 362.5 572.019 359.77 572.019 356.131C572.019 353.084 571.533 350.46 570.56 348.26C569.629 346.059 568.253 344.959 566.434 344.959C565.206 344.959 563.387 345.107 560.975 345.403C558.605 345.7 557.166 345.89 556.658 345.975C553.611 346.059 549.718 345.424 544.978 344.07C542.566 343.309 540.535 341.976 538.885 340.071C537.234 338.125 536.409 335.289 536.409 331.565C536.409 326.022 538.652 321.684 543.138 318.553C547.75 315.506 552.342 314.004 556.912 314.046C560.636 314.046 563.768 314.279 566.307 314.744C568.888 315.21 571.3 316.225 573.543 317.791C576.209 319.526 578.282 321.451 579.764 323.567C581.287 325.683 582.049 327.693 582.049 329.598C582.049 331.333 581.774 333.068 581.224 334.803H570.306ZM260.286 502H226.961V499.017H231.785C232.843 499.017 233.711 498.466 234.388 497.366C235.065 496.224 235.403 495.123 235.403 494.065L235.403 421.258H227.342C225.945 421.258 224.633 422.21 223.406 424.114C222.221 426.019 221.248 428.452 220.486 431.414C219.428 434.884 218.667 437.677 218.201 439.793C217.736 441.909 217.334 444.744 216.995 448.299H214.139C212.827 442.586 211.6 437.804 210.457 433.953C209.357 430.102 207.981 426.484 206.331 423.099V417.513H281.043V423.099C279.308 426.738 277.869 430.42 276.727 434.144C275.626 437.868 274.463 442.586 273.235 448.299H270.379C270.04 445.252 269.638 442.544 269.173 440.174C268.707 437.804 267.946 434.884 266.888 431.414C266.041 428.452 265.026 426.019 263.841 424.114C262.656 422.21 261.386 421.258 260.032 421.258H251.971L251.971 494.065C251.971 495.123 252.309 496.224 252.986 497.366C253.663 498.466 254.489 499.017 255.462 499.017H260.286V502ZM309.925 470.389V480.672H281.551V470.389H309.925ZM356.643 464.803C356.643 461.756 356.39 459.153 355.882 456.995C355.628 455.429 354.633 453.673 352.898 451.727C351.163 449.78 348.476 448.807 344.837 448.807C341.705 448.807 339.145 450.542 337.156 454.012C335.76 456.17 335.061 458.984 335.061 462.454C335.061 464.02 335.358 465.586 335.95 467.151C336.585 468.717 337.558 469.796 338.87 470.389C340.859 471.531 342.488 472.103 343.758 472.103C346.085 472.103 348.138 471.849 349.915 471.341C351.396 470.833 353.597 470.558 356.517 470.516C358.844 470.516 361.066 471.045 363.182 472.103C365.34 473.16 367.075 474.79 368.387 476.99C369.741 479.191 370.418 481.941 370.418 485.242C370.418 487.316 369.847 489.791 368.704 492.669C367.604 495.504 366.102 497.747 364.197 499.397C361.066 501.979 356.813 503.27 351.438 503.27C350.296 503.27 348.815 502.931 346.995 502.254C345.218 501.577 343.842 500.709 342.869 499.651C340.457 496.985 338.214 495.652 336.141 495.652C335.463 495.652 334.702 496.118 333.855 497.049C333.009 497.938 332.332 499.017 331.824 500.286C331.57 501.048 330.724 501.725 329.285 502.317C327.846 502.952 326.492 503.27 325.223 503.27C320.61 503.27 318.304 501.111 318.304 496.795C318.304 495.568 318.79 494.087 319.764 492.352C320.779 490.617 322.155 489.157 323.89 487.972C325.625 486.744 327.487 486.131 329.476 486.131C331.972 486.131 335.061 487.654 338.743 490.701C341.155 492.69 342.933 494.108 344.075 494.954C345.26 495.758 346.487 496.351 347.757 496.731C349.026 497.112 350.486 497.26 352.137 497.176C353.449 497.091 354.803 496.139 356.199 494.319C357.638 492.5 358.357 489.77 358.357 486.131C358.357 483.084 357.871 480.46 356.897 478.26C355.966 476.059 354.591 474.959 352.771 474.959C351.544 474.959 349.725 475.107 347.312 475.403C344.943 475.7 343.504 475.89 342.996 475.975C339.949 476.059 336.056 475.424 331.316 474.07C328.904 473.309 326.873 471.976 325.223 470.071C323.572 468.125 322.747 465.289 322.747 461.565C322.747 456.022 324.99 451.684 329.476 448.553C334.088 445.506 338.68 444.004 343.25 444.046C346.974 444.046 350.105 444.279 352.644 444.744C355.226 445.21 357.638 446.225 359.881 447.791C362.547 449.526 364.62 451.451 366.102 453.567C367.625 455.683 368.387 457.693 368.387 459.598C368.387 461.333 368.112 463.068 367.561 464.803H356.643ZM395.047 437L395.174 442.078V458.455C396.062 457.482 396.909 456.635 397.713 455.916C398.559 455.154 399.321 454.562 399.998 454.139C401.648 453.123 403.637 452.615 405.965 452.615C407.615 452.615 409.35 453.017 411.17 453.821C412.99 454.583 414.682 455.726 416.248 457.249C417.814 458.73 419.104 460.592 420.12 462.835C421.178 465.078 421.707 467.68 421.707 470.643V500.159C421.665 501.048 421.263 501.492 420.501 501.492H411.043C410.366 501.45 410.027 501.006 410.027 500.159V472.103C410.027 467.067 409.414 463.554 408.186 461.565C407.933 461.142 407.404 460.656 406.6 460.105C405.796 459.513 405.055 459.217 404.378 459.217C402.347 459.217 400.59 459.788 399.109 460.931C396.824 462.666 395.682 464.866 395.682 467.532V500.159C395.724 501.048 395.216 501.492 394.158 501.492H384.51C383.833 501.492 383.494 500.963 383.494 499.905L383.367 441.951L383.494 437L383.367 417.894C383.367 417.301 383.706 417.005 384.383 417.005H394.031C394.708 417.005 395.047 417.343 395.047 418.021V437ZM453.699 446.775V499.905C453.699 501.302 453.213 502 452.239 502H443.035C441.893 502 441.321 501.217 441.321 499.651V446.521C441.321 446.183 441.49 445.887 441.829 445.633C442.21 445.337 442.57 445.188 442.908 445.188H452.239C452.578 445.188 452.895 445.358 453.191 445.696C453.53 445.993 453.699 446.352 453.699 446.775ZM515.271 447.664C515.271 448.426 514.489 450.415 512.923 453.631C511.865 455.958 511.145 457.799 510.765 459.153C510.384 460.507 510.109 461.967 509.939 463.533L509.241 471.341C509.241 473.414 508.437 474.451 506.829 474.451C505.856 474.451 505.073 473.097 504.48 470.389L502.513 459.852C501.836 456.382 500.756 453.589 499.275 451.473C497.794 449.357 496.059 448.299 494.07 448.299H491.087C489.436 448.299 487.892 449.082 486.453 450.647C485.014 452.213 484.295 453.694 484.295 455.091V499.271C484.295 500.328 484.21 501.048 484.041 501.429C483.872 501.81 483.533 502 483.025 502H472.615C471.473 502 470.901 501.09 470.901 499.271V447.156C470.901 445.844 471.473 445.188 472.615 445.188H513.431C514.658 445.188 515.271 446.014 515.271 447.664ZM547.962 502C546.735 502 546.121 501.344 546.121 500.032V452.361C546.121 450.626 545.698 449.759 544.852 449.759C539.985 449.759 536.388 452.954 534.06 459.344C532.579 463.406 531.796 468.95 531.712 475.975C531.712 476.398 531.373 476.821 530.696 477.244C530.061 477.625 529.532 477.815 529.109 477.815C528.686 477.815 528.199 477.604 527.649 477.181C527.142 476.757 526.888 476.313 526.888 475.848C526.718 471.235 526.168 466.601 525.237 461.946C524.349 457.291 523.164 452.7 521.683 448.172C521.683 446.268 522.254 445.315 523.396 445.315L582.303 445.315C583.361 445.315 583.868 446.268 583.826 448.172C582.853 451.303 582.006 454.393 581.287 457.439C580.568 460.444 579.975 463.533 579.51 466.707C579.087 469.881 578.79 472.928 578.621 475.848C578.621 476.355 578.367 476.821 577.859 477.244C577.352 477.625 576.865 477.815 576.399 477.815C575.976 477.815 575.426 477.625 574.749 477.244C574.114 476.863 573.797 476.44 573.797 475.975C573.712 468.95 572.95 463.406 571.512 459.344C569.184 452.911 565.672 449.716 560.975 449.759C559.917 449.759 559.388 450.626 559.388 452.361V500.032C559.388 501.344 558.816 502 557.674 502H547.962Z" fill="#1D37F2"/>
</svg>
