<?xml version="1.0" encoding="utf-8"?>
<!-- Generator: Adobe Illustrator 25.4.1, SVG Export Plug-In . SVG Version: 6.00 Build 0)  -->
<svg version="1.1" id="Layer_1" xmlns="http://www.w3.org/2000/svg" xmlns:xlink="http://www.w3.org/1999/xlink" x="0px" y="0px"
	 viewBox="0 0 501.7 476.2" style="enable-background:new 0 0 501.7 476.2;" xml:space="preserve">
<style type="text/css">
	.st0{fill:#F31C29;}
</style>
<path class="st0" d="M359.5,85h-33.3v-3h4.8c1.1,0,1.9-0.6,2.6-1.7s1-2.2,1-3.3V4.3h-8.1c-1.4,0-2.7,1-3.9,2.9
	c-1.2,1.9-2.2,4.3-2.9,7.3c-1.1,3.5-1.8,6.3-2.3,8.4s-0.9,5-1.2,8.5h-2.9c-1.3-5.7-2.5-10.5-3.7-14.3c-1.1-3.9-2.5-7.5-4.1-10.9V0.5
	h74.7v5.6c-1.7,3.6-3.2,7.3-4.3,11c-1.1,3.7-2.3,8.4-3.5,14.2h-2.9c-0.3-3-0.7-5.8-1.2-8.1c-0.5-2.4-1.2-5.3-2.3-8.8
	c-0.8-3-1.9-5.4-3-7.3s-2.5-2.9-3.8-2.9h-8.1V77c0,1.1,0.3,2.2,1,3.3c0.7,1.1,1.5,1.7,2.5,1.7h4.8L359.5,85L359.5,85z M403.1,20V1
	c0-0.7-0.3-1-1-1h-9.6c-0.7,0-1,0.3-1,0.9l0.1,19.1l-0.1,5l0.1,58c0,1.1,0.3,1.6,1,1.6h9.6c1.1,0,1.6-0.4,1.5-1.3V50.5
	c0-2.7,1.1-4.9,3.4-6.6c1.5-1.1,3.2-1.7,5.3-1.7c0.7,0,1.4,0.3,2.2,0.9c0.8,0.6,1.3,1,1.6,1.5c1.2,2,1.8,5.5,1.8,10.5v28.1
	c0,0.8,0.3,1.3,1,1.3h9.5c0.8,0,1.2-0.4,1.2-1.3V53.6c0-3-0.5-5.6-1.6-7.8c-1-2.2-2.3-4.1-3.9-5.6s-3.3-2.7-5.1-3.4
	c-1.8-0.8-3.6-1.2-5.2-1.2c-2.3,0-4.3,0.5-6,1.5c-0.7,0.4-1.4,1-2.3,1.8c-0.8,0.7-1.6,1.6-2.5,2.5V25.1V20z M499.9,72.9
	c0,2.1-1.2,4.2-3.5,6.3c-2.3,2.2-5.1,3.9-8.5,5.3c-3.3,1.4-6.5,2.1-9.6,2.1c-5.4,0-10.5-1.2-15.5-3.5c-5-2.4-9-5.7-12.1-10.1
	c-3-4.4-4.6-9.5-4.6-15.2c0-5.5,1.4-10.6,4.2-15.4c2.8-4.8,6.7-8.7,11.6-11.6c4.9-2.9,10.3-4.3,16.2-4.3c2.5,0,5.4,0.7,8.6,2
	s5.9,3,8.2,5.1c2.2,2.1,3.4,4.3,3.4,6.7c0,3.5-1.7,5.2-5,5.1c-2.1,0-3.9-0.5-5.4-1.5c-1.5-1.1-2.5-2.4-3.2-4.1
	c-0.8-2.4-1.7-4.3-2.9-5.6c-1.1-1.4-2.7-2.1-4.7-2.1c-2.4,0-4.8,0.7-7.1,2.2c-2.3,1.4-4.3,3.2-5.9,5.5c-1.6,2.2-2.5,4.3-2.8,6.4
	l-0.7,6.5c2.2,0,4.2-0.1,5.8-0.3c1.6-0.2,3.4-0.4,5.5-0.7s3.4-0.4,4-0.4c2.2,0,3.8,0.1,4.9,0.4c1.1,0.3,2.2,0.8,3.2,1.5
	c1.6,1.2,2.9,2.1,4,2.5c1.1,0.5,2.7,0.9,4.6,1.4c-1,2.4-2.3,4.1-4.1,5c-1.7,0.9-4.3,1.3-7.7,1.3c-1.3,0-2.6-0.2-3.9-0.5
	s-2.5-0.8-3.7-1.4s-2.5-1.5-3.9-2.5l-8.9-0.1c0.2,5.3,1,9.4,2.6,12.4c3.9,7,8.8,10.5,14.7,10.5c2,0,3.9-0.7,5.8-2.1s3.2-2.9,3.7-4.6
	c1.1-2.5,2-4.4,2.9-5.6c0.9-1.3,2-1.9,3.2-1.9c2.4,0,4.1,0.4,5.1,1.1C499.4,69.5,499.9,70.9,499.9,72.9z M107.5,174.4v34.7
	c0,0.8,0.4,1.4,1.3,2c0.9,0.5,1.8,0.8,2.6,0.8h2.6v3.1H84.2v-3.1h2.3c1.5,0,2.6-0.4,3.4-1.3c0.8-0.9,1.2-2.1,1.2-3.7v-69
	c0-0.8-0.4-1.8-1.1-2.7c-0.7-1-1.5-1.5-2.3-1.5h-3.5l-0.1-3.2H114v3.2h-2.6c-1.1,0-2,0.4-2.7,1.2c-0.8,0.8-1.1,1.6-1.1,2.5V171
	c3.8,0,7.1-1.5,10-4.4c2.9-3,5.1-7.3,6.8-12.9c1.7-5.7,2.5-12.4,2.5-20.1h-4.2v-3.2h27.4v3.2h-4.5c0,6-0.8,11.6-2.5,16.8
	s-4.4,9.8-8.1,13.6c-3.7,3.9-8.5,6.6-14.3,8.3c6,2,10.8,4.4,14.5,7.1c3.7,2.7,6.6,5.7,8.6,9s3.3,6.8,4.1,10.5s1.1,8,1.1,12.8h5.3
	v3.1h-29.6v-3.1h4.3c0-8-1.1-14.9-3.2-20.6c-2.1-5.7-4.8-9.9-8.2-12.7C114.3,175.8,110.9,174.4,107.5,174.4z M209.7,160.7
	c0,0.8-0.8,2.8-2.3,6c-1.1,2.3-1.8,4.2-2.2,5.5c-0.4,1.4-0.7,2.8-0.8,4.4l-0.7,7.8c0,2.1-0.8,3.1-2.4,3.1c-1,0-1.8-1.4-2.3-4.1
	l-2-10.5c-0.7-3.5-1.8-6.3-3.2-8.4c-1.5-2.1-3.2-3.2-5.2-3.2h-3c-1.6,0-3.2,0.8-4.6,2.3c-1.4,1.6-2.2,3-2.2,4.4v44.2
	c0,1.1-0.1,1.8-0.3,2.2s-0.5,0.6-1,0.6h-10.4c-1.1,0-1.7-0.9-1.7-2.7v-52.1c0-1.3,0.6-2,1.7-2h40.8C209,158.2,209.7,159,209.7,160.7
	z M272.1,202.9c0,2.1-1.2,4.2-3.5,6.3c-2.3,2.2-5.1,3.9-8.5,5.3c-3.3,1.4-6.5,2.1-9.6,2.1c-5.4,0-10.5-1.2-15.5-3.5
	c-5-2.4-9-5.7-12.1-10.1c-3-4.4-4.6-9.5-4.6-15.2c0-5.5,1.4-10.6,4.2-15.4c2.8-4.8,6.7-8.7,11.6-11.6c4.9-2.9,10.3-4.3,16.2-4.3
	c2.5,0,5.4,0.7,8.6,2c3.2,1.3,5.9,3,8.2,5.1c2.2,2.1,3.4,4.3,3.4,6.7c0,3.5-1.6,5.2-5,5.1c-2.1,0-3.9-0.5-5.4-1.5
	c-1.5-1.1-2.5-2.4-3.2-4.1c-0.8-2.4-1.7-4.3-2.9-5.6c-1.1-1.4-2.7-2.1-4.7-2.1c-2.4,0-4.8,0.7-7.1,2.2c-2.3,1.4-4.3,3.2-5.9,5.5
	c-1.6,2.2-2.5,4.3-2.8,6.4l-0.7,6.5c2.2,0,4.2-0.1,5.8-0.3s3.4-0.4,5.5-0.7s3.4-0.4,4-0.4c2.2,0,3.8,0.1,4.9,0.4
	c1.1,0.3,2.2,0.8,3.2,1.5c1.6,1.2,2.9,2.1,4,2.5c1.1,0.5,2.7,0.9,4.6,1.4c-1,2.4-2.3,4.1-4.1,5c-1.7,0.9-4.3,1.3-7.7,1.3
	c-1.3,0-2.6-0.2-3.9-0.5c-1.3-0.3-2.5-0.8-3.7-1.4c-1.2-0.6-2.5-1.5-3.9-2.5l-8.9-0.1c0.2,5.3,1,9.4,2.6,12.4
	c3.9,7,8.8,10.5,14.7,10.5c2,0,3.9-0.7,5.8-2.1c1.9-1.4,3.2-2.9,3.7-4.6c1.1-2.5,2-4.4,2.9-5.6c0.9-1.3,2-1.9,3.2-1.9
	c2.4,0,4.1,0.4,5.1,1.1C271.6,199.5,272.1,200.9,272.1,202.9z M336,160.2c-0.1-1.2,0.4-1.8,1.4-1.8h10.5c1.1,0,1.8,0.5,1.8,1.5
	l5,53.5c0.2,1.1-0.3,1.7-1.5,1.7h-10.8c-0.4,0-0.7-0.1-0.8-0.2c-0.1-0.1-0.2-0.5-0.3-1.1l-2.6-27c-0.3-1.4-0.6-2.1-1.1-2.1
	s-1.2,0.4-2.2,1.1l-11,9.6c-1,0.8-1.4,1.8-1.3,3.1l1.6,14.8c0.1,1.1-0.3,1.7-1.1,1.7h-10.5c-0.6,0-1-0.7-1.1-2l-3.1-33.3
	c-0.3-3.3-1-5-2.1-5c-0.6,0-1.7,1.2-3.4,3.5c-1.7,2.3-3.2,4.8-4.5,7.6c-2.4,5.5-3.6,10.9-3.6,16.4c0,1.6,0.3,4.2,0.8,7.8l0.4,3.5
	c0.2,1-0.2,1.5-1.1,1.5h-13.1c-0.8,0-1.3-1.4-1.3-4.3c0-5.5,2.2-11.6,6.5-18.5c4.4-6.9,9.2-12.6,14.6-16.9c1.1-0.8,2.2-1.9,3.6-3.5
	s2-2.6,1.9-3l-0.9-9.1c-0.1-1,0.3-1.5,1.3-1.5h10.7c0.7,0,1.1,0.7,1.2,2l2.9,29.4c0.1,0.7,0.4,1.1,1,1.4c0.5,0.3,1.2,0.1,1.9-0.5
	l11.8-9.8c0.8-0.6,1-1.8,0.8-3.6L336,160.2z M411.6,212.5c0-0.8-0.8-2.8-2.3-6c-1.1-2.3-1.8-4.2-2.2-5.5c-0.4-1.4-0.7-2.8-0.8-4.4
	l-0.7-7.8c0-2.1-0.8-3.1-2.4-3.1c-1,0-1.8,1.4-2.3,4.1l-2,10.5c-0.7,3.5-1.8,6.3-3.2,8.4c-1.5,2.1-3.2,3.2-5.2,3.2h-3
	c-1.7,0-3.2-0.8-4.6-2.3s-2.2-3-2.2-4.4V161c0-1.1-0.1-1.8-0.3-2.2c-0.2-0.4-0.5-0.6-1-0.6H369c-1.1,0-1.7,0.9-1.7,2.7V213
	c0,1.3,0.6,2,1.7,2h40.8C411,215,411.6,214.2,411.6,212.5z M436,159.8v53.1c0,1.4-0.5,2.1-1.5,2.1h-9.2c-1.1,0-1.7-0.8-1.7-2.3
	v-53.1c0-0.3,0.2-0.6,0.5-0.9c0.4-0.3,0.7-0.4,1.1-0.4h9.3c0.3,0,0.7,0.2,1,0.5C435.8,159,436,159.4,436,159.8z M452.6,160.8
	c0-1.7,0.8-2.6,2.3-2.6h40.4c1.3,0,2,0.7,2,2.1v53.1c0,1.1-0.5,1.6-1.5,1.6h-10.1c-1.1,0-1.6-0.5-1.5-1.5v-49.9
	c0-1.5-0.5-2.2-1.6-2.2h-15c-1.1,0-1.7,0.8-1.7,2.3v50.1c0,0.8-0.5,1.1-1.5,1.1h-10.5c-0.8,0-1.3-0.5-1.3-1.6V160.8z M24.8,260H55
	v3.7h-5.9L65,330.4L75.4,275v-11.3h-5.6V260h28.9v3.7h-4.2v5.7l14.9,68.6c0.4,2.5,2.4,4,5.8,4.4v2.6H85.1v-2.6h1.3
	c1.1,0,2.1-0.2,3.1-0.7c1.1-0.5,1.5-1.1,1.3-1.8L79.1,284l-10.7,54.4c-0.3,1.1,0.1,2,1.1,2.9c1,0.8,2,1.3,2.9,1.3H74v2.6H41.3v-2.7
	l3.7,0.1c1.2,0,2.2-0.3,2.8-1s0.8-1.6,0.6-2.7l-14.5-61.6l-6.5,11.4c-1.1,2-2.1,3.9-2.9,5.6c-0.8,1.8-1.5,4-2.2,6.8
	c-0.7,2.7-1.2,5.7-1.6,9.1c-0.4,3.3-0.6,7.7-0.7,12.9c0,6,0.5,12.4,1.5,19.2c0.1,0.4,0,1-0.3,1.7s-0.7,1-1.2,1H1.3
	c-0.8,0-1.3-0.9-1.3-2.7c0-9.2,0.4-15.6,1.3-19.2c1.1-4.5,2.8-8.8,5.1-12.9s5.3-8.6,8.8-13.3c0.3-0.5,1.6-2.1,3.8-4.8
	c2.2-2.7,3.7-4.8,4.5-6.3c4-6.7,6.7-12.2,8.1-16.5v-1.4l-0.6-4.2h-6.2C24.8,263.7,24.8,260,24.8,260z M171.1,289.2v53.2
	c0,1.4-0.4,5.4-1.2,12.1s-1.3,11.7-1.5,15c-0.1,1-0.4,1.8-1.1,2.6c-0.6,0.8-1.4,1.1-2.3,1.1c-0.7,0-1.3-0.4-1.9-1.1
	c-0.6-0.8-0.9-1.6-1-2.6c-0.2-3.6-0.6-7.5-1.4-11.5c-0.7-4-1.3-6.8-1.8-8.4c-1.1-3-3-4.6-6-4.6h-24.4c-0.6,0-1.1-0.2-1.6-0.7
	c-0.4-0.5-0.6-1.1-0.6-1.7V290c0-1.1,0.7-1.7,2-1.7h10.4c0.7,0,1,0.4,1,1.2v47.7c0,2.2,0.8,3.2,2.3,3.2h13.1c1,0,1.6-0.2,2-0.6
	s0.6-1.2,0.6-2.2v-48.2c0-0.7,0.3-1,0.9-1H170C170.7,288.3,171.1,288.6,171.1,289.2z M221.9,307.8c0-3-0.3-5.6-0.8-7.8
	c-0.3-1.6-1.2-3.3-3-5.3c-1.7-1.9-4.4-2.9-8.1-2.9c-3.1,0-5.7,1.7-7.7,5.2c-1.4,2.2-2.1,5-2.1,8.4c0,1.6,0.3,3.1,0.9,4.7
	c0.6,1.6,1.6,2.6,2.9,3.2c2,1.1,3.6,1.7,4.9,1.7c2.3,0,4.4-0.3,6.2-0.8c1.5-0.5,3.7-0.8,6.6-0.8c2.3,0,4.5,0.5,6.7,1.6
	s3.9,2.7,5.2,4.9c1.4,2.2,2,5,2,8.3c0,2.1-0.6,4.5-1.7,7.4c-1.1,2.8-2.6,5.1-4.5,6.7c-3.1,2.6-7.4,3.9-12.8,3.9
	c-1.1,0-2.6-0.3-4.4-1c-1.8-0.7-3.2-1.5-4.1-2.6c-2.4-2.7-4.7-4-6.7-4c-0.7,0-1.4,0.5-2.3,1.4c-0.8,0.9-1.5,2-2,3.2
	c-0.3,0.8-1.1,1.4-2.5,2s-2.8,1-4.1,1c-4.6,0-6.9-2.2-6.9-6.5c0-1.2,0.5-2.7,1.5-4.4c1-1.7,2.4-3.2,4.1-4.4c1.7-1.2,3.6-1.8,5.6-1.8
	c2.5,0,5.6,1.5,9.3,4.6c2.4,2,4.2,3.4,5.3,4.3c1.2,0.8,2.4,1.4,3.7,1.8s2.7,0.5,4.4,0.4c1.3-0.1,2.7-1,4.1-2.9
	c1.4-1.8,2.2-4.5,2.2-8.2c0-3-0.5-5.7-1.5-7.9c-0.9-2.2-2.3-3.3-4.1-3.3c-1.2,0-3,0.1-5.5,0.4c-2.4,0.3-3.8,0.5-4.3,0.6
	c-3,0.1-6.9-0.6-11.7-1.9c-2.4-0.8-4.4-2.1-6.1-4c-1.6-1.9-2.5-4.8-2.5-8.5c0-5.5,2.2-9.9,6.7-13c4.6-3,9.2-4.5,13.8-4.5
	c3.7,0,6.9,0.2,9.4,0.7c2.6,0.5,5,1.5,7.2,3c2.7,1.7,4.7,3.7,6.2,5.8c1.5,2.1,2.3,4.1,2.3,6c0,1.7-0.3,3.5-0.8,5.2L221.9,307.8
	L221.9,307.8z M297.8,332.9c0,2.1-1.2,4.2-3.5,6.3c-2.3,2.2-5.1,3.9-8.5,5.3c-3.3,1.4-6.5,2.1-9.6,2.1c-5.4,0-10.5-1.2-15.5-3.5
	c-5-2.4-9-5.7-12.1-10.1c-3-4.4-4.6-9.5-4.6-15.2c0-5.5,1.4-10.6,4.2-15.4s6.7-8.7,11.6-11.6c4.9-2.9,10.3-4.3,16.2-4.3
	c2.5,0,5.4,0.7,8.6,2s5.9,3,8.2,5.1c2.2,2.1,3.4,4.3,3.4,6.7c0,3.5-1.6,5.2-5,5.1c-2.1,0-3.9-0.5-5.4-1.5c-1.5-1.1-2.5-2.4-3.2-4.1
	c-0.8-2.4-1.7-4.3-2.9-5.6c-1.1-1.4-2.7-2.1-4.7-2.1c-2.4,0-4.8,0.7-7.1,2.2c-2.3,1.4-4.3,3.2-5.9,5.5c-1.6,2.2-2.5,4.3-2.8,6.4
	l-0.7,6.5c2.2,0,4.2-0.1,5.8-0.3s3.4-0.4,5.5-0.7c2.1-0.3,3.4-0.4,4-0.4c2.2,0,3.8,0.1,4.9,0.4s2.2,0.8,3.2,1.5
	c1.6,1.2,2.9,2.1,4,2.5c1.1,0.5,2.7,0.9,4.6,1.4c-1,2.4-2.3,4.1-4.1,5c-1.7,0.9-4.3,1.3-7.7,1.3c-1.3,0-2.6-0.2-3.9-0.5
	s-2.5-0.8-3.7-1.4s-2.5-1.5-3.9-2.5l-8.9-0.1c0.2,5.3,1,9.4,2.6,12.4c3.9,7,8.8,10.5,14.7,10.5c2,0,3.9-0.7,5.8-2.1s3.2-2.9,3.7-4.6
	c1.1-2.5,2-4.4,2.9-5.6c0.9-1.3,2-1.9,3.2-1.9c2.4,0,4.1,0.4,5.1,1.1C297.3,329.5,297.8,330.9,297.8,332.9z M355.7,289.2v53.2
	c0,1.4-0.4,5.4-1.2,12.1c-0.8,6.7-1.3,11.7-1.5,15c-0.1,1-0.4,1.8-1.1,2.6c-0.6,0.8-1.4,1.1-2.3,1.1c-0.7,0-1.3-0.4-1.9-1.1
	c-0.5-0.8-0.9-1.6-1-2.6c-0.2-3.6-0.6-7.5-1.4-11.5c-0.7-4-1.3-6.8-1.8-8.4c-1.1-3-3-4.6-6-4.6h-24.4c-0.6,0-1.1-0.2-1.6-0.7
	c-0.4-0.5-0.6-1.1-0.6-1.7V290c0-1.1,0.7-1.7,2-1.7h10.4c0.7,0,1,0.4,1,1.2v47.7c0,2.2,0.8,3.2,2.3,3.2h13.1c1,0,1.6-0.2,2-0.6
	s0.6-1.2,0.6-2.2v-48.2c0-0.7,0.3-1,0.9-1h11.4C355.3,288.3,355.7,288.6,355.7,289.2z M424.3,290.2c-0.1-1.2,0.4-1.8,1.4-1.8h10.5
	c1.1,0,1.8,0.5,1.8,1.5l5,53.5c0.2,1.1-0.3,1.7-1.5,1.7h-10.8c-0.4,0-0.7-0.1-0.8-0.2c-0.1-0.1-0.2-0.5-0.3-1.1l-2.6-27
	c-0.3-1.4-0.6-2.1-1.1-2.1s-1.2,0.4-2.2,1.1l-11,9.6c-1,0.8-1.4,1.8-1.3,3.1l1.6,14.8c0.1,1.1-0.3,1.7-1.1,1.7h-10.5
	c-0.6,0-1-0.7-1.1-2l-3.1-33.3c-0.3-3.3-1-5-2.1-5c-0.6,0-1.7,1.2-3.4,3.5c-1.7,2.3-3.2,4.8-4.5,7.6c-2.4,5.5-3.6,10.9-3.6,16.4
	c0,1.6,0.3,4.2,0.8,7.8l0.4,3.5c0.2,1-0.2,1.5-1.1,1.5h-13.1c-0.8,0-1.3-1.4-1.3-4.3c0-5.5,2.2-11.6,6.5-18.5
	c4.4-6.9,9.2-12.6,14.6-16.9c1.1-0.8,2.2-1.9,3.6-3.5s2-2.6,1.9-3l-0.9-9.1c-0.1-1,0.3-1.5,1.3-1.5H407c0.7,0,1.1,0.7,1.2,2
	l2.9,29.4c0.1,0.7,0.4,1.1,1,1.4s1.2,0.1,1.9-0.5l11.8-9.8c0.8-0.6,1-1.8,0.8-3.6L424.3,290.2z M488,307.8c0-3-0.3-5.6-0.8-7.8
	c-0.3-1.6-1.2-3.3-3-5.3c-1.7-1.9-4.4-2.9-8.1-2.9c-3.1,0-5.7,1.7-7.7,5.2c-1.4,2.2-2.1,5-2.1,8.4c0,1.6,0.3,3.1,0.9,4.7
	s1.6,2.6,2.9,3.2c2,1.1,3.6,1.7,4.9,1.7c2.3,0,4.4-0.3,6.2-0.8c1.5-0.5,3.7-0.8,6.6-0.8c2.3,0,4.5,0.5,6.7,1.6s3.9,2.7,5.2,4.9
	c1.4,2.2,2,5,2,8.3c0,2.1-0.6,4.5-1.7,7.4c-1.1,2.8-2.6,5.1-4.5,6.7c-3.1,2.6-7.4,3.9-12.8,3.9c-1.1,0-2.6-0.3-4.4-1
	s-3.2-1.5-4.1-2.6c-2.4-2.7-4.7-4-6.7-4c-0.7,0-1.4,0.5-2.3,1.4c-0.8,0.9-1.5,2-2,3.2c-0.3,0.8-1.1,1.4-2.5,2s-2.8,1-4.1,1
	c-4.6,0-6.9-2.2-6.9-6.5c0-1.2,0.5-2.7,1.5-4.4c1-1.7,2.4-3.2,4.1-4.4c1.7-1.2,3.6-1.8,5.6-1.8c2.5,0,5.6,1.5,9.3,4.6
	c2.4,2,4.2,3.4,5.3,4.3c1.2,0.8,2.4,1.4,3.7,1.8c1.3,0.4,2.7,0.5,4.4,0.4c1.3-0.1,2.7-1,4.1-2.9c1.4-1.8,2.2-4.5,2.2-8.2
	c0-3-0.5-5.7-1.5-7.9c-0.9-2.2-2.3-3.3-4.1-3.3c-1.2,0-3,0.1-5.5,0.4c-2.4,0.3-3.8,0.5-4.3,0.6c-3,0.1-6.9-0.6-11.7-1.9
	c-2.4-0.8-4.4-2.1-6.1-4s-2.5-4.8-2.5-8.5c0-5.5,2.2-9.9,6.7-13c4.6-3,9.2-4.5,13.8-4.5c3.7,0,6.9,0.2,9.4,0.7c2.6,0.5,5,1.5,7.2,3
	c2.7,1.7,4.7,3.7,6.2,5.8c1.5,2.1,2.3,4.1,2.3,6c0,1.7-0.3,3.5-0.8,5.2L488,307.8L488,307.8z M178,475h-33.3v-3h4.8
	c1.1,0,1.9-0.6,2.6-1.7c0.7-1.1,1-2.2,1-3.3v-72.8H145c-1.4,0-2.7,1-3.9,2.9s-2.2,4.3-2.9,7.3c-1.1,3.5-1.8,6.3-2.3,8.4
	s-0.9,5-1.2,8.5h-2.9c-1.3-5.7-2.5-10.5-3.7-14.3c-1.1-3.9-2.5-7.5-4.1-10.9v-5.6h74.7v5.6c-1.7,3.6-3.2,7.3-4.3,11
	s-2.3,8.4-3.5,14.2H188c-0.3-3-0.7-5.8-1.2-8.1c-0.5-2.4-1.2-5.3-2.3-8.8c-0.8-3-1.9-5.4-3-7.3c-1.2-1.9-2.5-2.9-3.8-2.9h-8V467
	c0,1.1,0.3,2.2,1,3.3c0.7,1.1,1.5,1.7,2.5,1.7h4.8V475z M227.6,443.4v10.3h-28.4v-10.3H227.6z M274.3,437.8c0-3-0.3-5.6-0.8-7.8
	c-0.3-1.6-1.2-3.3-3-5.3c-1.7-1.9-4.4-2.9-8.1-2.9c-3.1,0-5.7,1.7-7.7,5.2c-1.4,2.2-2.1,5-2.1,8.4c0,1.6,0.3,3.1,0.9,4.7
	s1.6,2.6,2.9,3.2c2,1.1,3.6,1.7,4.9,1.7c2.3,0,4.4-0.3,6.2-0.8c1.5-0.5,3.7-0.8,6.6-0.8c2.3,0,4.5,0.5,6.7,1.6s3.9,2.7,5.2,4.9
	c1.4,2.2,2,5,2,8.3c0,2.1-0.6,4.5-1.7,7.4c-1.1,2.8-2.6,5.1-4.5,6.7c-3.1,2.6-7.4,3.9-12.8,3.9c-1.1,0-2.6-0.3-4.4-1
	s-3.2-1.5-4.1-2.6c-2.4-2.7-4.7-4-6.7-4c-0.7,0-1.4,0.5-2.3,1.4c-0.8,0.9-1.5,2-2,3.2c-0.3,0.8-1.1,1.4-2.5,2s-2.8,1-4.1,1
	c-4.6,0-6.9-2.2-6.9-6.5c0-1.2,0.5-2.7,1.5-4.4c1-1.7,2.4-3.2,4.1-4.4c1.7-1.2,3.6-1.8,5.6-1.8c2.5,0,5.6,1.5,9.3,4.6
	c2.4,2,4.2,3.4,5.3,4.3c1.2,0.8,2.4,1.4,3.7,1.8c1.3,0.4,2.7,0.5,4.4,0.4c1.3-0.1,2.7-1,4.1-2.9c1.4-1.8,2.2-4.5,2.2-8.2
	c0-3-0.5-5.7-1.5-7.9c-0.9-2.2-2.3-3.3-4.1-3.3c-1.2,0-3,0.1-5.5,0.4c-2.4,0.3-3.8,0.5-4.3,0.6c-3,0.1-6.9-0.6-11.7-1.9
	c-2.4-0.8-4.4-2.1-6.1-4c-1.7-1.9-2.5-4.8-2.5-8.5c0-5.5,2.2-9.9,6.7-13c4.6-3,9.2-4.5,13.8-4.5c3.7,0,6.9,0.2,9.4,0.7
	c2.6,0.5,5,1.5,7.2,3c2.7,1.7,4.7,3.7,6.2,5.8c1.5,2.1,2.3,4.1,2.3,6c0,1.7-0.3,3.5-0.8,5.2L274.3,437.8L274.3,437.8z M312.7,410
	v-19c0-0.7-0.3-1-1-1h-9.6c-0.7,0-1,0.3-1,0.9l0.1,19.1l-0.1,5l0.1,58c0,1.1,0.3,1.6,1,1.6h9.6c1.1,0,1.6-0.4,1.5-1.3v-32.6
	c0-2.7,1.1-4.9,3.4-6.6c1.5-1.1,3.2-1.7,5.3-1.7c0.7,0,1.4,0.3,2.2,0.9c0.8,0.6,1.3,1,1.6,1.5c1.2,2,1.8,5.5,1.8,10.5v28.1
	c0,0.8,0.3,1.3,1,1.3h9.5c0.8,0,1.2-0.4,1.2-1.3v-29.5c0-3-0.5-5.6-1.6-7.8c-1-2.2-2.3-4.1-3.9-5.6s-3.3-2.7-5.1-3.4
	c-1.8-0.8-3.6-1.2-5.2-1.2c-2.3,0-4.3,0.5-6,1.5c-0.7,0.4-1.4,1-2.3,1.8c-0.8,0.7-1.7,1.6-2.5,2.5v-16.4V410z M371.4,419.8v53.1
	c0,1.4-0.5,2.1-1.5,2.1h-9.2c-1.1,0-1.7-0.8-1.7-2.3v-53.1c0-0.3,0.2-0.6,0.5-0.9c0.4-0.3,0.7-0.4,1.1-0.4h9.3c0.3,0,0.7,0.2,1,0.5
	C371.2,419,371.4,419.4,371.4,419.8z M433,420.7c0,0.8-0.8,2.8-2.3,6c-1.1,2.3-1.8,4.2-2.2,5.5c-0.4,1.4-0.7,2.8-0.8,4.4l-0.7,7.8
	c0,2.1-0.8,3.1-2.4,3.1c-1,0-1.8-1.4-2.3-4.1l-2-10.5c-0.7-3.5-1.8-6.3-3.2-8.4c-1.5-2.1-3.2-3.2-5.2-3.2h-3c-1.7,0-3.2,0.8-4.6,2.3
	c-1.4,1.6-2.2,3-2.2,4.4v44.2c0,1.1-0.1,1.8-0.3,2.2c-0.2,0.4-0.5,0.6-1,0.6h-10.4c-1.1,0-1.7-0.9-1.7-2.7v-52.1c0-1.3,0.6-2,1.7-2
	h40.8C432.4,418.2,433,419,433,420.7z M465.7,475c-1.2,0-1.8-0.7-1.8-2v-47.7c0-1.7-0.4-2.6-1.3-2.6c-4.9,0-8.5,3.2-10.8,9.6
	c-1.5,4.1-2.3,9.6-2.3,16.6c0,0.4-0.3,0.8-1,1.3c-0.6,0.4-1.2,0.6-1.6,0.6s-0.9-0.2-1.5-0.6c-0.5-0.4-0.8-0.9-0.8-1.3
	c-0.2-4.6-0.7-9.2-1.7-13.9c-0.9-4.7-2.1-9.2-3.6-13.8c0-1.9,0.6-2.9,1.7-2.9h58.9c1.1,0,1.6,1,1.5,2.9c-1,3.1-1.8,6.2-2.5,9.3
	c-0.7,3-1.3,6.1-1.8,9.3c-0.4,3.2-0.7,6.2-0.9,9.1c0,0.5-0.3,1-0.8,1.4s-1,0.6-1.5,0.6c-0.4,0-1-0.2-1.6-0.6s-1-0.8-1-1.3
	c-0.1-7-0.8-12.6-2.3-16.6c-2.3-6.4-5.8-9.6-10.5-9.6c-1.1,0-1.6,0.9-1.6,2.6V473c0,1.3-0.6,2-1.7,2H465.7z"/>
</svg>
