<svg width="788" height="251" viewBox="0 0 788 251" fill="none" xmlns="http://www.w3.org/2000/svg">
<path d="M0.000732422 7.22905H21.1499V42.9715H13.8735L13.8055 208.029H25.4341L27.9503 167.066L33.6626 178.712L29.8544 243.771H0.000732422V208.029H6.93712L7.00512 42.9715H0.000732422V7.22905Z" fill="#F31C29"/>
<path d="M37.9888 7.22905H57.8459V42.9715H51.4535L51.3855 208.029H57.8459V243.771H37.9208V208.029H44.4492V42.9715H37.9888V7.22905Z" fill="#F31C29"/>
<path d="M63.291 7.22905H79.8839L95.4568 183.933V42.9715H90.0845V7.22905H108.377V42.9715H101.917V243.771H93.6887L75.7357 42.5698L75.8037 208.029H81.516V243.771H63.223V208.029H69.3433L69.2753 42.9715H63.291V7.22905Z" fill="#F31C29"/>
<path d="M113.03 7.22905H129.963V42.9715H125.883V108.031H131.459L139.552 42.9715H135.54V7.22905H152.813V42.9715H146.556L136.832 117.669L147.644 208.029H154.445V243.771H135.064V208.029H140.096L132.411 142.568H125.883L125.951 208.029H129.963V243.771H113.03V208.029H119.015V42.9715H113.03V7.22905Z" fill="#F31C29"/>
<path d="M175.509 7.22905H211.279V81.9267H205.023V42.9715H196.931L196.863 208.029H202.847V243.771H183.806V208.029H189.858V42.9715H181.834V81.9267H175.509V7.22905Z" fill="#F31C29"/>
<path d="M234.42 0.000244141C238.274 0.000244141 241.651 5.08718 244.553 15.2611C247.5 25.1672 249.789 39.4909 251.421 58.2323C253.053 76.7059 253.869 99.0616 253.869 125.299C253.869 151.27 253.053 173.625 251.421 192.367C249.789 211.108 247.522 225.566 244.621 235.739C241.719 245.913 238.342 251 234.488 251C230.68 251 227.303 245.913 224.356 235.739C221.454 225.566 219.187 211.108 217.555 192.367C215.923 173.625 215.107 151.27 215.107 125.299C215.107 99.0616 215.923 76.7059 217.555 58.2323C219.187 39.4909 221.454 25.1672 224.356 15.2611C227.257 5.08718 230.612 0.000244141 234.42 0.000244141ZM234.488 34.9394C230.589 34.9394 227.597 42.8376 225.512 58.6339C223.426 74.1624 222.384 96.3842 222.384 125.299C222.384 154.482 223.426 176.972 225.512 192.768C227.597 208.297 230.589 216.061 234.488 216.061C238.387 216.061 241.379 208.297 243.465 192.768C245.55 176.972 246.593 154.482 246.593 125.299C246.593 96.3842 245.55 74.1624 243.465 58.6339C241.379 42.8376 238.387 34.9394 234.488 34.9394Z" fill="#F31C29"/>
<path d="M275.523 7.22905H311.293V81.9267H305.036V42.9715H296.944L296.876 208.029H302.86V243.771H283.819V208.029H289.872V42.9715H281.847V81.9267H275.523V7.22905Z" fill="#F31C29"/>
<path d="M316.51 7.22905H333.647V42.9715H329.567L329.499 105.621H347.588V42.9715H343.576V7.22905H360.577V42.9715H354.593L354.457 208.029H360.509V243.771H343.576V208.029H347.588V141.363H329.499V208.029H333.511V243.771H316.51V208.029H322.563V42.9715H316.51V7.22905Z" fill="#F31C29"/>
<path d="M366.054 7.22905H396.656L400.464 74.6978L394.751 86.3443L392.099 42.9715H379.043V104.818H391.011V140.159H379.043V208.029H393.731L396.247 166.664L401.96 178.311L398.152 243.771H365.986V208.029H372.038L372.106 42.9715H366.054V7.22905Z" fill="#F31C29"/>
<path d="M441.181 7.22905C446.259 7.22905 450.135 13.7885 452.81 26.9075C455.53 39.7587 456.89 58.5 456.89 83.1315C456.89 108.298 455.53 127.575 452.81 140.962C450.135 154.081 446.259 160.64 441.181 160.64H436.217V208.029H443.561V243.771H423.364V208.029H429.28V42.9715H423.364V7.22905H441.181ZM441.113 127.307C446.78 127.307 449.613 112.85 449.613 83.9346C449.613 56.6259 446.78 42.9715 441.113 42.9715H436.285V127.307H441.113Z" fill="#F31C29"/>
<path d="M460.354 243.771V208.029H466.271V42.9715H460.354V7.22905H478.307C482.297 7.22905 485.402 10.1741 487.624 16.0643C489.891 21.9544 491.477 30.5219 492.384 41.7667C493.291 53.0115 493.744 66.6659 493.744 82.7299C493.744 107.629 492.611 126.504 490.344 139.355C488.077 151.939 484.382 158.231 479.259 158.231H473.275V208.029H477.083V243.771H460.354ZM473.343 122.488H478.171C480.075 122.488 481.639 121.417 482.864 119.275C484.088 117.134 484.994 113.251 485.584 107.629C486.173 101.739 486.468 93.4392 486.468 82.7299C486.468 72.0205 486.15 63.8547 485.516 58.2323C484.881 52.3421 483.929 48.3261 482.66 46.1843C481.435 44.0424 479.939 42.9715 478.171 42.9715H473.343V122.488ZM487.012 243.771L478.783 154.616L485.516 148.592L491.5 208.029H498.096V243.771H487.012Z" fill="#F31C29"/>
<path d="M520.913 0.000244141C524.766 0.000244141 528.144 5.08718 531.045 15.2611C533.992 25.1672 536.282 39.4909 537.914 58.2323C539.546 76.7059 540.362 99.0616 540.362 125.299C540.362 151.27 539.546 173.625 537.914 192.367C536.282 211.108 534.015 225.566 531.113 235.739C528.212 245.913 524.834 251 520.981 251C517.173 251 513.795 245.913 510.848 235.739C507.947 225.566 505.68 211.108 504.048 192.367C502.416 173.625 501.6 151.27 501.6 125.299C501.6 99.0616 502.416 76.7059 504.048 58.2323C505.68 39.4909 507.947 25.1672 510.848 15.2611C513.75 5.08718 517.105 0.000244141 520.913 0.000244141ZM520.981 34.9394C517.082 34.9394 514.09 42.8376 512.004 58.6339C509.919 74.1624 508.876 96.3842 508.876 125.299C508.876 154.482 509.919 176.972 512.004 192.768C514.09 208.297 517.082 216.061 520.981 216.061C524.88 216.061 527.872 208.297 529.957 192.768C532.043 176.972 533.085 154.482 533.085 125.299C533.085 96.3842 532.043 74.1624 529.957 58.6339C527.872 42.8376 524.88 34.9394 520.981 34.9394Z" fill="#F31C29"/>
<path d="M545.479 7.22905H581.249V81.9267H574.993V42.9715H566.9L566.832 208.029H572.817V243.771H553.776V208.029H559.828V42.9715H551.803V81.9267H545.479V7.22905Z" fill="#F31C29"/>
<path d="M604.39 0.000244141C608.244 0.000244141 611.621 5.08718 614.523 15.2611C617.469 25.1672 619.759 39.4909 621.391 58.2323C623.023 76.7059 623.839 99.0616 623.839 125.299C623.839 151.27 623.023 173.625 621.391 192.367C619.759 211.108 617.492 225.566 614.591 235.739C611.689 245.913 608.312 251 604.458 251C600.65 251 597.272 245.913 594.325 235.739C591.424 225.566 589.157 211.108 587.525 192.367C585.893 173.625 585.077 151.27 585.077 125.299C585.077 99.0616 585.893 76.7059 587.525 58.2323C589.157 39.4909 591.424 25.1672 594.325 15.2611C597.227 5.08718 600.582 0.000244141 604.39 0.000244141ZM604.458 34.9394C600.559 34.9394 597.567 42.8376 595.482 58.6339C593.396 74.1624 592.353 96.3842 592.353 125.299C592.353 154.482 593.396 176.972 595.482 192.768C597.567 208.297 600.559 216.061 604.458 216.061C608.357 216.061 611.349 208.297 613.435 192.768C615.52 176.972 616.563 154.482 616.563 125.299C616.563 96.3842 615.52 74.1624 613.435 58.6339C611.349 42.8376 608.357 34.9394 604.458 34.9394Z" fill="#F31C29"/>
<path d="M628.956 7.22905H664.726V81.9267H658.47V42.9715H650.378L650.31 208.029H656.294V243.771H637.253V208.029H643.305V42.9715H635.281V81.9267H628.956V7.22905Z" fill="#F31C29"/>
<path d="M667.564 7.22905H685.245V42.9715H681.165L690.005 115.259L699.322 42.9715H694.629V7.22905H711.63V42.9715H706.87L693.201 145.379L693.133 208.431H699.526V243.771H679.873V208.431H686.265L686.333 146.183L673.072 42.9715H667.564V7.22905Z" fill="#F31C29"/>
<path d="M732.853 7.22905C737.931 7.22905 741.807 13.7885 744.482 26.9075C747.202 39.7587 748.562 58.5 748.562 83.1315C748.562 108.298 747.202 127.575 744.482 140.962C741.807 154.081 737.931 160.64 732.853 160.64H727.889V208.029H735.233V243.771H715.036V208.029H720.953V42.9715H715.036V7.22905H732.853ZM732.785 127.307C738.452 127.307 741.286 112.85 741.286 83.9346C741.286 56.6259 738.452 42.9715 732.785 42.9715H727.957V127.307H732.785Z" fill="#F31C29"/>
<path d="M752.095 7.22905H782.696L786.505 74.6978L780.792 86.3443L778.14 42.9715H765.083V104.818H777.052V140.159H765.083V208.029H779.772L782.288 166.664L788.001 178.311L784.193 243.771H752.027V208.029H758.079L758.147 42.9715H752.095V7.22905Z" fill="#F31C29"/>
</svg>
