<svg width="700" height="700" viewBox="0 0 700 700" fill="none" xmlns="http://www.w3.org/2000/svg">
<g clip-path="url(#clip0_44_4)">
<path d="M161.818 224.182V294H153.636L115.591 239.182H114.909V294H106.455V224.182H114.636L152.818 279.136H153.5V224.182H161.818ZM181.599 294H172.736L198.372 224.182H207.099L232.736 294H223.872L203.009 235.227H202.463L181.599 294ZM184.872 266.727H220.599V274.227H184.872V266.727ZM265.156 294H243.611V224.182H266.111C272.884 224.182 278.679 225.58 283.497 228.375C288.315 231.148 292.009 235.136 294.577 240.341C297.145 245.523 298.429 251.727 298.429 258.955C298.429 266.227 297.134 272.489 294.543 277.739C291.952 282.966 288.179 286.989 283.224 289.807C278.27 292.602 272.247 294 265.156 294ZM252.065 286.5H264.611C270.384 286.5 275.168 285.386 278.963 283.159C282.759 280.932 285.588 277.761 287.452 273.648C289.315 269.534 290.247 264.636 290.247 258.955C290.247 253.318 289.327 248.466 287.486 244.398C285.645 240.307 282.895 237.17 279.236 234.989C275.577 232.784 271.02 231.682 265.565 231.682H252.065V286.5ZM312.611 294V224.182H354.747V231.682H321.065V255.273H352.565V262.773H321.065V286.5H355.293V294H312.611Z" fill="#3B3B3B"/>
<path d="M355.48 408V401.864L393.116 345.682H355.071V338.182H403.207V344.318L365.571 400.5H403.616V408H355.48ZM417.798 408V338.182H426.253V369.273H463.48V338.182H471.935V408H463.48V376.773H426.253V408H417.798ZM510.406 408H488.861V338.182H511.361C518.134 338.182 523.929 339.58 528.747 342.375C533.565 345.148 537.259 349.136 539.827 354.341C542.395 359.523 543.679 365.727 543.679 372.955C543.679 380.227 542.384 386.489 539.793 391.739C537.202 396.966 533.429 400.989 528.474 403.807C523.52 406.602 517.497 408 510.406 408ZM497.315 400.5H509.861C515.634 400.5 520.418 399.386 524.213 397.159C528.009 394.932 530.838 391.761 532.702 387.648C534.565 383.534 535.497 378.636 535.497 372.955C535.497 367.318 534.577 362.466 532.736 358.398C530.895 354.307 528.145 351.17 524.486 348.989C520.827 346.784 516.27 345.682 510.815 345.682H497.315V400.5ZM557.443 408H548.58L574.216 338.182H582.943L608.58 408H599.716L578.852 349.227H578.307L557.443 408ZM560.716 380.727H596.443V388.227H560.716V380.727ZM204.517 524V454.182H228.926C233.79 454.182 237.801 455.023 240.96 456.705C244.119 458.364 246.472 460.602 248.017 463.42C249.563 466.216 250.335 469.318 250.335 472.727C250.335 475.727 249.801 478.205 248.733 480.159C247.688 482.114 246.301 483.659 244.574 484.795C242.869 485.932 241.017 486.773 239.017 487.318V488C241.153 488.136 243.301 488.886 245.46 490.25C247.619 491.614 249.426 493.568 250.881 496.114C252.335 498.659 253.062 501.773 253.062 505.455C253.062 508.955 252.267 512.102 250.676 514.898C249.085 517.693 246.574 519.909 243.142 521.545C239.71 523.182 235.244 524 229.744 524H204.517ZM212.972 516.5H229.744C235.267 516.5 239.188 515.432 241.506 513.295C243.847 511.136 245.017 508.523 245.017 505.455C245.017 503.091 244.415 500.909 243.21 498.909C242.006 496.886 240.29 495.273 238.062 494.068C235.835 492.841 233.199 492.227 230.153 492.227H212.972V516.5ZM212.972 484.864H228.653C231.199 484.864 233.494 484.364 235.54 483.364C237.608 482.364 239.244 480.955 240.449 479.136C241.676 477.318 242.29 475.182 242.29 472.727C242.29 469.659 241.222 467.057 239.085 464.92C236.949 462.761 233.563 461.682 228.926 461.682H212.972V484.864ZM269.818 524H260.955L286.591 454.182H295.318L320.955 524H312.091L291.227 465.227H290.682L269.818 524ZM273.091 496.727H308.818V504.227H273.091V496.727ZM331.83 524V454.182H356.239C361.102 454.182 365.114 455.023 368.273 456.705C371.432 458.364 373.784 460.602 375.33 463.42C376.875 466.216 377.648 469.318 377.648 472.727C377.648 475.727 377.114 478.205 376.045 480.159C375 482.114 373.614 483.659 371.886 484.795C370.182 485.932 368.33 486.773 366.33 487.318V488C368.466 488.136 370.614 488.886 372.773 490.25C374.932 491.614 376.739 493.568 378.193 496.114C379.648 498.659 380.375 501.773 380.375 505.455C380.375 508.955 379.58 512.102 377.989 514.898C376.398 517.693 373.886 519.909 370.455 521.545C367.023 523.182 362.557 524 357.057 524H331.83ZM340.284 516.5H357.057C362.58 516.5 366.5 515.432 368.818 513.295C371.159 511.136 372.33 508.523 372.33 505.455C372.33 503.091 371.727 500.909 370.523 498.909C369.318 496.886 367.602 495.273 365.375 494.068C363.148 492.841 360.511 492.227 357.466 492.227H340.284V516.5ZM340.284 484.864H355.966C358.511 484.864 360.807 484.364 362.852 483.364C364.92 482.364 366.557 480.955 367.761 479.136C368.989 477.318 369.602 475.182 369.602 472.727C369.602 469.659 368.534 467.057 366.398 464.92C364.261 462.761 360.875 461.682 356.239 461.682H340.284V484.864ZM394.267 524V454.182H402.722V488.818H403.54L434.903 454.182H445.949L416.631 485.682L445.949 524H435.722L411.449 491.545L402.722 501.364V524H394.267ZM465.347 454.182V524H456.892V454.182H465.347ZM537.662 454.182V524H529.48L491.435 469.182H490.753V524H482.298V454.182H490.48L528.662 509.136H529.344V454.182H537.662ZM557.443 524H548.58L574.216 454.182H582.943L608.58 524H599.716L578.852 465.227H578.307L557.443 524ZM560.716 496.727H596.443V504.227H560.716V496.727Z" fill="#3B3B3B"/>
</g>
<defs>
<clipPath id="clip0_44_4">
<rect width="700" height="700" fill="white"/>
</clipPath>
</defs>
</svg>
