<svg width="769" height="236" viewBox="0 0 769 236" fill="none" xmlns="http://www.w3.org/2000/svg">
<path d="M45 59.28H22.08V87.48C22.08 88.28 22.12 89.12 22.2 90C22.28 90.8 22.52 91.56 22.92 92.28C23.32 93 23.96 93.6 24.84 94.08C25.72 94.48 26.96 94.68 28.56 94.68H36.24C36.64 94.68 36.84 94.84 36.84 95.16V95.52C36.84 95.84 36.64 96 36.24 96H1.2C0.8 96 0.6 95.84 0.6 95.52V95.16C0.6 94.84 0.8 94.68 1.2 94.68H8.88C10.48 94.68 11.72 94.48 12.6 94.08C13.48 93.6 14.12 93 14.52 92.28C14.92 91.56 15.16 90.8 15.24 90C15.32 89.12 15.36 88.28 15.36 87.48V16.92C15.36 14.6 15 12.92 14.28 11.88C13.56 10.76 11.92 10.2 9.36 10.2H1.2C0.8 10.2 0.6 10.04 0.6 9.72V9.35999C0.6 9.04 0.8 8.88 1.2 8.88H45C47.32 8.88 49.8 8.96 52.44 9.12C55.16 9.27999 57.84 9.67999 60.48 10.32C63.2 10.88 65.8 11.72 68.28 12.84C70.76 13.88 72.92 15.36 74.76 17.28C76.68 19.12 78.2 21.44 79.32 24.24C80.44 26.96 81 30.24 81 34.08C81 37.92 80.44 41.24 79.32 44.04C78.2 46.76 76.68 49.08 74.76 51C72.92 52.84 70.76 54.32 68.28 55.44C65.8 56.48 63.2 57.32 60.48 57.96C57.84 58.52 55.16 58.88 52.44 59.04C49.8 59.2 47.32 59.28 45 59.28ZM22.08 34.44V57.96H44.64V47.28C44.64 42.72 43.64 39.44 41.64 37.44C39.72 35.44 36.44 34.44 31.8 34.44H22.08ZM44.64 10.2H22.08V33.72H31.8C36.36 33.72 39.64 32.72 41.64 30.72C43.64 28.64 44.64 25.32 44.64 20.76V10.2ZM45.36 10.2V20.76C45.36 25.4 46.36 28.72 48.36 30.72C50.44 32.72 53.76 33.72 58.32 33.72H69.84C69.76 30.04 69 26.76 67.56 23.88C66.2 20.92 64.36 18.44 62.04 16.44C59.8 14.44 57.24 12.92 54.36 11.88C51.48 10.76 48.48 10.2 45.36 10.2ZM69.84 34.44H58.32C53.84 34.44 50.56 35.48 48.48 37.56C46.4 39.56 45.36 42.8 45.36 47.28V57.96C48.48 57.88 51.48 57.32 54.36 56.28C57.24 55.16 59.8 53.6 62.04 51.6C64.36 49.6 66.2 47.16 67.56 44.28C69 41.4 69.76 38.12 69.84 34.44ZM142.037 58.8C143.237 58.8 144.277 58.6 145.157 58.2C146.037 57.72 146.837 57.24 147.557 56.76C148.357 56.2 149.197 55.72 150.077 55.32C150.957 54.84 152.037 54.6 153.317 54.6C155.397 54.6 156.957 55.24 157.997 56.52C159.117 57.72 159.677 59.2 159.677 60.96C159.677 61.84 159.437 62.84 158.957 63.96C158.477 65.08 157.757 66.12 156.797 67.08C155.917 68.04 154.797 68.84 153.437 69.48C152.077 70.12 150.557 70.44 148.877 70.44C146.397 70.44 144.237 69.92 142.397 68.88C140.637 67.76 138.957 66.36 137.357 64.68C135.837 63 134.317 61.2 132.797 59.28C131.277 57.36 129.557 55.56 127.637 53.88C125.797 52.12 123.677 50.68 121.277 49.56C118.877 48.36 115.997 47.68 112.637 47.52C111.437 47.52 110.157 47.64 108.797 47.88C107.517 48.04 106.317 48.4 105.197 48.96C104.077 49.52 103.157 50.28 102.437 51.24C101.717 52.2 101.357 53.4 101.357 54.84C101.357 56.52 101.837 57.92 102.797 59.04C103.757 60.16 104.757 61.24 105.797 62.28C106.917 63.32 107.877 64.36 108.677 65.4C109.557 66.44 109.877 67.72 109.637 69.24C109.397 70.76 108.797 71.92 107.837 72.72C106.957 73.44 105.877 74 104.597 74.4C103.317 74.8 101.957 75.08 100.517 75.24C99.0769 75.4 97.7569 75.64 96.5569 75.96C95.3569 76.2 94.3569 76.6 93.5569 77.16C92.7569 77.72 92.3569 78.6 92.3569 79.8C92.3569 80.84 92.6769 81.72 93.3169 82.44C94.0369 83.16 95.0369 83.52 96.3169 83.52C97.4369 83.52 98.4369 83.36 99.3169 83.04C100.277 82.72 101.197 82.36 102.077 81.96C102.957 81.48 103.837 81.08 104.717 80.76C105.677 80.44 106.717 80.28 107.837 80.28C109.437 80.28 110.757 80.76 111.797 81.72C112.837 82.6 113.357 83.76 113.357 85.2C113.357 86.16 113.077 87.04 112.517 87.84C112.037 88.56 111.437 89.28 110.717 90C110.077 90.72 109.477 91.44 108.917 92.16C108.437 92.8 108.197 93.56 108.197 94.44C108.197 95.88 108.997 97.08 110.597 98.04C112.277 99.08 114.477 99.6 117.197 99.6C119.917 99.6 122.157 99 123.917 97.8C125.677 96.6 127.157 95.12 128.357 93.36C129.637 91.6 130.717 89.68 131.597 87.6C132.477 85.44 133.397 83.48 134.357 81.72C135.397 79.96 136.557 78.48 137.837 77.28C139.197 76.08 140.877 75.48 142.877 75.48H143.477C145.557 75.64 147.237 76.44 148.517 77.88C149.797 79.24 150.437 80.92 150.437 82.92C150.437 85.56 149.317 88 147.077 90.24C144.917 92.48 142.037 94.4 138.437 96C134.917 97.68 130.957 98.96 126.557 99.84C122.157 100.72 117.757 101.16 113.357 101.16C109.517 101.16 105.717 100.6 101.957 99.48C98.1969 98.44 94.7969 97 91.7569 95.16C88.7169 93.32 86.2369 91.16 84.3169 88.68C82.4769 86.2 81.5569 83.6 81.5569 80.88C81.5569 77.84 82.6769 75.56 84.9169 74.04C87.1569 72.52 89.8369 71.76 92.9569 71.76C94.8769 71.76 96.7569 71.92 98.5969 72.24C100.437 72.56 102.077 72.72 103.517 72.72C104.797 72.72 105.837 72.48 106.637 72C107.517 71.52 108.037 70.6 108.197 69.24C108.357 68.04 108.037 67.08 107.237 66.36C106.437 65.56 105.357 64.84 103.997 64.2C102.717 63.56 101.277 62.96 99.6769 62.4C98.1569 61.84 96.6769 61.2 95.2369 60.48C93.8769 59.68 92.7169 58.76 91.7569 57.72C90.8769 56.68 90.4369 55.4 90.4369 53.88C90.4369 50.92 92.2369 48.88 95.8369 47.76C99.4369 46.56 104.117 45.96 109.877 45.96C114.437 45.96 118.357 46.64 121.637 48C124.917 49.28 127.757 50.76 130.157 52.44C132.637 54.04 134.797 55.52 136.637 56.88C138.557 58.16 140.357 58.8 142.037 58.8ZM137.597 34.8C140.237 34.8 142.517 35.52 144.437 36.96C146.437 38.32 147.437 40.44 147.437 43.32C147.437 46.12 146.597 48.32 144.917 49.92C143.237 51.52 141.397 52.32 139.397 52.32C137.077 52.32 135.317 51.72 134.117 50.52C132.917 49.32 132.237 47.64 132.077 45.48C131.997 44.68 131.997 43.88 132.077 43.08C132.237 42.2 132.317 41.44 132.317 40.8C132.317 40.16 132.157 39.64 131.837 39.24C131.597 38.76 130.997 38.52 130.037 38.52C129.317 38.52 128.197 38.8 126.677 39.36C125.157 39.84 123.437 40.4 121.517 41.04C119.677 41.68 117.757 42.28 115.757 42.84C113.757 43.32 111.877 43.56 110.117 43.56C105.557 43.56 101.917 42.24 99.1969 39.6C96.4769 36.88 95.1169 33.48 95.1169 29.4C95.1169 26.6 95.5969 24 96.5569 21.6C97.5969 19.2 98.9969 17.12 100.757 15.36C102.517 13.52 104.597 12.08 106.997 11.04C109.477 10 112.197 9.48 115.157 9.48C117.237 9.48 118.917 9.8 120.197 10.44C121.557 11.08 122.757 11.8 123.797 12.6C124.917 13.4 125.917 14.12 126.797 14.76C127.757 15.4 128.837 15.72 130.037 15.72C131.237 15.72 132.117 14.96 132.677 13.44C133.317 11.92 133.997 10.24 134.717 8.4C135.517 6.48 136.517 4.76 137.717 3.23999C138.997 1.71999 140.797 0.959993 143.117 0.959993C145.677 0.959993 147.437 1.59999 148.397 2.88C149.357 4.08 150.037 5.44 150.437 6.95999C150.917 8.4 151.397 9.76 151.877 11.04C152.357 12.24 153.437 12.84 155.117 12.84C155.757 12.84 156.357 12.64 156.917 12.24C157.477 11.84 158.077 11.4 158.717 10.92C159.437 10.36 160.197 9.88 160.997 9.48C161.877 9.08 162.917 8.88 164.117 8.88C166.197 8.88 167.677 9.56 168.557 10.92C169.437 12.28 169.877 13.76 169.877 15.36C169.877 16.64 169.477 17.88 168.677 19.08C167.957 20.28 166.997 21.32 165.797 22.2C164.597 23.08 163.237 23.8 161.717 24.36C160.277 24.84 158.837 25.08 157.397 25.08C154.837 25.08 152.917 24.52 151.637 23.4C150.357 22.2 149.477 20.76 148.997 19.08C148.517 17.4 148.237 15.56 148.157 13.56C148.157 11.48 148.077 9.59999 147.917 7.92C147.837 6.23999 147.477 4.83999 146.837 3.71999C146.277 2.51999 145.197 1.92 143.597 1.92C142.077 1.92 140.957 2.48 140.237 3.6C139.517 4.64 138.997 5.96 138.677 7.55999C138.357 9.16 138.157 10.92 138.077 12.84C137.997 14.76 137.837 16.6 137.597 18.36C137.437 20.04 137.037 21.52 136.397 22.8C135.837 24.08 134.877 24.88 133.517 25.2C133.197 25.28 132.717 25.32 132.077 25.32C130.317 25.32 128.917 24.56 127.877 23.04C126.917 21.52 125.917 19.84 124.877 18C123.837 16.08 122.597 14.36 121.157 12.84C119.797 11.32 117.837 10.56 115.277 10.56C112.557 10.56 110.117 11.08 107.957 12.12C105.877 13.16 104.837 14.6 104.837 16.44C104.837 17.64 105.157 18.52 105.797 19.08C106.437 19.64 107.237 20 108.197 20.16C109.157 20.32 110.197 20.4 111.317 20.4C112.437 20.4 113.477 20.48 114.437 20.64C115.397 20.72 116.197 21 116.837 21.48C117.477 21.88 117.797 22.6 117.797 23.64C117.797 25.16 117.277 26.48 116.237 27.6C115.277 28.64 114.197 29.6 112.997 30.48C111.797 31.36 110.677 32.24 109.637 33.12C108.677 34 108.197 35 108.197 36.12C108.197 37.72 108.797 38.88 109.997 39.6C111.197 40.24 112.797 40.56 114.797 40.56C116.717 40.56 118.597 40.28 120.437 39.72C122.357 39.16 124.237 38.56 126.077 37.92C127.997 37.2 129.877 36.52 131.717 35.88C133.637 35.24 135.597 34.88 137.597 34.8ZM216.335 89.28C216.335 90.64 216.855 91.6 217.895 92.16C218.935 92.72 220.055 93 221.255 93C223.095 93 224.935 92.6 226.775 91.8C228.695 90.92 230.575 89.8 232.415 88.44C234.255 87.08 236.055 85.56 237.815 83.88C239.575 82.12 241.215 80.32 242.735 78.48C246.415 74.24 249.935 69.44 253.295 64.08C250.175 70.24 246.815 75.76 243.215 80.64C241.695 82.72 240.015 84.76 238.175 86.76C236.335 88.68 234.375 90.44 232.295 92.04C230.295 93.56 228.215 94.8 226.055 95.76C223.895 96.72 221.655 97.2 219.335 97.2C216.615 97.2 214.495 96.56 212.975 95.28C211.455 94 210.695 92.2 210.695 89.88C210.695 88.52 211.335 87.04 212.615 85.44C213.975 83.84 215.455 82.24 217.055 80.64C218.655 79.04 220.095 77.52 221.375 76.08C222.655 74.64 223.295 73.44 223.295 72.48C223.135 70.8 222.455 69.76 221.255 69.36C220.135 68.88 218.895 68.64 217.535 68.64C216.495 68.64 215.095 68.8 213.335 69.12C211.655 69.36 209.815 69.64 207.815 69.96C205.895 70.28 203.935 70.56 201.935 70.8C200.015 71.04 198.295 71.16 196.775 71.16C194.695 71.16 193.055 70.56 191.855 69.36C190.655 68.08 190.055 66.68 190.055 65.16C190.055 63.32 190.775 61.76 192.215 60.48C193.735 59.2 195.655 58.16 197.975 57.36C200.375 56.48 203.015 55.8 205.895 55.32C208.775 54.76 211.615 54.32 214.415 54C217.215 53.68 219.775 53.44 222.095 53.28C224.415 53.04 226.215 52.8 227.495 52.56C232.455 51.68 236.775 50.4 240.455 48.72C244.215 47.04 247.335 45.2 249.815 43.2C252.295 41.12 254.135 38.96 255.335 36.72C256.615 34.4 257.255 32.24 257.255 30.24C257.255 24.96 255.735 20.72 252.695 17.52C249.735 14.24 245.455 12.6 239.855 12.6C237.375 12.6 234.975 12.96 232.655 13.68C230.335 14.4 228.015 15.68 225.695 17.52C223.375 19.36 221.015 21.84 218.615 24.96C216.215 28 213.615 31.88 210.815 36.6C209.775 38.36 208.495 40.32 206.975 42.48C205.535 44.64 203.895 46.64 202.055 48.48C200.215 50.32 198.215 51.88 196.055 53.16C193.975 54.44 191.775 55.08 189.455 55.08C189.055 56.68 188.615 58.28 188.135 59.88C187.815 61.24 187.455 62.68 187.055 64.2C186.735 65.64 186.415 66.92 186.095 68.04C185.935 68.76 185.655 69.96 185.255 71.64C184.855 73.24 184.375 75.08 183.815 77.16C183.255 79.16 182.535 81.24 181.655 83.4C180.855 85.48 179.935 87.4 178.895 89.16C177.855 90.92 176.695 92.36 175.415 93.48C174.135 94.6 172.735 95.16 171.215 95.16C169.935 95.16 168.815 94.68 167.855 93.72C166.895 92.68 166.415 91 166.415 88.68C166.415 86.36 167.015 84.12 168.215 81.96C169.415 79.72 170.775 77.76 172.295 76.08C173.975 74.16 175.895 72.32 178.055 70.56C176.615 71.92 175.375 73.32 174.335 74.76C173.375 76.04 172.495 77.44 171.695 78.96C170.895 80.48 170.495 82 170.495 83.52C170.495 84.88 170.735 85.88 171.215 86.52C171.775 87.08 172.415 87.36 173.135 87.36C174.015 87.36 174.815 86.88 175.535 85.92C176.335 84.88 177.015 83.72 177.575 82.44C178.215 81.08 178.735 79.8 179.135 78.6C179.615 77.32 179.935 76.4 180.095 75.84C180.255 75.28 180.695 73.92 181.415 71.76C182.135 69.52 182.855 67.12 183.575 64.56C184.455 61.6 185.455 58.36 186.575 54.84C184.815 54.44 183.255 53.8 181.895 52.92C180.695 52.12 179.575 51.04 178.535 49.68C177.575 48.24 177.095 46.36 177.095 44.04C177.175 41.08 178.095 38.52 179.855 36.36C181.695 34.12 183.655 32.28 185.735 30.84C188.215 29.08 191.015 27.6 194.135 26.4C194.695 23.36 195.495 20.68 196.535 18.36C197.415 16.28 198.495 14.44 199.775 12.84C201.135 11.16 202.775 10.32 204.695 10.32C206.215 10.32 207.415 10.76 208.295 11.64C209.255 12.52 209.735 13.84 209.735 15.6C209.735 17.68 209.015 19.56 207.575 21.24C206.215 22.84 204.695 24.2 203.015 25.32C201.015 26.6 198.735 27.76 196.175 28.8L190.535 51.24C192.055 51.24 193.575 50.8 195.095 49.92C196.695 48.96 198.215 47.76 199.655 46.32C201.175 44.8 202.575 43.2 203.855 41.52C205.215 39.76 206.415 38.08 207.455 36.48C208.575 34.8 209.495 33.36 210.215 32.16C210.935 30.88 211.455 30 211.775 29.52C212.255 28.8 213.135 27.32 214.415 25.08C215.775 22.76 217.615 20.36 219.935 17.88C222.255 15.32 225.095 13.08 228.455 11.16C231.815 9.16 235.735 8.15999 240.215 8.15999C242.615 8.15999 245.095 8.51999 247.655 9.23999C250.215 9.88 252.535 11 254.615 12.6C256.775 14.2 258.535 16.4 259.895 19.2C261.335 21.92 262.055 25.4 262.055 29.64C262.055 34.04 260.935 37.76 258.695 40.8C256.455 43.84 253.655 46.36 250.295 48.36C246.935 50.28 243.295 51.8 239.375 52.92C235.455 54.04 231.815 54.88 228.455 55.44C227.175 55.68 225.455 55.88 223.295 56.04C221.135 56.2 218.815 56.4 216.335 56.64C213.855 56.88 211.335 57.2 208.775 57.6C206.295 58 204.055 58.52 202.055 59.16C200.055 59.72 198.415 60.44 197.135 61.32C195.855 62.2 195.215 63.28 195.215 64.56C195.215 65.28 195.415 65.88 195.815 66.36C196.295 66.76 196.855 67.08 197.495 67.32C198.135 67.48 198.815 67.6 199.535 67.68C200.255 67.68 200.895 67.68 201.455 67.68C202.655 67.68 204.135 67.56 205.895 67.32C207.735 67 209.615 66.68 211.535 66.36C213.535 65.96 215.535 65.64 217.535 65.4C219.535 65.08 221.375 64.92 223.055 64.92C224.575 64.92 225.895 65.4 227.015 66.36C228.215 67.32 228.815 68.64 228.815 70.32C228.815 71.68 228.175 73.16 226.895 74.76C225.615 76.36 224.175 78 222.575 79.68C221.055 81.36 219.615 83.04 218.255 84.72C216.975 86.32 216.335 87.84 216.335 89.28ZM180.575 43.8C180.575 45.4 180.935 46.72 181.655 47.76C182.375 48.72 183.175 49.44 184.055 49.92C185.095 50.48 186.255 50.88 187.535 51.12L193.175 30.12C190.855 31.08 188.775 32.24 186.935 33.6C185.335 34.72 183.855 36.16 182.495 37.92C181.215 39.6 180.575 41.56 180.575 43.8ZM202.655 16.08C201.775 16.08 200.975 16.56 200.255 17.52C199.535 18.48 198.935 19.56 198.455 20.76C197.895 22.12 197.415 23.68 197.015 25.44C198.455 24.8 199.735 24.08 200.855 23.28C201.735 22.64 202.575 21.88 203.375 21C204.175 20.12 204.575 19.2 204.575 18.24C204.575 17.6 204.375 17.08 203.975 16.68C203.655 16.28 203.215 16.08 202.655 16.08ZM327.488 46.92C329.168 46.92 330.928 46.68 332.768 46.2C334.608 45.72 336.488 45.2 338.408 44.64C340.408 44.08 342.448 43.56 344.528 43.08C346.688 42.6 348.888 42.36 351.128 42.36C354.728 42.36 357.768 43.32 360.248 45.24C362.728 47.16 363.968 49.84 363.968 53.28C363.968 55.44 363.448 57.36 362.408 59.04C361.448 60.64 360.168 62.04 358.568 63.24C356.968 64.44 355.128 65.44 353.048 66.24C351.048 67.04 348.968 67.72 346.808 68.28C344.488 68.84 342.208 69.24 339.968 69.48C337.808 69.64 335.848 69.84 334.088 70.08C332.408 70.24 331.008 70.52 329.888 70.92C328.768 71.32 328.128 72 327.968 72.96C327.728 74.32 328.288 75.4 329.648 76.2C331.088 76.92 332.688 77.68 334.448 78.48C336.288 79.2 337.968 80.12 339.488 81.24C341.088 82.36 341.888 83.96 341.888 86.04C341.888 87.96 341.008 89.72 339.248 91.32C337.488 92.92 335.328 94.32 332.768 95.52C330.208 96.64 327.488 97.48 324.608 98.04C321.808 98.68 319.328 99 317.168 99C315.088 99 312.488 98.76 309.368 98.28C306.328 97.8 303.088 97.08 299.648 96.12C296.288 95.16 292.928 93.96 289.568 92.52C286.208 91.08 283.168 89.44 280.448 87.6C277.808 85.68 275.648 83.52 273.968 81.12C272.288 78.72 271.448 76.12 271.448 73.32C271.448 71.4 271.768 69.8 272.408 68.52C273.048 67.16 273.848 66.08 274.808 65.28C275.848 64.4 277.008 63.8 278.288 63.48C279.568 63.08 280.808 62.88 282.008 62.88C284.408 62.88 286.368 63.76 287.888 65.52C289.408 67.2 290.648 69.2 291.608 71.52C292.648 73.84 293.488 76.24 294.128 78.72C294.848 81.12 295.568 83 296.288 84.36C297.088 85.8 298.088 87.24 299.288 88.68C300.488 90.12 301.968 91.44 303.728 92.64C305.488 93.76 307.528 94.72 309.848 95.52C312.168 96.24 314.808 96.6 317.768 96.6C318.408 96.6 319.408 96.52 320.768 96.36C322.208 96.2 323.728 95.96 325.328 95.64C327.008 95.32 328.728 94.92 330.488 94.44C332.248 93.88 333.848 93.2 335.288 92.4C336.808 91.6 338.008 90.68 338.888 89.64C339.848 88.52 340.328 87.28 340.328 85.92C340.328 84.8 339.608 83.88 338.168 83.16C336.728 82.44 334.928 81.76 332.768 81.12C330.608 80.48 328.248 79.88 325.688 79.32C323.128 78.68 320.768 77.92 318.608 77.04C316.448 76.16 314.648 75.12 313.208 73.92C311.768 72.72 311.048 71.2 311.048 69.36C311.048 68.32 311.328 67.44 311.888 66.72C312.528 66 313.328 65.4 314.288 64.92C315.248 64.44 316.248 64.08 317.288 63.84C318.408 63.6 319.448 63.48 320.408 63.48C321.368 63.48 322.928 63.52 325.088 63.6C327.328 63.6 329.688 63.64 332.168 63.72C334.728 63.8 337.168 63.88 339.488 63.96C341.888 63.96 343.688 63.96 344.888 63.96C346.968 63.96 349.048 63.76 351.128 63.36C353.208 62.96 355.088 62.36 356.768 61.56C358.448 60.68 359.808 59.6 360.848 58.32C361.968 57.04 362.528 55.52 362.528 53.76C362.528 51.44 361.648 49.56 359.888 48.12C358.128 46.68 355.568 45.96 352.208 45.96C348.608 45.96 344.688 46.76 340.448 48.36C336.208 49.96 332.008 51.72 327.848 53.64C323.688 55.56 319.768 57.32 316.088 58.92C312.408 60.52 309.288 61.32 306.728 61.32C305.288 61.32 304.088 60.92 303.128 60.12C302.168 59.32 301.688 58.2 301.688 56.76C301.688 55.24 302.208 53.8 303.248 52.44C304.368 51.08 305.728 49.76 307.328 48.48C309.008 47.2 310.808 45.96 312.728 44.76C314.648 43.56 316.408 42.44 318.008 41.4C319.688 40.28 321.048 39.24 322.088 38.28C323.208 37.24 323.768 36.28 323.768 35.4C323.768 35 323.568 34.52 323.168 33.96C322.848 33.32 321.968 33 320.528 33C317.888 33 315.488 33.92 313.328 35.76C311.168 37.52 308.968 39.52 306.728 41.76C304.568 43.92 302.208 45.92 299.648 47.76C297.168 49.52 294.208 50.4 290.768 50.4C287.728 50.4 285.088 49.68 282.848 48.24C280.688 46.8 278.888 45.04 277.448 42.96C276.008 40.8 274.928 38.56 274.208 36.24C273.488 33.84 273.128 31.68 273.128 29.76C273.128 21.68 275.288 15.44 279.608 11.04C284.008 6.64 289.808 4.44 297.008 4.44C299.808 4.44 302.088 4.88 303.848 5.76C305.608 6.56 307.088 7.48 308.288 8.52C309.488 9.48 310.568 10.4 311.528 11.28C312.568 12.08 313.688 12.52 314.888 12.6H315.128C316.328 12.6 317.168 12.24 317.648 11.52C318.208 10.8 318.688 10.04 319.088 9.23999C319.568 8.36 320.088 7.56 320.648 6.84C321.288 6.12 322.288 5.76 323.648 5.76C325.168 5.76 327.088 6.28 329.408 7.32C331.728 8.27999 333.968 9.63999 336.128 11.4C338.288 13.08 340.128 15.04 341.648 17.28C343.168 19.52 343.928 21.88 343.928 24.36C343.928 26.44 343.408 28.2 342.368 29.64C341.328 31.08 339.888 31.8 338.048 31.8C336.048 31.8 334.568 31.24 333.608 30.12C332.728 28.92 332.128 27.52 331.808 25.92C331.488 24.24 331.328 22.52 331.328 20.76C331.328 18.92 331.168 17.32 330.848 15.96C330.288 13.56 329.408 11.48 328.208 9.72C327.008 7.95999 325.488 7.07999 323.648 7.07999C322.528 7.07999 321.808 7.48 321.488 8.28C321.168 9.08 321.048 10.08 321.128 11.28C321.288 12.48 321.488 13.8 321.728 15.24C322.048 16.6 322.208 17.96 322.208 19.32C322.288 20.6 322.128 21.76 321.728 22.8C321.408 23.76 320.608 24.4 319.328 24.72C318.688 24.88 318.208 24.96 317.888 24.96C316.528 24.96 315.408 24.48 314.528 23.52C313.648 22.56 312.808 21.4 312.008 20.04C311.288 18.6 310.528 17.08 309.728 15.48C309.008 13.8 308.128 12.28 307.088 10.92C306.048 9.47999 304.768 8.27999 303.248 7.32C301.728 6.36 299.848 5.87999 297.608 5.87999C294.968 5.87999 292.808 6.39999 291.128 7.44C289.448 8.4 288.608 9.8 288.608 11.64C288.608 13.16 289.368 14.24 290.888 14.88C292.408 15.44 294.048 15.92 295.808 16.32C297.648 16.72 299.328 17.24 300.848 17.88C302.368 18.44 303.128 19.48 303.128 21C303.128 22.52 302.248 23.88 300.488 25.08C298.808 26.28 296.928 27.48 294.848 28.68C292.768 29.88 290.848 31.2 289.088 32.64C287.408 34 286.568 35.72 286.568 37.8C286.568 39.48 287.128 40.76 288.248 41.64C289.368 42.44 290.768 42.84 292.448 42.84C295.888 42.84 298.728 42.24 300.968 41.04C303.288 39.84 305.408 38.56 307.328 37.2C309.328 35.76 311.368 34.44 313.448 33.24C315.528 32.04 318.048 31.44 321.008 31.44C321.968 31.44 323.008 31.72 324.128 32.28C325.248 32.76 325.808 33.84 325.808 35.52C325.808 36.24 325.648 36.88 325.328 37.44C325.088 38 324.808 38.6 324.488 39.24C324.248 39.8 323.968 40.44 323.648 41.16C323.408 41.8 323.288 42.6 323.288 43.56C323.288 44.6 323.688 45.44 324.488 46.08C325.288 46.64 326.288 46.92 327.488 46.92ZM469.145 24C470.265 23.76 471.305 23.64 472.265 23.64C474.185 23.64 475.905 24 477.425 24.72C479.025 25.36 480.385 26.24 481.505 27.36C482.625 28.48 483.505 29.8 484.145 31.32C484.785 32.84 485.105 34.44 485.105 36.12C485.105 38.68 484.425 41.04 483.065 43.2C481.705 45.36 480.225 47.24 478.625 48.84C476.705 50.76 474.545 52.48 472.145 54C470.945 62.08 468.585 69.32 465.065 75.72C463.545 78.44 461.705 81.12 459.545 83.76C457.465 86.32 454.945 88.64 451.985 90.72C449.025 92.72 445.625 94.36 441.785 95.64C437.945 96.84 433.585 97.44 428.705 97.44C422.705 97.44 417.705 96.52 413.705 94.68C409.785 92.84 406.665 90.84 404.345 88.68C401.545 86.12 399.385 83.2 397.865 79.92C393.465 79.68 389.545 78.84 386.105 77.4C384.665 76.76 383.225 76 381.785 75.12C380.345 74.24 379.065 73.16 377.945 71.88C376.905 70.52 376.025 69 375.305 67.32C374.665 65.56 374.345 63.56 374.345 61.32C374.345 59 374.625 56.92 375.185 55.08C375.825 53.16 376.625 51.44 377.585 49.92C378.625 48.4 379.785 47.08 381.065 45.96C382.345 44.76 383.625 43.72 384.905 42.84C388.025 40.76 391.545 39.16 395.465 38.04C396.825 33.72 398.665 29.76 400.985 26.16C401.945 24.64 403.065 23.16 404.345 21.72C405.705 20.2 407.185 18.8 408.785 17.52C410.465 16.24 412.265 15.16 414.185 14.28C416.185 13.4 418.385 12.8 420.785 12.48C421.025 12.48 421.265 12.48 421.505 12.48C421.745 12.4 421.985 12.36 422.225 12.36C423.585 12.36 424.665 12.48 425.465 12.72C425.945 12.8 426.385 12.92 426.785 13.08C427.905 11.96 429.225 11.08 430.745 10.44C432.345 9.71999 433.985 9.19999 435.665 8.88C437.345 8.48 439.025 8.2 440.705 8.04C442.465 7.88 444.065 7.8 445.505 7.8C449.985 7.96 453.705 8.88 456.665 10.56C459.705 12.24 462.145 14.08 463.985 16.08C466.145 18.48 467.865 21.12 469.145 24ZM436.625 14.28C434.465 14.28 432.185 14.64 429.785 15.36C430.425 15.84 430.985 16.36 431.465 16.92C431.865 17.48 432.225 18.16 432.545 18.96C432.945 19.68 433.145 20.6 433.145 21.72C433.145 24.36 432.425 26.6 430.985 28.44C429.545 30.28 427.665 31.8 425.345 33C423.105 34.2 420.585 35.2 417.785 36C414.985 36.72 412.265 37.32 409.625 37.8C408.265 38.04 407.025 38.28 405.905 38.52C404.785 38.68 403.785 38.84 402.905 39C401.865 39.24 400.945 39.44 400.145 39.6C399.505 44.4 399.385 49.12 399.785 53.76C399.945 55.68 400.225 57.72 400.625 59.88C401.025 61.96 401.585 64.04 402.305 66.12C403.025 68.2 403.945 70.2 405.065 72.12C406.265 74.04 407.705 75.8 409.385 77.4C413.305 76.52 417.305 75.48 421.385 74.28C424.985 73.24 428.865 71.96 433.025 70.44C437.185 68.92 441.225 67.12 445.145 65.04C445.945 62.64 446.585 59.92 447.065 56.88C447.545 53.76 448.065 50.64 448.625 47.52C449.265 44.4 449.985 41.44 450.785 38.64C451.665 35.76 452.865 33.36 454.385 31.44C455.025 30.56 455.625 29.84 456.185 29.28C456.825 28.64 457.345 28.12 457.745 27.72C458.305 27.32 458.785 26.96 459.185 26.64C457.345 24.32 455.265 22.24 452.945 20.4C450.945 18.88 448.545 17.48 445.745 16.2C443.025 14.92 439.985 14.28 436.625 14.28ZM428.105 85.32C430.025 84.52 431.985 83.4 433.985 81.96C435.585 80.68 437.305 78.96 439.145 76.8C441.065 74.56 442.825 71.76 444.425 68.4C440.585 70 436.705 71.48 432.785 72.84C429.425 74.04 425.785 75.24 421.865 76.44C418.025 77.64 414.305 78.56 410.705 79.2C412.625 81.2 414.865 82.96 417.425 84.48C419.505 85.84 422.025 87.08 424.985 88.2C428.025 89.32 431.345 89.88 434.945 89.88C438.465 89.88 441.625 89.4 444.425 88.44C447.305 87.4 449.865 86.08 452.105 84.48C454.425 82.88 456.465 81.04 458.225 78.96C459.985 76.8 461.505 74.64 462.785 72.48C465.825 67.44 468.145 61.68 469.745 55.2C466.545 57.12 463.425 58.92 460.385 60.6C459.105 61.32 457.785 62.04 456.425 62.76C455.065 63.4 453.705 64.04 452.345 64.68C451.065 65.32 449.825 65.92 448.625 66.48C447.505 66.96 446.505 67.36 445.625 67.68C444.425 70.32 442.945 72.8 441.185 75.12C439.745 77.12 437.945 79.12 435.785 81.12C433.625 83.04 431.065 84.44 428.105 85.32ZM472.025 28.08C469.465 28.08 467.145 28.72 465.065 30C462.985 31.2 461.105 32.76 459.425 34.68C457.825 36.6 456.425 38.72 455.225 41.04C454.105 43.28 453.145 45.44 452.345 47.52C451.545 49.52 450.905 51.32 450.425 52.92C450.025 54.52 449.745 55.56 449.585 56.04C449.265 57.08 448.945 58.08 448.625 59.04C448.305 60 448.025 60.88 447.785 61.68C447.465 62.56 447.185 63.36 446.945 64.08C452.785 61.04 457.985 57.8 462.545 54.36C464.465 52.92 466.345 51.36 468.185 49.68C470.105 48 471.785 46.28 473.225 44.52C474.745 42.68 475.945 40.84 476.825 39C477.705 37.08 478.145 35.16 478.145 33.24C478.145 31.8 477.425 30.6 475.985 29.64C474.625 28.6 473.305 28.08 472.025 28.08ZM376.145 61.8C376.145 63.72 376.425 65.44 376.985 66.96C377.625 68.4 378.425 69.68 379.385 70.8C380.345 71.92 381.425 72.92 382.625 73.8C383.905 74.6 385.185 75.28 386.465 75.84C389.425 77.12 392.825 78 396.665 78.48C395.785 76.8 395.025 74.96 394.385 72.96C393.745 71.28 393.185 69.36 392.705 67.2C392.225 64.96 391.985 62.56 391.985 60C391.985 57.2 392.105 54.68 392.345 52.44C392.585 50.12 392.825 48.16 393.065 46.56C393.385 44.64 393.745 42.96 394.145 41.52C390.785 42.4 387.785 43.72 385.145 45.48C382.905 47 380.825 49.08 378.905 51.72C377.065 54.28 376.145 57.64 376.145 61.8ZM427.145 18C427.145 17.12 426.705 16.36 425.825 15.72C425.025 15 423.785 14.64 422.105 14.64C420.425 14.64 418.825 14.96 417.305 15.6C415.785 16.16 414.345 16.96 412.985 18C411.705 19.04 410.505 20.24 409.385 21.6C408.265 22.88 407.265 24.2 406.385 25.56C404.305 28.76 402.505 32.4 400.985 36.48C405.865 35.28 410.225 33.8 414.065 32.04C415.745 31.32 417.345 30.48 418.865 29.52C420.465 28.56 421.865 27.52 423.065 26.4C424.265 25.2 425.225 23.92 425.945 22.56C426.745 21.12 427.145 19.6 427.145 18ZM570.613 16.68V88.2C570.613 90.76 571.173 92.48 572.293 93.36C573.493 94.16 575.253 94.56 577.573 94.56H579.973C582.693 94.56 584.293 93.4 584.773 91.08C585.013 89.88 584.693 88 583.813 85.44C583.013 82.88 581.973 80.24 580.693 77.52C579.413 74.72 578.133 72.12 576.853 69.72C575.573 67.24 574.653 65.48 574.093 64.44C574.093 64.2 574.173 64.04 574.333 63.96C574.493 63.8 574.613 63.8 574.693 63.96C574.693 63.96 574.733 63.96 574.813 63.96L592.213 94.8C592.213 94.88 592.253 95 592.333 95.16C592.413 95.24 592.453 95.36 592.453 95.52C592.453 95.84 592.213 96 591.733 96H564.373L509.773 15.12V87C509.773 89.96 510.293 91.96 511.333 93C512.373 94.04 514.173 94.56 516.733 94.56H519.013C519.253 94.56 519.373 94.76 519.373 95.16V95.52C519.373 95.84 519.253 96 519.013 96H496.573C496.093 96 495.853 95.84 495.853 95.52V95.16C495.853 94.76 496.093 94.56 496.573 94.56H498.853C501.173 94.56 502.893 94 504.013 92.88C505.133 91.76 505.693 89.8 505.693 87V16.68C505.693 14.36 505.253 12.76 504.373 11.88C503.573 10.92 502.133 10.44 500.053 10.44H496.453C495.333 10.44 494.293 10.68 493.333 11.16C492.453 11.64 491.893 12.56 491.653 13.92C491.413 15.44 491.733 17.52 492.613 20.16C493.493 22.72 494.573 25.32 495.853 27.96C497.133 30.6 498.413 33.08 499.693 35.4C500.973 37.72 501.853 39.4 502.333 40.44C502.413 40.68 502.333 40.92 502.093 41.16C501.773 41.32 501.573 41.24 501.493 40.92L484.213 10.08C484.213 10 484.173 9.92 484.093 9.83999C484.013 9.75999 483.973 9.68 483.973 9.6C483.973 9.12 484.213 8.88 484.693 8.88H516.493L566.653 81.84V16.68C566.653 14.28 566.133 12.64 565.093 11.76C564.053 10.88 562.253 10.44 559.693 10.44H557.533C557.053 10.44 556.813 10.2 556.813 9.72V9.35999C556.813 9.04 557.053 8.88 557.533 8.88H579.853C580.173 8.88 580.333 9.04 580.333 9.35999V9.72C580.333 10.2 580.173 10.44 579.853 10.44H577.573C575.253 10.44 573.493 10.88 572.293 11.76C571.173 12.64 570.613 14.28 570.613 16.68ZM650.256 95.28H654.336C656.016 95.28 657.336 95.08 658.296 94.68C659.336 94.28 660.056 93.8 660.456 93.24C660.936 92.6 661.176 91.88 661.176 91.08C661.256 90.28 661.216 89.52 661.056 88.8C660.656 87.52 660.256 86.08 659.856 84.48C659.536 82.88 659.056 81.2 658.416 79.44C657.456 76.56 655.936 74 653.856 71.76C651.776 69.52 648.816 68.4 644.976 68.4C642.576 68.4 640.336 69.12 638.256 70.56C636.256 71.92 634.336 73.68 632.496 75.84C630.656 77.92 628.856 80.2 627.096 82.68C625.416 85.08 623.616 87.36 621.696 89.52C619.856 91.6 617.896 93.36 615.816 94.8C613.736 96.16 611.416 96.84 608.856 96.84C605.736 96.84 603.136 95.88 601.056 93.96C598.976 92.04 597.936 88.96 597.936 84.72C597.936 82.24 598.296 79.52 599.016 76.56C599.816 73.52 600.816 70.32 602.016 66.96C603.216 63.52 604.576 59.92 606.096 56.16C607.696 52.4 609.256 48.56 610.776 44.64C611.496 42.8 612.336 40.64 613.296 38.16C614.256 35.68 615.256 33.12 616.296 30.48C617.336 27.84 618.336 25.28 619.296 22.8C620.336 20.24 621.216 18.04 621.936 16.2C622.336 15.08 622.616 14.24 622.776 13.68C622.936 13.04 623.016 12.4 623.016 11.76C623.016 10.32 622.216 9.6 620.616 9.6H611.736C611.416 9.6 611.256 9.48 611.256 9.23999V9.12C611.256 8.96 611.416 8.88 611.736 8.88H659.736C659.976 8.88 660.096 8.96 660.096 9.12V9.23999C660.096 9.48 659.976 9.6 659.736 9.6H652.536C650.776 9.6 649.656 10.16 649.176 11.28C648.696 12.4 648.696 13.8 649.176 15.48C652.536 27.96 655.936 40.36 659.376 52.68C662.816 65 666.536 77.32 670.536 89.64C671.176 91.64 671.976 93.08 672.936 93.96C673.976 94.84 675.736 95.28 678.216 95.28H681.936C682.176 95.28 682.296 95.36 682.296 95.52V95.76C682.296 95.92 682.176 96 681.936 96H650.256C650.096 96 650.016 95.92 650.016 95.76V95.52C650.016 95.36 650.096 95.28 650.256 95.28ZM618.336 46.56H611.856C611.216 48.24 610.416 50.28 609.456 52.68C608.496 55.08 607.536 57.6 606.576 60.24C605.696 62.88 604.896 65.52 604.176 68.16C603.536 70.72 603.216 73 603.216 75C603.216 78.28 604.136 80.64 605.976 82.08C607.816 83.44 609.856 84.12 612.096 84.12C613.616 84.12 615.136 83.76 616.656 83.04C618.176 82.24 619.736 81.24 621.336 80.04C622.936 78.84 624.576 77.52 626.256 76.08C627.936 74.64 629.656 73.28 631.416 72V59.52C631.416 54.96 630.376 51.68 628.296 49.68C626.216 47.6 622.896 46.56 618.336 46.56ZM623.016 17.52C622.776 18 622.296 19.16 621.576 21C620.936 22.84 620.096 25.08 619.056 27.72C618.016 30.36 616.896 33.28 615.696 36.48C614.496 39.6 613.296 42.72 612.096 45.84H618.336C623.056 45.84 626.416 44.8 628.416 42.72C630.416 40.64 631.416 37.24 631.416 32.52V11.64C629.736 11.72 628.136 12.12 626.616 12.84C625.176 13.56 623.976 15.12 623.016 17.52ZM653.016 60.12C652.376 57.88 651.736 55.64 651.096 53.4C650.536 51.08 649.936 48.8 649.296 46.56H645.096C640.376 46.56 637.016 47.56 635.016 49.56C633.096 51.56 632.136 54.88 632.136 59.52V71.52C634.216 70.16 636.296 69.04 638.376 68.16C640.456 67.2 642.616 66.72 644.856 66.72C646.696 66.72 648.136 66.92 649.176 67.32C650.296 67.64 651.256 67.8 652.056 67.8C652.456 67.8 652.736 67.76 652.896 67.68C653.296 67.44 653.536 67.04 653.616 66.48C653.776 65.84 653.816 65.16 653.736 64.44C653.736 63.72 653.656 62.96 653.496 62.16C653.336 61.36 653.176 60.68 653.016 60.12ZM645.096 45.84H649.056C647.456 40.08 645.976 34.76 644.616 29.88C643.256 25 642.136 21.04 641.256 18C640.696 16.08 639.736 14.56 638.376 13.44C637.016 12.32 634.936 11.72 632.136 11.64V32.52C632.136 37.08 633.136 40.44 635.136 42.6C637.216 44.76 640.536 45.84 645.096 45.84ZM681.275 94.44C681.835 91 682.835 87.68 684.275 84.48C685.715 81.2 687.395 78.12 689.315 75.24C691.315 72.36 693.475 69.76 695.795 67.44C698.115 65.04 700.395 63 702.635 61.32C704.795 59.72 707.235 58.2 709.955 56.76C712.675 55.32 715.195 53.96 717.515 52.68C719.915 51.32 721.915 50.08 723.515 48.96C725.195 47.76 726.035 46.64 726.035 45.6C726.035 44.48 725.635 43.72 724.835 43.32C724.115 42.92 723.195 42.72 722.075 42.72C721.115 42.72 720.155 42.84 719.195 43.08C718.235 43.32 717.275 43.6 716.315 43.92C715.355 44.16 714.355 44.4 713.315 44.64C712.355 44.88 711.315 45 710.195 45C709.155 45 708.155 44.6 707.195 43.8C706.235 43 705.755 41.92 705.755 40.56C705.755 38.56 706.315 36.56 707.435 34.56C708.635 32.56 709.955 30.68 711.395 28.92C712.835 27.08 714.115 25.4 715.235 23.88C716.435 22.28 717.035 20.96 717.035 19.92C717.035 19.44 716.835 19 716.435 18.6C716.035 18.12 715.515 17.88 714.875 17.88C713.355 17.88 711.955 18.32 710.675 19.2C709.475 20.08 708.355 21.24 707.315 22.68C706.275 24.04 705.315 25.64 704.435 27.48C703.635 29.24 702.915 31.08 702.275 33C700.755 37.48 699.555 42.56 698.675 48.24C698.355 43.36 698.875 38.44 700.235 33.48C701.675 28.52 703.595 24.04 705.995 20.04C708.395 15.96 711.075 12.68 714.035 10.2C716.995 7.64 719.875 6.36 722.675 6.36C723.795 6.36 724.715 6.72 725.435 7.44C726.155 8.16 726.515 9.08 726.515 10.2C726.515 11.24 726.115 12.52 725.315 14.04C724.595 15.48 723.635 17.04 722.435 18.72C721.315 20.4 720.075 22.12 718.715 23.88C717.435 25.64 716.195 27.36 714.995 29.04C713.875 30.64 712.915 32.16 712.115 33.6C711.395 35.04 711.035 36.24 711.035 37.2C711.035 39.36 712.155 40.44 714.395 40.44C715.195 40.44 716.075 40.28 717.035 39.96C718.075 39.56 719.155 39.16 720.275 38.76C721.395 38.36 722.595 38 723.875 37.68C725.155 37.28 726.475 37.08 727.835 37.08C729.675 37.08 731.155 37.6 732.275 38.64C733.475 39.6 734.075 40.88 734.075 42.48C734.075 44.4 733.555 46.04 732.515 47.4C731.475 48.76 729.915 50.08 727.835 51.36C725.835 52.56 723.355 53.84 720.395 55.2C717.435 56.56 714.035 58.24 710.195 60.24C706.835 61.92 703.955 63.72 701.555 65.64C699.235 67.48 697.315 69.24 695.795 70.92C694.355 72.6 693.275 74.08 692.555 75.36C691.915 76.64 691.595 77.52 691.595 78C691.595 78.56 691.795 78.84 692.195 78.84C692.835 78.84 693.675 78.16 694.715 76.8C695.835 75.44 697.235 73.92 698.915 72.24C700.595 70.56 702.555 69.04 704.795 67.68C707.115 66.32 709.795 65.64 712.835 65.64C714.275 65.64 715.475 65.88 716.435 66.36C717.395 66.84 718.155 67.44 718.715 68.16C719.275 68.88 719.675 69.68 719.915 70.56C720.155 71.36 720.275 72.12 720.275 72.84C720.275 74.6 720.035 76.44 719.555 78.36C719.155 80.2 718.835 81.96 718.595 83.64C718.355 85.24 718.395 86.64 718.715 87.84C719.035 88.96 719.955 89.72 721.475 90.12C721.635 90.12 721.755 90.16 721.835 90.24C721.915 90.24 721.995 90.24 722.075 90.24C723.275 90.24 724.515 89.6 725.795 88.32C727.155 87.04 728.515 85.64 729.875 84.12C731.315 82.6 732.795 81.2 734.315 79.92C735.835 78.64 737.435 78 739.115 78C740.875 78 742.315 78.56 743.435 79.68C744.555 80.8 745.635 82.04 746.675 83.4C747.715 84.68 748.835 85.88 750.035 87C751.315 88.12 752.915 88.68 754.835 88.68C755.955 88.68 756.875 88.44 757.595 87.96C758.395 87.4 759.035 86.76 759.515 86.04C760.075 85.32 760.475 84.56 760.715 83.76C760.955 82.88 761.075 82.16 761.075 81.6C761.075 80.24 760.755 78.84 760.115 77.4C759.555 75.88 758.675 74.52 757.475 73.32C756.275 72.12 754.795 71.12 753.035 70.32C751.275 69.52 749.195 69.12 746.795 69.12C744.235 69.12 741.835 69.48 739.595 70.2C737.435 70.92 735.555 71.72 733.955 72.6C732.035 73.64 730.275 74.8 728.675 76.08C730.195 74.48 731.915 73.08 733.835 71.88C735.515 70.76 737.515 69.8 739.835 69C742.235 68.12 744.915 67.68 747.875 67.68C750.755 67.68 753.435 68.08 755.915 68.88C758.475 69.6 760.715 70.64 762.635 72C764.555 73.36 766.035 75 767.075 76.92C768.195 78.76 768.755 80.84 768.755 83.16C768.755 84.84 768.475 86.48 767.915 88.08C767.355 89.6 766.555 90.96 765.515 92.16C764.555 93.36 763.355 94.32 761.915 95.04C760.555 95.68 758.995 96 757.235 96C754.595 96 752.435 95.52 750.755 94.56C749.155 93.52 747.755 92.4 746.555 91.2C745.355 90 744.195 88.92 743.075 87.96C742.035 86.92 740.755 86.4 739.235 86.4C737.635 86.4 736.155 86.92 734.795 87.96C733.515 88.92 732.195 90 730.835 91.2C729.475 92.4 727.995 93.52 726.395 94.56C724.795 95.52 722.875 96 720.635 96C718.075 96 716.195 95.2 714.995 93.6C713.795 91.92 713.195 90.16 713.195 88.32C713.195 87.12 713.275 86.08 713.435 85.2C713.675 84.24 713.915 83.32 714.155 82.44C714.475 81.56 714.715 80.68 714.875 79.8C715.115 78.84 715.235 77.84 715.235 76.8C715.235 74.24 714.555 72.4 713.195 71.28C711.915 70.16 710.275 69.6 708.275 69.6C706.595 69.6 704.995 70.04 703.475 70.92C701.955 71.8 700.435 73 698.915 74.52C697.475 75.96 696.035 77.64 694.595 79.56C693.155 81.4 691.715 83.32 690.275 85.32C689.315 86.6 688.475 87.88 687.755 89.16C687.035 90.36 686.355 91.48 685.715 92.52C685.155 93.56 684.635 94.4 684.155 95.04C683.675 95.68 683.195 96 682.715 96C682.155 96 681.755 95.84 681.515 95.52C681.275 95.2 681.195 94.84 681.275 94.44ZM45 193.28H22.08V221.48C22.08 222.28 22.12 223.12 22.2 224C22.28 224.8 22.52 225.56 22.92 226.28C23.32 227 23.96 227.6 24.84 228.08C25.72 228.48 26.96 228.68 28.56 228.68H36.24C36.64 228.68 36.84 228.84 36.84 229.16V229.52C36.84 229.84 36.64 230 36.24 230H1.2C0.8 230 0.6 229.84 0.6 229.52V229.16C0.6 228.84 0.8 228.68 1.2 228.68H8.88C10.48 228.68 11.72 228.48 12.6 228.08C13.48 227.6 14.12 227 14.52 226.28C14.92 225.56 15.16 224.8 15.24 224C15.32 223.12 15.36 222.28 15.36 221.48V150.92C15.36 148.6 15 146.92 14.28 145.88C13.56 144.76 11.92 144.2 9.36 144.2H1.2C0.8 144.2 0.6 144.04 0.6 143.72V143.36C0.6 143.04 0.8 142.88 1.2 142.88H45C47.32 142.88 49.8 142.96 52.44 143.12C55.16 143.28 57.84 143.68 60.48 144.32C63.2 144.88 65.8 145.72 68.28 146.84C70.76 147.88 72.92 149.36 74.76 151.28C76.68 153.12 78.2 155.44 79.32 158.24C80.44 160.96 81 164.24 81 168.08C81 171.92 80.44 175.24 79.32 178.04C78.2 180.76 76.68 183.08 74.76 185C72.92 186.84 70.76 188.32 68.28 189.44C65.8 190.48 63.2 191.32 60.48 191.96C57.84 192.52 55.16 192.88 52.44 193.04C49.8 193.2 47.32 193.28 45 193.28ZM22.08 168.44V191.96H44.64V181.28C44.64 176.72 43.64 173.44 41.64 171.44C39.72 169.44 36.44 168.44 31.8 168.44H22.08ZM44.64 144.2H22.08V167.72H31.8C36.36 167.72 39.64 166.72 41.64 164.72C43.64 162.64 44.64 159.32 44.64 154.76V144.2ZM45.36 144.2V154.76C45.36 159.4 46.36 162.72 48.36 164.72C50.44 166.72 53.76 167.72 58.32 167.72H69.84C69.76 164.04 69 160.76 67.56 157.88C66.2 154.92 64.36 152.44 62.04 150.44C59.8 148.44 57.24 146.92 54.36 145.88C51.48 144.76 48.48 144.2 45.36 144.2ZM69.84 168.44H58.32C53.84 168.44 50.56 169.48 48.48 171.56C46.4 173.56 45.36 176.8 45.36 181.28V191.96C48.48 191.88 51.48 191.32 54.36 190.28C57.24 189.16 59.8 187.6 62.04 185.6C64.36 183.6 66.2 181.16 67.56 178.28C69 175.4 69.76 172.12 69.84 168.44ZM128.21 223.28C128.21 224.64 128.73 225.6 129.77 226.16C130.81 226.72 131.93 227 133.13 227C134.97 227 136.81 226.6 138.65 225.8C140.57 224.92 142.45 223.8 144.29 222.44C146.13 221.08 147.93 219.56 149.69 217.88C151.45 216.12 153.09 214.32 154.61 212.48C158.29 208.24 161.81 203.44 165.17 198.08C162.05 204.24 158.69 209.76 155.09 214.64C153.57 216.72 151.89 218.76 150.05 220.76C148.21 222.68 146.25 224.44 144.17 226.04C142.17 227.56 140.09 228.8 137.93 229.76C135.77 230.72 133.53 231.2 131.21 231.2C128.49 231.2 126.37 230.56 124.85 229.28C123.33 228 122.57 226.2 122.57 223.88C122.57 222.52 123.21 221.04 124.49 219.44C125.85 217.84 127.33 216.24 128.93 214.64C130.53 213.04 131.97 211.52 133.25 210.08C134.53 208.64 135.17 207.44 135.17 206.48C135.01 204.8 134.33 203.76 133.13 203.36C132.01 202.88 130.77 202.64 129.41 202.64C128.37 202.64 126.97 202.8 125.21 203.12C123.53 203.36 121.69 203.64 119.69 203.96C117.77 204.28 115.81 204.56 113.81 204.8C111.89 205.04 110.17 205.16 108.65 205.16C106.57 205.16 104.93 204.56 103.73 203.36C102.53 202.08 101.93 200.68 101.93 199.16C101.93 197.32 102.65 195.76 104.09 194.48C105.61 193.2 107.53 192.16 109.85 191.36C112.25 190.48 114.89 189.8 117.77 189.32C120.65 188.76 123.49 188.32 126.29 188C129.09 187.68 131.65 187.44 133.97 187.28C136.29 187.04 138.09 186.8 139.37 186.56C144.33 185.68 148.65 184.4 152.33 182.72C156.09 181.04 159.21 179.2 161.69 177.2C164.17 175.12 166.01 172.96 167.21 170.72C168.49 168.4 169.13 166.24 169.13 164.24C169.13 158.96 167.61 154.72 164.57 151.52C161.61 148.24 157.33 146.6 151.73 146.6C149.25 146.6 146.85 146.96 144.53 147.68C142.21 148.4 139.89 149.68 137.57 151.52C135.25 153.36 132.89 155.84 130.49 158.96C128.09 162 125.49 165.88 122.69 170.6C121.65 172.36 120.37 174.32 118.85 176.48C117.41 178.64 115.77 180.64 113.93 182.48C112.09 184.32 110.09 185.88 107.93 187.16C105.85 188.44 103.65 189.08 101.33 189.08C100.93 190.68 100.49 192.28 100.01 193.88C99.6897 195.24 99.3297 196.68 98.9297 198.2C98.6097 199.64 98.2897 200.92 97.9697 202.04C97.8097 202.76 97.5297 203.96 97.1297 205.64C96.7297 207.24 96.2497 209.08 95.6897 211.16C95.1297 213.16 94.4097 215.24 93.5297 217.4C92.7297 219.48 91.8097 221.4 90.7697 223.16C89.7297 224.92 88.5697 226.36 87.2897 227.48C86.0097 228.6 84.6097 229.16 83.0897 229.16C81.8097 229.16 80.6897 228.68 79.7297 227.72C78.7697 226.68 78.2897 225 78.2897 222.68C78.2897 220.36 78.8897 218.12 80.0897 215.96C81.2897 213.72 82.6497 211.76 84.1697 210.08C85.8497 208.16 87.7697 206.32 89.9297 204.56C88.4897 205.92 87.2497 207.32 86.2097 208.76C85.2497 210.04 84.3697 211.44 83.5697 212.96C82.7697 214.48 82.3697 216 82.3697 217.52C82.3697 218.88 82.6097 219.88 83.0897 220.52C83.6497 221.08 84.2897 221.36 85.0097 221.36C85.8897 221.36 86.6897 220.88 87.4097 219.92C88.2097 218.88 88.8897 217.72 89.4497 216.44C90.0897 215.08 90.6097 213.8 91.0097 212.6C91.4897 211.32 91.8097 210.4 91.9697 209.84C92.1297 209.28 92.5697 207.92 93.2897 205.76C94.0097 203.52 94.7297 201.12 95.4497 198.56C96.3297 195.6 97.3297 192.36 98.4497 188.84C96.6897 188.44 95.1297 187.8 93.7697 186.92C92.5697 186.12 91.4497 185.04 90.4097 183.68C89.4497 182.24 88.9697 180.36 88.9697 178.04C89.0497 175.08 89.9697 172.52 91.7297 170.36C93.5697 168.12 95.5297 166.28 97.6097 164.84C100.09 163.08 102.89 161.6 106.01 160.4C106.57 157.36 107.37 154.68 108.41 152.36C109.29 150.28 110.37 148.44 111.65 146.84C113.01 145.16 114.65 144.32 116.57 144.32C118.09 144.32 119.29 144.76 120.17 145.64C121.13 146.52 121.61 147.84 121.61 149.6C121.61 151.68 120.89 153.56 119.45 155.24C118.09 156.84 116.57 158.2 114.89 159.32C112.89 160.6 110.61 161.76 108.05 162.8L102.41 185.24C103.93 185.24 105.45 184.8 106.97 183.92C108.57 182.96 110.09 181.76 111.53 180.32C113.05 178.8 114.45 177.2 115.73 175.52C117.09 173.76 118.29 172.08 119.33 170.48C120.45 168.8 121.37 167.36 122.09 166.16C122.81 164.88 123.33 164 123.65 163.52C124.13 162.8 125.01 161.32 126.29 159.08C127.65 156.76 129.49 154.36 131.81 151.88C134.13 149.32 136.97 147.08 140.33 145.16C143.69 143.16 147.61 142.16 152.09 142.16C154.49 142.16 156.97 142.52 159.53 143.24C162.09 143.88 164.41 145 166.49 146.6C168.65 148.2 170.41 150.4 171.77 153.2C173.21 155.92 173.93 159.4 173.93 163.64C173.93 168.04 172.81 171.76 170.57 174.8C168.33 177.84 165.53 180.36 162.17 182.36C158.81 184.28 155.17 185.8 151.25 186.92C147.33 188.04 143.69 188.88 140.33 189.44C139.05 189.68 137.33 189.88 135.17 190.04C133.01 190.2 130.69 190.4 128.21 190.64C125.73 190.88 123.21 191.2 120.65 191.6C118.17 192 115.93 192.52 113.93 193.16C111.93 193.72 110.29 194.44 109.01 195.32C107.73 196.2 107.09 197.28 107.09 198.56C107.09 199.28 107.29 199.88 107.69 200.36C108.17 200.76 108.73 201.08 109.37 201.32C110.01 201.48 110.69 201.6 111.41 201.68C112.13 201.68 112.77 201.68 113.33 201.68C114.53 201.68 116.01 201.56 117.77 201.32C119.61 201 121.49 200.68 123.41 200.36C125.41 199.96 127.41 199.64 129.41 199.4C131.41 199.08 133.25 198.92 134.93 198.92C136.45 198.92 137.77 199.4 138.89 200.36C140.09 201.32 140.69 202.64 140.69 204.32C140.69 205.68 140.05 207.16 138.77 208.76C137.49 210.36 136.05 212 134.45 213.68C132.93 215.36 131.49 217.04 130.13 218.72C128.85 220.32 128.21 221.84 128.21 223.28ZM92.4497 177.8C92.4497 179.4 92.8097 180.72 93.5297 181.76C94.2497 182.72 95.0497 183.44 95.9297 183.92C96.9697 184.48 98.1297 184.88 99.4097 185.12L105.05 164.12C102.73 165.08 100.65 166.24 98.8097 167.6C97.2097 168.72 95.7297 170.16 94.3697 171.92C93.0897 173.6 92.4497 175.56 92.4497 177.8ZM114.53 150.08C113.65 150.08 112.85 150.56 112.13 151.52C111.41 152.48 110.81 153.56 110.33 154.76C109.77 156.12 109.29 157.68 108.89 159.44C110.33 158.8 111.61 158.08 112.73 157.28C113.61 156.64 114.45 155.88 115.25 155C116.05 154.12 116.45 153.2 116.45 152.24C116.45 151.6 116.25 151.08 115.85 150.68C115.53 150.28 115.09 150.08 114.53 150.08ZM269.692 158C270.812 157.76 271.852 157.64 272.812 157.64C274.732 157.64 276.452 158 277.972 158.72C279.572 159.36 280.932 160.24 282.052 161.36C283.172 162.48 284.052 163.8 284.692 165.32C285.332 166.84 285.652 168.44 285.652 170.12C285.652 172.68 284.972 175.04 283.612 177.2C282.252 179.36 280.772 181.24 279.172 182.84C277.252 184.76 275.092 186.48 272.692 188C271.492 196.08 269.132 203.32 265.612 209.72C264.092 212.44 262.252 215.12 260.092 217.76C258.012 220.32 255.492 222.64 252.532 224.72C249.572 226.72 246.172 228.36 242.332 229.64C238.492 230.84 234.132 231.44 229.252 231.44C223.252 231.44 218.252 230.52 214.252 228.68C210.332 226.84 207.212 224.84 204.892 222.68C202.092 220.12 199.932 217.2 198.412 213.92C194.012 213.68 190.092 212.84 186.652 211.4C185.212 210.76 183.772 210 182.332 209.12C180.892 208.24 179.612 207.16 178.492 205.88C177.452 204.52 176.572 203 175.852 201.32C175.212 199.56 174.892 197.56 174.892 195.32C174.892 193 175.172 190.92 175.732 189.08C176.372 187.16 177.172 185.44 178.132 183.92C179.172 182.4 180.332 181.08 181.612 179.96C182.892 178.76 184.172 177.72 185.452 176.84C188.572 174.76 192.092 173.16 196.012 172.04C197.372 167.72 199.212 163.76 201.532 160.16C202.492 158.64 203.612 157.16 204.892 155.72C206.252 154.2 207.732 152.8 209.332 151.52C211.012 150.24 212.812 149.16 214.732 148.28C216.732 147.4 218.932 146.8 221.332 146.48C221.572 146.48 221.812 146.48 222.052 146.48C222.292 146.4 222.532 146.36 222.772 146.36C224.132 146.36 225.212 146.48 226.012 146.72C226.492 146.8 226.932 146.92 227.332 147.08C228.452 145.96 229.772 145.08 231.292 144.44C232.892 143.72 234.532 143.2 236.212 142.88C237.892 142.48 239.572 142.2 241.252 142.04C243.012 141.88 244.612 141.8 246.052 141.8C250.532 141.96 254.252 142.88 257.212 144.56C260.252 146.24 262.692 148.08 264.532 150.08C266.692 152.48 268.412 155.12 269.692 158ZM237.172 148.28C235.012 148.28 232.732 148.64 230.332 149.36C230.972 149.84 231.532 150.36 232.012 150.92C232.412 151.48 232.772 152.16 233.092 152.96C233.492 153.68 233.692 154.6 233.692 155.72C233.692 158.36 232.972 160.6 231.532 162.44C230.092 164.28 228.212 165.8 225.892 167C223.652 168.2 221.132 169.2 218.332 170C215.532 170.72 212.812 171.32 210.172 171.8C208.812 172.04 207.572 172.28 206.452 172.52C205.332 172.68 204.332 172.84 203.452 173C202.412 173.24 201.492 173.44 200.692 173.6C200.052 178.4 199.932 183.12 200.332 187.76C200.492 189.68 200.772 191.72 201.172 193.88C201.572 195.96 202.132 198.04 202.852 200.12C203.572 202.2 204.492 204.2 205.612 206.12C206.812 208.04 208.252 209.8 209.932 211.4C213.852 210.52 217.852 209.48 221.932 208.28C225.532 207.24 229.412 205.96 233.572 204.44C237.732 202.92 241.772 201.12 245.692 199.04C246.492 196.64 247.132 193.92 247.612 190.88C248.092 187.76 248.612 184.64 249.172 181.52C249.812 178.4 250.532 175.44 251.332 172.64C252.212 169.76 253.412 167.36 254.932 165.44C255.572 164.56 256.172 163.84 256.732 163.28C257.372 162.64 257.892 162.12 258.292 161.72C258.852 161.32 259.332 160.96 259.732 160.64C257.892 158.32 255.812 156.24 253.492 154.4C251.492 152.88 249.092 151.48 246.292 150.2C243.572 148.92 240.532 148.28 237.172 148.28ZM228.652 219.32C230.572 218.52 232.532 217.4 234.532 215.96C236.132 214.68 237.852 212.96 239.692 210.8C241.612 208.56 243.372 205.76 244.972 202.4C241.132 204 237.252 205.48 233.332 206.84C229.972 208.04 226.332 209.24 222.412 210.44C218.572 211.64 214.852 212.56 211.252 213.2C213.172 215.2 215.412 216.96 217.972 218.48C220.052 219.84 222.572 221.08 225.532 222.2C228.572 223.32 231.892 223.88 235.492 223.88C239.012 223.88 242.172 223.4 244.972 222.44C247.852 221.4 250.412 220.08 252.652 218.48C254.972 216.88 257.012 215.04 258.772 212.96C260.532 210.8 262.052 208.64 263.332 206.48C266.372 201.44 268.692 195.68 270.292 189.2C267.092 191.12 263.972 192.92 260.932 194.6C259.652 195.32 258.332 196.04 256.972 196.76C255.612 197.4 254.252 198.04 252.892 198.68C251.612 199.32 250.372 199.92 249.172 200.48C248.052 200.96 247.052 201.36 246.172 201.68C244.972 204.32 243.492 206.8 241.732 209.12C240.292 211.12 238.492 213.12 236.332 215.12C234.172 217.04 231.612 218.44 228.652 219.32ZM272.572 162.08C270.012 162.08 267.692 162.72 265.612 164C263.532 165.2 261.652 166.76 259.972 168.68C258.372 170.6 256.972 172.72 255.772 175.04C254.652 177.28 253.692 179.44 252.892 181.52C252.092 183.52 251.452 185.32 250.972 186.92C250.572 188.52 250.292 189.56 250.132 190.04C249.812 191.08 249.492 192.08 249.172 193.04C248.852 194 248.572 194.88 248.332 195.68C248.012 196.56 247.732 197.36 247.492 198.08C253.332 195.04 258.532 191.8 263.092 188.36C265.012 186.92 266.892 185.36 268.732 183.68C270.652 182 272.332 180.28 273.772 178.52C275.292 176.68 276.492 174.84 277.372 173C278.252 171.08 278.692 169.16 278.692 167.24C278.692 165.8 277.972 164.6 276.532 163.64C275.172 162.6 273.852 162.08 272.572 162.08ZM176.692 195.8C176.692 197.72 176.972 199.44 177.532 200.96C178.172 202.4 178.972 203.68 179.932 204.8C180.892 205.92 181.972 206.92 183.172 207.8C184.452 208.6 185.732 209.28 187.012 209.84C189.972 211.12 193.372 212 197.212 212.48C196.332 210.8 195.572 208.96 194.932 206.96C194.292 205.28 193.732 203.36 193.252 201.2C192.772 198.96 192.532 196.56 192.532 194C192.532 191.2 192.652 188.68 192.892 186.44C193.132 184.12 193.372 182.16 193.612 180.56C193.932 178.64 194.292 176.96 194.692 175.52C191.332 176.4 188.332 177.72 185.692 179.48C183.452 181 181.372 183.08 179.452 185.72C177.612 188.28 176.692 191.64 176.692 195.8ZM227.692 152C227.692 151.12 227.252 150.36 226.372 149.72C225.572 149 224.332 148.64 222.652 148.64C220.972 148.64 219.372 148.96 217.852 149.6C216.332 150.16 214.892 150.96 213.532 152C212.252 153.04 211.052 154.24 209.932 155.6C208.812 156.88 207.812 158.2 206.932 159.56C204.852 162.76 203.052 166.4 201.532 170.48C206.412 169.28 210.772 167.8 214.612 166.04C216.292 165.32 217.892 164.48 219.412 163.52C221.012 162.56 222.412 161.52 223.612 160.4C224.812 159.2 225.772 157.92 226.492 156.56C227.292 155.12 227.692 153.6 227.692 152ZM308.611 161.6C308.611 162.96 308.811 164.28 309.211 165.56C309.611 166.76 310.091 167.84 310.651 168.8C311.211 169.84 311.851 170.8 312.571 171.68C310.491 170.08 308.611 168.32 306.931 166.4C305.571 164.8 304.291 162.96 303.091 160.88C301.891 158.72 301.291 156.48 301.291 154.16C301.291 150.96 302.251 148.44 304.171 146.6C306.171 144.76 308.971 143.84 312.571 143.84C315.051 143.84 317.531 144.44 320.011 145.64C322.491 146.76 324.851 148 327.091 149.36C329.331 150.72 331.291 152 332.971 153.2C334.731 154.32 336.051 154.88 336.931 154.88C337.811 154.88 338.171 154.44 338.011 153.56C337.931 152.6 337.771 151.56 337.531 150.44C337.291 149.24 337.211 148.08 337.291 146.96C337.451 145.84 338.251 145.08 339.691 144.68C339.851 144.6 340.131 144.56 340.531 144.56C341.651 144.56 342.811 145.04 344.011 146C345.291 146.88 346.771 147.88 348.451 149C350.131 150.04 352.051 151.04 354.211 152C356.371 152.88 358.931 153.32 361.891 153.32C365.731 153.32 369.051 152.52 371.851 150.92C374.731 149.24 377.131 147.4 379.051 145.4C381.051 143.4 382.611 141.6 383.731 140C384.931 138.32 385.771 137.48 386.251 137.48C386.491 137.48 386.571 137.64 386.491 137.96C386.491 138.12 386.011 139.28 385.051 141.44C384.091 143.52 382.771 146.32 381.091 149.84C379.411 153.36 377.331 157.44 374.851 162.08C372.451 166.64 369.731 171.48 366.691 176.6C363.651 181.72 360.291 186.96 356.611 192.32C353.011 197.68 349.131 202.84 344.971 207.8C338.811 215.24 332.731 221.16 326.731 225.56C320.811 229.96 315.211 232.16 309.931 232.16C298.091 232.16 292.171 226.24 292.171 214.4C292.171 212.56 292.491 210.52 293.131 208.28C293.771 206.04 294.731 203.92 296.011 201.92C297.371 199.92 299.011 198.28 300.931 197C302.931 195.64 305.211 194.96 307.771 194.96C309.371 194.96 310.731 195.24 311.851 195.8C312.971 196.28 313.891 196.96 314.611 197.84C315.331 198.72 315.851 199.72 316.171 200.84C316.571 201.96 316.851 203.08 317.011 204.2C317.331 206.84 317.171 209.88 316.531 213.32C316.131 211.8 315.531 210.4 314.731 209.12C314.011 208.08 312.971 207.16 311.611 206.36C310.331 205.48 308.651 205.04 306.571 205.04C304.891 205.04 303.331 205.36 301.891 206C300.451 206.64 299.171 207.52 298.051 208.64C297.011 209.68 296.171 210.92 295.531 212.36C294.891 213.72 294.571 215.2 294.571 216.8C294.571 220.16 295.611 222.96 297.691 225.2C299.851 227.36 302.771 228.44 306.451 228.44C309.171 228.44 312.251 227.52 315.691 225.68C319.131 223.76 322.731 221.28 326.491 218.24C330.331 215.12 334.171 211.56 338.011 207.56C341.931 203.48 345.691 199.28 349.291 194.96C352.971 190.56 356.411 186.2 359.611 181.88C362.891 177.56 365.691 173.56 368.011 169.88C370.411 166.12 372.291 162.88 373.651 160.16C375.091 157.36 375.811 155.36 375.811 154.16C375.811 152.96 375.171 152.36 373.891 152.36C373.331 152.36 372.731 152.52 372.091 152.84C371.451 153.16 370.691 153.52 369.811 153.92C368.931 154.32 367.851 154.68 366.571 155C365.291 155.32 363.651 155.48 361.651 155.48C359.811 155.48 358.211 155.36 356.851 155.12C355.571 154.8 354.371 154.48 353.251 154.16C352.211 153.84 351.211 153.56 350.251 153.32C349.291 153 348.211 152.84 347.011 152.84H346.411C345.051 152.92 344.011 153.36 343.291 154.16C342.651 154.88 342.051 155.68 341.491 156.56C341.011 157.36 340.491 158.12 339.931 158.84C339.451 159.48 338.651 159.8 337.531 159.8C336.411 159.8 335.211 159.48 333.931 158.84C332.651 158.12 331.251 157.4 329.731 156.68C328.291 155.88 326.651 155.16 324.811 154.52C322.971 153.8 320.891 153.44 318.571 153.44C315.691 153.44 313.291 154.16 311.371 155.6C309.531 157.04 308.611 159.04 308.611 161.6ZM439.693 192.8C440.893 192.8 441.933 192.6 442.813 192.2C443.693 191.72 444.493 191.24 445.213 190.76C446.013 190.2 446.853 189.72 447.733 189.32C448.613 188.84 449.693 188.6 450.973 188.6C453.053 188.6 454.613 189.24 455.653 190.52C456.773 191.72 457.333 193.2 457.333 194.96C457.333 195.84 457.093 196.84 456.613 197.96C456.133 199.08 455.413 200.12 454.453 201.08C453.573 202.04 452.453 202.84 451.093 203.48C449.733 204.12 448.213 204.44 446.533 204.44C444.053 204.44 441.893 203.92 440.053 202.88C438.293 201.76 436.613 200.36 435.013 198.68C433.493 197 431.973 195.2 430.453 193.28C428.933 191.36 427.213 189.56 425.293 187.88C423.453 186.12 421.333 184.68 418.933 183.56C416.533 182.36 413.653 181.68 410.293 181.52C409.093 181.52 407.813 181.64 406.453 181.88C405.173 182.04 403.973 182.4 402.853 182.96C401.733 183.52 400.813 184.28 400.093 185.24C399.373 186.2 399.013 187.4 399.013 188.84C399.013 190.52 399.493 191.92 400.453 193.04C401.413 194.16 402.413 195.24 403.453 196.28C404.573 197.32 405.533 198.36 406.333 199.4C407.213 200.44 407.533 201.72 407.293 203.24C407.053 204.76 406.453 205.92 405.493 206.72C404.613 207.44 403.533 208 402.253 208.4C400.973 208.8 399.613 209.08 398.173 209.24C396.733 209.4 395.413 209.64 394.213 209.96C393.013 210.2 392.013 210.6 391.213 211.16C390.413 211.72 390.013 212.6 390.013 213.8C390.013 214.84 390.333 215.72 390.973 216.44C391.693 217.16 392.693 217.52 393.973 217.52C395.093 217.52 396.093 217.36 396.973 217.04C397.933 216.72 398.853 216.36 399.733 215.96C400.613 215.48 401.493 215.08 402.373 214.76C403.333 214.44 404.373 214.28 405.493 214.28C407.093 214.28 408.413 214.76 409.453 215.72C410.493 216.6 411.013 217.76 411.013 219.2C411.013 220.16 410.733 221.04 410.173 221.84C409.693 222.56 409.093 223.28 408.373 224C407.733 224.72 407.133 225.44 406.573 226.16C406.093 226.8 405.853 227.56 405.853 228.44C405.853 229.88 406.653 231.08 408.253 232.04C409.933 233.08 412.133 233.6 414.853 233.6C417.573 233.6 419.813 233 421.573 231.8C423.333 230.6 424.813 229.12 426.013 227.36C427.293 225.6 428.373 223.68 429.253 221.6C430.133 219.44 431.053 217.48 432.013 215.72C433.053 213.96 434.213 212.48 435.493 211.28C436.853 210.08 438.533 209.48 440.533 209.48H441.133C443.213 209.64 444.893 210.44 446.173 211.88C447.453 213.24 448.093 214.92 448.093 216.92C448.093 219.56 446.973 222 444.733 224.24C442.573 226.48 439.693 228.4 436.093 230C432.573 231.68 428.613 232.96 424.213 233.84C419.813 234.72 415.413 235.16 411.013 235.16C407.173 235.16 403.373 234.6 399.613 233.48C395.853 232.44 392.453 231 389.413 229.16C386.373 227.32 383.893 225.16 381.973 222.68C380.133 220.2 379.213 217.6 379.213 214.88C379.213 211.84 380.333 209.56 382.573 208.04C384.813 206.52 387.493 205.76 390.613 205.76C392.533 205.76 394.413 205.92 396.253 206.24C398.093 206.56 399.733 206.72 401.173 206.72C402.453 206.72 403.493 206.48 404.293 206C405.173 205.52 405.693 204.6 405.853 203.24C406.013 202.04 405.693 201.08 404.893 200.36C404.093 199.56 403.013 198.84 401.653 198.2C400.373 197.56 398.933 196.96 397.333 196.4C395.813 195.84 394.333 195.2 392.893 194.48C391.533 193.68 390.373 192.76 389.413 191.72C388.533 190.68 388.093 189.4 388.093 187.88C388.093 184.92 389.893 182.88 393.493 181.76C397.093 180.56 401.773 179.96 407.533 179.96C412.093 179.96 416.013 180.64 419.293 182C422.573 183.28 425.413 184.76 427.813 186.44C430.293 188.04 432.453 189.52 434.293 190.88C436.213 192.16 438.013 192.8 439.693 192.8ZM435.253 168.8C437.893 168.8 440.173 169.52 442.093 170.96C444.093 172.32 445.093 174.44 445.093 177.32C445.093 180.12 444.253 182.32 442.573 183.92C440.893 185.52 439.053 186.32 437.053 186.32C434.733 186.32 432.973 185.72 431.773 184.52C430.573 183.32 429.893 181.64 429.733 179.48C429.653 178.68 429.653 177.88 429.733 177.08C429.893 176.2 429.973 175.44 429.973 174.8C429.973 174.16 429.813 173.64 429.493 173.24C429.253 172.76 428.653 172.52 427.693 172.52C426.973 172.52 425.853 172.8 424.333 173.36C422.813 173.84 421.093 174.4 419.173 175.04C417.333 175.68 415.413 176.28 413.413 176.84C411.413 177.32 409.533 177.56 407.773 177.56C403.213 177.56 399.573 176.24 396.853 173.6C394.133 170.88 392.773 167.48 392.773 163.4C392.773 160.6 393.253 158 394.213 155.6C395.253 153.2 396.653 151.12 398.413 149.36C400.173 147.52 402.253 146.08 404.653 145.04C407.133 144 409.853 143.48 412.813 143.48C414.893 143.48 416.573 143.8 417.853 144.44C419.213 145.08 420.413 145.8 421.453 146.6C422.573 147.4 423.573 148.12 424.453 148.76C425.413 149.4 426.493 149.72 427.693 149.72C428.893 149.72 429.773 148.96 430.333 147.44C430.973 145.92 431.653 144.24 432.373 142.4C433.173 140.48 434.173 138.76 435.373 137.24C436.653 135.72 438.453 134.96 440.773 134.96C443.333 134.96 445.093 135.6 446.053 136.88C447.013 138.08 447.693 139.44 448.093 140.96C448.573 142.4 449.053 143.76 449.533 145.04C450.013 146.24 451.093 146.84 452.773 146.84C453.413 146.84 454.013 146.64 454.573 146.24C455.133 145.84 455.733 145.4 456.373 144.92C457.093 144.36 457.853 143.88 458.653 143.48C459.533 143.08 460.573 142.88 461.773 142.88C463.853 142.88 465.333 143.56 466.213 144.92C467.093 146.28 467.533 147.76 467.533 149.36C467.533 150.64 467.133 151.88 466.333 153.08C465.613 154.28 464.653 155.32 463.453 156.2C462.253 157.08 460.893 157.8 459.373 158.36C457.933 158.84 456.493 159.08 455.053 159.08C452.493 159.08 450.573 158.52 449.293 157.4C448.013 156.2 447.133 154.76 446.653 153.08C446.173 151.4 445.893 149.56 445.813 147.56C445.813 145.48 445.733 143.6 445.573 141.92C445.493 140.24 445.133 138.84 444.493 137.72C443.933 136.52 442.853 135.92 441.253 135.92C439.733 135.92 438.613 136.48 437.893 137.6C437.173 138.64 436.653 139.96 436.333 141.56C436.013 143.16 435.813 144.92 435.733 146.84C435.653 148.76 435.493 150.6 435.253 152.36C435.093 154.04 434.693 155.52 434.053 156.8C433.493 158.08 432.533 158.88 431.173 159.2C430.853 159.28 430.373 159.32 429.733 159.32C427.973 159.32 426.573 158.56 425.533 157.04C424.573 155.52 423.573 153.84 422.533 152C421.493 150.08 420.253 148.36 418.813 146.84C417.453 145.32 415.493 144.56 412.933 144.56C410.213 144.56 407.773 145.08 405.613 146.12C403.533 147.16 402.493 148.6 402.493 150.44C402.493 151.64 402.813 152.52 403.453 153.08C404.093 153.64 404.893 154 405.853 154.16C406.813 154.32 407.853 154.4 408.973 154.4C410.093 154.4 411.133 154.48 412.093 154.64C413.053 154.72 413.853 155 414.493 155.48C415.133 155.88 415.453 156.6 415.453 157.64C415.453 159.16 414.933 160.48 413.893 161.6C412.933 162.64 411.853 163.6 410.653 164.48C409.453 165.36 408.333 166.24 407.293 167.12C406.333 168 405.853 169 405.853 170.12C405.853 171.72 406.453 172.88 407.653 173.6C408.853 174.24 410.453 174.56 412.453 174.56C414.373 174.56 416.253 174.28 418.093 173.72C420.013 173.16 421.893 172.56 423.733 171.92C425.653 171.2 427.533 170.52 429.373 169.88C431.293 169.24 433.253 168.88 435.253 168.8ZM488.103 204.92C489.463 204.92 490.783 204.36 492.063 203.24C493.423 202.04 494.783 200.76 496.143 199.4C497.583 197.96 499.023 196.68 500.463 195.56C501.903 194.36 503.423 193.76 505.023 193.76C508.223 193.76 509.823 195.36 509.823 198.56C509.823 199.92 509.423 201.24 508.623 202.52C507.903 203.8 507.103 205.12 506.223 206.48C505.343 207.84 504.503 209.36 503.703 211.04C502.983 212.64 502.623 214.52 502.623 216.68C502.623 219.48 503.503 221.8 505.263 223.64C507.103 225.48 509.903 226.4 513.663 226.4C516.223 226.4 518.303 225.92 519.903 224.96C521.503 224 522.743 222.8 523.623 221.36C524.583 219.84 525.263 218.2 525.663 216.44C526.063 214.6 526.263 212.88 526.263 211.28C526.343 209.6 526.343 208.12 526.263 206.84C526.183 205.48 526.143 204.56 526.143 204.08C526.143 200.48 526.863 197.8 528.303 196.04C529.823 194.2 531.783 193.28 534.183 193.28C536.663 193.28 538.503 194.04 539.703 195.56C540.983 197 541.623 198.88 541.623 201.2C541.623 204 540.663 207.16 538.743 210.68C536.823 214.2 534.183 217.52 530.823 220.64C527.463 223.68 523.503 226.24 518.943 228.32C514.463 230.4 509.623 231.44 504.423 231.44C500.583 231.44 496.903 230.96 493.383 230C489.863 228.96 486.743 227.44 484.023 225.44C481.383 223.36 479.263 220.84 477.663 217.88C476.063 214.84 475.263 211.32 475.263 207.32C475.263 203.96 475.943 201.04 477.303 198.56C478.743 196 480.303 193.76 481.983 191.84C483.663 189.84 485.183 188.12 486.543 186.68C487.903 185.24 488.543 183.92 488.463 182.72C488.383 181.6 487.983 180.96 487.263 180.8C486.543 180.56 485.743 180.44 484.863 180.44C483.903 180.52 482.863 180.64 481.743 180.8C480.703 180.96 479.383 181.04 477.783 181.04C475.383 181.04 473.463 180.36 472.023 179C470.663 177.56 469.983 175.52 469.983 172.88C469.983 168.8 470.783 164.88 472.383 161.12C473.983 157.36 476.103 154.04 478.743 151.16C481.463 148.28 484.583 146 488.103 144.32C491.623 142.64 495.303 141.8 499.143 141.8C501.543 141.8 503.583 142.2 505.263 143C506.943 143.72 508.463 144.56 509.823 145.52C511.263 146.4 512.623 147.24 513.903 148.04C515.183 148.76 516.623 149.12 518.223 149.12C519.743 149.12 520.903 148.76 521.703 148.04C522.583 147.32 523.383 146.56 524.103 145.76C524.903 144.88 525.823 144.12 526.863 143.48C527.903 142.76 529.383 142.4 531.303 142.4C533.783 142.4 535.903 143.16 537.663 144.68C539.423 146.2 540.863 148.08 541.983 150.32C543.103 152.56 543.903 154.96 544.383 157.52C544.943 160 545.223 162.24 545.223 164.24C545.223 167.04 544.623 169.36 543.423 171.2C542.223 172.96 540.343 173.84 537.783 173.84C535.943 173.84 534.383 173.28 533.103 172.16C531.823 170.96 531.183 169.32 531.183 167.24C531.183 165.4 531.463 163.88 532.023 162.68C532.663 161.48 533.343 160.32 534.063 159.2C534.863 158.08 535.543 156.84 536.103 155.48C536.743 154.12 537.063 152.4 537.063 150.32C537.063 148.72 536.543 147.36 535.503 146.24C534.543 145.04 533.143 144.44 531.303 144.44C529.623 144.44 528.383 144.92 527.583 145.88C526.863 146.84 526.303 148.04 525.903 149.48C525.583 150.92 525.343 152.48 525.183 154.16C525.103 155.76 524.863 157.28 524.463 158.72C524.143 160.16 523.583 161.36 522.783 162.32C521.983 163.28 520.703 163.76 518.943 163.76C517.663 163.76 516.583 163.28 515.703 162.32C514.903 161.36 514.143 160.16 513.423 158.72C512.703 157.28 511.943 155.72 511.143 154.04C510.423 152.28 509.543 150.68 508.503 149.24C507.463 147.8 506.143 146.6 504.543 145.64C503.023 144.68 501.063 144.2 498.663 144.2C497.543 144.2 496.423 144.32 495.303 144.56C494.263 144.8 493.303 145.12 492.423 145.52C491.543 145.92 490.823 146.4 490.263 146.96C489.703 147.44 489.423 148 489.423 148.64C489.423 150.16 489.943 151.2 490.983 151.76C492.103 152.32 493.263 152.76 494.463 153.08C495.743 153.32 496.903 153.68 497.943 154.16C499.063 154.56 499.623 155.44 499.623 156.8C499.623 158.08 498.903 159.12 497.463 159.92C496.103 160.72 494.383 161.4 492.303 161.96C490.303 162.52 488.063 163.08 485.583 163.64C483.183 164.12 480.943 164.76 478.863 165.56C476.863 166.36 475.143 167.36 473.703 168.56C472.343 169.76 471.663 171.32 471.663 173.24C471.663 175.56 472.303 177.12 473.583 177.92C474.943 178.64 476.343 179 477.783 179C479.303 179 480.783 178.6 482.223 177.8C483.743 176.92 485.223 176 486.663 175.04C488.183 174 489.703 173.08 491.223 172.28C492.743 171.4 494.303 170.96 495.903 170.96C497.183 170.96 498.223 171.24 499.023 171.8C499.823 172.36 500.223 173.24 500.223 174.44C500.223 176.2 499.263 177.92 497.343 179.6C495.503 181.2 493.463 182.96 491.223 184.88C488.983 186.72 486.903 188.76 484.983 191C483.143 193.24 482.223 195.84 482.223 198.8C482.223 202.88 484.183 204.92 488.103 204.92ZM593.87 182.48C591.15 191.52 588.31 199.6 585.35 206.72C584.07 209.76 582.71 212.76 581.27 215.72C579.83 218.6 578.31 221.2 576.71 223.52C575.19 225.76 573.59 227.6 571.91 229.04C570.23 230.4 568.55 231.08 566.87 231.08C564.39 231.08 562.47 230.32 561.11 228.8C559.83 227.28 559.03 225.52 558.71 223.52C558.15 220.64 558.31 217.56 559.19 214.28C560.07 211 561.39 207.76 563.15 204.56C564.91 201.28 567.03 198.16 569.51 195.2C571.99 192.16 574.55 189.44 577.19 187.04C579.91 184.56 582.59 182.52 585.23 180.92C587.95 179.24 590.43 178.16 592.67 177.68C593.63 175.44 594.51 173.32 595.31 171.32C596.11 169.64 596.87 168 597.59 166.4C598.39 164.72 598.99 163.52 599.39 162.8C599.95 161.92 600.59 160.96 601.31 159.92C602.11 158.88 602.87 157.92 603.59 157.04C604.47 156 605.35 155 606.23 154.04C601.99 152.68 597.71 151.44 593.39 150.32C589.71 149.44 585.75 148.64 581.51 147.92C577.27 147.12 573.35 146.72 569.75 146.72C569.27 146.72 568.79 146.72 568.31 146.72C567.83 146.72 567.39 146.76 566.99 146.84C565.07 147 564.23 147.68 564.47 148.88C564.63 149.52 565.11 150 565.91 150.32C566.79 150.64 567.71 150.92 568.67 151.16C569.63 151.4 570.51 151.72 571.31 152.12C572.11 152.52 572.59 153.16 572.75 154.04C572.99 155.32 572.43 156.4 571.07 157.28C569.79 158.08 568.35 158.88 566.75 159.68C565.15 160.4 563.67 161.2 562.31 162.08C560.95 162.88 560.39 163.88 560.63 165.08C560.79 165.88 561.11 166.52 561.59 167C562.15 167.48 562.75 167.84 563.39 168.08C564.11 168.32 564.79 168.48 565.43 168.56C566.15 168.64 566.75 168.68 567.23 168.68C570.83 168.68 573.91 168 576.47 166.64C579.11 165.28 581.31 163.8 583.07 162.2C585.15 160.28 586.91 158.12 588.35 155.72C587.23 159 585.51 161.96 583.19 164.6C581.19 166.84 578.47 168.88 575.03 170.72C571.59 172.56 567.15 173.48 561.71 173.48C558.75 173.48 556.27 172.84 554.27 171.56C552.35 170.2 551.39 168.52 551.39 166.52C551.39 164.44 552.19 162.88 553.79 161.84C555.39 160.72 557.15 159.8 559.07 159.08C560.99 158.36 562.71 157.76 564.23 157.28C565.83 156.72 566.55 156.04 566.39 155.24C566.23 154.36 565.63 153.84 564.59 153.68C563.63 153.44 562.55 153.24 561.35 153.08C560.15 152.92 558.99 152.6 557.87 152.12C556.83 151.56 556.19 150.48 555.95 148.88C555.63 147.2 556.31 145.88 557.99 144.92C559.67 143.96 561.59 143.4 563.75 143.24C564.31 143.16 564.87 143.12 565.43 143.12C565.99 143.12 566.55 143.12 567.11 143.12C571.91 143.12 576.75 143.56 581.63 144.44C586.51 145.24 590.99 146.12 595.07 147.08C599.71 148.28 604.23 149.64 608.63 151.16C610.79 149.48 613.31 147.96 616.19 146.6C618.59 145.48 621.47 144.48 624.83 143.6C628.27 142.64 632.11 142.16 636.35 142.16C639.07 142.16 641.59 142.36 643.91 142.76C646.31 143.08 648.35 143.6 650.03 144.32C651.79 145.04 653.19 145.92 654.23 146.96C655.27 147.92 655.79 149.08 655.79 150.44C655.87 152.84 654.67 154.84 652.19 156.44C649.79 157.96 645.63 158.72 639.71 158.72C635.39 158.72 631.39 158.52 627.71 158.12C624.03 157.72 620.79 157.28 617.99 156.8C614.79 156.24 611.83 155.6 609.11 154.88C607.75 155.92 606.35 157.44 604.91 159.44C603.63 161.04 602.23 163.28 600.71 166.16C599.19 168.96 597.63 172.56 596.03 176.96C598.43 177.04 600.67 177.4 602.75 178.04C604.43 178.6 606.03 179.48 607.55 180.68C609.15 181.88 610.15 183.6 610.55 185.84C610.87 187.52 610.83 189.08 610.43 190.52C610.11 191.96 609.55 193.28 608.75 194.48C608.03 195.68 607.11 196.8 605.99 197.84C604.95 198.8 603.83 199.68 602.63 200.48C599.83 202.24 596.55 203.72 592.79 204.92C595.51 203.48 597.91 201.96 599.99 200.36C600.87 199.64 601.71 198.88 602.51 198.08C603.39 197.28 604.11 196.44 604.67 195.56C605.31 194.6 605.75 193.64 605.99 192.68C606.31 191.72 606.39 190.76 606.23 189.8C605.91 188.2 605.39 186.92 604.67 185.96C604.03 184.92 603.23 184.12 602.27 183.56C601.39 183 600.47 182.64 599.51 182.48C598.55 182.24 597.67 182.12 596.87 182.12C596.47 182.12 596.07 182.16 595.67 182.24C595.35 182.24 595.03 182.24 594.71 182.24C594.39 182.32 594.11 182.4 593.87 182.48ZM590.27 183.44C588.99 183.6 587.39 184.28 585.47 185.48C583.63 186.68 581.71 188.2 579.71 190.04C577.71 191.8 575.71 193.84 573.71 196.16C571.79 198.4 570.07 200.72 568.55 203.12C567.11 205.44 565.99 207.76 565.19 210.08C564.39 212.4 564.15 214.52 564.47 216.44C564.71 217.8 565.35 218.88 566.39 219.68C567.51 220.4 568.63 220.76 569.75 220.76C570.87 220.76 572.03 220.24 573.23 219.2C574.43 218.08 575.59 216.64 576.71 214.88C577.91 213.12 579.07 211.12 580.19 208.88C581.31 206.64 582.39 204.36 583.43 202.04C585.75 196.6 588.03 190.4 590.27 183.44ZM646.31 150.32C646.07 149.04 645.03 147.92 643.19 146.96C641.35 146 638.63 145.52 635.03 145.52C631.83 145.52 628.87 145.88 626.15 146.6C623.43 147.24 621.07 148 619.07 148.88C616.75 149.84 614.63 150.96 612.71 152.24C616.47 153.36 620.35 154.16 624.35 154.64C628.35 155.04 632.31 155.24 636.23 155.24C637.43 155.24 638.63 155.16 639.83 155C641.11 154.84 642.23 154.6 643.19 154.28C644.23 153.88 645.03 153.36 645.59 152.72C646.23 152.08 646.47 151.28 646.31 150.32ZM712.801 180.92C714.481 180.92 716.241 180.68 718.081 180.2C719.921 179.72 721.801 179.2 723.721 178.64C725.721 178.08 727.761 177.56 729.841 177.08C732.001 176.6 734.201 176.36 736.441 176.36C740.041 176.36 743.081 177.32 745.561 179.24C748.041 181.16 749.281 183.84 749.281 187.28C749.281 189.44 748.761 191.36 747.721 193.04C746.761 194.64 745.481 196.04 743.881 197.24C742.281 198.44 740.441 199.44 738.361 200.24C736.361 201.04 734.281 201.72 732.121 202.28C729.801 202.84 727.521 203.24 725.281 203.48C723.121 203.64 721.161 203.84 719.401 204.08C717.721 204.24 716.321 204.52 715.201 204.92C714.081 205.32 713.441 206 713.281 206.96C713.041 208.32 713.601 209.4 714.961 210.2C716.401 210.92 718.001 211.68 719.761 212.48C721.601 213.2 723.281 214.12 724.801 215.24C726.401 216.36 727.201 217.96 727.201 220.04C727.201 221.96 726.321 223.72 724.561 225.32C722.801 226.92 720.641 228.32 718.081 229.52C715.521 230.64 712.801 231.48 709.921 232.04C707.121 232.68 704.641 233 702.481 233C700.401 233 697.801 232.76 694.681 232.28C691.641 231.8 688.401 231.08 684.961 230.12C681.601 229.16 678.241 227.96 674.881 226.52C671.521 225.08 668.481 223.44 665.761 221.6C663.121 219.68 660.961 217.52 659.281 215.12C657.601 212.72 656.761 210.12 656.761 207.32C656.761 205.4 657.081 203.8 657.721 202.52C658.361 201.16 659.161 200.08 660.121 199.28C661.161 198.4 662.321 197.8 663.601 197.48C664.881 197.08 666.121 196.88 667.321 196.88C669.721 196.88 671.681 197.76 673.201 199.52C674.721 201.2 675.961 203.2 676.921 205.52C677.961 207.84 678.801 210.24 679.441 212.72C680.161 215.12 680.881 217 681.601 218.36C682.401 219.8 683.401 221.24 684.601 222.68C685.801 224.12 687.281 225.44 689.041 226.64C690.801 227.76 692.841 228.72 695.161 229.52C697.481 230.24 700.121 230.6 703.081 230.6C703.721 230.6 704.721 230.52 706.081 230.36C707.521 230.2 709.041 229.96 710.641 229.64C712.321 229.32 714.041 228.92 715.801 228.44C717.561 227.88 719.161 227.2 720.601 226.4C722.121 225.6 723.321 224.68 724.201 223.64C725.161 222.52 725.641 221.28 725.641 219.92C725.641 218.8 724.921 217.88 723.481 217.16C722.041 216.44 720.241 215.76 718.081 215.12C715.921 214.48 713.561 213.88 711.001 213.32C708.441 212.68 706.081 211.92 703.921 211.04C701.761 210.16 699.961 209.12 698.521 207.92C697.081 206.72 696.361 205.2 696.361 203.36C696.361 202.32 696.641 201.44 697.201 200.72C697.841 200 698.641 199.4 699.601 198.92C700.561 198.44 701.561 198.08 702.601 197.84C703.721 197.6 704.761 197.48 705.721 197.48C706.681 197.48 708.241 197.52 710.401 197.6C712.641 197.6 715.001 197.64 717.481 197.72C720.041 197.8 722.481 197.88 724.801 197.96C727.201 197.96 729.001 197.96 730.201 197.96C732.281 197.96 734.361 197.76 736.441 197.36C738.521 196.96 740.401 196.36 742.081 195.56C743.761 194.68 745.121 193.6 746.161 192.32C747.281 191.04 747.841 189.52 747.841 187.76C747.841 185.44 746.961 183.56 745.201 182.12C743.441 180.68 740.881 179.96 737.521 179.96C733.921 179.96 730.001 180.76 725.761 182.36C721.521 183.96 717.321 185.72 713.161 187.64C709.001 189.56 705.081 191.32 701.401 192.92C697.721 194.52 694.601 195.32 692.041 195.32C690.601 195.32 689.401 194.92 688.441 194.12C687.481 193.32 687.001 192.2 687.001 190.76C687.001 189.24 687.521 187.8 688.561 186.44C689.681 185.08 691.041 183.76 692.641 182.48C694.321 181.2 696.121 179.96 698.041 178.76C699.961 177.56 701.721 176.44 703.321 175.4C705.001 174.28 706.361 173.24 707.401 172.28C708.521 171.24 709.081 170.28 709.081 169.4C709.081 169 708.881 168.52 708.481 167.96C708.161 167.32 707.281 167 705.841 167C703.201 167 700.801 167.92 698.641 169.76C696.481 171.52 694.281 173.52 692.041 175.76C689.881 177.92 687.521 179.92 684.961 181.76C682.481 183.52 679.521 184.4 676.081 184.4C673.041 184.4 670.401 183.68 668.161 182.24C666.001 180.8 664.201 179.04 662.761 176.96C661.321 174.8 660.241 172.56 659.521 170.24C658.801 167.84 658.441 165.68 658.441 163.76C658.441 155.68 660.601 149.44 664.921 145.04C669.321 140.64 675.121 138.44 682.321 138.44C685.121 138.44 687.401 138.88 689.161 139.76C690.921 140.56 692.401 141.48 693.601 142.52C694.801 143.48 695.881 144.4 696.841 145.28C697.881 146.08 699.001 146.52 700.201 146.6H700.441C701.641 146.6 702.481 146.24 702.961 145.52C703.521 144.8 704.001 144.04 704.401 143.24C704.881 142.36 705.401 141.56 705.961 140.84C706.601 140.12 707.601 139.76 708.961 139.76C710.481 139.76 712.401 140.28 714.721 141.32C717.041 142.28 719.281 143.64 721.441 145.4C723.601 147.08 725.441 149.04 726.961 151.28C728.481 153.52 729.241 155.88 729.241 158.36C729.241 160.44 728.721 162.2 727.681 163.64C726.641 165.08 725.201 165.8 723.361 165.8C721.361 165.8 719.881 165.24 718.921 164.12C718.041 162.92 717.441 161.52 717.121 159.92C716.801 158.24 716.641 156.52 716.641 154.76C716.641 152.92 716.481 151.32 716.161 149.96C715.601 147.56 714.721 145.48 713.521 143.72C712.321 141.96 710.801 141.08 708.961 141.08C707.841 141.08 707.121 141.48 706.801 142.28C706.481 143.08 706.361 144.08 706.441 145.28C706.601 146.48 706.801 147.8 707.041 149.24C707.361 150.6 707.521 151.96 707.521 153.32C707.601 154.6 707.441 155.76 707.041 156.8C706.721 157.76 705.921 158.4 704.641 158.72C704.001 158.88 703.521 158.96 703.201 158.96C701.841 158.96 700.721 158.48 699.841 157.52C698.961 156.56 698.121 155.4 697.321 154.04C696.601 152.6 695.841 151.08 695.041 149.48C694.321 147.8 693.441 146.28 692.401 144.92C691.361 143.48 690.081 142.28 688.561 141.32C687.041 140.36 685.161 139.88 682.921 139.88C680.281 139.88 678.121 140.4 676.441 141.44C674.761 142.4 673.921 143.8 673.921 145.64C673.921 147.16 674.681 148.24 676.201 148.88C677.721 149.44 679.361 149.92 681.121 150.32C682.961 150.72 684.641 151.24 686.161 151.88C687.681 152.44 688.441 153.48 688.441 155C688.441 156.52 687.561 157.88 685.801 159.08C684.121 160.28 682.241 161.48 680.161 162.68C678.081 163.88 676.161 165.2 674.401 166.64C672.721 168 671.881 169.72 671.881 171.8C671.881 173.48 672.441 174.76 673.561 175.64C674.681 176.44 676.081 176.84 677.761 176.84C681.201 176.84 684.041 176.24 686.281 175.04C688.601 173.84 690.721 172.56 692.641 171.2C694.641 169.76 696.681 168.44 698.761 167.24C700.841 166.04 703.361 165.44 706.321 165.44C707.281 165.44 708.321 165.72 709.441 166.28C710.561 166.76 711.121 167.84 711.121 169.52C711.121 170.24 710.961 170.88 710.641 171.44C710.401 172 710.121 172.6 709.801 173.24C709.561 173.8 709.281 174.44 708.961 175.16C708.721 175.8 708.601 176.6 708.601 177.56C708.601 178.6 709.001 179.44 709.801 180.08C710.601 180.64 711.601 180.92 712.801 180.92Z" fill="#F31C29"/>
</svg>
