<svg width="705" height="216" viewBox="0 0 705 216" fill="none" xmlns="http://www.w3.org/2000/svg">
<path d="M41 54.34H19.99V80.19C19.99 80.9233 20.0267 81.6933 20.1 82.5C20.1733 83.2333 20.3933 83.93 20.76 84.59C21.1267 85.25 21.7133 85.8 22.52 86.24C23.3267 86.6067 24.4633 86.79 25.93 86.79H32.97C33.3367 86.79 33.52 86.9367 33.52 87.23V87.56C33.52 87.8533 33.3367 88 32.97 88H0.85C0.483333 88 0.3 87.8533 0.3 87.56V87.23C0.3 86.9367 0.483333 86.79 0.85 86.79H7.89C9.35667 86.79 10.4933 86.6067 11.3 86.24C12.1067 85.8 12.6933 85.25 13.06 84.59C13.4267 83.93 13.6467 83.2333 13.72 82.5C13.7933 81.6933 13.83 80.9233 13.83 80.19V15.51C13.83 13.3833 13.5 11.8433 12.84 10.89C12.18 9.86333 10.6767 9.35 8.33 9.35H0.85C0.483333 9.35 0.3 9.20333 0.3 8.91V8.57999C0.3 8.28666 0.483333 8.14 0.85 8.14H41C43.1267 8.14 45.4 8.21333 47.82 8.36C50.3133 8.50666 52.77 8.87333 55.19 9.45999C57.6833 9.97333 60.0667 10.7433 62.34 11.77C64.6133 12.7233 66.5933 14.08 68.28 15.84C70.04 17.5267 71.4333 19.6533 72.46 22.22C73.4867 24.7133 74 27.72 74 31.24C74 34.76 73.4867 37.8033 72.46 40.37C71.4333 42.8633 70.04 44.99 68.28 46.75C66.5933 48.4367 64.6133 49.7933 62.34 50.82C60.0667 51.7733 57.6833 52.5433 55.19 53.13C52.77 53.6433 50.3133 53.9733 47.82 54.12C45.4 54.2667 43.1267 54.34 41 54.34ZM19.99 31.57V53.13H40.67V43.34C40.67 39.16 39.7533 36.1533 37.92 34.32C36.16 32.4867 33.1533 31.57 28.9 31.57H19.99ZM40.67 9.35H19.99V30.91H28.9C33.08 30.91 36.0867 29.9933 37.92 28.16C39.7533 26.2533 40.67 23.21 40.67 19.03V9.35ZM41.33 9.35V19.03C41.33 23.2833 42.2467 26.3267 44.08 28.16C45.9867 29.9933 49.03 30.91 53.21 30.91H63.77C63.6967 27.5367 63 24.53 61.68 21.89C60.4333 19.1767 58.7467 16.9033 56.62 15.07C54.5667 13.2367 52.22 11.8433 49.58 10.89C46.94 9.86333 44.19 9.35 41.33 9.35ZM63.77 31.57H53.21C49.1033 31.57 46.0967 32.5233 44.19 34.43C42.2833 36.2633 41.33 39.2333 41.33 43.34V53.13C44.19 53.0567 46.94 52.5433 49.58 51.59C52.22 50.5633 54.5667 49.1333 56.62 47.3C58.7467 45.4667 60.4333 43.23 61.68 40.59C63 37.95 63.6967 34.9433 63.77 31.57ZM129.95 53.9C131.05 53.9 132.004 53.7167 132.81 53.35C133.617 52.91 134.35 52.47 135.01 52.03C135.744 51.5167 136.514 51.0767 137.32 50.71C138.127 50.27 139.117 50.05 140.29 50.05C142.197 50.05 143.627 50.6367 144.58 51.81C145.607 52.91 146.12 54.2667 146.12 55.88C146.12 56.6867 145.9 57.6033 145.46 58.63C145.02 59.6567 144.36 60.61 143.48 61.49C142.674 62.37 141.647 63.1033 140.4 63.69C139.154 64.2767 137.76 64.57 136.22 64.57C133.947 64.57 131.967 64.0933 130.28 63.14C128.667 62.1133 127.127 60.83 125.66 59.29C124.267 57.75 122.874 56.1 121.48 54.34C120.087 52.58 118.51 50.93 116.75 49.39C115.064 47.7767 113.12 46.4567 110.92 45.43C108.72 44.33 106.08 43.7067 103 43.56C101.9 43.56 100.727 43.67 99.4805 43.89C98.3071 44.0367 97.2071 44.3667 96.1805 44.88C95.1538 45.3933 94.3105 46.09 93.6505 46.97C92.9905 47.85 92.6605 48.95 92.6605 50.27C92.6605 51.81 93.1005 53.0933 93.9805 54.12C94.8605 55.1467 95.7771 56.1367 96.7305 57.09C97.7571 58.0433 98.6371 58.9967 99.3705 59.95C100.177 60.9033 100.47 62.0767 100.25 63.47C100.03 64.8633 99.4805 65.9267 98.6005 66.66C97.7938 67.32 96.8038 67.8333 95.6305 68.2C94.4571 68.5667 93.2105 68.8233 91.8905 68.97C90.5705 69.1167 89.3605 69.3367 88.2605 69.63C87.1605 69.85 86.2438 70.2167 85.5105 70.73C84.7771 71.2433 84.4105 72.05 84.4105 73.15C84.4105 74.1033 84.7038 74.91 85.2905 75.57C85.9505 76.23 86.8671 76.56 88.0405 76.56C89.0671 76.56 89.9838 76.4133 90.7905 76.12C91.6705 75.8267 92.5138 75.4967 93.3205 75.13C94.1271 74.69 94.9338 74.3233 95.7405 74.03C96.6205 73.7367 97.5738 73.59 98.6005 73.59C100.067 73.59 101.277 74.03 102.23 74.91C103.184 75.7167 103.66 76.78 103.66 78.1C103.66 78.98 103.404 79.7867 102.89 80.52C102.45 81.18 101.9 81.84 101.24 82.5C100.654 83.16 100.104 83.82 99.5905 84.48C99.1505 85.0667 98.9305 85.7633 98.9305 86.57C98.9305 87.89 99.6638 88.99 101.13 89.87C102.67 90.8233 104.687 91.3 107.18 91.3C109.674 91.3 111.727 90.75 113.34 89.65C114.954 88.55 116.31 87.1933 117.41 85.58C118.584 83.9667 119.574 82.2067 120.38 80.3C121.187 78.32 122.03 76.5233 122.91 74.91C123.864 73.2967 124.927 71.94 126.1 70.84C127.347 69.74 128.887 69.19 130.72 69.19H131.27C133.177 69.3367 134.717 70.07 135.89 71.39C137.064 72.6367 137.65 74.1767 137.65 76.01C137.65 78.43 136.624 80.6667 134.57 82.72C132.59 84.7733 129.95 86.5333 126.65 88C123.424 89.54 119.794 90.7133 115.76 91.52C111.727 92.3267 107.694 92.73 103.66 92.73C100.14 92.73 96.6571 92.2167 93.2105 91.19C89.7638 90.2367 86.6471 88.9167 83.8605 87.23C81.0738 85.5433 78.8005 83.5633 77.0405 81.29C75.3538 79.0167 74.5105 76.6333 74.5105 74.14C74.5105 71.3533 75.5371 69.2633 77.5905 67.87C79.6438 66.4767 82.1005 65.78 84.9605 65.78C86.7205 65.78 88.4438 65.9267 90.1305 66.22C91.8171 66.5133 93.3205 66.66 94.6405 66.66C95.8138 66.66 96.7671 66.44 97.5005 66C98.3071 65.56 98.7838 64.7167 98.9305 63.47C99.0771 62.37 98.7838 61.49 98.0505 60.83C97.3171 60.0967 96.3271 59.4367 95.0805 58.85C93.9071 58.2633 92.5871 57.7133 91.1205 57.2C89.7271 56.6867 88.3705 56.1 87.0505 55.44C85.8038 54.7067 84.7405 53.8633 83.8605 52.91C83.0538 51.9567 82.6505 50.7833 82.6505 49.39C82.6505 46.6767 84.3005 44.8067 87.6005 43.78C90.9005 42.68 95.1905 42.13 100.47 42.13C104.65 42.13 108.244 42.7533 111.25 44C114.257 45.1733 116.86 46.53 119.06 48.07C121.334 49.5367 123.314 50.8933 125 52.14C126.76 53.3133 128.41 53.9 129.95 53.9ZM125.88 31.9C128.3 31.9 130.39 32.56 132.15 33.88C133.984 35.1267 134.9 37.07 134.9 39.71C134.9 42.2767 134.13 44.2933 132.59 45.76C131.05 47.2267 129.364 47.96 127.53 47.96C125.404 47.96 123.79 47.41 122.69 46.31C121.59 45.21 120.967 43.67 120.82 41.69C120.747 40.9567 120.747 40.2233 120.82 39.49C120.967 38.6833 121.04 37.9867 121.04 37.4C121.04 36.8133 120.894 36.3367 120.6 35.97C120.38 35.53 119.83 35.31 118.95 35.31C118.29 35.31 117.264 35.5667 115.87 36.08C114.477 36.52 112.9 37.0333 111.14 37.62C109.454 38.2067 107.694 38.7567 105.86 39.27C104.027 39.71 102.304 39.93 100.69 39.93C96.5105 39.93 93.1738 38.72 90.6805 36.3C88.1871 33.8067 86.9405 30.69 86.9405 26.95C86.9405 24.3833 87.3805 22 88.2605 19.8C89.2138 17.6 90.4971 15.6933 92.1105 14.08C93.7238 12.3933 95.6305 11.0733 97.8305 10.12C100.104 9.16667 102.597 8.69 105.31 8.69C107.217 8.69 108.757 8.98333 109.93 9.56999C111.177 10.1567 112.277 10.8167 113.23 11.55C114.257 12.2833 115.174 12.9433 115.98 13.53C116.86 14.1167 117.85 14.41 118.95 14.41C120.05 14.41 120.857 13.7133 121.37 12.32C121.957 10.9267 122.58 9.38666 123.24 7.7C123.974 5.94 124.89 4.36333 125.99 2.96999C127.164 1.57666 128.814 0.879994 130.94 0.879994C133.287 0.879994 134.9 1.46666 135.78 2.64C136.66 3.74 137.284 4.98666 137.65 6.38C138.09 7.7 138.53 8.94666 138.97 10.12C139.41 11.22 140.4 11.77 141.94 11.77C142.527 11.77 143.077 11.5867 143.59 11.22C144.104 10.8533 144.654 10.45 145.24 10.01C145.9 9.49666 146.597 9.05666 147.33 8.69C148.137 8.32333 149.09 8.14 150.19 8.14C152.097 8.14 153.454 8.76333 154.26 10.01C155.067 11.2567 155.47 12.6133 155.47 14.08C155.47 15.2533 155.104 16.39 154.37 17.49C153.71 18.59 152.83 19.5433 151.73 20.35C150.63 21.1567 149.384 21.8167 147.99 22.33C146.67 22.77 145.35 22.99 144.03 22.99C141.684 22.99 139.924 22.4767 138.75 21.45C137.577 20.35 136.77 19.03 136.33 17.49C135.89 15.95 135.634 14.2633 135.56 12.43C135.56 10.5233 135.487 8.79999 135.34 7.26C135.267 5.71999 134.937 4.43666 134.35 3.40999C133.837 2.31 132.847 1.76 131.38 1.76C129.987 1.76 128.96 2.27333 128.3 3.3C127.64 4.25333 127.164 5.46333 126.87 6.92999C126.577 8.39666 126.394 10.01 126.32 11.77C126.247 13.53 126.1 15.2167 125.88 16.83C125.734 18.37 125.367 19.7267 124.78 20.9C124.267 22.0733 123.387 22.8067 122.14 23.1C121.847 23.1733 121.407 23.21 120.82 23.21C119.207 23.21 117.924 22.5133 116.97 21.12C116.09 19.7267 115.174 18.1867 114.22 16.5C113.267 14.74 112.13 13.1633 110.81 11.77C109.564 10.3767 107.767 9.68 105.42 9.68C102.927 9.68 100.69 10.1567 98.7105 11.11C96.8038 12.0633 95.8505 13.3833 95.8505 15.07C95.8505 16.17 96.1438 16.9767 96.7305 17.49C97.3171 18.0033 98.0505 18.3333 98.9305 18.48C99.8105 18.6267 100.764 18.7 101.79 18.7C102.817 18.7 103.77 18.7733 104.65 18.92C105.53 18.9933 106.264 19.25 106.85 19.69C107.437 20.0567 107.73 20.7167 107.73 21.67C107.73 23.0633 107.254 24.2733 106.3 25.3C105.42 26.2533 104.43 27.1333 103.33 27.94C102.23 28.7467 101.204 29.5533 100.25 30.36C99.3705 31.1667 98.9305 32.0833 98.9305 33.11C98.9305 34.5767 99.4805 35.64 100.58 36.3C101.68 36.8867 103.147 37.18 104.98 37.18C106.74 37.18 108.464 36.9233 110.15 36.41C111.91 35.8967 113.634 35.3467 115.32 34.76C117.08 34.1 118.804 33.4767 120.49 32.89C122.25 32.3033 124.047 31.9733 125.88 31.9ZM198.057 81.84C198.057 83.0867 198.533 83.9667 199.487 84.48C200.44 84.9933 201.467 85.25 202.567 85.25C204.253 85.25 205.94 84.8833 207.627 84.15C209.387 83.3433 211.11 82.3167 212.797 81.07C214.483 79.8233 216.133 78.43 217.747 76.89C219.36 75.2767 220.863 73.6267 222.257 71.94C225.63 68.0533 228.857 63.6533 231.937 58.74C229.077 64.3867 225.997 69.4467 222.697 73.92C221.303 75.8267 219.763 77.6967 218.077 79.53C216.39 81.29 214.593 82.9033 212.687 84.37C210.853 85.7633 208.947 86.9 206.967 87.78C204.987 88.66 202.933 89.1 200.807 89.1C198.313 89.1 196.37 88.5133 194.977 87.34C193.583 86.1667 192.887 84.5167 192.887 82.39C192.887 81.1433 193.473 79.7867 194.647 78.32C195.893 76.8533 197.25 75.3867 198.717 73.92C200.183 72.4533 201.503 71.06 202.677 69.74C203.85 68.42 204.437 67.32 204.437 66.44C204.29 64.9 203.667 63.9467 202.567 63.58C201.54 63.14 200.403 62.92 199.157 62.92C198.203 62.92 196.92 63.0667 195.307 63.36C193.767 63.58 192.08 63.8367 190.247 64.13C188.487 64.4233 186.69 64.68 184.857 64.9C183.097 65.12 181.52 65.23 180.127 65.23C178.22 65.23 176.717 64.68 175.617 63.58C174.517 62.4067 173.967 61.1233 173.967 59.73C173.967 58.0433 174.627 56.6133 175.947 55.44C177.34 54.2667 179.1 53.3133 181.227 52.58C183.427 51.7733 185.847 51.15 188.487 50.71C191.127 50.1967 193.73 49.7933 196.297 49.5C198.863 49.2067 201.21 48.9867 203.337 48.84C205.463 48.62 207.113 48.4 208.287 48.18C212.833 47.3733 216.793 46.2 220.167 44.66C223.613 43.12 226.473 41.4333 228.747 39.6C231.02 37.6933 232.707 35.7133 233.807 33.66C234.98 31.5333 235.567 29.5533 235.567 27.72C235.567 22.88 234.173 18.9933 231.387 16.06C228.673 13.0533 224.75 11.55 219.617 11.55C217.343 11.55 215.143 11.88 213.017 12.54C210.89 13.2 208.763 14.3733 206.637 16.06C204.51 17.7467 202.347 20.02 200.147 22.88C197.947 25.6667 195.563 29.2233 192.997 33.55C192.043 35.1633 190.87 36.96 189.477 38.94C188.157 40.92 186.653 42.7533 184.967 44.44C183.28 46.1267 181.447 47.5567 179.467 48.73C177.56 49.9033 175.543 50.49 173.417 50.49C173.05 51.9567 172.647 53.4233 172.207 54.89C171.913 56.1367 171.583 57.4567 171.217 58.85C170.923 60.17 170.63 61.3433 170.337 62.37C170.19 63.03 169.933 64.13 169.567 65.67C169.2 67.1367 168.76 68.8233 168.247 70.73C167.733 72.5633 167.073 74.47 166.267 76.45C165.533 78.3567 164.69 80.1167 163.737 81.73C162.783 83.3433 161.72 84.6633 160.547 85.69C159.373 86.7167 158.09 87.23 156.697 87.23C155.523 87.23 154.497 86.79 153.617 85.91C152.737 84.9567 152.297 83.4167 152.297 81.29C152.297 79.1633 152.847 77.11 153.947 75.13C155.047 73.0767 156.293 71.28 157.687 69.74C159.227 67.98 160.987 66.2933 162.967 64.68C161.647 65.9267 160.51 67.21 159.557 68.53C158.677 69.7033 157.87 70.9867 157.137 72.38C156.403 73.7733 156.037 75.1667 156.037 76.56C156.037 77.8067 156.257 78.7233 156.697 79.31C157.21 79.8233 157.797 80.08 158.457 80.08C159.263 80.08 159.997 79.64 160.657 78.76C161.39 77.8067 162.013 76.7433 162.527 75.57C163.113 74.3233 163.59 73.15 163.957 72.05C164.397 70.8767 164.69 70.0333 164.837 69.52C164.983 69.0067 165.387 67.76 166.047 65.78C166.707 63.7267 167.367 61.5267 168.027 59.18C168.833 56.4667 169.75 53.4967 170.777 50.27C169.163 49.9033 167.733 49.3167 166.487 48.51C165.387 47.7767 164.36 46.7867 163.407 45.54C162.527 44.22 162.087 42.4967 162.087 40.37C162.16 37.6567 163.003 35.31 164.617 33.33C166.303 31.2767 168.1 29.59 170.007 28.27C172.28 26.6567 174.847 25.3 177.707 24.2C178.22 21.4133 178.953 18.9567 179.907 16.83C180.713 14.9233 181.703 13.2367 182.877 11.77C184.123 10.23 185.627 9.45999 187.387 9.45999C188.78 9.45999 189.88 9.86333 190.687 10.67C191.567 11.4767 192.007 12.6867 192.007 14.3C192.007 16.2067 191.347 17.93 190.027 19.47C188.78 20.9367 187.387 22.1833 185.847 23.21C184.013 24.3833 181.923 25.4467 179.577 26.4L174.407 46.97C175.8 46.97 177.193 46.5667 178.587 45.76C180.053 44.88 181.447 43.78 182.767 42.46C184.16 41.0667 185.443 39.6 186.617 38.06C187.863 36.4467 188.963 34.9067 189.917 33.44C190.943 31.9 191.787 30.58 192.447 29.48C193.107 28.3067 193.583 27.5 193.877 27.06C194.317 26.4 195.123 25.0433 196.297 22.99C197.543 20.8633 199.23 18.6633 201.357 16.39C203.483 14.0433 206.087 11.99 209.167 10.23C212.247 8.39666 215.84 7.47999 219.947 7.47999C222.147 7.47999 224.42 7.80999 226.767 8.46999C229.113 9.05666 231.24 10.0833 233.147 11.55C235.127 13.0167 236.74 15.0333 237.987 17.6C239.307 20.0933 239.967 23.2833 239.967 27.17C239.967 31.2033 238.94 34.6133 236.887 37.4C234.833 40.1867 232.267 42.4967 229.187 44.33C226.107 46.09 222.77 47.4833 219.177 48.51C215.583 49.5367 212.247 50.3067 209.167 50.82C207.993 51.04 206.417 51.2233 204.437 51.37C202.457 51.5167 200.33 51.7 198.057 51.92C195.783 52.14 193.473 52.4333 191.127 52.8C188.853 53.1667 186.8 53.6433 184.967 54.23C183.133 54.7433 181.63 55.4033 180.457 56.21C179.283 57.0167 178.697 58.0067 178.697 59.18C178.697 59.84 178.88 60.39 179.247 60.83C179.687 61.1967 180.2 61.49 180.787 61.71C181.373 61.8567 181.997 61.9667 182.657 62.04C183.317 62.04 183.903 62.04 184.417 62.04C185.517 62.04 186.873 61.93 188.487 61.71C190.173 61.4167 191.897 61.1233 193.657 60.83C195.49 60.4633 197.323 60.17 199.157 59.95C200.99 59.6567 202.677 59.51 204.217 59.51C205.61 59.51 206.82 59.95 207.847 60.83C208.947 61.71 209.497 62.92 209.497 64.46C209.497 65.7067 208.91 67.0633 207.737 68.53C206.563 69.9967 205.243 71.5 203.777 73.04C202.383 74.58 201.063 76.12 199.817 77.66C198.643 79.1267 198.057 80.52 198.057 81.84ZM165.277 40.15C165.277 41.6167 165.607 42.8267 166.267 43.78C166.927 44.66 167.66 45.32 168.467 45.76C169.42 46.2733 170.483 46.64 171.657 46.86L176.827 27.61C174.7 28.49 172.793 29.5533 171.107 30.8C169.64 31.8267 168.283 33.1467 167.037 34.76C165.863 36.3 165.277 38.0967 165.277 40.15ZM185.517 14.74C184.71 14.74 183.977 15.18 183.317 16.06C182.657 16.94 182.107 17.93 181.667 19.03C181.153 20.2767 180.713 21.7067 180.347 23.32C181.667 22.7333 182.84 22.0733 183.867 21.34C184.673 20.7533 185.443 20.0567 186.177 19.25C186.91 18.4433 187.277 17.6 187.277 16.72C187.277 16.1333 187.093 15.6567 186.727 15.29C186.433 14.9233 186.03 14.74 185.517 14.74ZM299.948 43.01C301.488 43.01 303.101 42.79 304.788 42.35C306.474 41.91 308.198 41.4333 309.958 40.92C311.791 40.4067 313.661 39.93 315.568 39.49C317.548 39.05 319.564 38.83 321.618 38.83C324.918 38.83 327.704 39.71 329.978 41.47C332.251 43.23 333.388 45.6867 333.388 48.84C333.388 50.82 332.911 52.58 331.958 54.12C331.078 55.5867 329.904 56.87 328.438 57.97C326.971 59.07 325.284 59.9867 323.378 60.72C321.544 61.4533 319.638 62.0767 317.658 62.59C315.531 63.1033 313.441 63.47 311.388 63.69C309.408 63.8367 307.611 64.02 305.998 64.24C304.458 64.3867 303.174 64.6433 302.148 65.01C301.121 65.3767 300.534 66 300.388 66.88C300.168 68.1267 300.681 69.1167 301.928 69.85C303.248 70.51 304.714 71.2067 306.328 71.94C308.014 72.6 309.554 73.4433 310.948 74.47C312.414 75.4967 313.148 76.9633 313.148 78.87C313.148 80.63 312.341 82.2433 310.728 83.71C309.114 85.1767 307.134 86.46 304.788 87.56C302.441 88.5867 299.948 89.3567 297.308 89.87C294.741 90.4567 292.468 90.75 290.488 90.75C288.581 90.75 286.198 90.53 283.338 90.09C280.551 89.65 277.581 88.99 274.428 88.11C271.348 87.23 268.268 86.13 265.188 84.81C262.108 83.49 259.321 81.9867 256.828 80.3C254.408 78.54 252.428 76.56 250.888 74.36C249.348 72.16 248.578 69.7767 248.578 67.21C248.578 65.45 248.871 63.9833 249.458 62.81C250.044 61.5633 250.778 60.5733 251.658 59.84C252.611 59.0333 253.674 58.4833 254.848 58.19C256.021 57.8233 257.158 57.64 258.258 57.64C260.458 57.64 262.254 58.4467 263.648 60.06C265.041 61.6 266.178 63.4333 267.058 65.56C268.011 67.6867 268.781 69.8867 269.368 72.16C270.028 74.36 270.688 76.0833 271.348 77.33C272.081 78.65 272.998 79.97 274.098 81.29C275.198 82.61 276.554 83.82 278.168 84.92C279.781 85.9467 281.651 86.8267 283.778 87.56C285.904 88.22 288.324 88.55 291.038 88.55C291.624 88.55 292.541 88.4767 293.788 88.33C295.108 88.1833 296.501 87.9633 297.968 87.67C299.508 87.3767 301.084 87.01 302.698 86.57C304.311 86.0567 305.778 85.4333 307.098 84.7C308.491 83.9667 309.591 83.1233 310.398 82.17C311.278 81.1433 311.718 80.0067 311.718 78.76C311.718 77.7333 311.058 76.89 309.738 76.23C308.418 75.57 306.768 74.9467 304.788 74.36C302.808 73.7733 300.644 73.2233 298.298 72.71C295.951 72.1233 293.788 71.4267 291.808 70.62C289.828 69.8133 288.178 68.86 286.858 67.76C285.538 66.66 284.878 65.2667 284.878 63.58C284.878 62.6267 285.134 61.82 285.648 61.16C286.234 60.5 286.968 59.95 287.848 59.51C288.728 59.07 289.644 58.74 290.598 58.52C291.624 58.3 292.578 58.19 293.458 58.19C294.338 58.19 295.768 58.2267 297.748 58.3C299.801 58.3 301.964 58.3367 304.238 58.41C306.584 58.4833 308.821 58.5567 310.948 58.63C313.148 58.63 314.798 58.63 315.898 58.63C317.804 58.63 319.711 58.4467 321.618 58.08C323.524 57.7133 325.248 57.1633 326.788 56.43C328.328 55.6233 329.574 54.6333 330.528 53.46C331.554 52.2867 332.068 50.8933 332.068 49.28C332.068 47.1533 331.261 45.43 329.648 44.11C328.034 42.79 325.688 42.13 322.608 42.13C319.308 42.13 315.714 42.8633 311.828 44.33C307.941 45.7967 304.091 47.41 300.278 49.17C296.464 50.93 292.871 52.5433 289.498 54.01C286.124 55.4767 283.264 56.21 280.918 56.21C279.598 56.21 278.498 55.8433 277.618 55.11C276.738 54.3767 276.298 53.35 276.298 52.03C276.298 50.6367 276.774 49.3167 277.728 48.07C278.754 46.8233 280.001 45.6133 281.468 44.44C283.008 43.2667 284.658 42.13 286.418 41.03C288.178 39.93 289.791 38.9033 291.258 37.95C292.798 36.9233 294.044 35.97 294.998 35.09C296.024 34.1367 296.538 33.2567 296.538 32.45C296.538 32.0833 296.354 31.6433 295.988 31.13C295.694 30.5433 294.888 30.25 293.568 30.25C291.148 30.25 288.948 31.0933 286.968 32.78C284.988 34.3933 282.971 36.2267 280.918 38.28C278.938 40.26 276.774 42.0933 274.428 43.78C272.154 45.3933 269.441 46.2 266.288 46.2C263.501 46.2 261.081 45.54 259.028 44.22C257.048 42.9 255.398 41.2867 254.078 39.38C252.758 37.4 251.768 35.3467 251.108 33.22C250.448 31.02 250.118 29.04 250.118 27.28C250.118 19.8733 252.098 14.1533 256.058 10.12C260.091 6.08667 265.408 4.07 272.008 4.07C274.574 4.07 276.664 4.47333 278.278 5.28C279.891 6.01333 281.248 6.85666 282.348 7.81C283.448 8.69 284.438 9.53333 285.318 10.34C286.271 11.0733 287.298 11.4767 288.398 11.55H288.618C289.718 11.55 290.488 11.22 290.928 10.56C291.441 9.89999 291.881 9.20333 292.248 8.46999C292.688 7.66333 293.164 6.93 293.678 6.27C294.264 5.61 295.181 5.28 296.428 5.28C297.821 5.28 299.581 5.75666 301.708 6.71C303.834 7.58999 305.888 8.83666 307.868 10.45C309.848 11.99 311.534 13.7867 312.928 15.84C314.321 17.8933 315.018 20.0567 315.018 22.33C315.018 24.2367 314.541 25.85 313.588 27.17C312.634 28.49 311.314 29.15 309.628 29.15C307.794 29.15 306.438 28.6367 305.558 27.61C304.751 26.51 304.201 25.2267 303.908 23.76C303.614 22.22 303.468 20.6433 303.468 19.03C303.468 17.3433 303.321 15.8767 303.028 14.63C302.514 12.43 301.708 10.5233 300.608 8.91C299.508 7.29666 298.114 6.48999 296.428 6.48999C295.401 6.48999 294.741 6.85666 294.448 7.59C294.154 8.32333 294.044 9.24 294.118 10.34C294.264 11.44 294.448 12.65 294.668 13.97C294.961 15.2167 295.108 16.4633 295.108 17.71C295.181 18.8833 295.034 19.9467 294.668 20.9C294.374 21.78 293.641 22.3667 292.468 22.66C291.881 22.8067 291.441 22.88 291.148 22.88C289.901 22.88 288.874 22.44 288.068 21.56C287.261 20.68 286.491 19.6167 285.758 18.37C285.098 17.05 284.401 15.6567 283.668 14.19C283.008 12.65 282.201 11.2567 281.248 10.01C280.294 8.68999 279.121 7.58999 277.728 6.71C276.334 5.83 274.611 5.38999 272.558 5.38999C270.138 5.38999 268.158 5.86666 266.618 6.82C265.078 7.7 264.308 8.98333 264.308 10.67C264.308 12.0633 265.004 13.0533 266.398 13.64C267.791 14.1533 269.294 14.5933 270.908 14.96C272.594 15.3267 274.134 15.8033 275.528 16.39C276.921 16.9033 277.618 17.8567 277.618 19.25C277.618 20.6433 276.811 21.89 275.198 22.99C273.658 24.09 271.934 25.19 270.028 26.29C268.121 27.39 266.361 28.6 264.748 29.92C263.208 31.1667 262.438 32.7433 262.438 34.65C262.438 36.19 262.951 37.3633 263.978 38.17C265.004 38.9033 266.288 39.27 267.828 39.27C270.981 39.27 273.584 38.72 275.638 37.62C277.764 36.52 279.708 35.3467 281.468 34.1C283.301 32.78 285.171 31.57 287.078 30.47C288.984 29.37 291.294 28.82 294.008 28.82C294.888 28.82 295.841 29.0767 296.868 29.59C297.894 30.03 298.408 31.02 298.408 32.56C298.408 33.22 298.261 33.8067 297.968 34.32C297.748 34.8333 297.491 35.3833 297.198 35.97C296.978 36.4833 296.721 37.07 296.428 37.73C296.208 38.3167 296.098 39.05 296.098 39.93C296.098 40.8833 296.464 41.6533 297.198 42.24C297.931 42.7533 298.848 43.01 299.948 43.01ZM429.799 22C430.826 21.78 431.779 21.67 432.659 21.67C434.419 21.67 435.996 22 437.389 22.66C438.856 23.2467 440.103 24.0533 441.129 25.08C442.156 26.1067 442.963 27.3167 443.549 28.71C444.136 30.1033 444.429 31.57 444.429 33.11C444.429 35.4567 443.806 37.62 442.559 39.6C441.313 41.58 439.956 43.3033 438.489 44.77C436.729 46.53 434.749 48.1067 432.549 49.5C431.449 56.9067 429.286 63.5433 426.059 69.41C424.666 71.9033 422.979 74.36 420.999 76.78C419.093 79.1267 416.783 81.2533 414.069 83.16C411.356 84.9933 408.239 86.4967 404.719 87.67C401.199 88.77 397.203 89.32 392.729 89.32C387.229 89.32 382.646 88.4767 378.979 86.79C375.386 85.1033 372.526 83.27 370.399 81.29C367.833 78.9433 365.853 76.2667 364.459 73.26C360.426 73.04 356.833 72.27 353.679 70.95C352.359 70.3633 351.039 69.6667 349.719 68.86C348.399 68.0533 347.226 67.0633 346.199 65.89C345.246 64.6433 344.439 63.25 343.779 61.71C343.193 60.0967 342.899 58.2633 342.899 56.21C342.899 54.0833 343.156 52.1767 343.669 50.49C344.256 48.73 344.989 47.1533 345.869 45.76C346.823 44.3667 347.886 43.1567 349.059 42.13C350.233 41.03 351.406 40.0767 352.579 39.27C355.439 37.3633 358.666 35.8967 362.259 34.87C363.506 30.91 365.193 27.28 367.319 23.98C368.199 22.5867 369.226 21.23 370.399 19.91C371.646 18.5167 373.003 17.2333 374.469 16.06C376.009 14.8867 377.659 13.8967 379.419 13.09C381.253 12.2833 383.269 11.7333 385.469 11.44C385.689 11.44 385.909 11.44 386.129 11.44C386.349 11.3667 386.569 11.33 386.789 11.33C388.036 11.33 389.026 11.44 389.759 11.66C390.199 11.7333 390.603 11.8433 390.969 11.99C391.996 10.9633 393.206 10.1567 394.599 9.56999C396.066 8.90999 397.569 8.43333 399.109 8.14C400.649 7.77333 402.189 7.51666 403.729 7.37C405.343 7.22333 406.809 7.15 408.129 7.15C412.236 7.29666 415.646 8.14 418.359 9.68C421.146 11.22 423.383 12.9067 425.069 14.74C427.049 16.94 428.626 19.36 429.799 22ZM399.989 13.09C398.009 13.09 395.919 13.42 393.719 14.08C394.306 14.52 394.819 14.9967 395.259 15.51C395.626 16.0233 395.956 16.6467 396.249 17.38C396.616 18.04 396.799 18.8833 396.799 19.91C396.799 22.33 396.139 24.3833 394.819 26.07C393.499 27.7567 391.776 29.15 389.649 30.25C387.596 31.35 385.286 32.2667 382.719 33C380.153 33.66 377.659 34.21 375.239 34.65C373.993 34.87 372.856 35.09 371.829 35.31C370.803 35.4567 369.886 35.6033 369.079 35.75C368.126 35.97 367.283 36.1533 366.549 36.3C365.963 40.7 365.853 45.0267 366.219 49.28C366.366 51.04 366.623 52.91 366.989 54.89C367.356 56.7967 367.869 58.7033 368.529 60.61C369.189 62.5167 370.033 64.35 371.059 66.11C372.159 67.87 373.479 69.4833 375.019 70.95C378.613 70.1433 382.279 69.19 386.019 68.09C389.319 67.1367 392.876 65.9633 396.689 64.57C400.503 63.1767 404.206 61.5267 407.799 59.62C408.533 57.42 409.119 54.9267 409.559 52.14C409.999 49.28 410.476 46.42 410.989 43.56C411.576 40.7 412.236 37.9867 412.969 35.42C413.776 32.78 414.876 30.58 416.269 28.82C416.856 28.0133 417.406 27.3533 417.919 26.84C418.506 26.2533 418.983 25.7767 419.349 25.41C419.863 25.0433 420.303 24.7133 420.669 24.42C418.983 22.2933 417.076 20.3867 414.949 18.7C413.116 17.3067 410.916 16.0233 408.349 14.85C405.856 13.6767 403.069 13.09 399.989 13.09ZM392.179 78.21C393.939 77.4767 395.736 76.45 397.569 75.13C399.036 73.9567 400.613 72.38 402.299 70.4C404.059 68.3467 405.673 65.78 407.139 62.7C403.619 64.1667 400.063 65.5233 396.469 66.77C393.389 67.87 390.053 68.97 386.459 70.07C382.939 71.17 379.529 72.0133 376.229 72.6C377.989 74.4333 380.043 76.0467 382.389 77.44C384.296 78.6867 386.606 79.8233 389.319 80.85C392.106 81.8767 395.149 82.39 398.449 82.39C401.676 82.39 404.573 81.95 407.139 81.07C409.779 80.1167 412.126 78.9067 414.179 77.44C416.306 75.9733 418.176 74.2867 419.789 72.38C421.403 70.4 422.796 68.42 423.969 66.44C426.756 61.82 428.883 56.54 430.349 50.6C427.416 52.36 424.556 54.01 421.769 55.55C420.596 56.21 419.386 56.87 418.139 57.53C416.893 58.1167 415.646 58.7033 414.399 59.29C413.226 59.8767 412.089 60.4267 410.989 60.94C409.963 61.38 409.046 61.7467 408.239 62.04C407.139 64.46 405.783 66.7333 404.169 68.86C402.849 70.6933 401.199 72.5267 399.219 74.36C397.239 76.12 394.893 77.4033 392.179 78.21ZM432.439 25.74C430.093 25.74 427.966 26.3267 426.059 27.5C424.153 28.6 422.429 30.03 420.889 31.79C419.423 33.55 418.139 35.4933 417.039 37.62C416.013 39.6733 415.133 41.6533 414.399 43.56C413.666 45.3933 413.079 47.0433 412.639 48.51C412.273 49.9767 412.016 50.93 411.869 51.37C411.576 52.3233 411.283 53.24 410.989 54.12C410.696 55 410.439 55.8067 410.219 56.54C409.926 57.3467 409.669 58.08 409.449 58.74C414.803 55.9533 419.569 52.9833 423.749 49.83C425.509 48.51 427.233 47.08 428.919 45.54C430.679 44 432.219 42.4233 433.539 40.81C434.933 39.1233 436.033 37.4367 436.839 35.75C437.646 33.99 438.049 32.23 438.049 30.47C438.049 29.15 437.389 28.05 436.069 27.17C434.823 26.2167 433.613 25.74 432.439 25.74ZM344.549 56.65C344.549 58.41 344.806 59.9867 345.319 61.38C345.906 62.7 346.639 63.8733 347.519 64.9C348.399 65.9267 349.389 66.8433 350.489 67.65C351.663 68.3833 352.836 69.0067 354.009 69.52C356.723 70.6933 359.839 71.5 363.359 71.94C362.553 70.4 361.856 68.7133 361.269 66.88C360.683 65.34 360.169 63.58 359.729 61.6C359.289 59.5467 359.069 57.3467 359.069 55C359.069 52.4333 359.179 50.1233 359.399 48.07C359.619 45.9433 359.839 44.1467 360.059 42.68C360.353 40.92 360.683 39.38 361.049 38.06C357.969 38.8667 355.219 40.0767 352.799 41.69C350.746 43.0833 348.839 44.99 347.079 47.41C345.393 49.7567 344.549 52.8367 344.549 56.65ZM391.299 16.5C391.299 15.6933 390.896 14.9967 390.089 14.41C389.356 13.75 388.219 13.42 386.679 13.42C385.139 13.42 383.673 13.7133 382.279 14.3C380.886 14.8133 379.566 15.5467 378.319 16.5C377.146 17.4533 376.046 18.5533 375.019 19.8C373.993 20.9733 373.076 22.1833 372.269 23.43C370.363 26.3633 368.713 29.7 367.319 33.44C371.793 32.34 375.789 30.9833 379.309 29.37C380.849 28.71 382.316 27.94 383.709 27.06C385.176 26.18 386.459 25.2267 387.559 24.2C388.659 23.1 389.539 21.9267 390.199 20.68C390.933 19.36 391.299 17.9667 391.299 16.5ZM522.812 15.29V80.85C522.812 83.1967 523.325 84.7733 524.352 85.58C525.452 86.3133 527.065 86.68 529.192 86.68H531.392C533.885 86.68 535.352 85.6167 535.792 83.49C536.012 82.39 535.719 80.6667 534.912 78.32C534.179 75.9733 533.225 73.5533 532.052 71.06C530.879 68.4933 529.705 66.11 528.532 63.91C527.359 61.6367 526.515 60.0233 526.002 59.07C526.002 58.85 526.075 58.7033 526.222 58.63C526.369 58.4833 526.479 58.4833 526.552 58.63C526.552 58.63 526.589 58.63 526.662 58.63L542.612 86.9C542.612 86.9733 542.649 87.0833 542.722 87.23C542.795 87.3033 542.832 87.4133 542.832 87.56C542.832 87.8533 542.612 88 542.172 88H517.092L467.042 13.86V79.75C467.042 82.4633 467.519 84.2967 468.472 85.25C469.425 86.2033 471.075 86.68 473.422 86.68H475.512C475.732 86.68 475.842 86.8633 475.842 87.23V87.56C475.842 87.8533 475.732 88 475.512 88H454.942C454.502 88 454.282 87.8533 454.282 87.56V87.23C454.282 86.8633 454.502 86.68 454.942 86.68H457.032C459.159 86.68 460.735 86.1667 461.762 85.14C462.789 84.1133 463.302 82.3167 463.302 79.75V15.29C463.302 13.1633 462.899 11.6967 462.092 10.89C461.359 10.01 460.039 9.56999 458.132 9.56999H454.832C453.805 9.56999 452.852 9.79 451.972 10.23C451.165 10.67 450.652 11.5133 450.432 12.76C450.212 14.1533 450.505 16.06 451.312 18.48C452.119 20.8267 453.109 23.21 454.282 25.63C455.455 28.05 456.629 30.3233 457.802 32.45C458.975 34.5767 459.782 36.1167 460.222 37.07C460.295 37.29 460.222 37.51 460.002 37.73C459.709 37.8767 459.525 37.8033 459.452 37.51L443.612 9.24C443.612 9.16667 443.575 9.09333 443.502 9.01999C443.429 8.94666 443.392 8.87333 443.392 8.8C443.392 8.36 443.612 8.14 444.052 8.14H473.202L519.182 75.02V15.29C519.182 13.09 518.705 11.5867 517.752 10.78C516.799 9.97333 515.149 9.56999 512.802 9.56999H510.822C510.382 9.56999 510.162 9.34999 510.162 8.91V8.57999C510.162 8.28666 510.382 8.14 510.822 8.14H531.282C531.575 8.14 531.722 8.28666 531.722 8.57999V8.91C531.722 9.34999 531.575 9.56999 531.282 9.56999H529.192C527.065 9.56999 525.452 9.97333 524.352 10.78C523.325 11.5867 522.812 13.09 522.812 15.29ZM595.818 87.34H599.558C601.098 87.34 602.308 87.1567 603.188 86.79C604.141 86.4233 604.801 85.9833 605.168 85.47C605.608 84.8833 605.828 84.2233 605.828 83.49C605.901 82.7567 605.864 82.06 605.718 81.4C605.351 80.2267 604.984 78.9067 604.618 77.44C604.324 75.9733 603.884 74.4333 603.298 72.82C602.418 70.18 601.024 67.8333 599.118 65.78C597.211 63.7267 594.498 62.7 590.978 62.7C588.778 62.7 586.724 63.36 584.818 64.68C582.984 65.9267 581.224 67.54 579.538 69.52C577.851 71.4267 576.201 73.5167 574.588 75.79C573.048 77.99 571.398 80.08 569.638 82.06C567.951 83.9667 566.154 85.58 564.248 86.9C562.341 88.1467 560.214 88.77 557.868 88.77C555.008 88.77 552.624 87.89 550.718 86.13C548.811 84.37 547.858 81.5467 547.858 77.66C547.858 75.3867 548.188 72.8933 548.848 70.18C549.581 67.3933 550.498 64.46 551.598 61.38C552.698 58.2267 553.944 54.9267 555.338 51.48C556.804 48.0333 558.234 44.5133 559.628 40.92C560.288 39.2333 561.058 37.2533 561.938 34.98C562.818 32.7067 563.734 30.36 564.688 27.94C565.641 25.52 566.558 23.1733 567.438 20.9C568.391 18.5533 569.198 16.5367 569.858 14.85C570.224 13.8233 570.481 13.0533 570.628 12.54C570.774 11.9533 570.848 11.3667 570.848 10.78C570.848 9.46 570.114 8.8 568.648 8.8H560.508C560.214 8.8 560.068 8.69 560.068 8.46999V8.36C560.068 8.21333 560.214 8.14 560.508 8.14H604.508C604.728 8.14 604.838 8.21333 604.838 8.36V8.46999C604.838 8.69 604.728 8.8 604.508 8.8H597.908C596.294 8.8 595.268 9.31333 594.828 10.34C594.388 11.3667 594.388 12.65 594.828 14.19C597.908 25.63 601.024 36.9967 604.178 48.29C607.331 59.5833 610.741 70.8767 614.408 82.17C614.994 84.0033 615.728 85.3233 616.608 86.13C617.561 86.9367 619.174 87.34 621.448 87.34H624.858C625.078 87.34 625.188 87.4133 625.188 87.56V87.78C625.188 87.9267 625.078 88 624.858 88H595.818C595.671 88 595.598 87.9267 595.598 87.78V87.56C595.598 87.4133 595.671 87.34 595.818 87.34ZM566.558 42.68H560.618C560.031 44.22 559.298 46.09 558.418 48.29C557.538 50.49 556.658 52.8 555.778 55.22C554.971 57.64 554.238 60.06 553.578 62.48C552.991 64.8267 552.698 66.9167 552.698 68.75C552.698 71.7567 553.541 73.92 555.228 75.24C556.914 76.4867 558.784 77.11 560.838 77.11C562.231 77.11 563.624 76.78 565.018 76.12C566.411 75.3867 567.841 74.47 569.308 73.37C570.774 72.27 572.278 71.06 573.818 69.74C575.358 68.42 576.934 67.1733 578.548 66V54.56C578.548 50.38 577.594 47.3733 575.688 45.54C573.781 43.6333 570.738 42.68 566.558 42.68ZM570.848 16.06C570.628 16.5 570.188 17.5633 569.528 19.25C568.941 20.9367 568.171 22.99 567.218 25.41C566.264 27.83 565.238 30.5067 564.138 33.44C563.038 36.3 561.938 39.16 560.838 42.02H566.558C570.884 42.02 573.964 41.0667 575.798 39.16C577.631 37.2533 578.548 34.1367 578.548 29.81V10.67C577.008 10.7433 575.541 11.11 574.148 11.77C572.828 12.43 571.728 13.86 570.848 16.06ZM598.348 55.11C597.761 53.0567 597.174 51.0033 596.588 48.95C596.074 46.8233 595.524 44.7333 594.938 42.68H591.088C586.761 42.68 583.681 43.5967 581.848 45.43C580.088 47.2633 579.208 50.3067 579.208 54.56V65.56C581.114 64.3133 583.021 63.2867 584.928 62.48C586.834 61.6 588.814 61.16 590.868 61.16C592.554 61.16 593.874 61.3433 594.828 61.71C595.854 62.0033 596.734 62.15 597.468 62.15C597.834 62.15 598.091 62.1133 598.238 62.04C598.604 61.82 598.824 61.4533 598.898 60.94C599.044 60.3533 599.081 59.73 599.008 59.07C599.008 58.41 598.934 57.7133 598.788 56.98C598.641 56.2467 598.494 55.6233 598.348 55.11ZM591.088 42.02H594.718C593.251 36.74 591.894 31.8633 590.648 27.39C589.401 22.9167 588.374 19.2867 587.568 16.5C587.054 14.74 586.174 13.3467 584.928 12.32C583.681 11.2933 581.774 10.7433 579.208 10.67V29.81C579.208 33.99 580.124 37.07 581.958 39.05C583.864 41.03 586.908 42.02 591.088 42.02ZM624.252 86.57C624.765 83.4167 625.682 80.3733 627.002 77.44C628.322 74.4333 629.862 71.61 631.622 68.97C633.455 66.33 635.435 63.9467 637.562 61.82C639.688 59.62 641.778 57.75 643.832 56.21C645.812 54.7433 648.048 53.35 650.542 52.03C653.035 50.71 655.345 49.4633 657.472 48.29C659.672 47.0433 661.505 45.9067 662.972 44.88C664.512 43.78 665.282 42.7533 665.282 41.8C665.282 40.7733 664.915 40.0767 664.182 39.71C663.522 39.3433 662.678 39.16 661.652 39.16C660.772 39.16 659.892 39.27 659.012 39.49C658.132 39.71 657.252 39.9667 656.372 40.26C655.492 40.48 654.575 40.7 653.622 40.92C652.742 41.14 651.788 41.25 650.762 41.25C649.808 41.25 648.892 40.8833 648.012 40.15C647.132 39.4167 646.692 38.4267 646.692 37.18C646.692 35.3467 647.205 33.5133 648.232 31.68C649.332 29.8467 650.542 28.1233 651.862 26.51C653.182 24.8233 654.355 23.2833 655.382 21.89C656.482 20.4233 657.032 19.2133 657.032 18.26C657.032 17.82 656.848 17.4167 656.482 17.05C656.115 16.61 655.638 16.39 655.052 16.39C653.658 16.39 652.375 16.7933 651.202 17.6C650.102 18.4067 649.075 19.47 648.122 20.79C647.168 22.0367 646.288 23.5033 645.482 25.19C644.748 26.8033 644.088 28.49 643.502 30.25C642.108 34.3567 641.008 39.0133 640.202 44.22C639.908 39.7467 640.385 35.2367 641.632 30.69C642.952 26.1433 644.712 22.0367 646.912 18.37C649.112 14.63 651.568 11.6233 654.282 9.35C656.995 7.00333 659.635 5.83 662.202 5.83C663.228 5.83 664.072 6.16 664.732 6.82C665.392 7.48 665.722 8.32333 665.722 9.35C665.722 10.3033 665.355 11.4767 664.622 12.87C663.962 14.19 663.082 15.62 661.982 17.16C660.955 18.7 659.818 20.2767 658.572 21.89C657.398 23.5033 656.262 25.08 655.162 26.62C654.135 28.0867 653.255 29.48 652.522 30.8C651.862 32.12 651.532 33.22 651.532 34.1C651.532 36.08 652.558 37.07 654.612 37.07C655.345 37.07 656.152 36.9233 657.032 36.63C657.985 36.2633 658.975 35.8967 660.002 35.53C661.028 35.1633 662.128 34.8333 663.302 34.54C664.475 34.1733 665.685 33.99 666.932 33.99C668.618 33.99 669.975 34.4667 671.002 35.42C672.102 36.3 672.652 37.4733 672.652 38.94C672.652 40.7 672.175 42.2033 671.222 43.45C670.268 44.6967 668.838 45.9067 666.932 47.08C665.098 48.18 662.825 49.3533 660.112 50.6C657.398 51.8467 654.282 53.3867 650.762 55.22C647.682 56.76 645.042 58.41 642.842 60.17C640.715 61.8567 638.955 63.47 637.562 65.01C636.242 66.55 635.252 67.9067 634.592 69.08C634.005 70.2533 633.712 71.06 633.712 71.5C633.712 72.0133 633.895 72.27 634.262 72.27C634.848 72.27 635.618 71.6467 636.572 70.4C637.598 69.1533 638.882 67.76 640.422 66.22C641.962 64.68 643.758 63.2867 645.812 62.04C647.938 60.7933 650.395 60.17 653.182 60.17C654.502 60.17 655.602 60.39 656.482 60.83C657.362 61.27 658.058 61.82 658.572 62.48C659.085 63.14 659.452 63.8733 659.672 64.68C659.892 65.4133 660.002 66.11 660.002 66.77C660.002 68.3833 659.782 70.07 659.342 71.83C658.975 73.5167 658.682 75.13 658.462 76.67C658.242 78.1367 658.278 79.42 658.572 80.52C658.865 81.5467 659.708 82.2433 661.102 82.61C661.248 82.61 661.358 82.6467 661.432 82.72C661.505 82.72 661.578 82.72 661.652 82.72C662.752 82.72 663.888 82.1333 665.062 80.96C666.308 79.7867 667.555 78.5033 668.802 77.11C670.122 75.7167 671.478 74.4333 672.872 73.26C674.265 72.0867 675.732 71.5 677.272 71.5C678.885 71.5 680.205 72.0133 681.232 73.04C682.258 74.0667 683.248 75.2033 684.202 76.45C685.155 77.6233 686.182 78.7233 687.282 79.75C688.455 80.7767 689.922 81.29 691.682 81.29C692.708 81.29 693.552 81.07 694.212 80.63C694.945 80.1167 695.532 79.53 695.972 78.87C696.485 78.21 696.852 77.5133 697.072 76.78C697.292 75.9733 697.402 75.3133 697.402 74.8C697.402 73.5533 697.108 72.27 696.522 70.95C696.008 69.5567 695.202 68.31 694.102 67.21C693.002 66.11 691.645 65.1933 690.032 64.46C688.418 63.7267 686.512 63.36 684.312 63.36C681.965 63.36 679.765 63.69 677.712 64.35C675.732 65.01 674.008 65.7433 672.542 66.55C670.782 67.5033 669.168 68.5667 667.702 69.74C669.095 68.2733 670.672 66.99 672.432 65.89C673.972 64.8633 675.805 63.9833 677.932 63.25C680.132 62.4433 682.588 62.04 685.302 62.04C687.942 62.04 690.398 62.4067 692.672 63.14C695.018 63.8 697.072 64.7533 698.832 66C700.592 67.2467 701.948 68.75 702.902 70.51C703.928 72.1967 704.442 74.1033 704.442 76.23C704.442 77.77 704.185 79.2733 703.672 80.74C703.158 82.1333 702.425 83.38 701.472 84.48C700.592 85.58 699.492 86.46 698.172 87.12C696.925 87.7067 695.495 88 693.882 88C691.462 88 689.482 87.56 687.942 86.68C686.475 85.7267 685.192 84.7 684.092 83.6C682.992 82.5 681.928 81.51 680.902 80.63C679.948 79.6767 678.775 79.2 677.382 79.2C675.915 79.2 674.558 79.6767 673.312 80.63C672.138 81.51 670.928 82.5 669.682 83.6C668.435 84.7 667.078 85.7267 665.612 86.68C664.145 87.56 662.385 88 660.332 88C657.985 88 656.262 87.2667 655.162 85.8C654.062 84.26 653.512 82.6467 653.512 80.96C653.512 79.86 653.585 78.9067 653.732 78.1C653.952 77.22 654.172 76.3767 654.392 75.57C654.685 74.7633 654.905 73.9567 655.052 73.15C655.272 72.27 655.382 71.3533 655.382 70.4C655.382 68.0533 654.758 66.3667 653.512 65.34C652.338 64.3133 650.835 63.8 649.002 63.8C647.462 63.8 645.995 64.2033 644.602 65.01C643.208 65.8167 641.815 66.9167 640.422 68.31C639.102 69.63 637.782 71.17 636.462 72.93C635.142 74.6167 633.822 76.3767 632.502 78.21C631.622 79.3833 630.852 80.5567 630.192 81.73C629.532 82.83 628.908 83.8567 628.322 84.81C627.808 85.7633 627.332 86.5333 626.892 87.12C626.452 87.7067 626.012 88 625.572 88C625.058 88 624.692 87.8533 624.472 87.56C624.252 87.2667 624.178 86.9367 624.252 86.57ZM41 177.34H19.99V203.19C19.99 203.923 20.0267 204.693 20.1 205.5C20.1733 206.233 20.3933 206.93 20.76 207.59C21.1267 208.25 21.7133 208.8 22.52 209.24C23.3267 209.607 24.4633 209.79 25.93 209.79H32.97C33.3367 209.79 33.52 209.937 33.52 210.23V210.56C33.52 210.853 33.3367 211 32.97 211H0.85C0.483333 211 0.3 210.853 0.3 210.56V210.23C0.3 209.937 0.483333 209.79 0.85 209.79H7.89C9.35667 209.79 10.4933 209.607 11.3 209.24C12.1067 208.8 12.6933 208.25 13.06 207.59C13.4267 206.93 13.6467 206.233 13.72 205.5C13.7933 204.693 13.83 203.923 13.83 203.19V138.51C13.83 136.383 13.5 134.843 12.84 133.89C12.18 132.863 10.6767 132.35 8.33 132.35H0.85C0.483333 132.35 0.3 132.203 0.3 131.91V131.58C0.3 131.287 0.483333 131.14 0.85 131.14H41C43.1267 131.14 45.4 131.213 47.82 131.36C50.3133 131.507 52.77 131.873 55.19 132.46C57.6833 132.973 60.0667 133.743 62.34 134.77C64.6133 135.723 66.5933 137.08 68.28 138.84C70.04 140.527 71.4333 142.653 72.46 145.22C73.4867 147.713 74 150.72 74 154.24C74 157.76 73.4867 160.803 72.46 163.37C71.4333 165.863 70.04 167.99 68.28 169.75C66.5933 171.437 64.6133 172.793 62.34 173.82C60.0667 174.773 57.6833 175.543 55.19 176.13C52.77 176.643 50.3133 176.973 47.82 177.12C45.4 177.267 43.1267 177.34 41 177.34ZM19.99 154.57V176.13H40.67V166.34C40.67 162.16 39.7533 159.153 37.92 157.32C36.16 155.487 33.1533 154.57 28.9 154.57H19.99ZM40.67 132.35H19.99V153.91H28.9C33.08 153.91 36.0867 152.993 37.92 151.16C39.7533 149.253 40.67 146.21 40.67 142.03V132.35ZM41.33 132.35V142.03C41.33 146.283 42.2467 149.327 44.08 151.16C45.9867 152.993 49.03 153.91 53.21 153.91H63.77C63.6967 150.537 63 147.53 61.68 144.89C60.4333 142.177 58.7467 139.903 56.62 138.07C54.5667 136.237 52.22 134.843 49.58 133.89C46.94 132.863 44.19 132.35 41.33 132.35ZM63.77 154.57H53.21C49.1033 154.57 46.0967 155.523 44.19 157.43C42.2833 159.263 41.33 162.233 41.33 166.34V176.13C44.19 176.057 46.94 175.543 49.58 174.59C52.22 173.563 54.5667 172.133 56.62 170.3C58.7467 168.467 60.4333 166.23 61.68 163.59C63 160.95 63.6967 157.943 63.77 154.57ZM117.276 204.84C117.276 206.087 117.752 206.967 118.706 207.48C119.659 207.993 120.686 208.25 121.786 208.25C123.472 208.25 125.159 207.883 126.846 207.15C128.606 206.343 130.329 205.317 132.016 204.07C133.702 202.823 135.352 201.43 136.966 199.89C138.579 198.277 140.082 196.627 141.476 194.94C144.849 191.053 148.076 186.653 151.156 181.74C148.296 187.387 145.216 192.447 141.916 196.92C140.522 198.827 138.982 200.697 137.296 202.53C135.609 204.29 133.812 205.903 131.906 207.37C130.072 208.763 128.166 209.9 126.186 210.78C124.206 211.66 122.152 212.1 120.026 212.1C117.532 212.1 115.589 211.513 114.196 210.34C112.802 209.167 112.106 207.517 112.106 205.39C112.106 204.143 112.692 202.787 113.866 201.32C115.112 199.853 116.469 198.387 117.936 196.92C119.402 195.453 120.722 194.06 121.896 192.74C123.069 191.42 123.656 190.32 123.656 189.44C123.509 187.9 122.886 186.947 121.786 186.58C120.759 186.14 119.622 185.92 118.376 185.92C117.422 185.92 116.139 186.067 114.526 186.36C112.986 186.58 111.299 186.837 109.466 187.13C107.706 187.423 105.909 187.68 104.076 187.9C102.316 188.12 100.739 188.23 99.3455 188.23C97.4389 188.23 95.9355 187.68 94.8355 186.58C93.7355 185.407 93.1855 184.123 93.1855 182.73C93.1855 181.043 93.8455 179.613 95.1655 178.44C96.5589 177.267 98.3189 176.313 100.446 175.58C102.646 174.773 105.066 174.15 107.706 173.71C110.346 173.197 112.949 172.793 115.516 172.5C118.082 172.207 120.429 171.987 122.556 171.84C124.682 171.62 126.332 171.4 127.506 171.18C132.052 170.373 136.012 169.2 139.386 167.66C142.832 166.12 145.692 164.433 147.966 162.6C150.239 160.693 151.926 158.713 153.026 156.66C154.199 154.533 154.786 152.553 154.786 150.72C154.786 145.88 153.392 141.993 150.606 139.06C147.892 136.053 143.969 134.55 138.836 134.55C136.562 134.55 134.362 134.88 132.236 135.54C130.109 136.2 127.982 137.373 125.856 139.06C123.729 140.747 121.566 143.02 119.366 145.88C117.166 148.667 114.782 152.223 112.216 156.55C111.262 158.163 110.089 159.96 108.696 161.94C107.376 163.92 105.872 165.753 104.186 167.44C102.499 169.127 100.666 170.557 98.6855 171.73C96.7789 172.903 94.7622 173.49 92.6355 173.49C92.2689 174.957 91.8655 176.423 91.4255 177.89C91.1322 179.137 90.8022 180.457 90.4355 181.85C90.1422 183.17 89.8489 184.343 89.5555 185.37C89.4089 186.03 89.1522 187.13 88.7855 188.67C88.4189 190.137 87.9789 191.823 87.4655 193.73C86.9522 195.563 86.2922 197.47 85.4855 199.45C84.7522 201.357 83.9089 203.117 82.9555 204.73C82.0022 206.343 80.9389 207.663 79.7655 208.69C78.5922 209.717 77.3089 210.23 75.9155 210.23C74.7422 210.23 73.7155 209.79 72.8355 208.91C71.9555 207.957 71.5155 206.417 71.5155 204.29C71.5155 202.163 72.0655 200.11 73.1655 198.13C74.2655 196.077 75.5122 194.28 76.9055 192.74C78.4455 190.98 80.2055 189.293 82.1855 187.68C80.8655 188.927 79.7289 190.21 78.7755 191.53C77.8955 192.703 77.0889 193.987 76.3555 195.38C75.6222 196.773 75.2555 198.167 75.2555 199.56C75.2555 200.807 75.4755 201.723 75.9155 202.31C76.4289 202.823 77.0155 203.08 77.6755 203.08C78.4822 203.08 79.2155 202.64 79.8755 201.76C80.6089 200.807 81.2322 199.743 81.7455 198.57C82.3322 197.323 82.8089 196.15 83.1755 195.05C83.6155 193.877 83.9089 193.033 84.0555 192.52C84.2022 192.007 84.6055 190.76 85.2655 188.78C85.9255 186.727 86.5855 184.527 87.2455 182.18C88.0522 179.467 88.9689 176.497 89.9955 173.27C88.3822 172.903 86.9522 172.317 85.7055 171.51C84.6055 170.777 83.5789 169.787 82.6255 168.54C81.7455 167.22 81.3055 165.497 81.3055 163.37C81.3789 160.657 82.2222 158.31 83.8355 156.33C85.5222 154.277 87.3189 152.59 89.2255 151.27C91.4989 149.657 94.0655 148.3 96.9255 147.2C97.4389 144.413 98.1722 141.957 99.1255 139.83C99.9322 137.923 100.922 136.237 102.096 134.77C103.342 133.23 104.846 132.46 106.606 132.46C107.999 132.46 109.099 132.863 109.906 133.67C110.786 134.477 111.226 135.687 111.226 137.3C111.226 139.207 110.566 140.93 109.246 142.47C107.999 143.937 106.606 145.183 105.066 146.21C103.232 147.383 101.142 148.447 98.7955 149.4L93.6255 169.97C95.0189 169.97 96.4122 169.567 97.8055 168.76C99.2722 167.88 100.666 166.78 101.986 165.46C103.379 164.067 104.662 162.6 105.836 161.06C107.082 159.447 108.182 157.907 109.136 156.44C110.162 154.9 111.006 153.58 111.666 152.48C112.326 151.307 112.802 150.5 113.096 150.06C113.536 149.4 114.342 148.043 115.516 145.99C116.762 143.863 118.449 141.663 120.576 139.39C122.702 137.043 125.306 134.99 128.386 133.23C131.466 131.397 135.059 130.48 139.166 130.48C141.366 130.48 143.639 130.81 145.986 131.47C148.332 132.057 150.459 133.083 152.366 134.55C154.346 136.017 155.959 138.033 157.206 140.6C158.526 143.093 159.186 146.283 159.186 150.17C159.186 154.203 158.159 157.613 156.106 160.4C154.052 163.187 151.486 165.497 148.406 167.33C145.326 169.09 141.989 170.483 138.396 171.51C134.802 172.537 131.466 173.307 128.386 173.82C127.212 174.04 125.636 174.223 123.656 174.37C121.676 174.517 119.549 174.7 117.276 174.92C115.002 175.14 112.692 175.433 110.346 175.8C108.072 176.167 106.019 176.643 104.186 177.23C102.352 177.743 100.849 178.403 99.6755 179.21C98.5022 180.017 97.9155 181.007 97.9155 182.18C97.9155 182.84 98.0989 183.39 98.4655 183.83C98.9055 184.197 99.4189 184.49 100.006 184.71C100.592 184.857 101.216 184.967 101.876 185.04C102.536 185.04 103.122 185.04 103.636 185.04C104.736 185.04 106.092 184.93 107.706 184.71C109.392 184.417 111.116 184.123 112.876 183.83C114.709 183.463 116.542 183.17 118.376 182.95C120.209 182.657 121.896 182.51 123.436 182.51C124.829 182.51 126.039 182.95 127.066 183.83C128.166 184.71 128.716 185.92 128.716 187.46C128.716 188.707 128.129 190.063 126.956 191.53C125.782 192.997 124.462 194.5 122.996 196.04C121.602 197.58 120.282 199.12 119.036 200.66C117.862 202.127 117.276 203.52 117.276 204.84ZM84.4955 163.15C84.4955 164.617 84.8255 165.827 85.4855 166.78C86.1455 167.66 86.8789 168.32 87.6855 168.76C88.6389 169.273 89.7022 169.64 90.8755 169.86L96.0455 150.61C93.9189 151.49 92.0122 152.553 90.3255 153.8C88.8589 154.827 87.5022 156.147 86.2555 157.76C85.0822 159.3 84.4955 161.097 84.4955 163.15ZM104.736 137.74C103.929 137.74 103.196 138.18 102.536 139.06C101.876 139.94 101.326 140.93 100.886 142.03C100.372 143.277 99.9322 144.707 99.5655 146.32C100.886 145.733 102.059 145.073 103.086 144.34C103.892 143.753 104.662 143.057 105.396 142.25C106.129 141.443 106.496 140.6 106.496 139.72C106.496 139.133 106.312 138.657 105.946 138.29C105.652 137.923 105.249 137.74 104.736 137.74ZM246.967 145C247.994 144.78 248.947 144.67 249.827 144.67C251.587 144.67 253.164 145 254.557 145.66C256.024 146.247 257.271 147.053 258.297 148.08C259.324 149.107 260.131 150.317 260.717 151.71C261.304 153.103 261.597 154.57 261.597 156.11C261.597 158.457 260.974 160.62 259.727 162.6C258.481 164.58 257.124 166.303 255.657 167.77C253.897 169.53 251.917 171.107 249.717 172.5C248.617 179.907 246.454 186.543 243.227 192.41C241.834 194.903 240.147 197.36 238.167 199.78C236.261 202.127 233.951 204.253 231.237 206.16C228.524 207.993 225.407 209.497 221.887 210.67C218.367 211.77 214.371 212.32 209.897 212.32C204.397 212.32 199.814 211.477 196.147 209.79C192.554 208.103 189.694 206.27 187.567 204.29C185.001 201.943 183.021 199.267 181.627 196.26C177.594 196.04 174.001 195.27 170.847 193.95C169.527 193.363 168.207 192.667 166.887 191.86C165.567 191.053 164.394 190.063 163.367 188.89C162.414 187.643 161.607 186.25 160.947 184.71C160.361 183.097 160.067 181.263 160.067 179.21C160.067 177.083 160.324 175.177 160.837 173.49C161.424 171.73 162.157 170.153 163.037 168.76C163.991 167.367 165.054 166.157 166.227 165.13C167.401 164.03 168.574 163.077 169.747 162.27C172.607 160.363 175.834 158.897 179.427 157.87C180.674 153.91 182.361 150.28 184.487 146.98C185.367 145.587 186.394 144.23 187.567 142.91C188.814 141.517 190.171 140.233 191.637 139.06C193.177 137.887 194.827 136.897 196.587 136.09C198.421 135.283 200.437 134.733 202.637 134.44C202.857 134.44 203.077 134.44 203.297 134.44C203.517 134.367 203.737 134.33 203.957 134.33C205.204 134.33 206.194 134.44 206.927 134.66C207.367 134.733 207.771 134.843 208.137 134.99C209.164 133.963 210.374 133.157 211.767 132.57C213.234 131.91 214.737 131.433 216.277 131.14C217.817 130.773 219.357 130.517 220.897 130.37C222.511 130.223 223.977 130.15 225.297 130.15C229.404 130.297 232.814 131.14 235.527 132.68C238.314 134.22 240.551 135.907 242.237 137.74C244.217 139.94 245.794 142.36 246.967 145ZM217.157 136.09C215.177 136.09 213.087 136.42 210.887 137.08C211.474 137.52 211.987 137.997 212.427 138.51C212.794 139.023 213.124 139.647 213.417 140.38C213.784 141.04 213.967 141.883 213.967 142.91C213.967 145.33 213.307 147.383 211.987 149.07C210.667 150.757 208.944 152.15 206.817 153.25C204.764 154.35 202.454 155.267 199.887 156C197.321 156.66 194.827 157.21 192.407 157.65C191.161 157.87 190.024 158.09 188.997 158.31C187.971 158.457 187.054 158.603 186.247 158.75C185.294 158.97 184.451 159.153 183.717 159.3C183.131 163.7 183.021 168.027 183.387 172.28C183.534 174.04 183.791 175.91 184.157 177.89C184.524 179.797 185.037 181.703 185.697 183.61C186.357 185.517 187.201 187.35 188.227 189.11C189.327 190.87 190.647 192.483 192.187 193.95C195.781 193.143 199.447 192.19 203.187 191.09C206.487 190.137 210.044 188.963 213.857 187.57C217.671 186.177 221.374 184.527 224.967 182.62C225.701 180.42 226.287 177.927 226.727 175.14C227.167 172.28 227.644 169.42 228.157 166.56C228.744 163.7 229.404 160.987 230.137 158.42C230.944 155.78 232.044 153.58 233.437 151.82C234.024 151.013 234.574 150.353 235.087 149.84C235.674 149.253 236.151 148.777 236.517 148.41C237.031 148.043 237.471 147.713 237.837 147.42C236.151 145.293 234.244 143.387 232.117 141.7C230.284 140.307 228.084 139.023 225.517 137.85C223.024 136.677 220.237 136.09 217.157 136.09ZM209.347 201.21C211.107 200.477 212.904 199.45 214.737 198.13C216.204 196.957 217.781 195.38 219.467 193.4C221.227 191.347 222.841 188.78 224.307 185.7C220.787 187.167 217.231 188.523 213.637 189.77C210.557 190.87 207.221 191.97 203.627 193.07C200.107 194.17 196.697 195.013 193.397 195.6C195.157 197.433 197.211 199.047 199.557 200.44C201.464 201.687 203.774 202.823 206.487 203.85C209.274 204.877 212.317 205.39 215.617 205.39C218.844 205.39 221.741 204.95 224.307 204.07C226.947 203.117 229.294 201.907 231.347 200.44C233.474 198.973 235.344 197.287 236.957 195.38C238.571 193.4 239.964 191.42 241.137 189.44C243.924 184.82 246.051 179.54 247.517 173.6C244.584 175.36 241.724 177.01 238.937 178.55C237.764 179.21 236.554 179.87 235.307 180.53C234.061 181.117 232.814 181.703 231.567 182.29C230.394 182.877 229.257 183.427 228.157 183.94C227.131 184.38 226.214 184.747 225.407 185.04C224.307 187.46 222.951 189.733 221.337 191.86C220.017 193.693 218.367 195.527 216.387 197.36C214.407 199.12 212.061 200.403 209.347 201.21ZM249.607 148.74C247.261 148.74 245.134 149.327 243.227 150.5C241.321 151.6 239.597 153.03 238.057 154.79C236.591 156.55 235.307 158.493 234.207 160.62C233.181 162.673 232.301 164.653 231.567 166.56C230.834 168.393 230.247 170.043 229.807 171.51C229.441 172.977 229.184 173.93 229.037 174.37C228.744 175.323 228.451 176.24 228.157 177.12C227.864 178 227.607 178.807 227.387 179.54C227.094 180.347 226.837 181.08 226.617 181.74C231.971 178.953 236.737 175.983 240.917 172.83C242.677 171.51 244.401 170.08 246.087 168.54C247.847 167 249.387 165.423 250.707 163.81C252.101 162.123 253.201 160.437 254.007 158.75C254.814 156.99 255.217 155.23 255.217 153.47C255.217 152.15 254.557 151.05 253.237 150.17C251.991 149.217 250.781 148.74 249.607 148.74ZM161.717 179.65C161.717 181.41 161.974 182.987 162.487 184.38C163.074 185.7 163.807 186.873 164.687 187.9C165.567 188.927 166.557 189.843 167.657 190.65C168.831 191.383 170.004 192.007 171.177 192.52C173.891 193.693 177.007 194.5 180.527 194.94C179.721 193.4 179.024 191.713 178.437 189.88C177.851 188.34 177.337 186.58 176.897 184.6C176.457 182.547 176.237 180.347 176.237 178C176.237 175.433 176.347 173.123 176.567 171.07C176.787 168.943 177.007 167.147 177.227 165.68C177.521 163.92 177.851 162.38 178.217 161.06C175.137 161.867 172.387 163.077 169.967 164.69C167.914 166.083 166.007 167.99 164.247 170.41C162.561 172.757 161.717 175.837 161.717 179.65ZM208.467 139.5C208.467 138.693 208.064 137.997 207.257 137.41C206.524 136.75 205.387 136.42 203.847 136.42C202.307 136.42 200.841 136.713 199.447 137.3C198.054 137.813 196.734 138.547 195.487 139.5C194.314 140.453 193.214 141.553 192.187 142.8C191.161 143.973 190.244 145.183 189.437 146.43C187.531 149.363 185.881 152.7 184.487 156.44C188.961 155.34 192.957 153.983 196.477 152.37C198.017 151.71 199.484 150.94 200.877 150.06C202.344 149.18 203.627 148.227 204.727 147.2C205.827 146.1 206.707 144.927 207.367 143.68C208.101 142.36 208.467 140.967 208.467 139.5ZM282.643 148.3C282.643 149.547 282.827 150.757 283.193 151.93C283.56 153.03 284 154.02 284.513 154.9C285.027 155.853 285.613 156.733 286.273 157.54C284.367 156.073 282.643 154.46 281.103 152.7C279.857 151.233 278.683 149.547 277.583 147.64C276.483 145.66 275.933 143.607 275.933 141.48C275.933 138.547 276.813 136.237 278.573 134.55C280.407 132.863 282.973 132.02 286.273 132.02C288.547 132.02 290.82 132.57 293.093 133.67C295.367 134.697 297.53 135.833 299.583 137.08C301.637 138.327 303.433 139.5 304.973 140.6C306.587 141.627 307.797 142.14 308.603 142.14C309.41 142.14 309.74 141.737 309.593 140.93C309.52 140.05 309.373 139.097 309.153 138.07C308.933 136.97 308.86 135.907 308.933 134.88C309.08 133.853 309.813 133.157 311.133 132.79C311.28 132.717 311.537 132.68 311.903 132.68C312.93 132.68 313.993 133.12 315.093 134C316.267 134.807 317.623 135.723 319.163 136.75C320.703 137.703 322.463 138.62 324.443 139.5C326.423 140.307 328.77 140.71 331.483 140.71C335.003 140.71 338.047 139.977 340.613 138.51C343.253 136.97 345.453 135.283 347.213 133.45C349.047 131.617 350.477 129.967 351.503 128.5C352.603 126.96 353.373 126.19 353.813 126.19C354.033 126.19 354.107 126.337 354.033 126.63C354.033 126.777 353.593 127.84 352.713 129.82C351.833 131.727 350.623 134.293 349.083 137.52C347.543 140.747 345.637 144.487 343.363 148.74C341.163 152.92 338.67 157.357 335.883 162.05C333.097 166.743 330.017 171.547 326.643 176.46C323.343 181.373 319.787 186.103 315.973 190.65C310.327 197.47 304.753 202.897 299.253 206.93C293.827 210.963 288.693 212.98 283.853 212.98C273 212.98 267.573 207.553 267.573 196.7C267.573 195.013 267.867 193.143 268.453 191.09C269.04 189.037 269.92 187.093 271.093 185.26C272.34 183.427 273.843 181.923 275.603 180.75C277.437 179.503 279.527 178.88 281.873 178.88C283.34 178.88 284.587 179.137 285.613 179.65C286.64 180.09 287.483 180.713 288.143 181.52C288.803 182.327 289.28 183.243 289.573 184.27C289.94 185.297 290.197 186.323 290.343 187.35C290.637 189.77 290.49 192.557 289.903 195.71C289.537 194.317 288.987 193.033 288.253 191.86C287.593 190.907 286.64 190.063 285.393 189.33C284.22 188.523 282.68 188.12 280.773 188.12C279.233 188.12 277.803 188.413 276.483 189C275.163 189.587 273.99 190.393 272.963 191.42C272.01 192.373 271.24 193.51 270.653 194.83C270.067 196.077 269.773 197.433 269.773 198.9C269.773 201.98 270.727 204.547 272.633 206.6C274.613 208.58 277.29 209.57 280.663 209.57C283.157 209.57 285.98 208.727 289.133 207.04C292.287 205.28 295.587 203.007 299.033 200.22C302.553 197.36 306.073 194.097 309.593 190.43C313.187 186.69 316.633 182.84 319.933 178.88C323.307 174.847 326.46 170.85 329.393 166.89C332.4 162.93 334.967 159.263 337.093 155.89C339.293 152.443 341.017 149.473 342.263 146.98C343.583 144.413 344.243 142.58 344.243 141.48C344.243 140.38 343.657 139.83 342.483 139.83C341.97 139.83 341.42 139.977 340.833 140.27C340.247 140.563 339.55 140.893 338.743 141.26C337.937 141.627 336.947 141.957 335.773 142.25C334.6 142.543 333.097 142.69 331.263 142.69C329.577 142.69 328.11 142.58 326.863 142.36C325.69 142.067 324.59 141.773 323.563 141.48C322.61 141.187 321.693 140.93 320.813 140.71C319.933 140.417 318.943 140.27 317.843 140.27H317.293C316.047 140.343 315.093 140.747 314.433 141.48C313.847 142.14 313.297 142.873 312.783 143.68C312.343 144.413 311.867 145.11 311.353 145.77C310.913 146.357 310.18 146.65 309.153 146.65C308.127 146.65 307.027 146.357 305.853 145.77C304.68 145.11 303.397 144.45 302.003 143.79C300.683 143.057 299.18 142.397 297.493 141.81C295.807 141.15 293.9 140.82 291.773 140.82C289.133 140.82 286.933 141.48 285.173 142.8C283.487 144.12 282.643 145.953 282.643 148.3ZM402.802 176.9C403.902 176.9 404.855 176.717 405.662 176.35C406.469 175.91 407.202 175.47 407.862 175.03C408.595 174.517 409.365 174.077 410.172 173.71C410.979 173.27 411.969 173.05 413.142 173.05C415.049 173.05 416.479 173.637 417.432 174.81C418.459 175.91 418.972 177.267 418.972 178.88C418.972 179.687 418.752 180.603 418.312 181.63C417.872 182.657 417.212 183.61 416.332 184.49C415.525 185.37 414.499 186.103 413.252 186.69C412.005 187.277 410.612 187.57 409.072 187.57C406.799 187.57 404.819 187.093 403.132 186.14C401.519 185.113 399.979 183.83 398.512 182.29C397.119 180.75 395.725 179.1 394.332 177.34C392.939 175.58 391.362 173.93 389.602 172.39C387.915 170.777 385.972 169.457 383.772 168.43C381.572 167.33 378.932 166.707 375.852 166.56C374.752 166.56 373.579 166.67 372.332 166.89C371.159 167.037 370.059 167.367 369.032 167.88C368.005 168.393 367.162 169.09 366.502 169.97C365.842 170.85 365.512 171.95 365.512 173.27C365.512 174.81 365.952 176.093 366.832 177.12C367.712 178.147 368.629 179.137 369.582 180.09C370.609 181.043 371.489 181.997 372.222 182.95C373.029 183.903 373.322 185.077 373.102 186.47C372.882 187.863 372.332 188.927 371.452 189.66C370.645 190.32 369.655 190.833 368.482 191.2C367.309 191.567 366.062 191.823 364.742 191.97C363.422 192.117 362.212 192.337 361.112 192.63C360.012 192.85 359.095 193.217 358.362 193.73C357.629 194.243 357.262 195.05 357.262 196.15C357.262 197.103 357.555 197.91 358.142 198.57C358.802 199.23 359.719 199.56 360.892 199.56C361.919 199.56 362.835 199.413 363.642 199.12C364.522 198.827 365.365 198.497 366.172 198.13C366.979 197.69 367.785 197.323 368.592 197.03C369.472 196.737 370.425 196.59 371.452 196.59C372.919 196.59 374.129 197.03 375.082 197.91C376.035 198.717 376.512 199.78 376.512 201.1C376.512 201.98 376.255 202.787 375.742 203.52C375.302 204.18 374.752 204.84 374.092 205.5C373.505 206.16 372.955 206.82 372.442 207.48C372.002 208.067 371.782 208.763 371.782 209.57C371.782 210.89 372.515 211.99 373.982 212.87C375.522 213.823 377.539 214.3 380.032 214.3C382.525 214.3 384.579 213.75 386.192 212.65C387.805 211.55 389.162 210.193 390.262 208.58C391.435 206.967 392.425 205.207 393.232 203.3C394.039 201.32 394.882 199.523 395.762 197.91C396.715 196.297 397.779 194.94 398.952 193.84C400.199 192.74 401.739 192.19 403.572 192.19H404.122C406.029 192.337 407.569 193.07 408.742 194.39C409.915 195.637 410.502 197.177 410.502 199.01C410.502 201.43 409.475 203.667 407.422 205.72C405.442 207.773 402.802 209.533 399.502 211C396.275 212.54 392.645 213.713 388.612 214.52C384.579 215.327 380.545 215.73 376.512 215.73C372.992 215.73 369.509 215.217 366.062 214.19C362.615 213.237 359.499 211.917 356.712 210.23C353.925 208.543 351.652 206.563 349.892 204.29C348.205 202.017 347.362 199.633 347.362 197.14C347.362 194.353 348.389 192.263 350.442 190.87C352.495 189.477 354.952 188.78 357.812 188.78C359.572 188.78 361.295 188.927 362.982 189.22C364.669 189.513 366.172 189.66 367.492 189.66C368.665 189.66 369.619 189.44 370.352 189C371.159 188.56 371.635 187.717 371.782 186.47C371.929 185.37 371.635 184.49 370.902 183.83C370.169 183.097 369.179 182.437 367.932 181.85C366.759 181.263 365.439 180.713 363.972 180.2C362.579 179.687 361.222 179.1 359.902 178.44C358.655 177.707 357.592 176.863 356.712 175.91C355.905 174.957 355.502 173.783 355.502 172.39C355.502 169.677 357.152 167.807 360.452 166.78C363.752 165.68 368.042 165.13 373.322 165.13C377.502 165.13 381.095 165.753 384.102 167C387.109 168.173 389.712 169.53 391.912 171.07C394.185 172.537 396.165 173.893 397.852 175.14C399.612 176.313 401.262 176.9 402.802 176.9ZM398.732 154.9C401.152 154.9 403.242 155.56 405.002 156.88C406.835 158.127 407.752 160.07 407.752 162.71C407.752 165.277 406.982 167.293 405.442 168.76C403.902 170.227 402.215 170.96 400.382 170.96C398.255 170.96 396.642 170.41 395.542 169.31C394.442 168.21 393.819 166.67 393.672 164.69C393.599 163.957 393.599 163.223 393.672 162.49C393.819 161.683 393.892 160.987 393.892 160.4C393.892 159.813 393.745 159.337 393.452 158.97C393.232 158.53 392.682 158.31 391.802 158.31C391.142 158.31 390.115 158.567 388.722 159.08C387.329 159.52 385.752 160.033 383.992 160.62C382.305 161.207 380.545 161.757 378.712 162.27C376.879 162.71 375.155 162.93 373.542 162.93C369.362 162.93 366.025 161.72 363.532 159.3C361.039 156.807 359.792 153.69 359.792 149.95C359.792 147.383 360.232 145 361.112 142.8C362.065 140.6 363.349 138.693 364.962 137.08C366.575 135.393 368.482 134.073 370.682 133.12C372.955 132.167 375.449 131.69 378.162 131.69C380.069 131.69 381.609 131.983 382.782 132.57C384.029 133.157 385.129 133.817 386.082 134.55C387.109 135.283 388.025 135.943 388.832 136.53C389.712 137.117 390.702 137.41 391.802 137.41C392.902 137.41 393.709 136.713 394.222 135.32C394.809 133.927 395.432 132.387 396.092 130.7C396.825 128.94 397.742 127.363 398.842 125.97C400.015 124.577 401.665 123.88 403.792 123.88C406.139 123.88 407.752 124.467 408.632 125.64C409.512 126.74 410.135 127.987 410.502 129.38C410.942 130.7 411.382 131.947 411.822 133.12C412.262 134.22 413.252 134.77 414.792 134.77C415.379 134.77 415.929 134.587 416.442 134.22C416.955 133.853 417.505 133.45 418.092 133.01C418.752 132.497 419.449 132.057 420.182 131.69C420.989 131.323 421.942 131.14 423.042 131.14C424.949 131.14 426.305 131.763 427.112 133.01C427.919 134.257 428.322 135.613 428.322 137.08C428.322 138.253 427.955 139.39 427.222 140.49C426.562 141.59 425.682 142.543 424.582 143.35C423.482 144.157 422.235 144.817 420.842 145.33C419.522 145.77 418.202 145.99 416.882 145.99C414.535 145.99 412.775 145.477 411.602 144.45C410.429 143.35 409.622 142.03 409.182 140.49C408.742 138.95 408.485 137.263 408.412 135.43C408.412 133.523 408.339 131.8 408.192 130.26C408.119 128.72 407.789 127.437 407.202 126.41C406.689 125.31 405.699 124.76 404.232 124.76C402.839 124.76 401.812 125.273 401.152 126.3C400.492 127.253 400.015 128.463 399.722 129.93C399.429 131.397 399.245 133.01 399.172 134.77C399.099 136.53 398.952 138.217 398.732 139.83C398.585 141.37 398.219 142.727 397.632 143.9C397.119 145.073 396.239 145.807 394.992 146.1C394.699 146.173 394.259 146.21 393.672 146.21C392.059 146.21 390.775 145.513 389.822 144.12C388.942 142.727 388.025 141.187 387.072 139.5C386.119 137.74 384.982 136.163 383.662 134.77C382.415 133.377 380.619 132.68 378.272 132.68C375.779 132.68 373.542 133.157 371.562 134.11C369.655 135.063 368.702 136.383 368.702 138.07C368.702 139.17 368.995 139.977 369.582 140.49C370.169 141.003 370.902 141.333 371.782 141.48C372.662 141.627 373.615 141.7 374.642 141.7C375.669 141.7 376.622 141.773 377.502 141.92C378.382 141.993 379.115 142.25 379.702 142.69C380.289 143.057 380.582 143.717 380.582 144.67C380.582 146.063 380.105 147.273 379.152 148.3C378.272 149.253 377.282 150.133 376.182 150.94C375.082 151.747 374.055 152.553 373.102 153.36C372.222 154.167 371.782 155.083 371.782 156.11C371.782 157.577 372.332 158.64 373.432 159.3C374.532 159.887 375.999 160.18 377.832 160.18C379.592 160.18 381.315 159.923 383.002 159.41C384.762 158.897 386.485 158.347 388.172 157.76C389.932 157.1 391.655 156.477 393.342 155.89C395.102 155.303 396.899 154.973 398.732 154.9ZM447.178 188.01C448.424 188.01 449.634 187.497 450.808 186.47C452.054 185.37 453.301 184.197 454.548 182.95C455.868 181.63 457.188 180.457 458.508 179.43C459.828 178.33 461.221 177.78 462.688 177.78C465.621 177.78 467.088 179.247 467.088 182.18C467.088 183.427 466.721 184.637 465.988 185.81C465.328 186.983 464.594 188.193 463.788 189.44C462.981 190.687 462.211 192.08 461.478 193.62C460.818 195.087 460.488 196.81 460.488 198.79C460.488 201.357 461.294 203.483 462.908 205.17C464.594 206.857 467.161 207.7 470.608 207.7C472.954 207.7 474.861 207.26 476.328 206.38C477.794 205.5 478.931 204.4 479.738 203.08C480.618 201.687 481.241 200.183 481.608 198.57C481.974 196.883 482.158 195.307 482.158 193.84C482.231 192.3 482.231 190.943 482.158 189.77C482.084 188.523 482.048 187.68 482.048 187.24C482.048 183.94 482.708 181.483 484.028 179.87C485.421 178.183 487.218 177.34 489.418 177.34C491.691 177.34 493.378 178.037 494.478 179.43C495.651 180.75 496.238 182.473 496.238 184.6C496.238 187.167 495.358 190.063 493.598 193.29C491.838 196.517 489.418 199.56 486.338 202.42C483.258 205.207 479.628 207.553 475.448 209.46C471.341 211.367 466.904 212.32 462.138 212.32C458.618 212.32 455.244 211.88 452.018 211C448.791 210.047 445.931 208.653 443.438 206.82C441.018 204.913 439.074 202.603 437.608 199.89C436.141 197.103 435.408 193.877 435.408 190.21C435.408 187.13 436.031 184.453 437.278 182.18C438.598 179.833 440.028 177.78 441.568 176.02C443.108 174.187 444.501 172.61 445.748 171.29C446.994 169.97 447.581 168.76 447.508 167.66C447.434 166.633 447.068 166.047 446.408 165.9C445.748 165.68 445.014 165.57 444.208 165.57C443.328 165.643 442.374 165.753 441.348 165.9C440.394 166.047 439.184 166.12 437.718 166.12C435.518 166.12 433.758 165.497 432.438 164.25C431.191 162.93 430.568 161.06 430.568 158.64C430.568 154.9 431.301 151.307 432.768 147.86C434.234 144.413 436.178 141.37 438.598 138.73C441.091 136.09 443.951 134 447.178 132.46C450.404 130.92 453.778 130.15 457.298 130.15C459.498 130.15 461.368 130.517 462.908 131.25C464.448 131.91 465.841 132.68 467.088 133.56C468.408 134.367 469.654 135.137 470.828 135.87C472.001 136.53 473.321 136.86 474.788 136.86C476.181 136.86 477.244 136.53 477.978 135.87C478.784 135.21 479.518 134.513 480.178 133.78C480.911 132.973 481.754 132.277 482.708 131.69C483.661 131.03 485.018 130.7 486.778 130.7C489.051 130.7 490.994 131.397 492.608 132.79C494.221 134.183 495.541 135.907 496.568 137.96C497.594 140.013 498.328 142.213 498.768 144.56C499.281 146.833 499.538 148.887 499.538 150.72C499.538 153.287 498.988 155.413 497.888 157.1C496.788 158.713 495.064 159.52 492.718 159.52C491.031 159.52 489.601 159.007 488.428 157.98C487.254 156.88 486.668 155.377 486.668 153.47C486.668 151.783 486.924 150.39 487.438 149.29C488.024 148.19 488.648 147.127 489.308 146.1C490.041 145.073 490.664 143.937 491.178 142.69C491.764 141.443 492.058 139.867 492.058 137.96C492.058 136.493 491.581 135.247 490.628 134.22C489.748 133.12 488.464 132.57 486.778 132.57C485.238 132.57 484.101 133.01 483.368 133.89C482.708 134.77 482.194 135.87 481.828 137.19C481.534 138.51 481.314 139.94 481.168 141.48C481.094 142.947 480.874 144.34 480.508 145.66C480.214 146.98 479.701 148.08 478.968 148.96C478.234 149.84 477.061 150.28 475.448 150.28C474.274 150.28 473.284 149.84 472.478 148.96C471.744 148.08 471.048 146.98 470.388 145.66C469.728 144.34 469.031 142.91 468.298 141.37C467.638 139.757 466.831 138.29 465.878 136.97C464.924 135.65 463.714 134.55 462.248 133.67C460.854 132.79 459.058 132.35 456.858 132.35C455.831 132.35 454.804 132.46 453.778 132.68C452.824 132.9 451.944 133.193 451.138 133.56C450.331 133.927 449.671 134.367 449.158 134.88C448.644 135.32 448.388 135.833 448.388 136.42C448.388 137.813 448.864 138.767 449.818 139.28C450.844 139.793 451.908 140.197 453.008 140.49C454.181 140.71 455.244 141.04 456.198 141.48C457.224 141.847 457.738 142.653 457.738 143.9C457.738 145.073 457.078 146.027 455.758 146.76C454.511 147.493 452.934 148.117 451.028 148.63C449.194 149.143 447.141 149.657 444.868 150.17C442.668 150.61 440.614 151.197 438.708 151.93C436.874 152.663 435.298 153.58 433.978 154.68C432.731 155.78 432.108 157.21 432.108 158.97C432.108 161.097 432.694 162.527 433.868 163.26C435.114 163.92 436.398 164.25 437.718 164.25C439.111 164.25 440.468 163.883 441.788 163.15C443.181 162.343 444.538 161.5 445.858 160.62C447.251 159.667 448.644 158.823 450.038 158.09C451.431 157.283 452.861 156.88 454.328 156.88C455.501 156.88 456.454 157.137 457.188 157.65C457.921 158.163 458.288 158.97 458.288 160.07C458.288 161.683 457.408 163.26 455.648 164.8C453.961 166.267 452.091 167.88 450.038 169.64C447.984 171.327 446.078 173.197 444.318 175.25C442.631 177.303 441.788 179.687 441.788 182.4C441.788 186.14 443.584 188.01 447.178 188.01ZM544.131 167.44C541.637 175.727 539.034 183.133 536.321 189.66C535.147 192.447 533.901 195.197 532.581 197.91C531.261 200.55 529.867 202.933 528.401 205.06C527.007 207.113 525.541 208.8 524.001 210.12C522.461 211.367 520.921 211.99 519.381 211.99C517.107 211.99 515.347 211.293 514.101 209.9C512.927 208.507 512.194 206.893 511.901 205.06C511.387 202.42 511.534 199.597 512.341 196.59C513.147 193.583 514.357 190.613 515.971 187.68C517.584 184.673 519.527 181.813 521.801 179.1C524.074 176.313 526.421 173.82 528.841 171.62C531.334 169.347 533.791 167.477 536.211 166.01C538.704 164.47 540.977 163.48 543.031 163.04C543.911 160.987 544.717 159.043 545.451 157.21C546.184 155.67 546.881 154.167 547.541 152.7C548.274 151.16 548.824 150.06 549.191 149.4C549.704 148.593 550.291 147.713 550.951 146.76C551.684 145.807 552.381 144.927 553.041 144.12C553.847 143.167 554.654 142.25 555.461 141.37C551.574 140.123 547.651 138.987 543.691 137.96C540.317 137.153 536.687 136.42 532.801 135.76C528.914 135.027 525.321 134.66 522.021 134.66C521.581 134.66 521.141 134.66 520.701 134.66C520.261 134.66 519.857 134.697 519.491 134.77C517.731 134.917 516.961 135.54 517.181 136.64C517.327 137.227 517.767 137.667 518.501 137.96C519.307 138.253 520.151 138.51 521.031 138.73C521.911 138.95 522.717 139.243 523.451 139.61C524.184 139.977 524.624 140.563 524.771 141.37C524.991 142.543 524.477 143.533 523.231 144.34C522.057 145.073 520.737 145.807 519.271 146.54C517.804 147.2 516.447 147.933 515.201 148.74C513.954 149.473 513.441 150.39 513.661 151.49C513.807 152.223 514.101 152.81 514.541 153.25C515.054 153.69 515.604 154.02 516.191 154.24C516.851 154.46 517.474 154.607 518.061 154.68C518.721 154.753 519.271 154.79 519.711 154.79C523.011 154.79 525.834 154.167 528.181 152.92C530.601 151.673 532.617 150.317 534.231 148.85C536.137 147.09 537.751 145.11 539.071 142.91C538.044 145.917 536.467 148.63 534.341 151.05C532.507 153.103 530.014 154.973 526.861 156.66C523.707 158.347 519.637 159.19 514.651 159.19C511.937 159.19 509.664 158.603 507.831 157.43C506.071 156.183 505.191 154.643 505.191 152.81C505.191 150.903 505.924 149.473 507.391 148.52C508.857 147.493 510.471 146.65 512.231 145.99C513.991 145.33 515.567 144.78 516.961 144.34C518.427 143.827 519.087 143.203 518.941 142.47C518.794 141.663 518.244 141.187 517.291 141.04C516.411 140.82 515.421 140.637 514.321 140.49C513.221 140.343 512.157 140.05 511.131 139.61C510.177 139.097 509.591 138.107 509.371 136.64C509.077 135.1 509.701 133.89 511.241 133.01C512.781 132.13 514.541 131.617 516.521 131.47C517.034 131.397 517.547 131.36 518.061 131.36C518.574 131.36 519.087 131.36 519.601 131.36C524.001 131.36 528.437 131.763 532.911 132.57C537.384 133.303 541.491 134.11 545.231 134.99C549.484 136.09 553.627 137.337 557.661 138.73C559.641 137.19 561.951 135.797 564.591 134.55C566.791 133.523 569.431 132.607 572.511 131.8C575.664 130.92 579.184 130.48 583.071 130.48C585.564 130.48 587.874 130.663 590.001 131.03C592.201 131.323 594.071 131.8 595.611 132.46C597.224 133.12 598.507 133.927 599.461 134.88C600.414 135.76 600.891 136.823 600.891 138.07C600.964 140.27 599.864 142.103 597.591 143.57C595.391 144.963 591.577 145.66 586.151 145.66C582.191 145.66 578.524 145.477 575.151 145.11C571.777 144.743 568.807 144.34 566.241 143.9C563.307 143.387 560.594 142.8 558.101 142.14C556.854 143.093 555.571 144.487 554.251 146.32C553.077 147.787 551.794 149.84 550.401 152.48C549.007 155.047 547.577 158.347 546.111 162.38C548.311 162.453 550.364 162.783 552.271 163.37C553.811 163.883 555.277 164.69 556.671 165.79C558.137 166.89 559.054 168.467 559.421 170.52C559.714 172.06 559.677 173.49 559.311 174.81C559.017 176.13 558.504 177.34 557.771 178.44C557.111 179.54 556.267 180.567 555.241 181.52C554.287 182.4 553.261 183.207 552.161 183.94C549.594 185.553 546.587 186.91 543.141 188.01C545.634 186.69 547.834 185.297 549.741 183.83C550.547 183.17 551.317 182.473 552.051 181.74C552.857 181.007 553.517 180.237 554.031 179.43C554.617 178.55 555.021 177.67 555.241 176.79C555.534 175.91 555.607 175.03 555.461 174.15C555.167 172.683 554.691 171.51 554.031 170.63C553.444 169.677 552.711 168.943 551.831 168.43C551.024 167.917 550.181 167.587 549.301 167.44C548.421 167.22 547.614 167.11 546.881 167.11C546.514 167.11 546.147 167.147 545.781 167.22C545.487 167.22 545.194 167.22 544.901 167.22C544.607 167.293 544.351 167.367 544.131 167.44ZM540.831 168.32C539.657 168.467 538.191 169.09 536.431 170.19C534.744 171.29 532.984 172.683 531.151 174.37C529.317 175.983 527.484 177.853 525.651 179.98C523.891 182.033 522.314 184.16 520.921 186.36C519.601 188.487 518.574 190.613 517.841 192.74C517.107 194.867 516.887 196.81 517.181 198.57C517.401 199.817 517.987 200.807 518.941 201.54C519.967 202.2 520.994 202.53 522.021 202.53C523.047 202.53 524.111 202.053 525.211 201.1C526.311 200.073 527.374 198.753 528.401 197.14C529.501 195.527 530.564 193.693 531.591 191.64C532.617 189.587 533.607 187.497 534.561 185.37C536.687 180.383 538.777 174.7 540.831 168.32ZM592.201 137.96C591.981 136.787 591.027 135.76 589.341 134.88C587.654 134 585.161 133.56 581.861 133.56C578.927 133.56 576.214 133.89 573.721 134.55C571.227 135.137 569.064 135.833 567.231 136.64C565.104 137.52 563.161 138.547 561.401 139.72C564.847 140.747 568.404 141.48 572.071 141.92C575.737 142.287 579.367 142.47 582.961 142.47C584.061 142.47 585.161 142.397 586.261 142.25C587.434 142.103 588.461 141.883 589.341 141.59C590.294 141.223 591.027 140.747 591.541 140.16C592.127 139.573 592.347 138.84 592.201 137.96ZM653.151 166.01C654.691 166.01 656.304 165.79 657.991 165.35C659.678 164.91 661.401 164.433 663.161 163.92C664.994 163.407 666.864 162.93 668.771 162.49C670.751 162.05 672.768 161.83 674.821 161.83C678.121 161.83 680.908 162.71 683.181 164.47C685.454 166.23 686.591 168.687 686.591 171.84C686.591 173.82 686.114 175.58 685.161 177.12C684.281 178.587 683.108 179.87 681.641 180.97C680.174 182.07 678.488 182.987 676.581 183.72C674.748 184.453 672.841 185.077 670.861 185.59C668.734 186.103 666.644 186.47 664.591 186.69C662.611 186.837 660.814 187.02 659.201 187.24C657.661 187.387 656.378 187.643 655.351 188.01C654.324 188.377 653.738 189 653.591 189.88C653.371 191.127 653.884 192.117 655.131 192.85C656.451 193.51 657.918 194.207 659.531 194.94C661.218 195.6 662.758 196.443 664.151 197.47C665.618 198.497 666.351 199.963 666.351 201.87C666.351 203.63 665.544 205.243 663.931 206.71C662.318 208.177 660.338 209.46 657.991 210.56C655.644 211.587 653.151 212.357 650.511 212.87C647.944 213.457 645.671 213.75 643.691 213.75C641.784 213.75 639.401 213.53 636.541 213.09C633.754 212.65 630.784 211.99 627.631 211.11C624.551 210.23 621.471 209.13 618.391 207.81C615.311 206.49 612.524 204.987 610.031 203.3C607.611 201.54 605.631 199.56 604.091 197.36C602.551 195.16 601.781 192.777 601.781 190.21C601.781 188.45 602.074 186.983 602.661 185.81C603.248 184.563 603.981 183.573 604.861 182.84C605.814 182.033 606.878 181.483 608.051 181.19C609.224 180.823 610.361 180.64 611.461 180.64C613.661 180.64 615.458 181.447 616.851 183.06C618.244 184.6 619.381 186.433 620.261 188.56C621.214 190.687 621.984 192.887 622.571 195.16C623.231 197.36 623.891 199.083 624.551 200.33C625.284 201.65 626.201 202.97 627.301 204.29C628.401 205.61 629.758 206.82 631.371 207.92C632.984 208.947 634.854 209.827 636.981 210.56C639.108 211.22 641.528 211.55 644.241 211.55C644.828 211.55 645.744 211.477 646.991 211.33C648.311 211.183 649.704 210.963 651.171 210.67C652.711 210.377 654.288 210.01 655.901 209.57C657.514 209.057 658.981 208.433 660.301 207.7C661.694 206.967 662.794 206.123 663.601 205.17C664.481 204.143 664.921 203.007 664.921 201.76C664.921 200.733 664.261 199.89 662.941 199.23C661.621 198.57 659.971 197.947 657.991 197.36C656.011 196.773 653.848 196.223 651.501 195.71C649.154 195.123 646.991 194.427 645.011 193.62C643.031 192.813 641.381 191.86 640.061 190.76C638.741 189.66 638.081 188.267 638.081 186.58C638.081 185.627 638.338 184.82 638.851 184.16C639.438 183.5 640.171 182.95 641.051 182.51C641.931 182.07 642.848 181.74 643.801 181.52C644.828 181.3 645.781 181.19 646.661 181.19C647.541 181.19 648.971 181.227 650.951 181.3C653.004 181.3 655.168 181.337 657.441 181.41C659.788 181.483 662.024 181.557 664.151 181.63C666.351 181.63 668.001 181.63 669.101 181.63C671.008 181.63 672.914 181.447 674.821 181.08C676.728 180.713 678.451 180.163 679.991 179.43C681.531 178.623 682.778 177.633 683.731 176.46C684.758 175.287 685.271 173.893 685.271 172.28C685.271 170.153 684.464 168.43 682.851 167.11C681.238 165.79 678.891 165.13 675.811 165.13C672.511 165.13 668.918 165.863 665.031 167.33C661.144 168.797 657.294 170.41 653.481 172.17C649.668 173.93 646.074 175.543 642.701 177.01C639.328 178.477 636.468 179.21 634.121 179.21C632.801 179.21 631.701 178.843 630.821 178.11C629.941 177.377 629.501 176.35 629.501 175.03C629.501 173.637 629.978 172.317 630.931 171.07C631.958 169.823 633.204 168.613 634.671 167.44C636.211 166.267 637.861 165.13 639.621 164.03C641.381 162.93 642.994 161.903 644.461 160.95C646.001 159.923 647.248 158.97 648.201 158.09C649.228 157.137 649.741 156.257 649.741 155.45C649.741 155.083 649.558 154.643 649.191 154.13C648.898 153.543 648.091 153.25 646.771 153.25C644.351 153.25 642.151 154.093 640.171 155.78C638.191 157.393 636.174 159.227 634.121 161.28C632.141 163.26 629.978 165.093 627.631 166.78C625.358 168.393 622.644 169.2 619.491 169.2C616.704 169.2 614.284 168.54 612.231 167.22C610.251 165.9 608.601 164.287 607.281 162.38C605.961 160.4 604.971 158.347 604.311 156.22C603.651 154.02 603.321 152.04 603.321 150.28C603.321 142.873 605.301 137.153 609.261 133.12C613.294 129.087 618.611 127.07 625.211 127.07C627.778 127.07 629.868 127.473 631.481 128.28C633.094 129.013 634.451 129.857 635.551 130.81C636.651 131.69 637.641 132.533 638.521 133.34C639.474 134.073 640.501 134.477 641.601 134.55H641.821C642.921 134.55 643.691 134.22 644.131 133.56C644.644 132.9 645.084 132.203 645.451 131.47C645.891 130.663 646.368 129.93 646.881 129.27C647.468 128.61 648.384 128.28 649.631 128.28C651.024 128.28 652.784 128.757 654.911 129.71C657.038 130.59 659.091 131.837 661.071 133.45C663.051 134.99 664.738 136.787 666.131 138.84C667.524 140.893 668.221 143.057 668.221 145.33C668.221 147.237 667.744 148.85 666.791 150.17C665.838 151.49 664.518 152.15 662.831 152.15C660.998 152.15 659.641 151.637 658.761 150.61C657.954 149.51 657.404 148.227 657.111 146.76C656.818 145.22 656.671 143.643 656.671 142.03C656.671 140.343 656.524 138.877 656.231 137.63C655.718 135.43 654.911 133.523 653.811 131.91C652.711 130.297 651.318 129.49 649.631 129.49C648.604 129.49 647.944 129.857 647.651 130.59C647.358 131.323 647.248 132.24 647.321 133.34C647.468 134.44 647.651 135.65 647.871 136.97C648.164 138.217 648.311 139.463 648.311 140.71C648.384 141.883 648.238 142.947 647.871 143.9C647.578 144.78 646.844 145.367 645.671 145.66C645.084 145.807 644.644 145.88 644.351 145.88C643.104 145.88 642.078 145.44 641.271 144.56C640.464 143.68 639.694 142.617 638.961 141.37C638.301 140.05 637.604 138.657 636.871 137.19C636.211 135.65 635.404 134.257 634.451 133.01C633.498 131.69 632.324 130.59 630.931 129.71C629.538 128.83 627.814 128.39 625.761 128.39C623.341 128.39 621.361 128.867 619.821 129.82C618.281 130.7 617.511 131.983 617.511 133.67C617.511 135.063 618.208 136.053 619.601 136.64C620.994 137.153 622.498 137.593 624.111 137.96C625.798 138.327 627.338 138.803 628.731 139.39C630.124 139.903 630.821 140.857 630.821 142.25C630.821 143.643 630.014 144.89 628.401 145.99C626.861 147.09 625.138 148.19 623.231 149.29C621.324 150.39 619.564 151.6 617.951 152.92C616.411 154.167 615.641 155.743 615.641 157.65C615.641 159.19 616.154 160.363 617.181 161.17C618.208 161.903 619.491 162.27 621.031 162.27C624.184 162.27 626.788 161.72 628.841 160.62C630.968 159.52 632.911 158.347 634.671 157.1C636.504 155.78 638.374 154.57 640.281 153.47C642.188 152.37 644.498 151.82 647.211 151.82C648.091 151.82 649.044 152.077 650.071 152.59C651.098 153.03 651.611 154.02 651.611 155.56C651.611 156.22 651.464 156.807 651.171 157.32C650.951 157.833 650.694 158.383 650.401 158.97C650.181 159.483 649.924 160.07 649.631 160.73C649.411 161.317 649.301 162.05 649.301 162.93C649.301 163.883 649.668 164.653 650.401 165.24C651.134 165.753 652.051 166.01 653.151 166.01Z" fill="#F2DC1D"/>
</svg>
