<svg width="788" height="720" viewBox="0 0 788 720" fill="none" xmlns="http://www.w3.org/2000/svg">
<path d="M30.9473 20.7647C39.7669 20.7647 46.4997 39.5799 51.1457 77.2104C55.8705 114.073 58.2329 167.831 58.2329 238.484C58.2329 310.673 55.8705 365.967 51.1457 404.365C46.4997 441.995 39.7669 460.811 30.9473 460.811H22.3246V596.741H35.0815V699.265H0V596.741H10.2764V123.289H0V20.7647H30.9473ZM30.8292 365.199C40.6725 365.199 45.5941 323.728 45.5941 240.788C45.5941 162.455 40.6725 123.289 30.8292 123.289H22.4427V365.199H30.8292Z" fill="#F31C29"/>
<path d="M64.2505 20.7647H100.986V123.289H88.3469L88.2288 596.741H108.427L112.798 479.242L122.72 512.649L116.105 699.265H64.2505V596.741H76.2987L76.4169 123.289H64.2505V20.7647Z" fill="#F31C29"/>
<path d="M126.336 699.265V596.741H137.794L156.339 123.289H145.59V20.7647H170.985L192.601 596.741H203.468V699.265H173.584V596.741H180.317L176.655 495.369H152.322L148.543 596.741H155.63V699.265H126.336ZM155.512 408.973H173.584L164.843 146.328L155.512 408.973Z" fill="#F31C29"/>
<path d="M252.471 122.137C252.077 119.833 251.251 117.145 249.991 114.073C248.731 110.233 247.235 106.777 245.502 103.705C243.77 100.633 241.88 99.0975 239.832 99.0975C232.666 99.0975 227.154 122.137 223.296 168.215C219.516 213.525 217.626 277.266 217.626 359.439C217.626 442.379 219.595 506.889 223.532 552.967C227.469 598.277 232.903 620.932 239.832 620.932C241.801 620.932 243.652 619.012 245.384 615.172C247.116 611.332 248.613 607.493 249.873 603.653C251.132 599.045 251.999 595.973 252.471 594.437L254.952 497.673L265.11 520.712L261.803 672.77C261.803 672.77 260.897 676.61 259.086 684.289C257.275 691.969 254.676 699.649 251.29 707.328C247.983 715.776 244.163 720 239.832 720C232.903 720 226.8 706.177 221.524 678.53C216.327 650.883 212.271 610.181 209.358 556.423C206.523 502.665 205.066 437.004 204.987 359.439C204.987 284.946 206.405 220.82 209.239 167.063C212.074 113.305 216.09 71.8346 221.288 42.6518C226.564 13.469 232.706 -0.738422 239.714 0.0295365C244.754 0.0295365 248.928 4.63736 252.235 13.853C255.621 23.0686 258.102 32.6682 259.676 42.6518C261.33 51.8674 262.157 56.8592 262.157 57.6272L265.228 208.533L254.952 230.42L252.471 122.137Z" fill="#F31C29"/>
<path d="M274.423 20.7647H327.577L334.191 214.293L324.269 247.699L319.663 123.289H296.984V300.689H317.773V402.061H296.984V596.741H322.498L326.868 478.09L336.79 511.497L330.175 699.265H274.305V596.741H284.817L284.936 123.289H274.423V20.7647Z" fill="#F31C29"/>
<path d="M345.246 20.7647H375.012V123.289H367.925L367.807 302.993H399.226V123.289H392.257V20.7647H421.787V123.289H411.393L411.156 596.741H421.669V699.265H392.257V596.741H399.226V405.517H367.807V596.741H374.776V699.265H345.246V596.741H355.758V123.289H345.246V20.7647Z" fill="#F31C29"/>
<path d="M465.083 0.0295365C471.776 0.0295365 477.643 14.621 482.682 43.8038C487.801 72.2186 491.778 113.305 494.612 167.063C497.447 220.053 498.865 284.178 498.865 359.439C498.865 433.932 497.447 498.057 494.612 551.815C491.778 605.573 487.84 647.043 482.801 676.226C477.761 705.409 471.894 720 465.201 720C458.586 720 452.719 705.409 447.601 676.226C442.561 647.043 438.624 605.573 435.789 551.815C432.954 498.057 431.537 433.932 431.537 359.439C431.537 284.178 432.954 220.053 435.789 167.063C438.624 113.305 442.561 72.2186 447.601 43.8038C452.641 14.621 458.468 0.0295365 465.083 0.0295365ZM465.201 100.249C458.428 100.249 453.231 122.905 449.609 168.215C445.987 212.757 444.175 276.498 444.175 359.439C444.175 443.147 445.987 507.657 449.609 552.967C453.231 597.509 458.428 619.78 465.201 619.78C471.973 619.78 477.17 597.509 480.792 552.967C484.415 507.657 486.226 443.147 486.226 359.439C486.226 276.498 484.415 212.757 480.792 168.215C477.17 122.905 471.973 100.249 465.201 100.249Z" fill="#F31C29"/>
<path d="M508.698 20.7647H545.433V123.289H532.795L532.676 596.741H552.875L557.245 479.242L567.167 512.649L560.553 699.265H508.698V596.741H520.746L520.865 123.289H508.698V20.7647Z" fill="#F31C29"/>
<path d="M606.456 20.7647C618.032 20.7647 627.009 51.8674 633.387 114.073C639.844 175.51 643.073 261.523 643.073 372.11C643.073 474.25 639.923 554.503 633.623 612.868C627.402 670.466 618.662 699.265 607.401 699.265H574.564V596.741H584.958V123.289H574.564V20.7647H606.456ZM605.275 596.741C613.543 596.741 619.803 577.926 624.056 540.295C628.308 501.897 630.434 445.835 630.434 372.11C630.434 289.938 628.387 228.116 624.292 186.646C620.276 144.408 614.331 123.289 606.456 123.289H597.125V596.741H605.275Z" fill="#F31C29"/>
<path d="M651.621 20.7647H704.775L711.389 214.293L701.467 247.699L696.861 123.289H674.182V300.689H694.971V402.061H674.182V596.741H699.696L704.066 478.09L713.988 511.497L707.373 699.265H651.503V596.741H662.016L662.134 123.289H651.621V20.7647Z" fill="#F31C29"/>
<path d="M722.444 699.265V596.741H732.72V123.289H722.444V20.7647H753.627C760.557 20.7647 765.951 29.2124 769.81 46.1077C773.747 63.003 776.503 87.578 778.078 119.833C779.653 152.087 780.44 191.254 780.44 237.332C780.44 308.753 778.472 362.895 774.534 399.757C770.597 435.852 764.179 453.899 755.281 453.899H744.886V596.741H751.501V699.265H722.444ZM745.005 351.375H753.391C756.698 351.375 759.415 348.303 761.541 342.16C763.667 336.016 765.242 324.88 766.266 308.753C767.29 291.858 767.802 268.051 767.802 237.332C767.802 206.613 767.25 183.19 766.148 167.063C765.045 150.167 763.392 138.648 761.187 132.504C759.061 126.36 756.462 123.289 753.391 123.289H745.005V351.375ZM768.747 699.265L754.454 443.531L766.148 426.252L776.542 596.741H788V699.265H768.747Z" fill="#F31C29"/>
</svg>
