<svg xmlns="http://www.w3.org/2000/svg" viewBox="0 0 1920 1920"><defs><style>.cls-1{fill:#221f20;}.cls-2{fill:#fff;}.cls-3{fill:#78d246;}</style></defs><g id="Layer_2" data-name="Layer 2"><g id="Default"><rect class="cls-1" width="1920" height="1920"/><path class="cls-2" d="M1631.25,940.81V813.72h-45.17v293h45.17V1004l156.2-190.23h-54l-87,106.81C1641.53,926.9,1636.42,933.65,1631.25,940.81Z"/><polygon class="cls-2" points="1205.69 1106.71 1205.69 886.65 1228.49 869.95 1251.29 886.65 1251.29 1106.71 1205.69 1106.71"/><polygon class="cls-2" points="409.49 1106.71 409.49 886.65 432.28 869.95 455.08 886.65 455.08 1106.71 409.49 1106.71"/><polygon class="cls-2" points="1532.04 813.73 1532.04 852.99 1415.09 852.99 1415.09 1067.46 1538.37 1067.46 1538.37 1106.71 1369.93 1106.71 1369.93 813.73 1532.04 813.73"/><polygon class="cls-2" points="789.88 1106.71 789.88 813.73 951.99 813.73 951.99 852.99 835.04 852.99 835.04 1067.46 958.32 1067.46 958.32 1106.71 789.88 1106.71"/><polygon class="cls-2" points="742.16 1106.71 573.72 1106.71 573.72 813.73 735.83 813.73 735.83 852.99 618.88 852.99 618.88 1067.46 742.16 1067.46 742.16 1106.71"/><rect class="cls-2" x="1119.16" y="813.73" width="219.11" height="39.68"/><rect class="cls-2" x="322.95" y="813.73" width="219.11" height="39.68"/><polygon class="cls-2" points="1460.09 934.48 1525.7 934.48 1525.7 973.31 1431.63 973.31 1460.09 934.48"/><polygon class="cls-2" points="880.03 934.48 945.65 934.48 945.65 973.31 851.58 973.31 880.03 934.48"/><polygon class="cls-2" points="663.88 934.48 729.5 934.48 729.5 973.31 635.43 973.31 663.88 934.48"/><polygon class="cls-2" points="1006.02 813.73 1051.2 813.73 1051.2 1067.46 1147.61 1067.46 1147.61 1106.71 1006.02 1106.71 1006.02 813.73"/><path class="cls-2" d="M135.13,1053.52c23.58,10.13,47.64,18.57,68.76,18.57,33.36,0,55.31-19.85,55.31-44.33,0-22.38-15.2-37.58-53.62-52.36-46.41-16.46-75.14-40.53-75.14-84.85,0-48.55,36.72-81.48,96.24-81.48,33.36,0,54.47,6.76,67.13,15.29l-11.47,37.07c-16.42-5.07-35.41-13.51-56.95-13.51-34.61,0-49.39,23.21-49.39,38.41,0,22.39,17.3,35.47,56.57,50.67,48.12,18.57,72.61,41.77,72.61,87.81,0,48.12-32.49,86.12-103.85,86.12-31.66,0-61.64-8-76.83-19.56Z"/><polygon class="cls-3" points="1743.56 1106.71 1675.68 1001.38 1726.81 1001.38 1795.47 1106.71 1743.56 1106.71"/></g></g></svg>