<svg xmlns="http://www.w3.org/2000/svg" viewBox="0 0 1924.67 1080"><defs><style>.cls-1{fill:#fff;}.cls-16,.cls-17,.cls-2,.cls-8{fill:#221f20;}.cls-18,.cls-3{fill:#64b43c;}.cls-4,.cls-5,.cls-6,.cls-7{fill:none;stroke-linecap:round;}.cls-4,.cls-6{stroke:#64b43c;}.cls-4,.cls-5,.cls-6{stroke-linejoin:round;}.cls-4{stroke-width:14px;}.cls-5,.cls-7{stroke:#221f20;}.cls-5{stroke-width:16px;}.cls-6{stroke-width:18px;}.cls-7{stroke-width:20px;}.cls-18,.cls-8{font-size:50px;font-family:CeraPro-Medium, Cera Pro;font-weight:500;}.cls-9{letter-spacing:-0.01em;}.cls-10{letter-spacing:-0.01em;}.cls-11{letter-spacing:-0.01em;}.cls-12{letter-spacing:0.02em;}.cls-13,.cls-14{fill:#211e1f;}.cls-13{letter-spacing:-0.02em;}.cls-15,.cls-17{letter-spacing:-0.03em;}.cls-16{letter-spacing:-0.06em;}.cls-19{letter-spacing:-0.01em;}</style></defs><g id="Layer_2" data-name="Layer 2"><g id="Default"><rect class="cls-1" width="1920" height="1080"/><path class="cls-2" d="M1683.09,794.92V658h-48.66V973.64h48.66V862.94L1851.36,658h-58.21l-93.68,115.06C1694.17,779.94,1688.66,787.21,1683.09,794.92Z"/><polygon class="cls-2" points="1224.67 973.64 1224.67 736.57 1249.23 718.58 1273.79 736.57 1273.79 973.64 1224.67 973.64"/><polygon class="cls-2" points="366.98 973.64 366.98 736.57 391.53 718.58 416.09 736.57 416.09 973.64 366.98 973.64"/><polygon class="cls-2" points="1576.22 658.02 1576.22 700.31 1450.24 700.31 1450.24 931.35 1583.04 931.35 1583.04 973.64 1401.59 973.64 1401.59 658.02 1576.22 658.02"/><polygon class="cls-2" points="776.74 973.64 776.74 658.02 951.37 658.02 951.37 700.31 825.39 700.31 825.39 931.35 958.19 931.35 958.19 973.64 776.74 973.64"/><polygon class="cls-2" points="725.34 973.64 543.89 973.64 543.89 658.02 718.52 658.02 718.52 700.31 592.54 700.31 592.54 931.35 725.34 931.35 725.34 973.64"/><rect class="cls-2" x="1131.45" y="658.02" width="236.03" height="42.74"/><rect class="cls-2" x="273.75" y="658.02" width="236.03" height="42.74"/><polygon class="cls-2" points="1498.71 788.09 1569.39 788.09 1569.39 829.93 1468.06 829.93 1498.71 788.09"/><polygon class="cls-2" points="873.86 788.09 944.54 788.09 944.54 829.93 843.21 829.93 873.86 788.09"/><polygon class="cls-2" points="641.01 788.09 711.7 788.09 711.7 829.93 610.36 829.93 641.01 788.09"/><polygon class="cls-2" points="1009.58 658.02 1058.24 658.02 1058.24 931.35 1162.1 931.35 1162.1 973.64 1009.58 973.64 1009.58 658.02"/><path class="cls-2" d="M71.43,916.34c25.4,10.91,51.32,20,74.07,20,35.93,0,59.58-21.38,59.58-47.75,0-24.11-16.38-40.48-57.76-56.4-50-17.74-80.95-43.66-80.95-91.41,0-52.3,39.56-87.77,103.68-87.77,35.93,0,58.67,7.28,72.31,16.47L230,709.41c-17.68-5.46-38.14-14.55-61.34-14.55-37.29,0-53.21,25-53.21,41.38,0,24.11,18.64,38.21,60.94,54.58,51.84,20,78.22,45,78.22,94.59,0,51.84-35,92.77-111.87,92.77-34.11,0-66.4-8.64-82.77-21.07Z"/><polygon class="cls-3" points="1804.07 973.64 1730.95 860.16 1786.03 860.16 1860 973.64 1804.07 973.64"/><rect class="cls-4" x="880.72" y="238.93" width="158.57" height="158.57" transform="translate(215.23 1002.44) rotate(-60.91)"/><rect class="cls-5" x="854.18" y="212.39" width="211.63" height="211.63" transform="translate(585.45 1257.67) rotate(-86.6)"/><rect class="cls-6" x="818.77" y="176.98" width="282.46" height="282.46" transform="translate(-48.96 387.93) rotate(-22.29)"/><rect class="cls-7" x="774.56" y="132.77" width="370.88" height="370.88" transform="translate(60.08 779.74) rotate(-45.49)"/><text class="cls-8" transform="translate(66.26 127.73)">dar<tspan class="cls-9" x="77.1" y="0">k</tspan><tspan x="103.15" y="0">-g</tspan><tspan class="cls-10" x="152.05" y="0">r</tspan><tspan class="cls-11" x="170.3" y="0">e</tspan><tspan x="198.5" y="0">y:</tspan><tspan x="0" y="60">h</tspan><tspan class="cls-10" x="28.75" y="60">e</tspan><tspan x="56.75" y="60">x: #221f20</tspan><tspan class="cls-10" x="0" y="120">r</tspan><tspan x="18.25" y="120">gb: 3</tspan><tspan class="cls-12" x="136.65" y="120">4</tspan><tspan x="165.75" y="120">, 31, </tspan><tspan class="cls-10" x="268.4" y="120">3</tspan><tspan x="295.05" y="120">2</tspan><tspan x="0" y="180">cmyk: 71%, </tspan><tspan class="cls-13" x="269.55" y="180">6</tspan><tspan class="cls-14" x="296.35" y="180">7%, </tspan><tspan class="cls-14"><tspan x="0" y="240">6</tspan><tspan class="cls-15" x="27.8" y="240">4</tspan><tspan x="54.4" y="240">%, </tspan><tspan class="cls-16" x="124.95" y="240">7</tspan><tspan class="cls-17" x="147.6" y="240">4</tspan><tspan class="cls-2" x="174.2" y="240">%</tspan></tspan></text><text class="cls-18" transform="translate(1401.59 127.73)">g<tspan class="cls-10" x="31.7" y="0">r</tspan><tspan x="49.95" y="0">een:</tspan><tspan x="0" y="60">h</tspan><tspan class="cls-10" x="28.75" y="60">e</tspan><tspan x="56.75" y="60">x: #64b43c</tspan><tspan class="cls-10" x="0" y="120">r</tspan><tspan x="18.25" y="120">gb: 10</tspan><tspan class="cls-19" x="160.25" y="120">0</tspan><tspan x="191" y="120">, 18</tspan><tspan class="cls-10" x="267.65" y="120">0</tspan><tspan x="298.4" y="120">, 60</tspan><tspan x="0" y="180">cmyk: 65%, 5%, </tspan><tspan x="0" y="240">100%, 0%</tspan></text></g></g></svg>