<svg xmlns="http://www.w3.org/2000/svg" viewBox="0 0 1924.67 1080"><defs><style>.cls-1{fill:#221f20;}.cls-2,.cls-3,.cls-4,.cls-5{fill:none;stroke-linecap:round;}.cls-2,.cls-4{stroke:#78d246;}.cls-2,.cls-3,.cls-4{stroke-linejoin:round;}.cls-2{stroke-width:14px;}.cls-3,.cls-5{stroke:#fff;}.cls-3{stroke-width:16px;}.cls-4{stroke-width:18px;}.cls-5{stroke-width:20px;}.cls-6{fill:#fff;}.cls-7,.cls-8{fill:#78d246;}.cls-8{font-size:50px;font-family:CeraPro-Medium, Cera Pro;font-weight:500;}.cls-9{letter-spacing:-0.01em;}.cls-10{letter-spacing:-0.03em;}.cls-11{letter-spacing:-0.01em;}.cls-12{letter-spacing:0em;}.cls-13{letter-spacing:0em;}</style></defs><g id="Layer_2" data-name="Layer 2"><g id="Default"><rect class="cls-1" width="1920" height="1080"/><rect class="cls-2" x="880.72" y="242.45" width="158.57" height="158.57" transform="translate(212.15 1004.25) rotate(-60.91)"/><rect class="cls-3" x="854.18" y="215.91" width="211.63" height="211.63" transform="translate(581.94 1260.97) rotate(-86.6)"/><rect class="cls-4" x="818.77" y="180.5" width="282.46" height="282.46" transform="translate(-50.29 388.19) rotate(-22.29)"/><rect class="cls-5" x="774.56" y="136.29" width="370.88" height="370.88" transform="translate(57.58 780.8) rotate(-45.49)"/><path class="cls-6" d="M1683.09,777.42V640.52h-48.66V956.14h48.66V845.44l168.27-204.92h-58.21l-93.68,115.06C1694.17,762.44,1688.66,769.71,1683.09,777.42Z"/><polygon class="cls-6" points="1224.67 956.14 1224.67 719.07 1249.23 701.08 1273.79 719.07 1273.79 956.14 1224.67 956.14"/><polygon class="cls-6" points="366.98 956.14 366.98 719.07 391.53 701.08 416.09 719.07 416.09 956.14 366.98 956.14"/><polygon class="cls-6" points="1576.22 640.52 1576.22 682.81 1450.24 682.81 1450.24 913.85 1583.04 913.85 1583.04 956.14 1401.59 956.14 1401.59 640.52 1576.22 640.52"/><polygon class="cls-6" points="776.74 956.14 776.74 640.52 951.37 640.52 951.37 682.81 825.39 682.81 825.39 913.85 958.19 913.85 958.19 956.14 776.74 956.14"/><polygon class="cls-6" points="725.34 956.14 543.89 956.14 543.89 640.52 718.52 640.52 718.52 682.81 592.54 682.81 592.54 913.85 725.34 913.85 725.34 956.14"/><rect class="cls-6" x="1131.45" y="640.52" width="236.03" height="42.74"/><rect class="cls-6" x="273.75" y="640.52" width="236.03" height="42.74"/><polygon class="cls-6" points="1498.71 770.59 1569.39 770.59 1569.39 812.43 1468.06 812.43 1498.71 770.59"/><polygon class="cls-6" points="873.86 770.59 944.54 770.59 944.54 812.43 843.21 812.43 873.86 770.59"/><polygon class="cls-6" points="641.01 770.59 711.7 770.59 711.7 812.43 610.36 812.43 641.01 770.59"/><polygon class="cls-6" points="1009.58 640.52 1058.24 640.52 1058.24 913.85 1162.1 913.85 1162.1 956.14 1009.58 956.14 1009.58 640.52"/><path class="cls-6" d="M71.43,898.84c25.4,10.91,51.32,20,74.07,20,35.93,0,59.58-21.38,59.58-47.75,0-24.11-16.38-40.48-57.76-56.4C97.29,797,66.37,771,66.37,723.29c0-52.3,39.56-87.77,103.68-87.77,35.93,0,58.67,7.28,72.31,16.47L230,691.91c-17.68-5.46-38.14-14.55-61.34-14.55-37.29,0-53.21,25-53.21,41.38,0,24.11,18.64,38.21,60.94,54.58,51.84,20,78.22,45,78.22,94.59,0,51.84-35,92.77-111.87,92.77-34.11,0-66.4-8.64-82.77-21.07Z"/><polygon class="cls-7" points="1804.07 956.14 1730.95 842.66 1786.03 842.66 1860 956.14 1804.07 956.14"/><text class="cls-8" transform="translate(1401.59 211.14)">neon-g<tspan class="cls-9" x="165.35" y="0">r</tspan><tspan x="183.6" y="0">een:</tspan><tspan x="0" y="60">h</tspan><tspan class="cls-9" x="28.75" y="60">e</tspan><tspan x="56.75" y="60">x: #</tspan><tspan class="cls-10" x="141.15" y="60">7</tspan><tspan x="165.3" y="60">8d246</tspan><tspan class="cls-9" x="0" y="120">r</tspan><tspan x="18.25" y="120">gb: 12</tspan><tspan class="cls-11" x="157.6" y="120">0</tspan><tspan x="188.35" y="120">, 21</tspan><tspan class="cls-9" x="264.45" y="120">0</tspan><tspan x="295.2" y="120">, </tspan><tspan class="cls-10" x="323.2" y="120">7</tspan><tspan x="347.35" y="120">0</tspan><tspan x="0" y="180">cmyk: 55%, 0%, </tspan><tspan x="0" y="240">95%, 0%</tspan></text><text class="cls-8" transform="translate(66.26 211.14)">typefa<tspan class="cls-9" x="150.3" y="0">c</tspan><tspan x="177.4" y="0">e: </tspan><tspan class="cls-9" x="0" y="60">C</tspan><tspan x="35.35" y="60">e</tspan><tspan class="cls-11" x="63.85" y="60">r</tspan><tspan x="82.1" y="60">a </tspan><tspan class="cls-12" x="122.9" y="60">P</tspan><tspan class="cls-9" x="152" y="60">r</tspan><tspan x="170.25" y="60">o – </tspan><tspan class="cls-13" x="0" y="120">M</tspan><tspan x="39.4" y="120">edium/Light</tspan></text></g></g></svg>