<svg xmlns="http://www.w3.org/2000/svg" viewBox="0 0 1800 325.16"><defs><style>.cls-1{fill:#221f20;}.cls-2{fill:#64b43c;}</style></defs><g id="Layer_2" data-name="Layer 2"><g id="Default"><path class="cls-1" d="M1623.09,141.9V5h-48.66V320.61h48.66V209.92L1791.36,5h-58.21l-93.68,115.06C1634.17,126.91,1628.66,134.19,1623.09,141.9Z"/><polygon class="cls-1" points="1164.67 320.62 1164.67 83.55 1189.23 65.56 1213.79 83.55 1213.79 320.62 1164.67 320.62"/><polygon class="cls-1" points="306.98 320.62 306.98 83.55 331.53 65.56 356.09 83.55 356.09 320.62 306.98 320.62"/><polygon class="cls-1" points="1516.22 5 1516.22 47.29 1390.24 47.29 1390.24 278.33 1523.04 278.33 1523.04 320.62 1341.59 320.62 1341.59 5 1516.22 5"/><polygon class="cls-1" points="716.74 320.62 716.74 5 891.37 5 891.37 47.29 765.39 47.29 765.39 278.33 898.19 278.33 898.19 320.62 716.74 320.62"/><polygon class="cls-1" points="665.34 320.62 483.89 320.62 483.89 5 658.52 5 658.52 47.29 532.54 47.29 532.54 278.33 665.34 278.33 665.34 320.62"/><rect class="cls-1" x="1071.45" y="5" width="236.03" height="42.74"/><rect class="cls-1" x="213.75" y="5" width="236.03" height="42.74"/><polygon class="cls-1" points="1438.71 135.07 1509.39 135.07 1509.39 176.9 1408.06 176.9 1438.71 135.07"/><polygon class="cls-1" points="813.86 135.07 884.54 135.07 884.54 176.9 783.21 176.9 813.86 135.07"/><polygon class="cls-1" points="581.01 135.07 651.7 135.07 651.7 176.9 550.36 176.9 581.01 135.07"/><polygon class="cls-1" points="949.58 5 998.24 5 998.24 278.33 1102.1 278.33 1102.1 320.62 949.58 320.62 949.58 5"/><path class="cls-1" d="M11.43,263.32c25.4,10.91,51.32,20,74.07,20,35.93,0,59.58-21.38,59.58-47.76,0-24.1-16.38-40.47-57.76-56.39-50-17.74-80.95-43.66-80.95-91.41C6.37,35.47,45.93,0,110.05,0,146,0,168.72,7.28,182.36,16.47L170,56.39c-17.68-5.46-38.14-14.56-61.34-14.56-37.29,0-53.21,25-53.21,41.39,0,24.11,18.64,38.21,60.94,54.58,51.84,20,78.22,45,78.22,94.59,0,51.84-35,92.77-111.87,92.77-34.11,0-66.4-8.64-82.77-21.07Z"/><polygon class="cls-2" points="1744.07 320.62 1670.95 207.14 1726.03 207.14 1800 320.62 1744.07 320.62"/></g></g></svg>