<svg id="Default" xmlns="http://www.w3.org/2000/svg" viewBox="0 0 1924.67 2118.17"><defs><style>.cls-1,.cls-13,.cls-21,.cls-22{fill:#221f20;}.cls-2,.cls-23{fill:#64b43c;}.cls-10,.cls-3,.cls-4,.cls-5,.cls-6,.cls-7,.cls-8,.cls-9{fill:none;stroke-linecap:round;}.cls-3,.cls-5{stroke:#64b43c;}.cls-3,.cls-4,.cls-5,.cls-7,.cls-8,.cls-9{stroke-linejoin:round;}.cls-3,.cls-7{stroke-width:14px;}.cls-4,.cls-6{stroke:#221f20;}.cls-4,.cls-8{stroke-width:16px;}.cls-5,.cls-9{stroke-width:18px;}.cls-10,.cls-6{stroke-width:20px;}.cls-7,.cls-9{stroke:#78d246;}.cls-10,.cls-8{stroke:#fff;}.cls-11{fill:#fff;}.cls-12,.cls-25{fill:#78d246;}.cls-13,.cls-23,.cls-25{font-size:50px;font-family:CeraPro-Medium, Cera Pro;font-weight:500;}.cls-14{letter-spacing:-0.01em;}.cls-15{letter-spacing:-0.01em;}.cls-16{letter-spacing:-0.01em;}.cls-17{letter-spacing:0.02em;}.cls-18,.cls-19{fill:#211e1f;}.cls-18{letter-spacing:-0.02em;}.cls-20,.cls-22{letter-spacing:-0.03em;}.cls-21{letter-spacing:-0.06em;}.cls-24{letter-spacing:-0.01em;}.cls-26{letter-spacing:0em;}.cls-27{letter-spacing:0em;}</style></defs><path class="cls-1" d="M1683.09,794.92V658h-48.66V973.64h48.66V862.94L1851.36,658h-58.21l-93.68,115.06C1694.17,779.94,1688.66,787.21,1683.09,794.92Z" transform="translate(0 -41.83)"/><polygon class="cls-1" points="1224.67 931.81 1224.67 694.75 1249.23 676.76 1273.79 694.75 1273.79 931.81 1224.67 931.81"/><polygon class="cls-1" points="366.98 931.81 366.98 694.75 391.53 676.76 416.09 694.75 416.09 931.81 366.98 931.81"/><polygon class="cls-1" points="1576.22 616.2 1576.22 658.49 1450.24 658.49 1450.24 889.52 1583.04 889.52 1583.04 931.81 1401.59 931.81 1401.59 616.2 1576.22 616.2"/><polygon class="cls-1" points="776.74 931.81 776.74 616.2 951.37 616.2 951.37 658.49 825.39 658.49 825.39 889.52 958.19 889.52 958.19 931.81 776.74 931.81"/><polygon class="cls-1" points="725.34 931.81 543.89 931.81 543.89 616.2 718.52 616.2 718.52 658.49 592.54 658.49 592.54 889.52 725.34 889.52 725.34 931.81"/><rect class="cls-1" x="1131.45" y="616.2" width="236.03" height="42.74"/><rect class="cls-1" x="273.75" y="616.2" width="236.03" height="42.74"/><polygon class="cls-1" points="1498.71 746.26 1569.39 746.26 1569.39 788.1 1468.06 788.1 1498.71 746.26"/><polygon class="cls-1" points="873.86 746.26 944.54 746.26 944.54 788.1 843.21 788.1 873.86 746.26"/><polygon class="cls-1" points="641.01 746.26 711.7 746.26 711.7 788.1 610.36 788.1 641.01 746.26"/><polygon class="cls-1" points="1009.58 616.2 1058.24 616.2 1058.24 889.52 1162.1 889.52 1162.1 931.81 1009.58 931.81 1009.58 616.2"/><path class="cls-1" d="M71.43,916.34c25.4,10.91,51.32,20,74.07,20,35.93,0,59.58-21.38,59.58-47.75,0-24.11-16.38-40.48-57.76-56.4-50-17.74-80.95-43.66-80.95-91.41,0-52.3,39.56-87.77,103.68-87.77,35.93,0,58.67,7.28,72.31,16.47L230,709.41c-17.68-5.46-38.14-14.55-61.34-14.55-37.29,0-53.21,25-53.21,41.38,0,24.11,18.64,38.21,60.94,54.58,51.84,20,78.22,45,78.22,94.59,0,51.84-35,92.77-111.87,92.77-34.11,0-66.4-8.64-82.77-21.07Z" transform="translate(0 -41.83)"/><polygon class="cls-2" points="1804.07 931.81 1730.95 818.34 1786.03 818.34 1860 931.81 1804.07 931.81"/><rect class="cls-3" x="880.72" y="238.93" width="158.57" height="158.57" transform="translate(215.23 960.62) rotate(-60.91)"/><rect class="cls-4" x="854.18" y="212.39" width="211.63" height="211.63" transform="translate(585.45 1215.84) rotate(-86.6)"/><rect class="cls-5" x="818.77" y="176.98" width="282.46" height="282.46" transform="translate(-48.96 346.1) rotate(-22.29)"/><rect class="cls-6" x="774.56" y="132.77" width="370.88" height="370.88" transform="translate(60.08 737.92) rotate(-45.49)"/><rect class="cls-1" y="1038.17" width="1920" height="1080"/><rect class="cls-7" x="880.72" y="1322.45" width="158.57" height="158.57" transform="translate(-731.64 1517.39) rotate(-60.91)"/><rect class="cls-8" x="854.18" y="1295.91" width="211.63" height="211.63" transform="translate(-496.16 2235.14) rotate(-86.6)"/><rect class="cls-9" x="818.77" y="1260.5" width="282.46" height="282.46" transform="translate(-459.96 427.08) rotate(-22.29)"/><rect class="cls-10" x="774.56" y="1216.29" width="370.88" height="370.88" transform="translate(-712.61 1061.86) rotate(-45.49)"/><path class="cls-11" d="M1683.09,1857.42v-136.9h-48.66v315.62h48.66v-110.7l168.27-204.92h-58.21l-93.68,115.06C1694.17,1842.44,1688.66,1849.71,1683.09,1857.42Z" transform="translate(0 -41.83)"/><polygon class="cls-11" points="1224.67 1994.31 1224.67 1757.25 1249.23 1739.26 1273.79 1757.25 1273.79 1994.31 1224.67 1994.31"/><polygon class="cls-11" points="366.98 1994.31 366.98 1757.25 391.53 1739.26 416.09 1757.25 416.09 1994.31 366.98 1994.31"/><polygon class="cls-11" points="1576.22 1678.7 1576.22 1720.99 1450.24 1720.99 1450.24 1952.02 1583.04 1952.02 1583.04 1994.31 1401.59 1994.31 1401.59 1678.7 1576.22 1678.7"/><polygon class="cls-11" points="776.74 1994.31 776.74 1678.7 951.37 1678.7 951.37 1720.99 825.39 1720.99 825.39 1952.02 958.19 1952.02 958.19 1994.31 776.74 1994.31"/><polygon class="cls-11" points="725.34 1994.31 543.89 1994.31 543.89 1678.7 718.52 1678.7 718.52 1720.99 592.54 1720.99 592.54 1952.02 725.34 1952.02 725.34 1994.31"/><rect class="cls-11" x="1131.45" y="1678.7" width="236.03" height="42.74"/><rect class="cls-11" x="273.75" y="1678.7" width="236.03" height="42.74"/><polygon class="cls-11" points="1498.71 1808.77 1569.39 1808.77 1569.39 1850.6 1468.06 1850.6 1498.71 1808.77"/><polygon class="cls-11" points="873.86 1808.77 944.54 1808.77 944.54 1850.6 843.21 1850.6 873.86 1808.77"/><polygon class="cls-11" points="641.01 1808.77 711.7 1808.77 711.7 1850.6 610.36 1850.6 641.01 1808.77"/><polygon class="cls-11" points="1009.58 1678.7 1058.24 1678.7 1058.24 1952.02 1162.1 1952.02 1162.1 1994.31 1009.58 1994.31 1009.58 1678.7"/><path class="cls-11" d="M71.43,1978.84c25.4,10.91,51.32,20,74.07,20,35.93,0,59.58-21.38,59.58-47.75,0-24.11-16.38-40.48-57.76-56.4-50-17.74-80.95-43.66-80.95-91.41,0-52.3,39.56-87.77,103.68-87.77,35.93,0,58.67,7.28,72.31,16.47L230,1771.91c-17.68-5.46-38.14-14.55-61.34-14.55-37.29,0-53.21,25-53.21,41.38,0,24.11,18.64,38.21,60.94,54.58,51.84,20,78.22,45,78.22,94.59,0,51.84-35,92.77-111.87,92.77-34.11,0-66.4-8.64-82.77-21.07Z" transform="translate(0 -41.83)"/><polygon class="cls-12" points="1804.07 1994.31 1730.95 1880.84 1786.03 1880.84 1860 1994.31 1804.07 1994.31"/><text class="cls-13" transform="translate(66.26 85.9)">dar<tspan class="cls-14" x="77.1" y="0">k</tspan><tspan x="103.15" y="0">-g</tspan><tspan class="cls-15" x="152.05" y="0">r</tspan><tspan class="cls-16" x="170.3" y="0">e</tspan><tspan x="198.5" y="0">y:</tspan><tspan x="0" y="60">h</tspan><tspan class="cls-15" x="28.75" y="60">e</tspan><tspan x="56.75" y="60">x: #221f20</tspan><tspan class="cls-15" x="0" y="120">r</tspan><tspan x="18.25" y="120">gb: 3</tspan><tspan class="cls-17" x="136.65" y="120">4</tspan><tspan x="165.75" y="120">, 31, </tspan><tspan class="cls-15" x="268.4" y="120">3</tspan><tspan x="295.05" y="120">2</tspan><tspan x="0" y="180">cmyk: 71%, </tspan><tspan class="cls-18" x="269.55" y="180">6</tspan><tspan class="cls-19" x="296.35" y="180">7%, </tspan><tspan class="cls-19"><tspan x="0" y="240">6</tspan><tspan class="cls-20" x="27.8" y="240">4</tspan><tspan x="54.4" y="240">%, </tspan><tspan class="cls-21" x="124.95" y="240">7</tspan><tspan class="cls-22" x="147.6" y="240">4</tspan><tspan class="cls-1" x="174.2" y="240">%</tspan></tspan></text><text class="cls-23" transform="translate(1401.59 85.9)">g<tspan class="cls-15" x="31.7" y="0">r</tspan><tspan x="49.95" y="0">een:</tspan><tspan x="0" y="60">h</tspan><tspan class="cls-15" x="28.75" y="60">e</tspan><tspan x="56.75" y="60">x: #64b43c</tspan><tspan class="cls-15" x="0" y="120">r</tspan><tspan x="18.25" y="120">gb: 10</tspan><tspan class="cls-24" x="160.25" y="120">0</tspan><tspan x="191" y="120">, 18</tspan><tspan class="cls-15" x="267.65" y="120">0</tspan><tspan x="298.4" y="120">, 60</tspan><tspan x="0" y="180">cmyk: 65%, 5%, </tspan><tspan x="0" y="240">100%, 0%</tspan></text><text class="cls-25" transform="translate(1401.59 1249.31)">neon-g<tspan class="cls-15" x="165.35" y="0">r</tspan><tspan x="183.6" y="0">een:</tspan><tspan x="0" y="60">h</tspan><tspan class="cls-15" x="28.75" y="60">e</tspan><tspan x="56.75" y="60">x: #</tspan><tspan class="cls-20" x="141.15" y="60">7</tspan><tspan x="165.3" y="60">8d246</tspan><tspan class="cls-15" x="0" y="120">r</tspan><tspan x="18.25" y="120">gb: 12</tspan><tspan class="cls-24" x="157.6" y="120">0</tspan><tspan x="188.35" y="120">, 21</tspan><tspan class="cls-15" x="264.45" y="120">0</tspan><tspan x="295.2" y="120">, </tspan><tspan class="cls-20" x="323.2" y="120">7</tspan><tspan x="347.35" y="120">0</tspan><tspan x="0" y="180">cmyk: 55%, 0%, </tspan><tspan x="0" y="240">95%, 0%</tspan></text><text class="cls-25" transform="translate(66.26 1249.31)">typefa<tspan class="cls-15" x="150.3" y="0">c</tspan><tspan x="177.4" y="0">e: </tspan><tspan class="cls-15" x="0" y="60">C</tspan><tspan x="35.35" y="60">e</tspan><tspan class="cls-24" x="63.85" y="60">r</tspan><tspan x="82.1" y="60">a </tspan><tspan class="cls-26" x="122.9" y="60">P</tspan><tspan class="cls-15" x="152" y="60">r</tspan><tspan x="170.25" y="60">o – </tspan><tspan class="cls-27" x="0" y="120">M</tspan><tspan x="39.4" y="120">edium/Light</tspan></text></svg>