<svg width="1400" height="1400" viewBox="0 0 1400 1400" fill="none" xmlns="http://www.w3.org/2000/svg">
<g clip-path="url(#clip0_29_39)">
<rect width="1400" height="1400" fill="#FF5794"/>
<path d="M-52 957.453C-45.6732 958.151 -39.2806 956.985 -33.6056 954.099C-27.9307 951.212 -23.22 946.73 -20.0511 941.203C64.4699 809.171 148.315 677.223 231.483 545.36C250.5 515.653 270.025 486.453 289.042 457H298.677C300.402 457.949 302.18 458.797 304.002 459.539C329.359 466.902 354.715 473.504 380.071 481.375C394.888 484.395 408.349 492.09 418.48 503.331C428.61 514.572 434.878 528.768 436.362 543.837C437.804 560.159 436.692 576.608 433.066 592.587C422.163 640.068 409.484 687.295 397.313 734.522C390.721 759.912 384.382 785.303 377.536 812.217L501.274 822.374C586.218 828.721 671.415 835.069 756.359 841.925C781.494 843.602 805.049 854.798 822.239 873.237C839.429 891.677 848.965 915.977 848.909 941.203C848.909 986.906 848.909 1032.86 848.909 1078.57C849.501 1102.04 847.202 1125.49 842.063 1148.39C817.721 1253.17 793.717 1358.12 770.051 1463.24C766.078 1484.54 754.491 1503.66 737.456 1517.03C720.421 1530.4 699.107 1537.09 677.501 1535.86C539.055 1534.33 400.103 1535.86 261.404 1535.86C237.906 1535.34 214.6 1531.49 192.181 1524.43C134.622 1506.91 77.8242 1486.34 20.2654 1468.06C-3.41145 1462.91 -27.5237 1460.02 -51.7465 1459.43" fill="white"/>
<path d="M269.322 162.8L244.322 288H228.122L253.122 162.8H210.522L213.322 148.4H314.722L311.922 162.8H269.322ZM406.85 224.4H339.05L326.25 288H310.05L338.05 148.4H354.25L342.05 210H409.85L422.25 148.4H438.45L410.45 288H394.25L406.85 224.4ZM446.769 288L474.769 148.4H556.969L553.969 162.8H488.169L478.769 210H537.969L535.169 224.4H475.769L465.969 273.6H535.169L532.369 288H446.769ZM607.12 288L635.12 148.4H717.32L714.32 162.8H648.52L639.12 210H698.32L695.52 224.4H636.12L626.32 273.6H695.52L692.72 288H607.12ZM771.406 204L760.406 170.6H759.406L736.006 288H720.206L748.206 148.4H767.006L797.406 232.4L808.406 265.8H809.406L832.806 148.4H848.606L820.606 288H801.806L771.406 204ZM884.925 148.4H925.925C940.858 148.4 952.525 152.933 960.925 162C969.458 171.067 973.725 184.6 973.725 202.6C973.725 213.4 972.192 223.933 969.125 234.2C966.058 244.467 961.525 253.6 955.525 261.6C949.658 269.467 942.392 275.867 933.725 280.8C925.058 285.6 915.192 288 904.125 288H856.925L884.925 148.4ZM904.525 273.6C916.525 273.6 926.658 269.933 934.925 262.6C943.192 255.133 948.725 244.333 951.525 230.2L955.725 209.2C956.525 205.2 956.925 201.133 956.925 197C956.925 185.8 954.058 177.333 948.325 171.6C942.592 165.733 934.858 162.8 925.125 162.8H898.125L876.125 273.6H904.525ZM1086.46 290.4C1079.53 290.4 1073.06 289.267 1067.06 287C1061.19 284.6 1056.06 281.133 1051.66 276.6C1047.39 271.933 1043.99 266.2 1041.46 259.4C1039.06 252.6 1037.86 244.8 1037.86 236C1037.86 224.4 1039.46 213.2 1042.66 202.4C1045.86 191.6 1050.53 182.067 1056.66 173.8C1062.79 165.4 1070.19 158.667 1078.86 153.6C1087.66 148.533 1097.59 146 1108.66 146C1115.59 146 1121.99 147.2 1127.86 149.6C1133.86 152 1138.99 155.533 1143.26 160.2C1147.66 164.733 1151.06 170.4 1153.46 177.2C1155.99 183.867 1157.26 191.6 1157.26 200.4C1157.26 212 1155.66 223.2 1152.46 234C1149.26 244.8 1144.59 254.4 1138.46 262.8C1132.33 271.067 1124.86 277.733 1116.06 282.8C1107.39 287.867 1097.53 290.4 1086.46 290.4ZM1088.06 275.8C1100.46 275.8 1110.79 271.733 1119.06 263.6C1127.33 255.333 1132.93 243.933 1135.86 229.4L1139.86 209.4C1140.39 206.867 1140.73 204.467 1140.86 202.2C1141.13 199.8 1141.26 197.6 1141.26 195.6C1141.26 184.933 1138.26 176.467 1132.26 170.2C1126.26 163.8 1117.86 160.6 1107.06 160.6C1094.66 160.6 1084.33 164.733 1076.06 173C1067.79 181.133 1062.19 192.467 1059.26 207L1055.26 227C1054.73 229.533 1054.33 232 1054.06 234.4C1053.93 236.667 1053.86 238.8 1053.86 240.8C1053.86 251.467 1056.86 260 1062.86 266.4C1068.86 272.667 1077.26 275.8 1088.06 275.8ZM1170.4 288L1198.4 148.4H1278.4L1275.4 162.8H1211.8L1202.4 210H1260.8L1258 224.4H1199.4L1186.6 288H1170.4ZM775.413 497.6H774.613C773.146 500.667 771.213 503.6 768.813 506.4C766.413 509.2 763.546 511.667 760.213 513.8C756.879 515.8 753.079 517.4 748.813 518.6C744.546 519.8 739.879 520.4 734.813 520.4C728.146 520.4 722.079 519.2 716.613 516.8C711.146 514.4 706.413 510.867 702.413 506.2C698.413 501.533 695.279 495.733 693.013 488.8C690.879 481.867 689.813 473.867 689.813 464.8C689.813 453.067 691.346 441.867 694.413 431.2C697.479 420.533 701.946 411.133 707.813 403C713.813 394.733 721.146 388.2 729.813 383.4C738.479 378.467 748.413 376 759.613 376C771.746 376 781.879 378.867 790.013 384.6C798.279 390.2 803.879 397.933 806.813 407.8L792.213 414.4C789.546 406.8 785.413 400.933 779.812 396.8C774.346 392.667 766.946 390.6 757.613 390.6C745.746 390.6 735.746 394.533 727.613 402.4C719.613 410.133 714.213 420.867 711.413 434.6L707.213 455.4C706.413 459.4 706.013 463.4 706.013 467.4C706.013 479.533 708.879 489 714.613 495.8C720.479 502.467 728.813 505.8 739.613 505.8C744.413 505.8 748.946 505.067 753.213 503.6C757.613 502.133 761.613 500 765.213 497.2C768.813 494.4 771.879 490.867 774.413 486.6C777.079 482.333 778.946 477.4 780.013 471.8L782.213 460.8H752.413L755.613 446H801.013L786.613 518H771.213L775.413 497.6ZM818.839 518L846.839 378.4H863.039L838.039 503.6H895.439L892.639 518H818.839ZM962.436 520.4C955.503 520.4 949.036 519.267 943.036 517C937.169 514.6 932.036 511.133 927.636 506.6C923.369 501.933 919.969 496.2 917.436 489.4C915.036 482.6 913.836 474.8 913.836 466C913.836 454.4 915.436 443.2 918.636 432.4C921.836 421.6 926.503 412.067 932.636 403.8C938.769 395.4 946.169 388.667 954.836 383.6C963.636 378.533 973.569 376 984.636 376C991.569 376 997.969 377.2 1003.84 379.6C1009.84 382 1014.97 385.533 1019.24 390.2C1023.64 394.733 1027.04 400.4 1029.44 407.2C1031.97 413.867 1033.24 421.6 1033.24 430.4C1033.24 442 1031.64 453.2 1028.44 464C1025.24 474.8 1020.57 484.4 1014.44 492.8C1008.3 501.067 1000.84 507.733 992.036 512.8C983.369 517.867 973.503 520.4 962.436 520.4ZM964.036 505.8C976.436 505.8 986.769 501.733 995.036 493.6C1003.3 485.333 1008.9 473.933 1011.84 459.4L1015.84 439.4C1016.37 436.867 1016.7 434.467 1016.84 432.2C1017.1 429.8 1017.24 427.6 1017.24 425.6C1017.24 414.933 1014.24 406.467 1008.24 400.2C1002.24 393.8 993.836 390.6 983.036 390.6C970.636 390.6 960.303 394.733 952.036 403C943.769 411.133 938.169 422.467 935.236 437L931.236 457C930.703 459.533 930.303 462 930.036 464.4C929.903 466.667 929.836 468.8 929.836 470.8C929.836 481.467 932.836 490 938.836 496.4C944.836 502.667 953.236 505.8 964.036 505.8ZM1062.58 518H1046.38L1074.38 378.4H1124.18C1130.31 378.4 1135.58 379.267 1139.98 381C1144.38 382.6 1147.98 384.933 1150.78 388C1153.58 390.933 1155.58 394.467 1156.78 398.6C1158.11 402.6 1158.78 407 1158.78 411.8C1158.78 417.133 1157.91 422.267 1156.18 427.2C1154.44 432.133 1151.98 436.6 1148.78 440.6C1145.71 444.467 1141.91 447.8 1137.38 450.6C1132.84 453.4 1127.78 455.333 1122.18 456.4L1142.58 518H1125.18L1106.18 458H1074.58L1062.58 518ZM1114.38 443.8C1121.04 443.8 1126.58 442.133 1130.98 438.8C1135.38 435.333 1138.24 430.333 1139.58 423.8C1140.51 419.267 1141.11 416.067 1141.38 414.2C1141.78 412.333 1141.98 410.6 1141.98 409C1141.98 404.2 1140.58 400.333 1137.78 397.4C1134.98 394.333 1130.04 392.8 1122.98 392.8H1087.58L1077.58 443.8H1114.38ZM1194.77 518L1205.77 463.4L1176.57 378.4H1192.97L1216.17 446.6H1217.17L1267.17 378.4H1285.77L1221.97 463.4L1210.97 518H1194.77Z" fill="white"/>
<line x1="677" y1="453.5" x2="1264" y2="453.5" stroke="white" stroke-width="15"/>
<line x1="192" y1="217.5" x2="1264" y2="217.5" stroke="white" stroke-width="15"/>
</g>
<defs>
<clipPath id="clip0_29_39">
<rect width="1400" height="1400" fill="white"/>
</clipPath>
</defs>
</svg>
