<svg width="744" height="365" viewBox="0 0 744 365" fill="none" xmlns="http://www.w3.org/2000/svg">
<path d="M20.425 10.06H16.85V39.595L19.765 42.51L13.275 49L6.84 42.51L9.7 39.595V10.06H0.79L7.885 2.91H27.52L20.425 10.06ZM44.277 49L37.842 42.51L40.647 39.595V29.365H34.212V39.595L37.017 42.51L30.527 49L24.092 42.51L27.007 39.595V10.06L34.212 2.91V22.435H40.647V10.06L47.852 2.91V39.595L50.767 42.51L44.277 49ZM67.4178 18.64L59.7178 10.775V22.435H70.4428L63.5678 29.365H59.7178V37.34L61.5878 39.155L67.4178 33.325L72.6428 38.44L61.9728 49L52.6228 39.595V12.755L62.5228 2.855L72.8628 13.195L67.4178 18.64ZM100.356 49L89.7409 38.44L94.9109 33.215L100.741 39.155L104.536 35.415L89.5759 20.345V13.305L99.8609 2.855L109.816 12.755L105.086 17.485L95.9559 8.245V17.265L109.816 31.07V39.595L100.356 49ZM118.076 49L111.641 42.51L114.556 39.595V10.06L121.761 2.91V39.595L124.566 42.51L118.076 49ZM145.889 49L139.509 42.51L142.369 39.595V17.045L136.209 10.775V39.595L139.014 42.51L132.524 49L126.089 42.51L129.004 39.595V13.525L139.729 2.91L149.574 12.755V39.595L152.379 42.51L145.889 49ZM160.346 49L153.911 42.51L156.826 39.595V10.06L164.031 2.91V39.595L166.836 42.51L160.346 49ZM177.592 49L166.977 38.44L172.147 33.215L177.977 39.155L181.772 35.415L166.812 20.345V13.305L177.097 2.855L187.052 12.755L182.322 17.485L173.192 8.245V17.265L187.052 31.07V39.595L177.592 49ZM206.104 10.06H202.529V39.595L205.444 42.51L198.954 49L192.519 42.51L195.379 39.595V10.06H186.469L193.564 2.91H213.199L206.104 10.06ZM225.006 18.64L217.306 10.775V22.435H228.031L221.156 29.365H217.306V37.34L219.176 39.155L225.006 33.325L230.231 38.44L219.561 49L210.211 39.595V12.755L220.111 2.855L230.451 13.195L225.006 18.64ZM241.048 7.97V22.105L248.198 15.065L241.048 7.97ZM251.278 49L244.843 42.51L247.648 39.595V32.005L241.433 25.68V39.595L244.293 42.51L237.803 49L231.423 42.51L234.283 39.595V11.545L231.148 8.52L236.868 2.8H246.438L254.578 10.885V18.09L249.573 23.095L254.853 28.485V39.595L257.768 42.51L251.278 49ZM285.981 49L275.366 38.44L280.536 33.215L286.366 39.155L290.161 35.415L275.201 20.345V13.305L285.486 2.855L295.441 12.755L290.711 17.485L281.581 8.245V17.265L295.441 31.07V39.595L285.981 49ZM317.451 49L311.016 42.51L313.821 39.595V29.365H307.386V39.595L310.191 42.51L303.701 49L297.266 42.51L300.181 39.595V10.06L307.386 2.91V22.435H313.821V10.06L321.026 2.91V39.595L323.941 42.51L317.451 49ZM341.637 17.045L335.477 10.775V26.23H341.637V17.045ZM345.157 49L338.777 42.51L341.637 39.595V33.71H335.477V39.595L338.282 42.51L331.792 49L325.357 42.51L328.272 39.595V13.525L338.997 2.91L348.842 12.755V39.595L351.647 42.51L345.157 49ZM369.679 15.725L363.464 9.455V42.73L369.679 36.46V15.725ZM368.469 49H358.899L353.234 43.28L356.314 40.255V11.71L353.179 8.685L358.899 2.965H368.359L376.829 11.435V40.64L368.469 49ZM391.948 16.55L386.173 10.775V37.34L388.043 39.155L391.948 35.25V16.55ZM388.428 49L379.078 39.595V12.755L388.978 2.855L399.098 12.975V38.44L388.428 49ZM399.37 9.4L405.805 2.91L412.295 9.4L409.49 12.315V34.975L415.65 41.135V12.315L412.79 9.4L419.225 2.91L425.66 9.4L422.855 12.315V34.975L429.015 41.135V12.315L426.155 9.4L432.645 2.91L439.025 9.4L436.165 12.315V38.44L425.495 49L418.73 42.345L412.13 49L402.285 39.155V12.315L399.37 9.4ZM469.453 16.55L463.678 10.775V37.34L465.548 39.155L469.453 35.25V16.55ZM465.933 49L456.583 39.595V12.755L466.483 2.855L476.603 12.975V38.44L465.933 49ZM492.238 29.365H488.553V39.595L491.358 42.51L484.868 49L478.433 42.51L481.348 39.595V12.755L491.303 2.855L501.588 13.305L496.198 18.64L488.553 10.775V22.435H499.113L492.238 29.365ZM534.137 17.045L527.977 10.775V26.23H534.137V17.045ZM537.657 49L531.277 42.51L534.137 39.595V33.71H527.977V39.595L530.782 42.51L524.292 49L517.857 42.51L520.772 39.595V13.525L531.497 2.91L541.342 12.755V39.595L544.147 42.51L537.657 49ZM581 49.055L578.745 46.8H563.345L575.06 13.305H570.44L567.855 15.945L561.42 9.4L567.855 2.91L570.275 5.33H585.62L573.245 38.11H578.91L581 36.02L587.435 42.51L581 49.055ZM604.312 18.64L596.612 10.775V22.435H607.337L600.462 29.365H596.612V37.34L598.482 39.155L604.312 33.325L609.537 38.44L598.867 49L589.517 39.595V12.755L599.417 2.855L609.757 13.195L604.312 18.64ZM620.354 8.19V22.27L627.504 15.23L620.354 8.19ZM620.739 31.345V39.595L623.599 42.51L617.109 49L610.729 42.51L613.589 39.595V11.71L610.454 8.685L616.174 2.965H625.744L633.884 10.995V18.255L620.739 31.345ZM644.9 8.19V22.27L652.05 15.23L644.9 8.19ZM645.285 31.345V39.595L648.145 42.51L641.655 49L635.275 42.51L638.135 39.595V11.71L635 8.685L640.72 2.965H650.29L658.43 10.995V18.255L645.285 31.345ZM674.781 18.64L667.081 10.775V22.435H677.806L670.931 29.365H667.081V37.34L668.951 39.155L674.781 33.325L680.006 38.44L669.336 49L659.986 39.595V12.755L669.886 2.855L680.226 13.195L674.781 18.64ZM690.713 49L681.363 39.595V9.95L688.458 2.855V37.34L690.328 39.155L696.158 33.325L701.383 38.44L690.713 49ZM708.52 49L702.085 42.51L705 39.595V10.06L712.205 2.91V39.595L715.01 42.51L708.52 49ZM736.333 49L729.953 42.51L732.813 39.595V17.045L726.653 10.775V39.595L729.458 42.51L722.968 49L716.533 42.51L719.448 39.595V13.525L730.173 2.91L740.018 12.755V39.595L742.823 42.51L736.333 49ZM16.025 80.405L10.25 74.575V92.395L12.065 94.21L16.025 90.25V80.405ZM12.505 104L3.155 94.595V65.06L10.25 57.91V69.46L13.055 66.655L23.175 76.83V93.44L12.505 104ZM46.9324 76.06V102.9L37.1974 112.745L32.4674 108.015L39.7274 100.755V95.75L33.0724 102.405L26.3624 95.75V76.06L23.4474 73.145L29.9374 66.655L36.3724 73.145L33.5674 76.06V92.945L39.7274 86.73V76.06L36.8674 73.145L43.3024 66.655L49.7374 73.145L46.9324 76.06ZM92.1459 50.65L94.0709 52.41L89.4509 57.03L94.0709 61.595L87.5259 68.085L81.1459 61.595L92.1459 50.65ZM77.9009 50.65L79.8809 52.41L75.3159 57.03L79.8809 61.595L73.2809 68.085L67.0109 61.595L77.9009 50.65ZM96.7237 65.06L103.929 57.91V71.055H112.564L105.579 77.985H103.929V94.595L106.734 97.51L100.244 104L93.8088 97.51L96.7237 94.595V65.06ZM129.937 104L123.557 97.51L126.417 94.595V76.115L120.257 82.44V94.595L123.062 97.51L116.572 104L110.137 97.51L113.052 94.595V65.06L120.257 57.91V73.365L126.912 66.655L133.622 73.365V94.595L136.427 97.51L129.937 104ZM145.494 86.235L151.269 80.515L145.494 74.575V86.235ZM145.494 90.25V92.34L147.364 94.155L153.194 88.325L158.419 93.44L147.749 104L138.399 94.595V76.555L148.299 66.655L158.639 77.105L145.494 90.25ZM188.813 80.405L183.038 74.575V92.395L184.853 94.21L188.813 90.25V80.405ZM185.293 104L175.943 94.595V76.61L185.843 66.655L195.963 76.83V93.44L201.518 98.94L196.403 103.945L190.903 98.5L185.293 104ZM213.789 80.405L208.014 74.575V92.395L209.829 94.21L213.789 90.25V80.405ZM210.269 104L200.919 94.595V65.06L208.014 57.91V69.46L210.819 66.655L220.939 76.83V93.44L210.269 104ZM244.696 76.06V102.9L234.961 112.745L230.231 108.015L237.491 100.755V95.75L230.836 102.405L224.126 95.75V76.06L221.211 73.145L227.701 66.655L234.136 73.145L231.331 76.06V92.945L237.491 86.73V76.06L234.631 73.145L241.066 66.655L247.501 73.145L244.696 76.06ZM258.146 104L247.476 93.44L252.701 88.215L258.586 94.155L261.501 91.295V86.51H248.411V77.05L258.751 66.545L268.651 76.445L263.976 81.175L254.846 71.99V82.22H267.606V94.595L258.146 104ZM280.973 104L270.303 93.44L275.528 88.215L281.413 94.155L284.328 91.295V86.51H271.238V77.05L281.578 66.545L291.478 76.445L286.803 81.175L277.673 71.99V82.22H290.433V94.595L280.973 104ZM322.016 80.405L316.241 74.575V92.395L318.056 94.21L322.016 90.25V80.405ZM318.496 104L309.146 94.595V76.61L319.046 66.655L329.166 76.83V93.44L318.496 104ZM341.776 77.985H338.531V105.595L331.436 112.745V67.755L341.336 57.855L347.496 64.18L342.161 69.46L338.531 65.775V71.055H348.596L341.776 77.985ZM378.198 80.405L372.423 74.575V92.395L374.238 94.21L378.198 90.25V80.405ZM374.678 104L365.328 94.595V76.61L375.228 66.655L385.348 76.83V93.44L390.903 98.94L385.788 103.945L380.288 98.5L374.678 104ZM409.663 104L403.283 97.51L406.143 94.595V80.735L399.983 74.52V94.595L402.788 97.51L396.298 104L389.863 97.51L392.778 94.595V77.27L403.503 66.655L413.348 76.5V94.595L416.153 97.51L409.663 104ZM430.996 80.405L425.221 74.575V92.395L427.036 94.21L430.996 90.25V80.405ZM427.476 104L418.126 94.595V76.61L428.026 66.655L438.146 76.83V93.44L443.701 98.94L438.586 103.945L433.086 98.5L427.476 104ZM449.096 104L442.661 97.51L445.576 94.595V65.06L452.781 57.91V94.595L455.586 97.51L449.096 104ZM485.996 80.405L480.221 74.575V92.395L482.036 94.21L485.996 90.25V80.405ZM482.476 104L473.126 94.595V76.61L483.026 66.655L493.146 76.83V93.44L482.476 104ZM508.286 80.405L502.511 74.575V92.395L504.326 94.21L508.286 90.25V80.405ZM504.766 104L502.456 101.8V112.745L495.416 105.595V76.61L505.316 66.655L515.436 76.83V93.44L504.766 104ZM530.576 80.405L524.801 74.575V92.395L526.616 94.21L530.576 90.25V80.405ZM527.056 104L524.746 101.8V112.745L517.706 105.595V76.61L527.606 66.655L537.726 76.83V93.44L527.056 104ZM552.415 79.195L547.85 74.52V94.595L550.655 97.51L544.165 104L537.73 97.51L540.645 94.595V77.38L551.37 66.655L558.135 73.475L552.415 79.195ZM565.353 86.235L571.128 80.515L565.353 74.575V86.235ZM565.353 90.25V92.34L567.223 94.155L573.053 88.325L578.278 93.44L567.608 104L558.258 94.595V76.555L568.158 66.655L578.498 77.105L565.353 90.25ZM590.455 104L579.785 93.44L585.01 88.215L590.895 94.155L593.81 91.295V86.51H580.72V77.05L591.06 66.545L600.96 76.445L596.285 81.175L587.155 71.99V82.22H599.915V94.595L590.455 104ZM613.282 104L602.612 93.44L607.837 88.215L613.722 94.155L616.637 91.295V86.51H603.547V77.05L613.887 66.545L623.787 76.445L619.112 81.175L609.982 71.99V82.22H622.742V94.595L613.282 104ZM632.645 70.89L627.09 65.445L632.645 59.89L638.09 65.445L632.645 70.89ZM631.875 104L625.44 97.51L628.355 94.595V82.33L625.605 79.58L632.7 72.43L635.56 75.235V94.595L638.365 97.51L631.875 104ZM653.198 80.405L647.423 74.575V92.395L649.238 94.21L653.198 90.25V80.405ZM649.678 104L640.328 94.595V76.61L650.228 66.655L660.348 76.83V93.44L649.678 104ZM681.978 104L675.598 97.51L678.458 94.595V80.735L672.298 74.52V94.595L675.103 97.51L668.613 104L662.178 97.51L665.093 94.595V77.27L675.818 66.655L685.663 76.5V94.595L688.468 97.51L681.978 104ZM707.215 70.065L705.235 68.305L709.8 63.74L705.235 59.12L711.835 52.63L718.105 59.12L707.215 70.065ZM692.53 70.065L690.55 68.305L695.17 63.74L690.55 59.12L697.15 52.63L703.475 59.12L692.53 70.065Z" fill="#1D37F2"/>
</svg>
